<?xml version="1.0" encoding="utf-8" standalone="no"?>
<!DOCTYPE svg PUBLIC "-//W3C//DTD SVG 1.1//EN"
  "http://www.w3.org/Graphics/SVG/1.1/DTD/svg11.dtd">
<svg xmlns:xlink="http://www.w3.org/1999/xlink" width="1072.660625pt" height="424.457656pt" viewBox="0 0 1072.660625 424.457656" xmlns="http://www.w3.org/2000/svg" version="1.1">
 <metadata>
  <rdf:RDF xmlns:dc="http://purl.org/dc/elements/1.1/" xmlns:cc="http://creativecommons.org/ns#" xmlns:rdf="http://www.w3.org/1999/02/22-rdf-syntax-ns#">
   <cc:Work>
    <dc:type rdf:resource="http://purl.org/dc/dcmitype/StillImage"/>
    <dc:date>2025-09-23T10:04:34.975187</dc:date>
    <dc:format>image/svg+xml</dc:format>
    <dc:creator>
     <cc:Agent>
      <dc:title>Matplotlib v3.10.1, https://matplotlib.org/</dc:title>
     </cc:Agent>
    </dc:creator>
   </cc:Work>
  </rdf:RDF>
 </metadata>
 <defs>
  <style type="text/css">*{stroke-linejoin: round; stroke-linecap: butt}</style>
 </defs>
 <g id="figure_1">
  <g id="patch_1">
   <path d="M 0 424.457656 
L 1072.660625 424.457656 
L 1072.660625 0 
L 0 0 
z
" style="fill: #ffffff"/>
  </g>
  <g id="axes_1">
   <g id="patch_2">
    <path d="M 49.564375 379.158906 
L 515.879375 379.158906 
L 515.879375 12.518906 
L 49.564375 12.518906 
z
" style="fill: #ffffff"/>
   </g>
   <g id="matplotlib.axis_1">
    <g id="xtick_1">
     <g id="line2d_1">
      <defs>
       <path id="m0c415e9746" d="M 0 0 
L 0 3.5 
" style="stroke: #000000; stroke-width: 0.8"/>
      </defs>
      <g>
       <use xlink:href="#m0c415e9746" x="67.499567" y="379.158906" style="stroke: #000000; stroke-width: 0.8"/>
      </g>
     </g>
     <g id="text_1">
      <!-- 250 -->
      <g transform="translate(54.138317 396.796719) scale(0.14 -0.14)">
       <defs>
        <path id="DejaVuSans-32" d="M 1228 531 
L 3431 531 
L 3431 0 
L 469 0 
L 469 531 
Q 828 903 1448 1529 
Q 2069 2156 2228 2338 
Q 2531 2678 2651 2914 
Q 2772 3150 2772 3378 
Q 2772 3750 2511 3984 
Q 2250 4219 1831 4219 
Q 1534 4219 1204 4116 
Q 875 4013 500 3803 
L 500 4441 
Q 881 4594 1212 4672 
Q 1544 4750 1819 4750 
Q 2544 4750 2975 4387 
Q 3406 4025 3406 3419 
Q 3406 3131 3298 2873 
Q 3191 2616 2906 2266 
Q 2828 2175 2409 1742 
Q 1991 1309 1228 531 
z
" transform="scale(0.015625)"/>
        <path id="DejaVuSans-35" d="M 691 4666 
L 3169 4666 
L 3169 4134 
L 1269 4134 
L 1269 2991 
Q 1406 3038 1543 3061 
Q 1681 3084 1819 3084 
Q 2600 3084 3056 2656 
Q 3513 2228 3513 1497 
Q 3513 744 3044 326 
Q 2575 -91 1722 -91 
Q 1428 -91 1123 -41 
Q 819 9 494 109 
L 494 744 
Q 775 591 1075 516 
Q 1375 441 1709 441 
Q 2250 441 2565 725 
Q 2881 1009 2881 1497 
Q 2881 1984 2565 2268 
Q 2250 2553 1709 2553 
Q 1456 2553 1204 2497 
Q 953 2441 691 2322 
L 691 4666 
z
" transform="scale(0.015625)"/>
        <path id="DejaVuSans-30" d="M 2034 4250 
Q 1547 4250 1301 3770 
Q 1056 3291 1056 2328 
Q 1056 1369 1301 889 
Q 1547 409 2034 409 
Q 2525 409 2770 889 
Q 3016 1369 3016 2328 
Q 3016 3291 2770 3770 
Q 2525 4250 2034 4250 
z
M 2034 4750 
Q 2819 4750 3233 4129 
Q 3647 3509 3647 2328 
Q 3647 1150 3233 529 
Q 2819 -91 2034 -91 
Q 1250 -91 836 529 
Q 422 1150 422 2328 
Q 422 3509 836 4129 
Q 1250 4750 2034 4750 
z
" transform="scale(0.015625)"/>
       </defs>
       <use xlink:href="#DejaVuSans-32"/>
       <use xlink:href="#DejaVuSans-35" transform="translate(63.623047 0)"/>
       <use xlink:href="#DejaVuSans-30" transform="translate(127.246094 0)"/>
      </g>
     </g>
    </g>
    <g id="xtick_2">
     <g id="line2d_2">
      <g>
       <use xlink:href="#m0c415e9746" x="157.175529" y="379.158906" style="stroke: #000000; stroke-width: 0.8"/>
      </g>
     </g>
     <g id="text_2">
      <!-- 300 -->
      <g transform="translate(143.814279 396.796719) scale(0.14 -0.14)">
       <defs>
        <path id="DejaVuSans-33" d="M 2597 2516 
Q 3050 2419 3304 2112 
Q 3559 1806 3559 1356 
Q 3559 666 3084 287 
Q 2609 -91 1734 -91 
Q 1441 -91 1130 -33 
Q 819 25 488 141 
L 488 750 
Q 750 597 1062 519 
Q 1375 441 1716 441 
Q 2309 441 2620 675 
Q 2931 909 2931 1356 
Q 2931 1769 2642 2001 
Q 2353 2234 1838 2234 
L 1294 2234 
L 1294 2753 
L 1863 2753 
Q 2328 2753 2575 2939 
Q 2822 3125 2822 3475 
Q 2822 3834 2567 4026 
Q 2313 4219 1838 4219 
Q 1578 4219 1281 4162 
Q 984 4106 628 3988 
L 628 4550 
Q 988 4650 1302 4700 
Q 1616 4750 1894 4750 
Q 2613 4750 3031 4423 
Q 3450 4097 3450 3541 
Q 3450 3153 3228 2886 
Q 3006 2619 2597 2516 
z
" transform="scale(0.015625)"/>
       </defs>
       <use xlink:href="#DejaVuSans-33"/>
       <use xlink:href="#DejaVuSans-30" transform="translate(63.623047 0)"/>
       <use xlink:href="#DejaVuSans-30" transform="translate(127.246094 0)"/>
      </g>
     </g>
    </g>
    <g id="xtick_3">
     <g id="line2d_3">
      <g>
       <use xlink:href="#m0c415e9746" x="246.85149" y="379.158906" style="stroke: #000000; stroke-width: 0.8"/>
      </g>
     </g>
     <g id="text_3">
      <!-- 350 -->
      <g transform="translate(233.49024 396.796719) scale(0.14 -0.14)">
       <use xlink:href="#DejaVuSans-33"/>
       <use xlink:href="#DejaVuSans-35" transform="translate(63.623047 0)"/>
       <use xlink:href="#DejaVuSans-30" transform="translate(127.246094 0)"/>
      </g>
     </g>
    </g>
    <g id="xtick_4">
     <g id="line2d_4">
      <g>
       <use xlink:href="#m0c415e9746" x="336.527452" y="379.158906" style="stroke: #000000; stroke-width: 0.8"/>
      </g>
     </g>
     <g id="text_4">
      <!-- 400 -->
      <g transform="translate(323.166202 396.796719) scale(0.14 -0.14)">
       <defs>
        <path id="DejaVuSans-34" d="M 2419 4116 
L 825 1625 
L 2419 1625 
L 2419 4116 
z
M 2253 4666 
L 3047 4666 
L 3047 1625 
L 3713 1625 
L 3713 1100 
L 3047 1100 
L 3047 0 
L 2419 0 
L 2419 1100 
L 313 1100 
L 313 1709 
L 2253 4666 
z
" transform="scale(0.015625)"/>
       </defs>
       <use xlink:href="#DejaVuSans-34"/>
       <use xlink:href="#DejaVuSans-30" transform="translate(63.623047 0)"/>
       <use xlink:href="#DejaVuSans-30" transform="translate(127.246094 0)"/>
      </g>
     </g>
    </g>
    <g id="xtick_5">
     <g id="line2d_5">
      <g>
       <use xlink:href="#m0c415e9746" x="426.203413" y="379.158906" style="stroke: #000000; stroke-width: 0.8"/>
      </g>
     </g>
     <g id="text_5">
      <!-- 450 -->
      <g transform="translate(412.842163 396.796719) scale(0.14 -0.14)">
       <use xlink:href="#DejaVuSans-34"/>
       <use xlink:href="#DejaVuSans-35" transform="translate(63.623047 0)"/>
       <use xlink:href="#DejaVuSans-30" transform="translate(127.246094 0)"/>
      </g>
     </g>
    </g>
    <g id="xtick_6">
     <g id="line2d_6">
      <g>
       <use xlink:href="#m0c415e9746" x="515.879375" y="379.158906" style="stroke: #000000; stroke-width: 0.8"/>
      </g>
     </g>
     <g id="text_6">
      <!-- 500 -->
      <g transform="translate(502.518125 396.796719) scale(0.14 -0.14)">
       <use xlink:href="#DejaVuSans-35"/>
       <use xlink:href="#DejaVuSans-30" transform="translate(63.623047 0)"/>
       <use xlink:href="#DejaVuSans-30" transform="translate(127.246094 0)"/>
      </g>
     </g>
    </g>
    <g id="text_7">
     <!-- Time / h -->
     <g transform="translate(254.351094 414.346094) scale(0.14 -0.14)">
      <defs>
       <path id="DejaVuSans-54" d="M -19 4666 
L 3928 4666 
L 3928 4134 
L 2272 4134 
L 2272 0 
L 1638 0 
L 1638 4134 
L -19 4134 
L -19 4666 
z
" transform="scale(0.015625)"/>
       <path id="DejaVuSans-69" d="M 603 3500 
L 1178 3500 
L 1178 0 
L 603 0 
L 603 3500 
z
M 603 4863 
L 1178 4863 
L 1178 4134 
L 603 4134 
L 603 4863 
z
" transform="scale(0.015625)"/>
       <path id="DejaVuSans-6d" d="M 3328 2828 
Q 3544 3216 3844 3400 
Q 4144 3584 4550 3584 
Q 5097 3584 5394 3201 
Q 5691 2819 5691 2113 
L 5691 0 
L 5113 0 
L 5113 2094 
Q 5113 2597 4934 2840 
Q 4756 3084 4391 3084 
Q 3944 3084 3684 2787 
Q 3425 2491 3425 1978 
L 3425 0 
L 2847 0 
L 2847 2094 
Q 2847 2600 2669 2842 
Q 2491 3084 2119 3084 
Q 1678 3084 1418 2786 
Q 1159 2488 1159 1978 
L 1159 0 
L 581 0 
L 581 3500 
L 1159 3500 
L 1159 2956 
Q 1356 3278 1631 3431 
Q 1906 3584 2284 3584 
Q 2666 3584 2933 3390 
Q 3200 3197 3328 2828 
z
" transform="scale(0.015625)"/>
       <path id="DejaVuSans-65" d="M 3597 1894 
L 3597 1613 
L 953 1613 
Q 991 1019 1311 708 
Q 1631 397 2203 397 
Q 2534 397 2845 478 
Q 3156 559 3463 722 
L 3463 178 
Q 3153 47 2828 -22 
Q 2503 -91 2169 -91 
Q 1331 -91 842 396 
Q 353 884 353 1716 
Q 353 2575 817 3079 
Q 1281 3584 2069 3584 
Q 2775 3584 3186 3129 
Q 3597 2675 3597 1894 
z
M 3022 2063 
Q 3016 2534 2758 2815 
Q 2500 3097 2075 3097 
Q 1594 3097 1305 2825 
Q 1016 2553 972 2059 
L 3022 2063 
z
" transform="scale(0.015625)"/>
       <path id="DejaVuSans-20" transform="scale(0.015625)"/>
       <path id="DejaVuSans-2f" d="M 1625 4666 
L 2156 4666 
L 531 -594 
L 0 -594 
L 1625 4666 
z
" transform="scale(0.015625)"/>
       <path id="DejaVuSans-68" d="M 3513 2113 
L 3513 0 
L 2938 0 
L 2938 2094 
Q 2938 2591 2744 2837 
Q 2550 3084 2163 3084 
Q 1697 3084 1428 2787 
Q 1159 2491 1159 1978 
L 1159 0 
L 581 0 
L 581 4863 
L 1159 4863 
L 1159 2956 
Q 1366 3272 1645 3428 
Q 1925 3584 2291 3584 
Q 2894 3584 3203 3211 
Q 3513 2838 3513 2113 
z
" transform="scale(0.015625)"/>
      </defs>
      <use xlink:href="#DejaVuSans-54"/>
      <use xlink:href="#DejaVuSans-69" transform="translate(57.958984 0)"/>
      <use xlink:href="#DejaVuSans-6d" transform="translate(85.742188 0)"/>
      <use xlink:href="#DejaVuSans-65" transform="translate(183.154297 0)"/>
      <use xlink:href="#DejaVuSans-20" transform="translate(244.677734 0)"/>
      <use xlink:href="#DejaVuSans-2f" transform="translate(276.464844 0)"/>
      <use xlink:href="#DejaVuSans-20" transform="translate(310.15625 0)"/>
      <use xlink:href="#DejaVuSans-68" transform="translate(341.943359 0)"/>
     </g>
    </g>
   </g>
   <g id="matplotlib.axis_2">
    <g id="ytick_1">
     <g id="line2d_7">
      <defs>
       <path id="m20175d4c57" d="M 0 0 
L -3.5 0 
" style="stroke: #000000; stroke-width: 0.8"/>
      </defs>
      <g>
       <use xlink:href="#m20175d4c57" x="49.564375" y="379.158906" style="stroke: #000000; stroke-width: 0.8"/>
      </g>
     </g>
     <g id="text_8">
      <!-- 0 -->
      <g transform="translate(33.656875 384.477812) scale(0.14 -0.14)">
       <use xlink:href="#DejaVuSans-30"/>
      </g>
     </g>
    </g>
    <g id="ytick_2">
     <g id="line2d_8">
      <g>
       <use xlink:href="#m20175d4c57" x="49.564375" y="305.830906" style="stroke: #000000; stroke-width: 0.8"/>
      </g>
     </g>
     <g id="text_9">
      <!-- 10 -->
      <g transform="translate(24.749375 311.149812) scale(0.14 -0.14)">
       <defs>
        <path id="DejaVuSans-31" d="M 794 531 
L 1825 531 
L 1825 4091 
L 703 3866 
L 703 4441 
L 1819 4666 
L 2450 4666 
L 2450 531 
L 3481 531 
L 3481 0 
L 794 0 
L 794 531 
z
" transform="scale(0.015625)"/>
       </defs>
       <use xlink:href="#DejaVuSans-31"/>
       <use xlink:href="#DejaVuSans-30" transform="translate(63.623047 0)"/>
      </g>
     </g>
    </g>
    <g id="ytick_3">
     <g id="line2d_9">
      <g>
       <use xlink:href="#m20175d4c57" x="49.564375" y="232.502906" style="stroke: #000000; stroke-width: 0.8"/>
      </g>
     </g>
     <g id="text_10">
      <!-- 20 -->
      <g transform="translate(24.749375 237.821812) scale(0.14 -0.14)">
       <use xlink:href="#DejaVuSans-32"/>
       <use xlink:href="#DejaVuSans-30" transform="translate(63.623047 0)"/>
      </g>
     </g>
    </g>
    <g id="ytick_4">
     <g id="line2d_10">
      <g>
       <use xlink:href="#m20175d4c57" x="49.564375" y="159.174906" style="stroke: #000000; stroke-width: 0.8"/>
      </g>
     </g>
     <g id="text_11">
      <!-- 30 -->
      <g transform="translate(24.749375 164.493812) scale(0.14 -0.14)">
       <use xlink:href="#DejaVuSans-33"/>
       <use xlink:href="#DejaVuSans-30" transform="translate(63.623047 0)"/>
      </g>
     </g>
    </g>
    <g id="ytick_5">
     <g id="line2d_11">
      <g>
       <use xlink:href="#m20175d4c57" x="49.564375" y="85.846906" style="stroke: #000000; stroke-width: 0.8"/>
      </g>
     </g>
     <g id="text_12">
      <!-- 40 -->
      <g transform="translate(24.749375 91.165812) scale(0.14 -0.14)">
       <use xlink:href="#DejaVuSans-34"/>
       <use xlink:href="#DejaVuSans-30" transform="translate(63.623047 0)"/>
      </g>
     </g>
    </g>
    <g id="ytick_6">
     <g id="line2d_12">
      <g>
       <use xlink:href="#m20175d4c57" x="49.564375" y="12.518906" style="stroke: #000000; stroke-width: 0.8"/>
      </g>
     </g>
     <g id="text_13">
      <!-- 50 -->
      <g transform="translate(24.749375 17.837812) scale(0.14 -0.14)">
       <use xlink:href="#DejaVuSans-35"/>
       <use xlink:href="#DejaVuSans-30" transform="translate(63.623047 0)"/>
      </g>
     </g>
    </g>
    <g id="text_14">
     <!-- Heat transfer rate / kW -->
     <g transform="translate(17.837813 276.537969) rotate(-90) scale(0.14 -0.14)">
      <defs>
       <path id="DejaVuSans-48" d="M 628 4666 
L 1259 4666 
L 1259 2753 
L 3553 2753 
L 3553 4666 
L 4184 4666 
L 4184 0 
L 3553 0 
L 3553 2222 
L 1259 2222 
L 1259 0 
L 628 0 
L 628 4666 
z
" transform="scale(0.015625)"/>
       <path id="DejaVuSans-61" d="M 2194 1759 
Q 1497 1759 1228 1600 
Q 959 1441 959 1056 
Q 959 750 1161 570 
Q 1363 391 1709 391 
Q 2188 391 2477 730 
Q 2766 1069 2766 1631 
L 2766 1759 
L 2194 1759 
z
M 3341 1997 
L 3341 0 
L 2766 0 
L 2766 531 
Q 2569 213 2275 61 
Q 1981 -91 1556 -91 
Q 1019 -91 701 211 
Q 384 513 384 1019 
Q 384 1609 779 1909 
Q 1175 2209 1959 2209 
L 2766 2209 
L 2766 2266 
Q 2766 2663 2505 2880 
Q 2244 3097 1772 3097 
Q 1472 3097 1187 3025 
Q 903 2953 641 2809 
L 641 3341 
Q 956 3463 1253 3523 
Q 1550 3584 1831 3584 
Q 2591 3584 2966 3190 
Q 3341 2797 3341 1997 
z
" transform="scale(0.015625)"/>
       <path id="DejaVuSans-74" d="M 1172 4494 
L 1172 3500 
L 2356 3500 
L 2356 3053 
L 1172 3053 
L 1172 1153 
Q 1172 725 1289 603 
Q 1406 481 1766 481 
L 2356 481 
L 2356 0 
L 1766 0 
Q 1100 0 847 248 
Q 594 497 594 1153 
L 594 3053 
L 172 3053 
L 172 3500 
L 594 3500 
L 594 4494 
L 1172 4494 
z
" transform="scale(0.015625)"/>
       <path id="DejaVuSans-72" d="M 2631 2963 
Q 2534 3019 2420 3045 
Q 2306 3072 2169 3072 
Q 1681 3072 1420 2755 
Q 1159 2438 1159 1844 
L 1159 0 
L 581 0 
L 581 3500 
L 1159 3500 
L 1159 2956 
Q 1341 3275 1631 3429 
Q 1922 3584 2338 3584 
Q 2397 3584 2469 3576 
Q 2541 3569 2628 3553 
L 2631 2963 
z
" transform="scale(0.015625)"/>
       <path id="DejaVuSans-6e" d="M 3513 2113 
L 3513 0 
L 2938 0 
L 2938 2094 
Q 2938 2591 2744 2837 
Q 2550 3084 2163 3084 
Q 1697 3084 1428 2787 
Q 1159 2491 1159 1978 
L 1159 0 
L 581 0 
L 581 3500 
L 1159 3500 
L 1159 2956 
Q 1366 3272 1645 3428 
Q 1925 3584 2291 3584 
Q 2894 3584 3203 3211 
Q 3513 2838 3513 2113 
z
" transform="scale(0.015625)"/>
       <path id="DejaVuSans-73" d="M 2834 3397 
L 2834 2853 
Q 2591 2978 2328 3040 
Q 2066 3103 1784 3103 
Q 1356 3103 1142 2972 
Q 928 2841 928 2578 
Q 928 2378 1081 2264 
Q 1234 2150 1697 2047 
L 1894 2003 
Q 2506 1872 2764 1633 
Q 3022 1394 3022 966 
Q 3022 478 2636 193 
Q 2250 -91 1575 -91 
Q 1294 -91 989 -36 
Q 684 19 347 128 
L 347 722 
Q 666 556 975 473 
Q 1284 391 1588 391 
Q 1994 391 2212 530 
Q 2431 669 2431 922 
Q 2431 1156 2273 1281 
Q 2116 1406 1581 1522 
L 1381 1569 
Q 847 1681 609 1914 
Q 372 2147 372 2553 
Q 372 3047 722 3315 
Q 1072 3584 1716 3584 
Q 2034 3584 2315 3537 
Q 2597 3491 2834 3397 
z
" transform="scale(0.015625)"/>
       <path id="DejaVuSans-66" d="M 2375 4863 
L 2375 4384 
L 1825 4384 
Q 1516 4384 1395 4259 
Q 1275 4134 1275 3809 
L 1275 3500 
L 2222 3500 
L 2222 3053 
L 1275 3053 
L 1275 0 
L 697 0 
L 697 3053 
L 147 3053 
L 147 3500 
L 697 3500 
L 697 3744 
Q 697 4328 969 4595 
Q 1241 4863 1831 4863 
L 2375 4863 
z
" transform="scale(0.015625)"/>
       <path id="DejaVuSans-6b" d="M 581 4863 
L 1159 4863 
L 1159 1991 
L 2875 3500 
L 3609 3500 
L 1753 1863 
L 3688 0 
L 2938 0 
L 1159 1709 
L 1159 0 
L 581 0 
L 581 4863 
z
" transform="scale(0.015625)"/>
       <path id="DejaVuSans-57" d="M 213 4666 
L 850 4666 
L 1831 722 
L 2809 4666 
L 3519 4666 
L 4500 722 
L 5478 4666 
L 6119 4666 
L 4947 0 
L 4153 0 
L 3169 4050 
L 2175 0 
L 1381 0 
L 213 4666 
z
" transform="scale(0.015625)"/>
      </defs>
      <use xlink:href="#DejaVuSans-48"/>
      <use xlink:href="#DejaVuSans-65" transform="translate(75.195312 0)"/>
      <use xlink:href="#DejaVuSans-61" transform="translate(136.71875 0)"/>
      <use xlink:href="#DejaVuSans-74" transform="translate(197.998047 0)"/>
      <use xlink:href="#DejaVuSans-20" transform="translate(237.207031 0)"/>
      <use xlink:href="#DejaVuSans-74" transform="translate(268.994141 0)"/>
      <use xlink:href="#DejaVuSans-72" transform="translate(308.203125 0)"/>
      <use xlink:href="#DejaVuSans-61" transform="translate(349.316406 0)"/>
      <use xlink:href="#DejaVuSans-6e" transform="translate(410.595703 0)"/>
      <use xlink:href="#DejaVuSans-73" transform="translate(473.974609 0)"/>
      <use xlink:href="#DejaVuSans-66" transform="translate(526.074219 0)"/>
      <use xlink:href="#DejaVuSans-65" transform="translate(561.279297 0)"/>
      <use xlink:href="#DejaVuSans-72" transform="translate(622.802734 0)"/>
      <use xlink:href="#DejaVuSans-20" transform="translate(663.916016 0)"/>
      <use xlink:href="#DejaVuSans-72" transform="translate(695.703125 0)"/>
      <use xlink:href="#DejaVuSans-61" transform="translate(736.816406 0)"/>
      <use xlink:href="#DejaVuSans-74" transform="translate(798.095703 0)"/>
      <use xlink:href="#DejaVuSans-65" transform="translate(837.304688 0)"/>
      <use xlink:href="#DejaVuSans-20" transform="translate(898.828125 0)"/>
      <use xlink:href="#DejaVuSans-2f" transform="translate(930.615234 0)"/>
      <use xlink:href="#DejaVuSans-20" transform="translate(964.306641 0)"/>
      <use xlink:href="#DejaVuSans-6b" transform="translate(996.09375 0)"/>
      <use xlink:href="#DejaVuSans-57" transform="translate(1054.003906 0)"/>
     </g>
    </g>
   </g>
   <g id="line2d_13">
    <path d="M 49.564375 203.767863 
L 53.151413 193.223296 
L 54.944933 188.509039 
L 56.738452 184.594791 
L 58.531971 181.754064 
L 60.32549 180.189244 
L 62.11901 180.007391 
L 63.912529 181.198971 
L 65.706048 183.726587 
L 67.499567 187.379788 
L 69.293087 191.986986 
L 72.880125 202.555751 
L 74.673644 207.815568 
L 76.467163 212.639084 
L 78.260683 216.617128 
L 80.054202 219.534849 
L 81.847721 221.18033 
L 83.64124 221.423779 
L 85.43476 220.309193 
L 87.228279 217.848305 
L 89.021798 214.264033 
L 90.815317 209.76756 
L 94.402356 199.349851 
L 96.195875 194.147229 
L 97.989394 189.401441 
L 99.782913 185.501858 
L 101.576433 182.6274 
L 103.369952 181.084579 
L 105.163471 180.872661 
L 106.95699 182.091373 
L 108.75051 184.600657 
L 110.544029 188.258258 
L 112.337548 192.829525 
L 115.924587 203.388024 
L 117.718106 208.675706 
L 119.511625 213.465491 
L 121.305144 217.446468 
L 123.098663 220.370789 
L 124.892183 221.987671 
L 126.685702 222.272917 
L 128.479221 221.122401 
L 130.27274 218.690111 
L 132.06626 215.068441 
L 133.859779 210.563169 
L 137.446817 200.13886 
L 139.240337 194.910574 
L 141.033856 190.200716 
L 142.827375 186.262269 
L 144.620894 183.414943 
L 146.414413 181.836191 
L 148.207933 181.622074 
L 150.001452 182.835652 
L 151.794971 185.346403 
L 153.58849 189.029668 
L 155.38201 193.576004 
L 158.969048 204.113238 
L 160.762567 209.40532 
L 162.556087 214.168706 
L 164.349606 218.181948 
L 166.143125 221.071804 
L 167.936644 222.723884 
L 169.730163 222.968066 
L 171.523683 221.820483 
L 173.317202 219.363262 
L 175.110721 215.761391 
L 176.90424 211.249519 
L 180.491279 200.815678 
L 182.284798 195.589591 
L 184.078317 190.866535 
L 185.871837 186.903889 
L 187.665356 184.082228 
L 189.458875 182.464612 
L 191.252394 182.304024 
L 193.045913 183.470672 
L 194.839433 185.993156 
L 196.632952 189.650756 
L 198.426471 194.197826 
L 205.600548 214.811793 
L 207.394067 218.779571 
L 209.187587 221.693626 
L 210.981106 223.322974 
L 212.774625 223.558357 
L 214.568144 222.435705 
L 216.361663 219.935954 
L 218.155183 216.364147 
L 219.948702 211.82441 
L 223.53574 201.391302 
L 225.32926 196.187948 
L 227.122779 191.434093 
L 228.916298 187.492713 
L 230.709817 184.632921 
L 232.503337 183.056369 
L 234.296856 182.840785 
L 236.090375 184.047764 
L 237.883894 186.547515 
L 239.677413 190.19925 
L 241.470933 194.762451 
L 245.057971 205.298218 
L 246.85149 210.551436 
L 248.64501 215.358087 
L 250.438529 219.315599 
L 252.232048 222.214988 
L 254.025567 223.837003 
L 255.819087 224.100251 
L 257.612606 222.932136 
L 259.406125 220.49178 
L 261.199644 216.862044 
L 262.993163 212.354572 
L 266.580202 201.883333 
L 268.373721 196.670446 
L 270.16724 191.926124 
L 271.96076 187.992077 
L 273.754279 185.130818 
L 275.547798 183.544 
L 277.341317 183.318884 
L 279.134837 184.525862 
L 280.928356 187.003616 
L 282.721875 190.686881 
L 284.515394 195.220018 
L 291.689471 215.789255 
L 293.48299 219.771699 
L 295.27651 222.662289 
L 297.070029 224.301903 
L 298.863548 224.541685 
L 300.657067 223.384569 
L 302.450587 220.924415 
L 304.244106 217.286613 
L 306.037625 212.790873 
L 313.211702 192.352893 
L 315.005221 188.399781 
L 316.79874 185.533389 
L 318.59226 183.934105 
L 320.385779 183.736853 
L 322.179298 184.910834 
L 323.972817 187.434051 
L 325.766337 191.072586 
L 327.559856 195.631388 
L 331.146894 206.134891 
L 332.940413 211.413773 
L 334.733933 216.155895 
L 336.527452 220.164737 
L 338.320971 223.034795 
L 340.11449 224.693474 
L 341.90801 224.918591 
L 343.701529 223.761475 
L 345.495048 221.295455 
L 347.288567 217.667919 
L 349.082087 213.145781 
L 352.669125 202.679675 
L 354.462644 197.469721 
L 356.256163 192.711467 
L 358.049683 188.766421 
L 359.843202 185.905162 
L 361.636721 184.28828 
L 363.43024 184.095427 
L 365.22376 185.270875 
L 367.017279 187.794091 
L 368.810798 191.423094 
L 370.604317 195.96723 
L 374.191356 206.494198 
L 375.984875 211.73055 
L 377.778394 216.535001 
L 379.571913 220.48738 
L 381.365433 223.393369 
L 383.158952 225.008051 
L 384.952471 225.238301 
L 386.74599 224.089252 
L 388.53951 221.617365 
L 390.333029 217.994228 
L 392.126548 213.477223 
L 395.713587 202.995719 
L 397.507106 197.779898 
L 399.300625 193.003312 
L 401.094144 189.087597 
L 402.887663 186.199941 
L 404.681183 184.623389 
L 406.474702 184.390939 
L 408.268221 185.568587 
L 410.06174 188.062472 
L 411.85526 191.720072 
L 413.648779 196.254676 
L 420.822856 216.811448 
L 422.616375 220.760894 
L 424.409894 223.672748 
L 426.203413 225.284498 
L 427.996933 225.544812 
L 429.790452 224.368631 
L 431.583971 221.893078 
L 433.37749 218.258942 
L 435.17101 213.74927 
L 442.345087 193.290025 
L 444.138606 189.33178 
L 445.932125 186.450722 
L 447.725644 184.869037 
L 449.519163 184.625588 
L 451.312683 185.831101 
L 453.106202 188.31472 
L 454.899721 191.973054 
L 456.69324 196.513524 
L 463.867317 217.033631 
L 465.660837 221.011675 
L 467.454356 223.886866 
L 469.247875 225.534546 
L 471.041394 225.753064 
L 472.834913 224.617213 
L 474.628433 222.126994 
L 476.421952 218.503124 
L 478.215471 213.978787 
L 485.389548 193.526874 
L 487.183067 189.563496 
L 488.976587 186.696371 
L 490.770106 185.078022 
L 492.563625 184.879303 
L 494.357144 186.029086 
L 496.150663 188.554503 
L 497.944183 192.179106 
L 499.737702 196.738641 
L 503.32474 207.229678 
L 505.11826 212.485096 
L 506.911779 217.262415 
L 508.705298 221.22286 
L 510.498817 224.122249 
L 512.292337 225.736932 
L 514.085856 225.963515 
L 515.879375 224.815199 
L 517.672894 222.312514 
L 519.466413 218.710643 
L 521.259933 214.16944 
L 523.053452 209.063611 
L 523.053452 209.063611 
" clip-path="url(#p4283b9c1c7)" style="fill: none; stroke: #000004; stroke-width: 1.5; stroke-linecap: square"/>
   </g>
   <g id="line2d_14">
    <path d="M 49.564375 308.931141 
L 51.357894 309.820976 
L 53.151413 310.401074 
L 54.944933 310.647823 
L 56.738452 310.525291 
L 58.531971 310.043893 
L 60.32549 309.243885 
L 62.11901 308.177329 
L 65.706048 305.516329 
L 69.293087 302.825925 
L 71.086606 301.647544 
L 72.880125 300.78594 
L 74.673644 300.176584 
L 76.467163 299.961 
L 78.260683 300.070259 
L 80.054202 300.550557 
L 81.847721 301.354965 
L 83.64124 302.407222 
L 87.228279 305.060229 
L 90.815317 307.782824 
L 92.608837 308.925861 
L 94.402356 309.827356 
L 96.195875 310.421386 
L 97.989394 310.642983 
L 99.782913 310.54047 
L 101.576433 310.030914 
L 103.369952 309.258844 
L 105.163471 308.167356 
L 108.75051 305.526595 
L 112.337548 302.814926 
L 114.131067 301.677608 
L 115.924587 300.774941 
L 117.718106 300.197849 
L 119.511625 299.953667 
L 121.305144 300.070992 
L 123.098663 300.563023 
L 124.892183 301.343966 
L 126.685702 302.442419 
L 128.479221 303.698528 
L 133.859779 307.784364 
L 135.653298 308.921901 
L 137.446817 309.832709 
L 139.240337 310.405694 
L 141.033856 310.667914 
L 142.827375 310.531231 
L 144.620894 310.054159 
L 146.414413 309.250778 
L 148.207933 308.161783 
L 151.794971 305.526595 
L 155.38201 302.825192 
L 157.175529 301.678342 
L 158.969048 300.773474 
L 160.762567 300.205915 
L 162.556087 299.939001 
L 164.349606 300.09299 
L 166.143125 300.55569 
L 167.936644 301.374764 
L 169.730163 302.437286 
L 173.317202 305.080028 
L 176.90424 307.787591 
L 178.69776 308.9395 
L 180.491279 309.835055 
L 182.284798 310.414493 
L 184.078317 310.667988 
L 185.871837 310.511652 
L 187.665356 310.064718 
L 189.458875 309.225919 
L 191.252394 308.194928 
L 194.839433 305.533195 
L 198.426471 302.814926 
L 200.21999 301.680541 
L 202.01351 300.78374 
L 203.807029 300.190516 
L 205.600548 299.964666 
L 207.394067 300.077591 
L 209.187587 300.567422 
L 210.981106 301.368164 
L 212.774625 302.425554 
L 216.361663 305.058029 
L 218.155183 306.490712 
L 221.742221 308.952406 
L 223.53574 309.831535 
L 225.32926 310.437665 
L 227.122779 310.663808 
L 228.916298 310.532258 
L 230.709817 310.051373 
L 232.503337 309.258037 
L 234.296856 308.175129 
L 237.883894 305.538328 
L 241.470933 302.836924 
L 243.264452 301.671009 
L 245.057971 300.797672 
L 246.85149 300.198583 
L 248.64501 299.982998 
L 250.438529 300.087857 
L 252.232048 300.566689 
L 254.025567 301.363031 
L 255.819087 302.451219 
L 257.612606 303.700728 
L 262.993163 307.802843 
L 264.786683 308.94346 
L 266.580202 309.827062 
L 268.373721 310.427252 
L 270.16724 310.666375 
L 271.96076 310.545163 
L 273.754279 310.065452 
L 275.547798 309.26559 
L 277.341317 308.177182 
L 279.134837 306.92804 
L 284.515394 302.830324 
L 286.308913 301.70474 
L 288.102433 300.794006 
L 289.895952 300.201516 
L 291.689471 299.960267 
L 293.48299 300.093724 
L 295.27651 300.566689 
L 297.070029 301.383563 
L 298.863548 302.451219 
L 302.450587 305.101293 
L 306.037625 307.808489 
L 307.831144 308.940453 
L 309.624663 309.859253 
L 311.418183 310.429452 
L 313.211702 310.674587 
L 315.005221 310.537097 
L 316.79874 310.055479 
L 318.59226 309.244911 
L 320.385779 308.187522 
L 323.972817 305.55226 
L 327.559856 302.844257 
L 329.353375 301.698873 
L 331.146894 300.78374 
L 332.940413 300.215448 
L 334.733933 299.939735 
L 336.527452 300.10179 
L 338.320971 300.556423 
L 340.11449 301.395296 
L 341.90801 302.449752 
L 345.495048 305.099093 
L 349.082087 307.79573 
L 350.875606 308.953946 
L 352.669125 309.835788 
L 354.462644 310.444264 
L 356.256163 310.674661 
L 358.049683 310.548463 
L 359.843202 310.074251 
L 361.636721 309.249091 
L 363.43024 308.197714 
L 367.017279 305.568392 
L 370.604317 302.841324 
L 372.397837 301.690074 
L 374.191356 300.807938 
L 375.984875 300.199316 
L 377.778394 299.988131 
L 379.571913 300.095923 
L 381.365433 300.587954 
L 383.158952 301.38503 
L 384.952471 302.447552 
L 388.53951 305.103492 
L 392.126548 307.812962 
L 393.920067 308.957612 
L 395.713587 309.841801 
L 397.507106 310.446684 
L 399.300625 310.661315 
L 401.094144 310.566428 
L 402.887663 310.068018 
L 404.681183 309.284508 
L 406.474702 308.195734 
L 410.06174 305.544194 
L 413.648779 302.838391 
L 415.442298 301.712072 
L 417.235817 300.807205 
L 419.029337 300.216915 
L 420.822856 299.982998 
L 422.616375 300.088591 
L 424.409894 300.589421 
L 426.203413 301.384296 
L 427.996933 302.479083 
L 431.583971 305.106426 
L 435.17101 307.817508 
L 436.964529 308.93598 
L 438.758048 309.864533 
L 440.551567 310.424612 
L 442.345087 310.687786 
L 444.138606 310.551836 
L 445.932125 310.061639 
L 447.725644 309.275196 
L 449.519163 308.177329 
L 451.312683 306.935739 
L 456.69324 302.85159 
L 458.48676 301.723805 
L 460.280279 300.807205 
L 462.073798 300.218381 
L 463.867317 299.964666 
L 465.660837 300.100323 
L 467.454356 300.565223 
L 469.247875 301.398229 
L 471.041394 302.451952 
L 474.628433 305.109359 
L 478.215471 307.818535 
L 480.00899 308.944266 
L 481.80251 309.85786 
L 483.596029 310.442724 
L 485.389548 310.703112 
L 487.183067 310.563569 
L 488.976587 310.088403 
L 490.770106 309.26713 
L 492.563625 308.215386 
L 496.150663 305.573525 
L 499.737702 302.866255 
L 501.531221 301.711339 
L 503.32474 300.806472 
L 505.11826 300.222048 
L 506.911779 299.988131 
L 508.705298 300.107656 
L 510.498817 300.59822 
L 512.292337 301.399695 
L 514.085856 302.462951 
L 517.672894 305.097626 
L 521.259933 307.814575 
L 523.053452 308.971911 
L 523.053452 308.971911 
" clip-path="url(#p4283b9c1c7)" style="fill: none; stroke: #fca50a; stroke-width: 1.5; stroke-linecap: square"/>
   </g>
   <g id="line2d_15">
    <path d="M 49.564375 306.368547 
L 53.151413 299.304714 
L 54.944933 296.378927 
L 56.738452 294.134357 
L 58.531971 292.722793 
L 60.32549 292.241761 
L 62.11901 292.722793 
L 63.912529 294.134357 
L 65.706048 296.378927 
L 67.499567 299.304714 
L 69.293087 302.712266 
L 74.673644 313.432087 
L 76.467163 316.357874 
L 78.260683 318.602884 
L 80.054202 320.014228 
L 81.847721 320.495553 
L 83.64124 320.014228 
L 85.43476 318.602884 
L 87.228279 316.357874 
L 89.021798 313.432087 
L 90.815317 310.024901 
L 96.195875 299.304714 
L 97.989394 296.378927 
L 99.782913 294.134357 
L 101.576433 292.722793 
L 103.369952 292.241761 
L 105.163471 292.722793 
L 106.95699 294.134357 
L 108.75051 296.378927 
L 110.544029 299.304714 
L 112.337548 302.712266 
L 117.718106 313.432087 
L 119.511625 316.357874 
L 121.305144 318.602884 
L 123.098663 320.014228 
L 124.892183 320.495553 
L 126.685702 320.014228 
L 128.479221 318.602884 
L 130.27274 316.357874 
L 132.06626 313.432087 
L 133.859779 310.024901 
L 139.240337 299.304714 
L 141.033856 296.378927 
L 142.827375 294.134357 
L 144.620894 292.722793 
L 146.414413 292.241761 
L 148.207933 292.722793 
L 150.001452 294.134357 
L 151.794971 296.378927 
L 153.58849 299.304714 
L 155.38201 302.712266 
L 160.762567 313.432087 
L 162.556087 316.357874 
L 164.349606 318.602884 
L 166.143125 320.014228 
L 167.936644 320.495553 
L 169.730163 320.014228 
L 171.523683 318.602884 
L 173.317202 316.357874 
L 175.110721 313.432087 
L 176.90424 310.024901 
L 182.284798 299.304714 
L 184.078317 296.378927 
L 185.871837 294.134357 
L 187.665356 292.722793 
L 189.458875 292.241761 
L 191.252394 292.722793 
L 193.045913 294.134357 
L 194.839433 296.378927 
L 196.632952 299.304714 
L 198.426471 302.712266 
L 203.807029 313.432087 
L 205.600548 316.357874 
L 207.394067 318.602884 
L 209.187587 320.014228 
L 210.981106 320.495553 
L 212.774625 320.014228 
L 214.568144 318.602884 
L 216.361663 316.357874 
L 218.155183 313.432087 
L 219.948702 310.024901 
L 225.32926 299.304714 
L 227.122779 296.378927 
L 228.916298 294.134357 
L 230.709817 292.722793 
L 232.503337 292.241761 
L 234.296856 292.722793 
L 236.090375 294.134357 
L 237.883894 296.378927 
L 239.677413 299.304714 
L 241.470933 302.712266 
L 246.85149 313.432087 
L 248.64501 316.357874 
L 250.438529 318.602884 
L 252.232048 320.014228 
L 254.025567 320.495553 
L 255.819087 320.014228 
L 257.612606 318.602884 
L 259.406125 316.357874 
L 261.199644 313.432087 
L 262.993163 310.024901 
L 268.373721 299.304714 
L 270.16724 296.378927 
L 271.96076 294.134357 
L 273.754279 292.722793 
L 275.547798 292.241761 
L 277.341317 292.722793 
L 279.134837 294.134357 
L 280.928356 296.378927 
L 282.721875 299.304714 
L 284.515394 302.712266 
L 289.895952 313.432087 
L 291.689471 316.357874 
L 293.48299 318.602884 
L 295.27651 320.014228 
L 297.070029 320.495553 
L 298.863548 320.014228 
L 300.657067 318.602884 
L 302.450587 316.357874 
L 304.244106 313.432087 
L 306.037625 310.024901 
L 311.418183 299.304714 
L 313.211702 296.378927 
L 315.005221 294.134357 
L 316.79874 292.722793 
L 318.59226 292.241761 
L 320.385779 292.722793 
L 322.179298 294.134357 
L 323.972817 296.378927 
L 325.766337 299.304714 
L 327.559856 302.712266 
L 332.940413 313.432087 
L 334.733933 316.357874 
L 336.527452 318.602884 
L 338.320971 320.014228 
L 340.11449 320.495553 
L 341.90801 320.014228 
L 343.701529 318.602884 
L 345.495048 316.357874 
L 347.288567 313.432087 
L 349.082087 310.024901 
L 354.462644 299.304714 
L 356.256163 296.378927 
L 358.049683 294.134357 
L 359.843202 292.722793 
L 361.636721 292.241761 
L 363.43024 292.722793 
L 365.22376 294.134357 
L 367.017279 296.378927 
L 368.810798 299.304714 
L 370.604317 302.712266 
L 375.984875 313.432087 
L 377.778394 316.357874 
L 379.571913 318.602884 
L 381.365433 320.014228 
L 383.158952 320.495553 
L 384.952471 320.014228 
L 386.74599 318.602884 
L 388.53951 316.357874 
L 390.333029 313.432087 
L 392.126548 310.024901 
L 397.507106 299.304714 
L 399.300625 296.378927 
L 401.094144 294.134357 
L 402.887663 292.722793 
L 404.681183 292.241761 
L 406.474702 292.722793 
L 408.268221 294.134357 
L 410.06174 296.378927 
L 411.85526 299.304714 
L 413.648779 302.712266 
L 419.029337 313.432087 
L 420.822856 316.357874 
L 422.616375 318.602884 
L 424.409894 320.014228 
L 426.203413 320.495553 
L 427.996933 320.014228 
L 429.790452 318.602884 
L 431.583971 316.357874 
L 433.37749 313.432087 
L 435.17101 310.024901 
L 440.551567 299.304714 
L 442.345087 296.378927 
L 444.138606 294.134357 
L 445.932125 292.722793 
L 447.725644 292.241761 
L 449.519163 292.722793 
L 451.312683 294.134357 
L 453.106202 296.378927 
L 454.899721 299.304714 
L 456.69324 302.712266 
L 462.073798 313.432087 
L 463.867317 316.357874 
L 465.660837 318.602884 
L 467.454356 320.014228 
L 469.247875 320.495553 
L 471.041394 320.014228 
L 472.834913 318.602884 
L 474.628433 316.357874 
L 476.421952 313.432087 
L 478.215471 310.024901 
L 483.596029 299.304714 
L 485.389548 296.378927 
L 487.183067 294.134357 
L 488.976587 292.722793 
L 490.770106 292.241761 
L 492.563625 292.722793 
L 494.357144 294.134357 
L 496.150663 296.378927 
L 497.944183 299.304714 
L 499.737702 302.712266 
L 505.11826 313.432087 
L 506.911779 316.357874 
L 508.705298 318.602884 
L 510.498817 320.014228 
L 512.292337 320.495553 
L 514.085856 320.014228 
L 515.879375 318.602884 
L 517.672894 316.357874 
L 519.466413 313.432087 
L 521.259933 310.024901 
L 523.053452 306.368547 
L 523.053452 306.368547 
" clip-path="url(#p4283b9c1c7)" style="fill: none; stroke: #dd513a; stroke-width: 1.5; stroke-linecap: square"/>
   </g>
   <g id="line2d_16">
    <path d="M 49.564375 348.774789 
L 53.151413 343.855214 
L 54.944933 341.835834 
L 56.738452 340.305259 
L 58.531971 339.370473 
L 60.32549 339.098133 
L 62.11901 339.509503 
L 63.912529 340.579359 
L 65.706048 342.237525 
L 67.499567 344.373716 
L 71.086606 349.485998 
L 74.673644 354.567555 
L 76.467163 356.667229 
L 78.260683 358.277658 
L 80.054202 359.291785 
L 81.847721 359.642952 
L 83.64124 359.30997 
L 85.43476 358.317915 
L 87.228279 356.737184 
L 89.021798 354.67784 
L 92.608837 349.717788 
L 96.195875 344.786553 
L 97.989394 342.761307 
L 99.782913 341.224865 
L 101.576433 340.284287 
L 103.369952 340.006154 
L 105.163471 340.411804 
L 106.95699 341.47594 
L 108.75051 343.128533 
L 110.544029 345.259225 
L 114.131067 350.360654 
L 117.718106 355.431725 
L 119.511625 357.526266 
L 121.305144 359.131563 
L 123.098663 360.140556 
L 124.892183 360.486738 
L 126.685702 360.148622 
L 128.479221 359.151581 
L 130.27274 357.565717 
L 132.06626 355.501314 
L 135.653298 350.531068 
L 139.240337 345.589568 
L 141.033856 343.559116 
L 142.827375 342.017541 
L 144.620894 341.07183 
L 146.414413 340.788564 
L 148.207933 341.189228 
L 150.001452 342.248378 
L 151.794971 343.896058 
L 153.58849 346.02191 
L 157.175529 351.113953 
L 160.762567 356.175785 
L 162.556087 358.265853 
L 164.349606 359.866749 
L 166.143125 360.871343 
L 167.936644 361.213051 
L 169.730163 360.870536 
L 171.523683 359.869096 
L 173.317202 358.278832 
L 175.110721 356.209955 
L 178.69776 351.230691 
L 182.284798 346.280171 
L 184.078317 344.245172 
L 185.871837 342.699051 
L 187.665356 341.748867 
L 189.458875 341.461201 
L 191.252394 341.857466 
L 193.045913 342.912289 
L 194.839433 344.555716 
L 196.632952 346.677315 
L 200.21999 351.761146 
L 203.807029 356.815131 
L 205.600548 358.90124 
L 207.394067 360.49825 
L 209.187587 361.499031 
L 210.981106 361.836926 
L 212.774625 361.490598 
L 214.568144 360.485271 
L 216.361663 358.89112 
L 218.155183 356.818358 
L 221.742221 351.831321 
L 225.32926 346.872881 
L 227.122779 344.833996 
L 228.916298 343.283916 
L 230.709817 342.329845 
L 232.503337 342.038293 
L 234.296856 342.430671 
L 236.090375 343.481828 
L 237.883894 345.121442 
L 239.677413 347.239448 
L 243.264452 352.316239 
L 246.85149 357.363331 
L 248.64501 359.446067 
L 250.438529 361.039777 
L 252.232048 362.037185 
L 254.025567 362.371781 
L 255.819087 362.022153 
L 257.612606 361.013526 
L 259.406125 359.416002 
L 261.199644 357.339867 
L 264.786683 352.345936 
L 268.373721 347.380604 
L 270.16724 345.338346 
L 271.96076 343.784819 
L 273.754279 342.827375 
L 275.547798 342.532524 
L 277.341317 342.921602 
L 279.134837 343.969459 
L 280.928356 345.60592 
L 282.721875 347.720773 
L 286.308913 352.791477 
L 289.895952 357.832631 
L 291.689471 359.912506 
L 293.48299 361.503357 
L 295.27651 362.497905 
L 297.070029 362.829641 
L 298.863548 362.47708 
L 300.657067 361.465593 
L 302.450587 359.865136 
L 304.244106 357.786067 
L 307.831144 352.786271 
L 311.418183 347.814999 
L 313.211702 345.769735 
L 315.005221 344.213275 
L 316.79874 343.252898 
L 318.59226 342.955113 
L 320.385779 343.341331 
L 322.179298 344.386402 
L 323.972817 346.02015 
L 325.766337 348.13229 
L 329.353375 353.197788 
L 332.940413 358.233882 
L 334.733933 360.311337 
L 336.527452 361.899695 
L 338.320971 362.891749 
L 340.11449 363.220992 
L 341.90801 362.866011 
L 343.701529 361.852032 
L 345.495048 360.249082 
L 347.288567 358.16752 
L 350.875606 353.16259 
L 354.462644 348.186112 
L 356.256163 346.138281 
L 358.049683 344.579255 
L 359.843202 343.616311 
L 361.636721 343.316033 
L 363.43024 343.699832 
L 365.22376 344.742483 
L 367.017279 346.373884 
L 368.810798 348.483751 
L 372.397837 353.544703 
L 375.984875 358.576617 
L 377.778394 360.651872 
L 379.571913 362.238104 
L 381.365433 363.228105 
L 383.158952 363.555294 
L 384.952471 363.198187 
L 386.74599 362.182008 
L 388.53951 360.576858 
L 390.333029 358.493096 
L 393.920067 353.483767 
L 397.507106 348.502816 
L 399.300625 346.452712 
L 401.094144 344.891559 
L 402.887663 343.926415 
L 404.681183 343.624011 
L 406.474702 344.005683 
L 408.268221 345.046281 
L 410.06174 346.675629 
L 411.85526 348.783589 
L 415.442298 353.840801 
L 419.029337 358.868975 
L 420.822856 360.942471 
L 422.616375 362.526869 
L 424.409894 363.515111 
L 426.203413 363.840467 
L 427.996933 363.481527 
L 429.790452 362.463514 
L 431.583971 360.856531 
L 433.37749 358.770862 
L 436.964529 353.757647 
L 440.551567 348.772883 
L 442.345087 346.720872 
L 444.138606 345.157739 
L 445.932125 344.190763 
L 447.725644 343.886452 
L 449.519163 344.266364 
L 451.312683 345.305202 
L 453.106202 346.932863 
L 454.899721 349.039137 
L 458.48676 354.093123 
L 462.073798 359.118217 
L 463.867317 361.190173 
L 465.660837 362.773105 
L 467.454356 363.759806 
L 469.247875 364.083623 
L 471.041394 363.723069 
L 472.834913 362.703516 
L 474.628433 361.09492 
L 476.421952 359.007639 
L 480.00899 353.99105 
L 483.596029 349.002913 
L 485.389548 346.949289 
L 487.183067 345.384543 
L 488.976587 344.415953 
L 490.770106 344.110102 
L 492.563625 344.488401 
L 494.357144 345.525772 
L 496.150663 347.151968 
L 497.944183 349.256848 
L 501.531221 354.30812 
L 505.11826 359.330648 
L 506.911779 361.401284 
L 508.705298 362.982969 
L 510.498817 363.968278 
L 512.292337 364.290774 
L 514.085856 363.928974 
L 515.879375 362.908028 
L 517.672894 361.298039 
L 519.466413 359.209291 
L 523.053452 354.189916 
L 523.053452 354.189916 
" clip-path="url(#p4283b9c1c7)" style="fill: none; stroke: #932667; stroke-width: 1.5; stroke-linecap: square"/>
   </g>
   <g id="patch_3">
    <path d="M 49.564375 379.158906 
L 49.564375 12.518906 
" style="fill: none; stroke: #000000; stroke-width: 0.8; stroke-linejoin: miter; stroke-linecap: square"/>
   </g>
   <g id="patch_4">
    <path d="M 515.879375 379.158906 
L 515.879375 12.518906 
" style="fill: none; stroke: #000000; stroke-width: 0.8; stroke-linejoin: miter; stroke-linecap: square"/>
   </g>
   <g id="patch_5">
    <path d="M 49.564375 379.158906 
L 515.879375 379.158906 
" style="fill: none; stroke: #000000; stroke-width: 0.8; stroke-linejoin: miter; stroke-linecap: square"/>
   </g>
   <g id="patch_6">
    <path d="M 49.564375 12.518906 
L 515.879375 12.518906 
" style="fill: none; stroke: #000000; stroke-width: 0.8; stroke-linejoin: miter; stroke-linecap: square"/>
   </g>
   <g id="legend_1">
    <g id="patch_7">
     <path d="M 435.939375 121.438906 
L 506.079375 121.438906 
Q 508.879375 121.438906 508.879375 118.638906 
L 508.879375 22.318906 
Q 508.879375 19.518906 506.079375 19.518906 
L 435.939375 19.518906 
Q 433.139375 19.518906 433.139375 22.318906 
L 433.139375 118.638906 
Q 433.139375 121.438906 435.939375 121.438906 
z
" style="fill: #ffffff; stroke: #cccccc; stroke-linejoin: miter"/>
    </g>
    <g id="line2d_17">
     <path d="M 438.739375 34.807344 
L 452.739375 34.807344 
L 466.739375 34.807344 
" style="fill: none; stroke: #000004; stroke-width: 1.5; stroke-linecap: square"/>
    </g>
    <g id="text_15">
     <!-- $\dot{Q}_{\text{tot}}$ -->
     <g transform="translate(477.939375 39.707344) scale(0.14 -0.14)">
      <defs>
       <path id="DejaVuSans-307" d="M -1894 4863 
L -1319 4863 
L -1319 4134 
L -1894 4134 
L -1894 4863 
z
M -1600 3584 
L -1600 3584 
z
" transform="scale(0.015625)"/>
       <path id="DejaVuSans-Oblique-51" d="M 2309 -84 
Q 2275 -88 2237 -89 
Q 2200 -91 2125 -91 
Q 1250 -91 756 411 
Q 263 913 263 1797 
Q 263 2319 452 2844 
Q 641 3369 978 3788 
Q 1369 4269 1858 4509 
Q 2347 4750 2938 4750 
Q 3794 4750 4287 4245 
Q 4781 3741 4781 2869 
Q 4781 1928 4265 1147 
Q 3750 366 2919 44 
L 3553 -825 
L 2847 -825 
L 2309 -84 
z
M 2919 4238 
Q 2400 4238 2003 3986 
Q 1606 3734 1313 3219 
Q 1125 2891 1026 2522 
Q 928 2153 928 1778 
Q 928 1128 1239 775 
Q 1550 422 2119 422 
Q 2631 422 3032 676 
Q 3434 931 3719 1434 
Q 3909 1772 4009 2142 
Q 4109 2513 4109 2881 
Q 4109 3528 3796 3883 
Q 3484 4238 2919 4238 
z
" transform="scale(0.015625)"/>
       <path id="DejaVuSans-6f" d="M 1959 3097 
Q 1497 3097 1228 2736 
Q 959 2375 959 1747 
Q 959 1119 1226 758 
Q 1494 397 1959 397 
Q 2419 397 2687 759 
Q 2956 1122 2956 1747 
Q 2956 2369 2687 2733 
Q 2419 3097 1959 3097 
z
M 1959 3584 
Q 2709 3584 3137 3096 
Q 3566 2609 3566 1747 
Q 3566 888 3137 398 
Q 2709 -91 1959 -91 
Q 1206 -91 779 398 
Q 353 888 353 1747 
Q 353 2609 779 3096 
Q 1206 3584 1959 3584 
z
" transform="scale(0.015625)"/>
      </defs>
      <use xlink:href="#DejaVuSans-307" transform="translate(74.271484 31.015625)"/>
      <use xlink:href="#DejaVuSans-Oblique-51" transform="translate(0 0.296875)"/>
      <use xlink:href="#DejaVuSans-74" transform="translate(79.667969 -16.109375) scale(0.7)"/>
      <use xlink:href="#DejaVuSans-6f" transform="translate(107.114258 -16.109375) scale(0.7)"/>
      <use xlink:href="#DejaVuSans-74" transform="translate(149.941406 -16.109375) scale(0.7)"/>
     </g>
    </g>
    <g id="line2d_18">
     <path d="M 438.739375 59.167344 
L 452.739375 59.167344 
L 466.739375 59.167344 
" style="fill: none; stroke: #fca50a; stroke-width: 1.5; stroke-linecap: square"/>
    </g>
    <g id="text_16">
     <!-- $\dot{Q}_{\text{Li}}$ -->
     <g transform="translate(477.939375 64.067344) scale(0.14 -0.14)">
      <defs>
       <path id="DejaVuSans-4c" d="M 628 4666 
L 1259 4666 
L 1259 531 
L 3531 531 
L 3531 0 
L 628 0 
L 628 4666 
z
" transform="scale(0.015625)"/>
      </defs>
      <use xlink:href="#DejaVuSans-307" transform="translate(74.271484 31.015625)"/>
      <use xlink:href="#DejaVuSans-Oblique-51" transform="translate(0 0.296875)"/>
      <use xlink:href="#DejaVuSans-4c" transform="translate(79.667969 -16.109375) scale(0.7)"/>
      <use xlink:href="#DejaVuSans-69" transform="translate(118.666992 -16.109375) scale(0.7)"/>
     </g>
    </g>
    <g id="line2d_19">
     <path d="M 438.739375 83.667344 
L 452.739375 83.667344 
L 466.739375 83.667344 
" style="fill: none; stroke: #dd513a; stroke-width: 1.5; stroke-linecap: square"/>
    </g>
    <g id="text_17">
     <!-- $\dot{Q}_{\text{b}}$ -->
     <g transform="translate(477.939375 88.567344) scale(0.14 -0.14)">
      <defs>
       <path id="DejaVuSans-62" d="M 3116 1747 
Q 3116 2381 2855 2742 
Q 2594 3103 2138 3103 
Q 1681 3103 1420 2742 
Q 1159 2381 1159 1747 
Q 1159 1113 1420 752 
Q 1681 391 2138 391 
Q 2594 391 2855 752 
Q 3116 1113 3116 1747 
z
M 1159 2969 
Q 1341 3281 1617 3432 
Q 1894 3584 2278 3584 
Q 2916 3584 3314 3078 
Q 3713 2572 3713 1747 
Q 3713 922 3314 415 
Q 2916 -91 2278 -91 
Q 1894 -91 1617 61 
Q 1341 213 1159 525 
L 1159 0 
L 581 0 
L 581 4863 
L 1159 4863 
L 1159 2969 
z
" transform="scale(0.015625)"/>
      </defs>
      <use xlink:href="#DejaVuSans-307" transform="translate(74.271484 31.015625)"/>
      <use xlink:href="#DejaVuSans-Oblique-51" transform="translate(0 0.296875)"/>
      <use xlink:href="#DejaVuSans-62" transform="translate(79.667969 -16.109375) scale(0.7)"/>
     </g>
    </g>
    <g id="line2d_20">
     <path d="M 438.739375 108.027344 
L 452.739375 108.027344 
L 466.739375 108.027344 
" style="fill: none; stroke: #932667; stroke-width: 1.5; stroke-linecap: square"/>
    </g>
    <g id="text_18">
     <!-- $\dot{Q}_{\text{Wi}}$ -->
     <g transform="translate(477.939375 112.927344) scale(0.14 -0.14)">
      <use xlink:href="#DejaVuSans-307" transform="translate(74.271484 31.015625)"/>
      <use xlink:href="#DejaVuSans-Oblique-51" transform="translate(0 0.296875)"/>
      <use xlink:href="#DejaVuSans-57" transform="translate(79.667969 -16.109375) scale(0.7)"/>
      <use xlink:href="#DejaVuSans-69" transform="translate(148.881836 -16.109375) scale(0.7)"/>
     </g>
    </g>
   </g>
  </g>
  <g id="axes_2">
   <g id="patch_8">
    <path d="M 585.784375 379.158906 
L 1052.099375 379.158906 
L 1052.099375 12.518906 
L 585.784375 12.518906 
z
" style="fill: #ffffff"/>
   </g>
   <g id="matplotlib.axis_3">
    <g id="xtick_7">
     <g id="line2d_21">
      <g>
       <use xlink:href="#m0c415e9746" x="603.719567" y="379.158906" style="stroke: #000000; stroke-width: 0.8"/>
      </g>
     </g>
     <g id="text_19">
      <!-- 250 -->
      <g transform="translate(590.358317 396.796719) scale(0.14 -0.14)">
       <use xlink:href="#DejaVuSans-32"/>
       <use xlink:href="#DejaVuSans-35" transform="translate(63.623047 0)"/>
       <use xlink:href="#DejaVuSans-30" transform="translate(127.246094 0)"/>
      </g>
     </g>
    </g>
    <g id="xtick_8">
     <g id="line2d_22">
      <g>
       <use xlink:href="#m0c415e9746" x="693.395529" y="379.158906" style="stroke: #000000; stroke-width: 0.8"/>
      </g>
     </g>
     <g id="text_20">
      <!-- 300 -->
      <g transform="translate(680.034279 396.796719) scale(0.14 -0.14)">
       <use xlink:href="#DejaVuSans-33"/>
       <use xlink:href="#DejaVuSans-30" transform="translate(63.623047 0)"/>
       <use xlink:href="#DejaVuSans-30" transform="translate(127.246094 0)"/>
      </g>
     </g>
    </g>
    <g id="xtick_9">
     <g id="line2d_23">
      <g>
       <use xlink:href="#m0c415e9746" x="783.07149" y="379.158906" style="stroke: #000000; stroke-width: 0.8"/>
      </g>
     </g>
     <g id="text_21">
      <!-- 350 -->
      <g transform="translate(769.71024 396.796719) scale(0.14 -0.14)">
       <use xlink:href="#DejaVuSans-33"/>
       <use xlink:href="#DejaVuSans-35" transform="translate(63.623047 0)"/>
       <use xlink:href="#DejaVuSans-30" transform="translate(127.246094 0)"/>
      </g>
     </g>
    </g>
    <g id="xtick_10">
     <g id="line2d_24">
      <g>
       <use xlink:href="#m0c415e9746" x="872.747452" y="379.158906" style="stroke: #000000; stroke-width: 0.8"/>
      </g>
     </g>
     <g id="text_22">
      <!-- 400 -->
      <g transform="translate(859.386202 396.796719) scale(0.14 -0.14)">
       <use xlink:href="#DejaVuSans-34"/>
       <use xlink:href="#DejaVuSans-30" transform="translate(63.623047 0)"/>
       <use xlink:href="#DejaVuSans-30" transform="translate(127.246094 0)"/>
      </g>
     </g>
    </g>
    <g id="xtick_11">
     <g id="line2d_25">
      <g>
       <use xlink:href="#m0c415e9746" x="962.423413" y="379.158906" style="stroke: #000000; stroke-width: 0.8"/>
      </g>
     </g>
     <g id="text_23">
      <!-- 450 -->
      <g transform="translate(949.062163 396.796719) scale(0.14 -0.14)">
       <use xlink:href="#DejaVuSans-34"/>
       <use xlink:href="#DejaVuSans-35" transform="translate(63.623047 0)"/>
       <use xlink:href="#DejaVuSans-30" transform="translate(127.246094 0)"/>
      </g>
     </g>
    </g>
    <g id="xtick_12">
     <g id="line2d_26">
      <g>
       <use xlink:href="#m0c415e9746" x="1052.099375" y="379.158906" style="stroke: #000000; stroke-width: 0.8"/>
      </g>
     </g>
     <g id="text_24">
      <!-- 500 -->
      <g transform="translate(1038.738125 396.796719) scale(0.14 -0.14)">
       <use xlink:href="#DejaVuSans-35"/>
       <use xlink:href="#DejaVuSans-30" transform="translate(63.623047 0)"/>
       <use xlink:href="#DejaVuSans-30" transform="translate(127.246094 0)"/>
      </g>
     </g>
    </g>
    <g id="text_25">
     <!-- Time / h -->
     <g transform="translate(790.571094 414.346094) scale(0.14 -0.14)">
      <use xlink:href="#DejaVuSans-54"/>
      <use xlink:href="#DejaVuSans-69" transform="translate(57.958984 0)"/>
      <use xlink:href="#DejaVuSans-6d" transform="translate(85.742188 0)"/>
      <use xlink:href="#DejaVuSans-65" transform="translate(183.154297 0)"/>
      <use xlink:href="#DejaVuSans-20" transform="translate(244.677734 0)"/>
      <use xlink:href="#DejaVuSans-2f" transform="translate(276.464844 0)"/>
      <use xlink:href="#DejaVuSans-20" transform="translate(310.15625 0)"/>
      <use xlink:href="#DejaVuSans-68" transform="translate(341.943359 0)"/>
     </g>
    </g>
   </g>
   <g id="matplotlib.axis_4">
    <g id="ytick_7">
     <g id="line2d_27">
      <g>
       <use xlink:href="#m20175d4c57" x="585.784375" y="333.669569" style="stroke: #000000; stroke-width: 0.8"/>
      </g>
     </g>
     <g id="text_26">
      <!-- 55 -->
      <g transform="translate(560.969375 338.988475) scale(0.14 -0.14)">
       <use xlink:href="#DejaVuSans-35"/>
       <use xlink:href="#DejaVuSans-35" transform="translate(63.623047 0)"/>
      </g>
     </g>
    </g>
    <g id="ytick_8">
     <g id="line2d_28">
      <g>
       <use xlink:href="#m20175d4c57" x="585.784375" y="270.613069" style="stroke: #000000; stroke-width: 0.8"/>
      </g>
     </g>
     <g id="text_27">
      <!-- 60 -->
      <g transform="translate(560.969375 275.931975) scale(0.14 -0.14)">
       <defs>
        <path id="DejaVuSans-36" d="M 2113 2584 
Q 1688 2584 1439 2293 
Q 1191 2003 1191 1497 
Q 1191 994 1439 701 
Q 1688 409 2113 409 
Q 2538 409 2786 701 
Q 3034 994 3034 1497 
Q 3034 2003 2786 2293 
Q 2538 2584 2113 2584 
z
M 3366 4563 
L 3366 3988 
Q 3128 4100 2886 4159 
Q 2644 4219 2406 4219 
Q 1781 4219 1451 3797 
Q 1122 3375 1075 2522 
Q 1259 2794 1537 2939 
Q 1816 3084 2150 3084 
Q 2853 3084 3261 2657 
Q 3669 2231 3669 1497 
Q 3669 778 3244 343 
Q 2819 -91 2113 -91 
Q 1303 -91 875 529 
Q 447 1150 447 2328 
Q 447 3434 972 4092 
Q 1497 4750 2381 4750 
Q 2619 4750 2861 4703 
Q 3103 4656 3366 4563 
z
" transform="scale(0.015625)"/>
       </defs>
       <use xlink:href="#DejaVuSans-36"/>
       <use xlink:href="#DejaVuSans-30" transform="translate(63.623047 0)"/>
      </g>
     </g>
    </g>
    <g id="ytick_9">
     <g id="line2d_29">
      <g>
       <use xlink:href="#m20175d4c57" x="585.784375" y="207.556569" style="stroke: #000000; stroke-width: 0.8"/>
      </g>
     </g>
     <g id="text_28">
      <!-- 65 -->
      <g transform="translate(560.969375 212.875476) scale(0.14 -0.14)">
       <use xlink:href="#DejaVuSans-36"/>
       <use xlink:href="#DejaVuSans-35" transform="translate(63.623047 0)"/>
      </g>
     </g>
    </g>
    <g id="ytick_10">
     <g id="line2d_30">
      <g>
       <use xlink:href="#m20175d4c57" x="585.784375" y="144.50007" style="stroke: #000000; stroke-width: 0.8"/>
      </g>
     </g>
     <g id="text_29">
      <!-- 70 -->
      <g transform="translate(560.969375 149.818976) scale(0.14 -0.14)">
       <defs>
        <path id="DejaVuSans-37" d="M 525 4666 
L 3525 4666 
L 3525 4397 
L 1831 0 
L 1172 0 
L 2766 4134 
L 525 4134 
L 525 4666 
z
" transform="scale(0.015625)"/>
       </defs>
       <use xlink:href="#DejaVuSans-37"/>
       <use xlink:href="#DejaVuSans-30" transform="translate(63.623047 0)"/>
      </g>
     </g>
    </g>
    <g id="ytick_11">
     <g id="line2d_31">
      <g>
       <use xlink:href="#m20175d4c57" x="585.784375" y="81.44357" style="stroke: #000000; stroke-width: 0.8"/>
      </g>
     </g>
     <g id="text_30">
      <!-- 75 -->
      <g transform="translate(560.969375 86.762476) scale(0.14 -0.14)">
       <use xlink:href="#DejaVuSans-37"/>
       <use xlink:href="#DejaVuSans-35" transform="translate(63.623047 0)"/>
      </g>
     </g>
    </g>
    <g id="ytick_12">
     <g id="line2d_32">
      <g>
       <use xlink:href="#m20175d4c57" x="585.784375" y="18.38707" style="stroke: #000000; stroke-width: 0.8"/>
      </g>
     </g>
     <g id="text_31">
      <!-- 80 -->
      <g transform="translate(560.969375 23.705976) scale(0.14 -0.14)">
       <defs>
        <path id="DejaVuSans-38" d="M 2034 2216 
Q 1584 2216 1326 1975 
Q 1069 1734 1069 1313 
Q 1069 891 1326 650 
Q 1584 409 2034 409 
Q 2484 409 2743 651 
Q 3003 894 3003 1313 
Q 3003 1734 2745 1975 
Q 2488 2216 2034 2216 
z
M 1403 2484 
Q 997 2584 770 2862 
Q 544 3141 544 3541 
Q 544 4100 942 4425 
Q 1341 4750 2034 4750 
Q 2731 4750 3128 4425 
Q 3525 4100 3525 3541 
Q 3525 3141 3298 2862 
Q 3072 2584 2669 2484 
Q 3125 2378 3379 2068 
Q 3634 1759 3634 1313 
Q 3634 634 3220 271 
Q 2806 -91 2034 -91 
Q 1263 -91 848 271 
Q 434 634 434 1313 
Q 434 1759 690 2068 
Q 947 2378 1403 2484 
z
M 1172 3481 
Q 1172 3119 1398 2916 
Q 1625 2713 2034 2713 
Q 2441 2713 2670 2916 
Q 2900 3119 2900 3481 
Q 2900 3844 2670 4047 
Q 2441 4250 2034 4250 
Q 1625 4250 1398 4047 
Q 1172 3844 1172 3481 
z
" transform="scale(0.015625)"/>
       </defs>
       <use xlink:href="#DejaVuSans-38"/>
       <use xlink:href="#DejaVuSans-30" transform="translate(63.623047 0)"/>
      </g>
     </g>
    </g>
    <g id="text_32">
     <!-- Boil-off gas rate / $kg\ h^{-1}$ -->
     <g transform="translate(554.029375 281.588906) rotate(-90) scale(0.14 -0.14)">
      <defs>
       <path id="DejaVuSans-42" d="M 1259 2228 
L 1259 519 
L 2272 519 
Q 2781 519 3026 730 
Q 3272 941 3272 1375 
Q 3272 1813 3026 2020 
Q 2781 2228 2272 2228 
L 1259 2228 
z
M 1259 4147 
L 1259 2741 
L 2194 2741 
Q 2656 2741 2882 2914 
Q 3109 3088 3109 3444 
Q 3109 3797 2882 3972 
Q 2656 4147 2194 4147 
L 1259 4147 
z
M 628 4666 
L 2241 4666 
Q 2963 4666 3353 4366 
Q 3744 4066 3744 3513 
Q 3744 3084 3544 2831 
Q 3344 2578 2956 2516 
Q 3422 2416 3680 2098 
Q 3938 1781 3938 1306 
Q 3938 681 3513 340 
Q 3088 0 2303 0 
L 628 0 
L 628 4666 
z
" transform="scale(0.015625)"/>
       <path id="DejaVuSans-6c" d="M 603 4863 
L 1178 4863 
L 1178 0 
L 603 0 
L 603 4863 
z
" transform="scale(0.015625)"/>
       <path id="DejaVuSans-2d" d="M 313 2009 
L 1997 2009 
L 1997 1497 
L 313 1497 
L 313 2009 
z
" transform="scale(0.015625)"/>
       <path id="DejaVuSans-67" d="M 2906 1791 
Q 2906 2416 2648 2759 
Q 2391 3103 1925 3103 
Q 1463 3103 1205 2759 
Q 947 2416 947 1791 
Q 947 1169 1205 825 
Q 1463 481 1925 481 
Q 2391 481 2648 825 
Q 2906 1169 2906 1791 
z
M 3481 434 
Q 3481 -459 3084 -895 
Q 2688 -1331 1869 -1331 
Q 1566 -1331 1297 -1286 
Q 1028 -1241 775 -1147 
L 775 -588 
Q 1028 -725 1275 -790 
Q 1522 -856 1778 -856 
Q 2344 -856 2625 -561 
Q 2906 -266 2906 331 
L 2906 616 
Q 2728 306 2450 153 
Q 2172 0 1784 0 
Q 1141 0 747 490 
Q 353 981 353 1791 
Q 353 2603 747 3093 
Q 1141 3584 1784 3584 
Q 2172 3584 2450 3431 
Q 2728 3278 2906 2969 
L 2906 3500 
L 3481 3500 
L 3481 434 
z
" transform="scale(0.015625)"/>
       <path id="DejaVuSans-Oblique-6b" d="M 1172 4863 
L 1747 4863 
L 1197 2028 
L 3169 3500 
L 3916 3500 
L 1716 1825 
L 3322 0 
L 2625 0 
L 1131 1709 
L 800 0 
L 225 0 
L 1172 4863 
z
" transform="scale(0.015625)"/>
       <path id="DejaVuSans-Oblique-67" d="M 3816 3500 
L 3219 434 
Q 3047 -456 2561 -893 
Q 2075 -1331 1253 -1331 
Q 950 -1331 690 -1286 
Q 431 -1241 206 -1147 
L 313 -588 
Q 525 -725 762 -790 
Q 1000 -856 1269 -856 
Q 1816 -856 2167 -557 
Q 2519 -259 2631 300 
L 2681 563 
Q 2441 288 2122 144 
Q 1803 0 1434 0 
Q 903 0 598 351 
Q 294 703 294 1319 
Q 294 1803 478 2267 
Q 663 2731 997 3091 
Q 1219 3328 1514 3456 
Q 1809 3584 2131 3584 
Q 2484 3584 2746 3420 
Q 3009 3256 3138 2956 
L 3238 3500 
L 3816 3500 
z
M 2950 2216 
Q 2950 2641 2750 2872 
Q 2550 3103 2181 3103 
Q 1953 3103 1747 3012 
Q 1541 2922 1394 2759 
Q 1156 2491 1023 2127 
Q 891 1763 891 1375 
Q 891 944 1092 712 
Q 1294 481 1672 481 
Q 2219 481 2584 976 
Q 2950 1472 2950 2216 
z
" transform="scale(0.015625)"/>
       <path id="DejaVuSans-Oblique-68" d="M 3566 2113 
L 3156 0 
L 2578 0 
L 2988 2091 
Q 3016 2238 3031 2350 
Q 3047 2463 3047 2528 
Q 3047 2791 2881 2937 
Q 2716 3084 2419 3084 
Q 1956 3084 1617 2771 
Q 1278 2459 1178 1941 
L 800 0 
L 225 0 
L 1172 4863 
L 1747 4863 
L 1375 2950 
Q 1594 3244 1934 3414 
Q 2275 3584 2650 3584 
Q 3113 3584 3367 3334 
Q 3622 3084 3622 2631 
Q 3622 2519 3608 2391 
Q 3594 2263 3566 2113 
z
" transform="scale(0.015625)"/>
       <path id="DejaVuSans-2212" d="M 678 2272 
L 4684 2272 
L 4684 1741 
L 678 1741 
L 678 2272 
z
" transform="scale(0.015625)"/>
      </defs>
      <use xlink:href="#DejaVuSans-42" transform="translate(0 0.684375)"/>
      <use xlink:href="#DejaVuSans-6f" transform="translate(68.603516 0.684375)"/>
      <use xlink:href="#DejaVuSans-69" transform="translate(129.785156 0.684375)"/>
      <use xlink:href="#DejaVuSans-6c" transform="translate(157.568359 0.684375)"/>
      <use xlink:href="#DejaVuSans-2d" transform="translate(185.351562 0.684375)"/>
      <use xlink:href="#DejaVuSans-6f" transform="translate(221.435547 0.684375)"/>
      <use xlink:href="#DejaVuSans-66" transform="translate(282.617188 0.684375)"/>
      <use xlink:href="#DejaVuSans-66" transform="translate(317.822266 0.684375)"/>
      <use xlink:href="#DejaVuSans-20" transform="translate(353.027344 0.684375)"/>
      <use xlink:href="#DejaVuSans-67" transform="translate(384.814453 0.684375)"/>
      <use xlink:href="#DejaVuSans-61" transform="translate(448.291016 0.684375)"/>
      <use xlink:href="#DejaVuSans-73" transform="translate(509.570312 0.684375)"/>
      <use xlink:href="#DejaVuSans-20" transform="translate(561.669922 0.684375)"/>
      <use xlink:href="#DejaVuSans-72" transform="translate(593.457031 0.684375)"/>
      <use xlink:href="#DejaVuSans-61" transform="translate(634.570312 0.684375)"/>
      <use xlink:href="#DejaVuSans-74" transform="translate(695.849609 0.684375)"/>
      <use xlink:href="#DejaVuSans-65" transform="translate(735.058594 0.684375)"/>
      <use xlink:href="#DejaVuSans-20" transform="translate(796.582031 0.684375)"/>
      <use xlink:href="#DejaVuSans-2f" transform="translate(828.369141 0.684375)"/>
      <use xlink:href="#DejaVuSans-20" transform="translate(862.060547 0.684375)"/>
      <use xlink:href="#DejaVuSans-Oblique-6b" transform="translate(893.847656 0.684375)"/>
      <use xlink:href="#DejaVuSans-Oblique-67" transform="translate(951.757812 0.684375)"/>
      <use xlink:href="#DejaVuSans-Oblique-68" transform="translate(1047.704753 0.684375)"/>
      <use xlink:href="#DejaVuSans-2212" transform="translate(1118.531368 38.965625) scale(0.7)"/>
      <use xlink:href="#DejaVuSans-31" transform="translate(1177.183712 38.965625) scale(0.7)"/>
     </g>
    </g>
   </g>
   <g id="line2d_33">
    <path d="M 583.990856 206.020009 
L 589.371413 105.008036 
L 591.164933 75.85172 
L 592.958452 52.48853 
L 594.751971 36.548351 
L 596.54549 29.184361 
L 598.33901 30.927747 
L 600.132529 41.569666 
L 601.926048 60.606171 
L 603.719567 86.59806 
L 605.513087 118.137913 
L 610.893644 222.069149 
L 612.687163 252.387723 
L 614.480683 276.731568 
L 616.274202 293.725042 
L 618.067721 302.187729 
L 619.86124 301.474938 
L 621.65476 291.936255 
L 623.448279 273.962126 
L 625.241798 249.050773 
L 627.035317 218.76852 
L 632.415875 118.024411 
L 634.209394 88.809074 
L 636.002913 65.554845 
L 637.796433 49.483005 
L 639.589952 42.200736 
L 641.383471 43.748899 
L 643.17699 54.413519 
L 644.97051 73.245721 
L 646.764029 99.092328 
L 648.557548 130.287135 
L 653.938106 233.732584 
L 655.731625 263.724273 
L 657.525144 287.936455 
L 659.318663 304.852749 
L 661.112183 313.102052 
L 662.905702 312.534544 
L 664.699221 302.827878 
L 666.49274 285.008111 
L 668.28626 259.978717 
L 670.079779 229.732784 
L 675.460337 129.097637 
L 677.253856 100.104763 
L 679.047375 76.718873 
L 680.840894 60.783234 
L 682.634413 53.323902 
L 684.427933 54.808504 
L 686.221452 65.373243 
L 688.014971 84.091943 
L 689.80849 109.91585 
L 691.60201 140.842793 
L 696.982567 243.716193 
L 698.776087 273.440018 
L 700.569606 297.670361 
L 702.363125 314.32787 
L 704.156644 322.667975 
L 705.950163 321.878004 
L 707.743683 312.175878 
L 709.537202 294.26985 
L 711.330721 269.372117 
L 713.12424 239.162505 
L 718.504798 138.713501 
L 720.298317 109.720627 
L 722.091837 86.266636 
L 723.885356 70.458119 
L 725.678875 62.803564 
L 727.472394 64.487929 
L 729.265913 74.766643 
L 731.059433 93.439943 
L 732.852952 119.027766 
L 734.646471 149.823047 
L 740.027029 252.18342 
L 741.820548 281.948106 
L 743.614067 305.865184 
L 745.407587 322.545394 
L 747.201106 330.722056 
L 748.994625 329.859443 
L 750.788144 320.266279 
L 752.581663 302.183189 
L 754.375183 277.467059 
L 756.168702 247.180265 
L 761.54926 147.030905 
L 763.342779 117.94723 
L 765.136298 94.620361 
L 766.929817 78.657482 
L 768.723337 71.17545 
L 770.516856 72.56925 
L 772.310375 82.966006 
L 774.103894 101.453163 
L 775.897413 126.909324 
L 777.690933 157.659205 
L 783.07149 259.53379 
L 784.86501 289.212214 
L 786.658529 312.98855 
L 788.452048 329.528018 
L 790.245567 337.613879 
L 792.039087 336.851148 
L 793.832606 327.053681 
L 795.626125 309.252074 
L 797.419644 284.304401 
L 799.213163 254.21737 
L 804.593721 154.01807 
L 806.38724 125.020656 
L 808.18076 101.752807 
L 809.974279 85.789928 
L 811.767798 78.253416 
L 813.561317 79.574575 
L 815.354837 89.91231 
L 817.148356 108.226944 
L 818.941875 133.733046 
L 820.735394 164.246843 
L 826.115952 265.799084 
L 827.909471 295.259585 
L 829.70299 319.067701 
L 831.49651 335.498207 
L 833.290029 343.620389 
L 835.083548 342.725996 
L 836.877067 332.96939 
L 838.670587 315.099682 
L 840.464106 290.142928 
L 842.257625 260.151239 
L 847.638183 160.0382 
L 849.431702 131.090727 
L 851.225221 107.763857 
L 853.01874 91.782818 
L 854.81226 84.178204 
L 856.605779 85.599246 
L 858.399298 95.741757 
L 860.192817 114.192594 
L 861.986337 139.426292 
L 863.779856 169.962789 
L 869.160413 271.206305 
L 870.953933 300.412562 
L 872.747452 324.266079 
L 874.540971 340.551303 
L 876.33449 348.723426 
L 878.12801 347.738231 
L 879.921529 337.981625 
L 881.715048 320.089217 
L 883.508567 295.214184 
L 885.302087 265.131694 
L 890.682644 165.232038 
L 892.476163 136.243704 
L 894.269683 112.971315 
L 896.063202 97.022057 
L 897.856721 89.335721 
L 899.65024 90.743143 
L 901.44376 100.853874 
L 903.237279 119.254769 
L 905.030798 144.374966 
L 906.824317 174.770721 
L 912.204875 275.687352 
L 913.998394 305.102452 
L 915.791913 328.642705 
L 917.585433 345.04143 
L 919.378952 352.982009 
L 921.172471 352.001355 
L 922.96599 342.276529 
L 924.75951 324.375041 
L 926.553029 299.536329 
L 928.346548 269.508319 
L 933.727106 169.617744 
L 935.520625 140.570389 
L 937.314144 117.452363 
L 939.107663 101.389602 
L 940.901183 93.871249 
L 942.694702 95.083448 
L 944.488221 105.171479 
L 946.28174 123.390771 
L 948.07526 148.583609 
L 949.868779 178.870402 
L 955.249337 279.646291 
L 957.042856 308.893409 
L 958.836375 332.361021 
L 960.629894 348.746126 
L 962.423413 356.645844 
L 964.216933 355.787771 
L 966.010452 345.935824 
L 967.803971 328.025256 
L 969.59749 303.154763 
L 971.39101 273.190314 
L 976.771567 173.245258 
L 978.565087 144.433987 
L 980.358606 121.134358 
L 982.152125 105.107918 
L 983.945644 97.562325 
L 985.739163 98.706422 
L 987.532683 108.889794 
L 989.326202 127.022826 
L 991.119721 152.170262 
L 992.91324 182.429815 
L 998.293798 282.956001 
L 1000.087317 312.053296 
L 1001.880837 335.611709 
L 1003.674356 351.792511 
L 1005.467875 359.828432 
L 1007.261394 358.770596 
L 1009.054913 349.100251 
L 1010.848433 331.130662 
L 1012.641952 306.323731 
L 1014.435471 276.309341 
L 1019.816029 176.495947 
L 1021.609548 147.684675 
L 1023.403067 124.375966 
L 1025.196587 108.413087 
L 1026.990106 100.699512 
L 1028.783625 102.029752 
L 1030.577144 111.93618 
L 1032.370663 130.223574 
L 1034.164183 155.180327 
L 1035.957702 185.476201 
L 1041.33826 285.784463 
L 1043.131779 314.922619 
L 1044.925298 338.36299 
L 1046.718817 354.625514 
L 1048.512337 362.493452 
L 1050.305856 361.458316 
L 1050.305856 361.458316 
" clip-path="url(#pdf6240a86e)" style="fill: none; stroke: #ed6925; stroke-width: 1.5; stroke-linecap: square"/>
   </g>
   <g id="line2d_34">
    <path d="M 583.990856 158.231253 
L 587.577894 159.266389 
L 592.958452 161.027935 
L 600.132529 163.234408 
L 605.513087 164.877913 
L 639.589952 174.602738 
L 643.17699 175.551612 
L 646.764029 176.568588 
L 661.112183 180.200642 
L 664.699221 181.117736 
L 689.80849 186.951723 
L 691.60201 187.301308 
L 695.189048 188.268343 
L 702.363125 189.807426 
L 705.950163 190.574697 
L 709.537202 191.255708 
L 713.12424 192.07746 
L 718.504798 193.148916 
L 720.298317 193.584762 
L 723.885356 194.193132 
L 727.472394 195.005804 
L 731.059433 195.577852 
L 732.852952 196.07272 
L 734.646471 196.435925 
L 736.43999 196.653848 
L 747.201106 198.74682 
L 750.788144 199.359729 
L 752.581663 199.772875 
L 756.168702 200.258662 
L 757.962221 200.712669 
L 759.75574 201.044094 
L 761.54926 201.262017 
L 765.136298 201.920327 
L 766.929817 202.151871 
L 770.516856 202.882822 
L 772.310375 203.109825 
L 775.897413 203.813536 
L 777.690933 203.967898 
L 784.86501 205.266357 
L 790.245567 206.08357 
L 799.213163 207.45921 
L 801.006683 207.799715 
L 802.800202 207.940457 
L 811.767798 209.307018 
L 849.431702 214.482695 
L 856.605779 215.349848 
L 865.573375 216.525726 
L 869.160413 216.879851 
L 913.998394 221.769505 
L 917.585433 222.13271 
L 948.07526 224.965712 
L 971.39101 226.963342 
L 974.978048 227.253907 
L 983.945644 227.943997 
L 991.119721 228.506965 
L 992.91324 228.588687 
L 996.500279 228.883791 
L 1001.880837 229.319638 
L 1009.054913 229.755484 
L 1012.641952 230.041508 
L 1018.02251 230.445574 
L 1025.196587 230.854181 
L 1028.783625 231.162905 
L 1034.164183 231.50341 
L 1044.925298 232.202581 
L 1048.512337 232.402344 
L 1050.305856 232.524926 
L 1050.305856 232.524926 
" clip-path="url(#pdf6240a86e)" style="fill: none; stroke: #781c6d; stroke-width: 1.5; stroke-linecap: square"/>
   </g>
   <g id="patch_9">
    <path d="M 585.784375 379.158906 
L 585.784375 12.518906 
" style="fill: none; stroke: #000000; stroke-width: 0.8; stroke-linejoin: miter; stroke-linecap: square"/>
   </g>
   <g id="patch_10">
    <path d="M 1052.099375 379.158906 
L 1052.099375 12.518906 
" style="fill: none; stroke: #000000; stroke-width: 0.8; stroke-linejoin: miter; stroke-linecap: square"/>
   </g>
   <g id="patch_11">
    <path d="M 585.784375 379.158906 
L 1052.099375 379.158906 
" style="fill: none; stroke: #000000; stroke-width: 0.8; stroke-linejoin: miter; stroke-linecap: square"/>
   </g>
   <g id="patch_12">
    <path d="M 585.784375 12.518906 
L 1052.099375 12.518906 
" style="fill: none; stroke: #000000; stroke-width: 0.8; stroke-linejoin: miter; stroke-linecap: square"/>
   </g>
   <g id="legend_2">
    <g id="patch_13">
     <path d="M 712.247187 44.268281 
L 1042.299375 44.268281 
Q 1045.099375 44.268281 1045.099375 41.468281 
L 1045.099375 22.318906 
Q 1045.099375 19.518906 1042.299375 19.518906 
L 712.247187 19.518906 
Q 709.447187 19.518906 709.447187 22.318906 
L 709.447187 41.468281 
Q 709.447187 44.268281 712.247187 44.268281 
z
" style="fill: #ffffff; opacity: 0.8; stroke: #cccccc; stroke-linejoin: miter"/>
    </g>
    <g id="line2d_35">
     <path d="M 715.047187 30.856719 
L 729.047187 30.856719 
L 743.047187 30.856719 
" style="fill: none; stroke: #ed6925; stroke-width: 1.5; stroke-linecap: square"/>
    </g>
    <g id="text_33">
     <!-- Wall model -->
     <g transform="translate(754.247187 35.756719) scale(0.14 -0.14)">
      <defs>
       <path id="DejaVuSans-64" d="M 2906 2969 
L 2906 4863 
L 3481 4863 
L 3481 0 
L 2906 0 
L 2906 525 
Q 2725 213 2448 61 
Q 2172 -91 1784 -91 
Q 1150 -91 751 415 
Q 353 922 353 1747 
Q 353 2572 751 3078 
Q 1150 3584 1784 3584 
Q 2172 3584 2448 3432 
Q 2725 3281 2906 2969 
z
M 947 1747 
Q 947 1113 1208 752 
Q 1469 391 1925 391 
Q 2381 391 2643 752 
Q 2906 1113 2906 1747 
Q 2906 2381 2643 2742 
Q 2381 3103 1925 3103 
Q 1469 3103 1208 2742 
Q 947 2381 947 1747 
z
" transform="scale(0.015625)"/>
      </defs>
      <use xlink:href="#DejaVuSans-57"/>
      <use xlink:href="#DejaVuSans-61" transform="translate(92.501953 0)"/>
      <use xlink:href="#DejaVuSans-6c" transform="translate(153.78125 0)"/>
      <use xlink:href="#DejaVuSans-6c" transform="translate(181.564453 0)"/>
      <use xlink:href="#DejaVuSans-20" transform="translate(209.347656 0)"/>
      <use xlink:href="#DejaVuSans-6d" transform="translate(241.134766 0)"/>
      <use xlink:href="#DejaVuSans-6f" transform="translate(338.546875 0)"/>
      <use xlink:href="#DejaVuSans-64" transform="translate(399.728516 0)"/>
      <use xlink:href="#DejaVuSans-65" transform="translate(463.205078 0)"/>
      <use xlink:href="#DejaVuSans-6c" transform="translate(524.728516 0)"/>
     </g>
    </g>
    <g id="line2d_36">
     <path d="M 845.599375 30.856719 
L 859.599375 30.856719 
L 873.599375 30.856719 
" style="fill: none; stroke: #781c6d; stroke-width: 1.5; stroke-linecap: square"/>
    </g>
    <g id="text_34">
     <!-- Simplified (smoothed) -->
     <g transform="translate(884.799375 35.756719) scale(0.14 -0.14)">
      <defs>
       <path id="DejaVuSans-53" d="M 3425 4513 
L 3425 3897 
Q 3066 4069 2747 4153 
Q 2428 4238 2131 4238 
Q 1616 4238 1336 4038 
Q 1056 3838 1056 3469 
Q 1056 3159 1242 3001 
Q 1428 2844 1947 2747 
L 2328 2669 
Q 3034 2534 3370 2195 
Q 3706 1856 3706 1288 
Q 3706 609 3251 259 
Q 2797 -91 1919 -91 
Q 1588 -91 1214 -16 
Q 841 59 441 206 
L 441 856 
Q 825 641 1194 531 
Q 1563 422 1919 422 
Q 2459 422 2753 634 
Q 3047 847 3047 1241 
Q 3047 1584 2836 1778 
Q 2625 1972 2144 2069 
L 1759 2144 
Q 1053 2284 737 2584 
Q 422 2884 422 3419 
Q 422 4038 858 4394 
Q 1294 4750 2059 4750 
Q 2388 4750 2728 4690 
Q 3069 4631 3425 4513 
z
" transform="scale(0.015625)"/>
       <path id="DejaVuSans-70" d="M 1159 525 
L 1159 -1331 
L 581 -1331 
L 581 3500 
L 1159 3500 
L 1159 2969 
Q 1341 3281 1617 3432 
Q 1894 3584 2278 3584 
Q 2916 3584 3314 3078 
Q 3713 2572 3713 1747 
Q 3713 922 3314 415 
Q 2916 -91 2278 -91 
Q 1894 -91 1617 61 
Q 1341 213 1159 525 
z
M 3116 1747 
Q 3116 2381 2855 2742 
Q 2594 3103 2138 3103 
Q 1681 3103 1420 2742 
Q 1159 2381 1159 1747 
Q 1159 1113 1420 752 
Q 1681 391 2138 391 
Q 2594 391 2855 752 
Q 3116 1113 3116 1747 
z
" transform="scale(0.015625)"/>
       <path id="DejaVuSans-28" d="M 1984 4856 
Q 1566 4138 1362 3434 
Q 1159 2731 1159 2009 
Q 1159 1288 1364 580 
Q 1569 -128 1984 -844 
L 1484 -844 
Q 1016 -109 783 600 
Q 550 1309 550 2009 
Q 550 2706 781 3412 
Q 1013 4119 1484 4856 
L 1984 4856 
z
" transform="scale(0.015625)"/>
       <path id="DejaVuSans-29" d="M 513 4856 
L 1013 4856 
Q 1481 4119 1714 3412 
Q 1947 2706 1947 2009 
Q 1947 1309 1714 600 
Q 1481 -109 1013 -844 
L 513 -844 
Q 928 -128 1133 580 
Q 1338 1288 1338 2009 
Q 1338 2731 1133 3434 
Q 928 4138 513 4856 
z
" transform="scale(0.015625)"/>
      </defs>
      <use xlink:href="#DejaVuSans-53"/>
      <use xlink:href="#DejaVuSans-69" transform="translate(63.476562 0)"/>
      <use xlink:href="#DejaVuSans-6d" transform="translate(91.259766 0)"/>
      <use xlink:href="#DejaVuSans-70" transform="translate(188.671875 0)"/>
      <use xlink:href="#DejaVuSans-6c" transform="translate(252.148438 0)"/>
      <use xlink:href="#DejaVuSans-69" transform="translate(279.931641 0)"/>
      <use xlink:href="#DejaVuSans-66" transform="translate(307.714844 0)"/>
      <use xlink:href="#DejaVuSans-69" transform="translate(342.919922 0)"/>
      <use xlink:href="#DejaVuSans-65" transform="translate(370.703125 0)"/>
      <use xlink:href="#DejaVuSans-64" transform="translate(432.226562 0)"/>
      <use xlink:href="#DejaVuSans-20" transform="translate(495.703125 0)"/>
      <use xlink:href="#DejaVuSans-28" transform="translate(527.490234 0)"/>
      <use xlink:href="#DejaVuSans-73" transform="translate(566.503906 0)"/>
      <use xlink:href="#DejaVuSans-6d" transform="translate(618.603516 0)"/>
      <use xlink:href="#DejaVuSans-6f" transform="translate(716.015625 0)"/>
      <use xlink:href="#DejaVuSans-6f" transform="translate(777.197266 0)"/>
      <use xlink:href="#DejaVuSans-74" transform="translate(838.378906 0)"/>
      <use xlink:href="#DejaVuSans-68" transform="translate(877.587891 0)"/>
      <use xlink:href="#DejaVuSans-65" transform="translate(940.966797 0)"/>
      <use xlink:href="#DejaVuSans-64" transform="translate(1002.490234 0)"/>
      <use xlink:href="#DejaVuSans-29" transform="translate(1065.966797 0)"/>
     </g>
    </g>
   </g>
  </g>
 </g>
 <defs>
  <clipPath id="p4283b9c1c7">
   <rect x="49.564375" y="12.518906" width="466.315" height="366.64"/>
  </clipPath>
  <clipPath id="pdf6240a86e">
   <rect x="585.784375" y="12.518906" width="466.315" height="366.64"/>
  </clipPath>
 </defs>
</svg>
