<?xml version="1.0" encoding="utf-8" standalone="no"?>
<!DOCTYPE svg PUBLIC "-//W3C//DTD SVG 1.1//EN"
  "http://www.w3.org/Graphics/SVG/1.1/DTD/svg11.dtd">
<svg xmlns:xlink="http://www.w3.org/1999/xlink" width="496.661875pt" height="424.53875pt" viewBox="0 0 496.661875 424.53875" xmlns="http://www.w3.org/2000/svg" version="1.1">
 <metadata>
  <rdf:RDF xmlns:dc="http://purl.org/dc/elements/1.1/" xmlns:cc="http://creativecommons.org/ns#" xmlns:rdf="http://www.w3.org/1999/02/22-rdf-syntax-ns#">
   <cc:Work>
    <dc:type rdf:resource="http://purl.org/dc/dcmitype/StillImage"/>
    <dc:date>2025-09-23T10:04:20.225073</dc:date>
    <dc:format>image/svg+xml</dc:format>
    <dc:creator>
     <cc:Agent>
      <dc:title>Matplotlib v3.10.1, https://matplotlib.org/</dc:title>
     </cc:Agent>
    </dc:creator>
   </cc:Work>
  </rdf:RDF>
 </metadata>
 <defs>
  <style type="text/css">*{stroke-linejoin: round; stroke-linecap: butt}</style>
 </defs>
 <g id="figure_1">
  <g id="patch_1">
   <path d="M 0 424.53875 
L 496.661875 424.53875 
L 496.661875 0 
L 0 0 
z
" style="fill: #ffffff"/>
  </g>
  <g id="axes_1">
   <g id="patch_2">
    <path d="M 58.471875 379.24 
L 489.461875 379.24 
L 489.461875 7.2 
L 58.471875 7.2 
z
" style="fill: #ffffff"/>
   </g>
   <g id="matplotlib.axis_1">
    <g id="xtick_1">
     <g id="line2d_1">
      <defs>
       <path id="mb9b2a981b4" d="M 0 0 
L 0 3.5 
" style="stroke: #000000; stroke-width: 0.8"/>
      </defs>
      <g>
       <use xlink:href="#mb9b2a981b4" x="106.429113" y="379.24" style="stroke: #000000; stroke-width: 0.8"/>
      </g>
     </g>
     <g id="text_1">
      <!-- 30.4 -->
      <g transform="translate(90.843176 396.877813) scale(0.14 -0.14)">
       <defs>
        <path id="DejaVuSans-33" d="M 2597 2516 
Q 3050 2419 3304 2112 
Q 3559 1806 3559 1356 
Q 3559 666 3084 287 
Q 2609 -91 1734 -91 
Q 1441 -91 1130 -33 
Q 819 25 488 141 
L 488 750 
Q 750 597 1062 519 
Q 1375 441 1716 441 
Q 2309 441 2620 675 
Q 2931 909 2931 1356 
Q 2931 1769 2642 2001 
Q 2353 2234 1838 2234 
L 1294 2234 
L 1294 2753 
L 1863 2753 
Q 2328 2753 2575 2939 
Q 2822 3125 2822 3475 
Q 2822 3834 2567 4026 
Q 2313 4219 1838 4219 
Q 1578 4219 1281 4162 
Q 984 4106 628 3988 
L 628 4550 
Q 988 4650 1302 4700 
Q 1616 4750 1894 4750 
Q 2613 4750 3031 4423 
Q 3450 4097 3450 3541 
Q 3450 3153 3228 2886 
Q 3006 2619 2597 2516 
z
" transform="scale(0.015625)"/>
        <path id="DejaVuSans-30" d="M 2034 4250 
Q 1547 4250 1301 3770 
Q 1056 3291 1056 2328 
Q 1056 1369 1301 889 
Q 1547 409 2034 409 
Q 2525 409 2770 889 
Q 3016 1369 3016 2328 
Q 3016 3291 2770 3770 
Q 2525 4250 2034 4250 
z
M 2034 4750 
Q 2819 4750 3233 4129 
Q 3647 3509 3647 2328 
Q 3647 1150 3233 529 
Q 2819 -91 2034 -91 
Q 1250 -91 836 529 
Q 422 1150 422 2328 
Q 422 3509 836 4129 
Q 1250 4750 2034 4750 
z
" transform="scale(0.015625)"/>
        <path id="DejaVuSans-2e" d="M 684 794 
L 1344 794 
L 1344 0 
L 684 0 
L 684 794 
z
" transform="scale(0.015625)"/>
        <path id="DejaVuSans-34" d="M 2419 4116 
L 825 1625 
L 2419 1625 
L 2419 4116 
z
M 2253 4666 
L 3047 4666 
L 3047 1625 
L 3713 1625 
L 3713 1100 
L 3047 1100 
L 3047 0 
L 2419 0 
L 2419 1100 
L 313 1100 
L 313 1709 
L 2253 4666 
z
" transform="scale(0.015625)"/>
       </defs>
       <use xlink:href="#DejaVuSans-33"/>
       <use xlink:href="#DejaVuSans-30" transform="translate(63.623047 0)"/>
       <use xlink:href="#DejaVuSans-2e" transform="translate(127.246094 0)"/>
       <use xlink:href="#DejaVuSans-34" transform="translate(159.033203 0)"/>
      </g>
     </g>
    </g>
    <g id="xtick_2">
     <g id="line2d_2">
      <g>
       <use xlink:href="#mb9b2a981b4" x="189.567203" y="379.24" style="stroke: #000000; stroke-width: 0.8"/>
      </g>
     </g>
     <g id="text_2">
      <!-- 30.5 -->
      <g transform="translate(173.981265 396.877813) scale(0.14 -0.14)">
       <defs>
        <path id="DejaVuSans-35" d="M 691 4666 
L 3169 4666 
L 3169 4134 
L 1269 4134 
L 1269 2991 
Q 1406 3038 1543 3061 
Q 1681 3084 1819 3084 
Q 2600 3084 3056 2656 
Q 3513 2228 3513 1497 
Q 3513 744 3044 326 
Q 2575 -91 1722 -91 
Q 1428 -91 1123 -41 
Q 819 9 494 109 
L 494 744 
Q 775 591 1075 516 
Q 1375 441 1709 441 
Q 2250 441 2565 725 
Q 2881 1009 2881 1497 
Q 2881 1984 2565 2268 
Q 2250 2553 1709 2553 
Q 1456 2553 1204 2497 
Q 953 2441 691 2322 
L 691 4666 
z
" transform="scale(0.015625)"/>
       </defs>
       <use xlink:href="#DejaVuSans-33"/>
       <use xlink:href="#DejaVuSans-30" transform="translate(63.623047 0)"/>
       <use xlink:href="#DejaVuSans-2e" transform="translate(127.246094 0)"/>
       <use xlink:href="#DejaVuSans-35" transform="translate(159.033203 0)"/>
      </g>
     </g>
    </g>
    <g id="xtick_3">
     <g id="line2d_3">
      <g>
       <use xlink:href="#mb9b2a981b4" x="272.705292" y="379.24" style="stroke: #000000; stroke-width: 0.8"/>
      </g>
     </g>
     <g id="text_3">
      <!-- 30.6 -->
      <g transform="translate(257.119355 396.877813) scale(0.14 -0.14)">
       <defs>
        <path id="DejaVuSans-36" d="M 2113 2584 
Q 1688 2584 1439 2293 
Q 1191 2003 1191 1497 
Q 1191 994 1439 701 
Q 1688 409 2113 409 
Q 2538 409 2786 701 
Q 3034 994 3034 1497 
Q 3034 2003 2786 2293 
Q 2538 2584 2113 2584 
z
M 3366 4563 
L 3366 3988 
Q 3128 4100 2886 4159 
Q 2644 4219 2406 4219 
Q 1781 4219 1451 3797 
Q 1122 3375 1075 2522 
Q 1259 2794 1537 2939 
Q 1816 3084 2150 3084 
Q 2853 3084 3261 2657 
Q 3669 2231 3669 1497 
Q 3669 778 3244 343 
Q 2819 -91 2113 -91 
Q 1303 -91 875 529 
Q 447 1150 447 2328 
Q 447 3434 972 4092 
Q 1497 4750 2381 4750 
Q 2619 4750 2861 4703 
Q 3103 4656 3366 4563 
z
" transform="scale(0.015625)"/>
       </defs>
       <use xlink:href="#DejaVuSans-33"/>
       <use xlink:href="#DejaVuSans-30" transform="translate(63.623047 0)"/>
       <use xlink:href="#DejaVuSans-2e" transform="translate(127.246094 0)"/>
       <use xlink:href="#DejaVuSans-36" transform="translate(159.033203 0)"/>
      </g>
     </g>
    </g>
    <g id="xtick_4">
     <g id="line2d_4">
      <g>
       <use xlink:href="#mb9b2a981b4" x="355.843382" y="379.24" style="stroke: #000000; stroke-width: 0.8"/>
      </g>
     </g>
     <g id="text_4">
      <!-- 30.7 -->
      <g transform="translate(340.257445 396.877813) scale(0.14 -0.14)">
       <defs>
        <path id="DejaVuSans-37" d="M 525 4666 
L 3525 4666 
L 3525 4397 
L 1831 0 
L 1172 0 
L 2766 4134 
L 525 4134 
L 525 4666 
z
" transform="scale(0.015625)"/>
       </defs>
       <use xlink:href="#DejaVuSans-33"/>
       <use xlink:href="#DejaVuSans-30" transform="translate(63.623047 0)"/>
       <use xlink:href="#DejaVuSans-2e" transform="translate(127.246094 0)"/>
       <use xlink:href="#DejaVuSans-37" transform="translate(159.033203 0)"/>
      </g>
     </g>
    </g>
    <g id="xtick_5">
     <g id="line2d_5">
      <g>
       <use xlink:href="#mb9b2a981b4" x="438.981472" y="379.24" style="stroke: #000000; stroke-width: 0.8"/>
      </g>
     </g>
     <g id="text_5">
      <!-- 30.8 -->
      <g transform="translate(423.395534 396.877813) scale(0.14 -0.14)">
       <defs>
        <path id="DejaVuSans-38" d="M 2034 2216 
Q 1584 2216 1326 1975 
Q 1069 1734 1069 1313 
Q 1069 891 1326 650 
Q 1584 409 2034 409 
Q 2484 409 2743 651 
Q 3003 894 3003 1313 
Q 3003 1734 2745 1975 
Q 2488 2216 2034 2216 
z
M 1403 2484 
Q 997 2584 770 2862 
Q 544 3141 544 3541 
Q 544 4100 942 4425 
Q 1341 4750 2034 4750 
Q 2731 4750 3128 4425 
Q 3525 4100 3525 3541 
Q 3525 3141 3298 2862 
Q 3072 2584 2669 2484 
Q 3125 2378 3379 2068 
Q 3634 1759 3634 1313 
Q 3634 634 3220 271 
Q 2806 -91 2034 -91 
Q 1263 -91 848 271 
Q 434 634 434 1313 
Q 434 1759 690 2068 
Q 947 2378 1403 2484 
z
M 1172 3481 
Q 1172 3119 1398 2916 
Q 1625 2713 2034 2713 
Q 2441 2713 2670 2916 
Q 2900 3119 2900 3481 
Q 2900 3844 2670 4047 
Q 2441 4250 2034 4250 
Q 1625 4250 1398 4047 
Q 1172 3844 1172 3481 
z
" transform="scale(0.015625)"/>
       </defs>
       <use xlink:href="#DejaVuSans-33"/>
       <use xlink:href="#DejaVuSans-30" transform="translate(63.623047 0)"/>
       <use xlink:href="#DejaVuSans-2e" transform="translate(127.246094 0)"/>
       <use xlink:href="#DejaVuSans-38" transform="translate(159.033203 0)"/>
      </g>
     </g>
    </g>
    <g id="text_6">
     <!-- Radius / m -->
     <g transform="translate(236.873438 414.427188) scale(0.14 -0.14)">
      <defs>
       <path id="DejaVuSans-52" d="M 2841 2188 
Q 3044 2119 3236 1894 
Q 3428 1669 3622 1275 
L 4263 0 
L 3584 0 
L 2988 1197 
Q 2756 1666 2539 1819 
Q 2322 1972 1947 1972 
L 1259 1972 
L 1259 0 
L 628 0 
L 628 4666 
L 2053 4666 
Q 2853 4666 3247 4331 
Q 3641 3997 3641 3322 
Q 3641 2881 3436 2590 
Q 3231 2300 2841 2188 
z
M 1259 4147 
L 1259 2491 
L 2053 2491 
Q 2509 2491 2742 2702 
Q 2975 2913 2975 3322 
Q 2975 3731 2742 3939 
Q 2509 4147 2053 4147 
L 1259 4147 
z
" transform="scale(0.015625)"/>
       <path id="DejaVuSans-61" d="M 2194 1759 
Q 1497 1759 1228 1600 
Q 959 1441 959 1056 
Q 959 750 1161 570 
Q 1363 391 1709 391 
Q 2188 391 2477 730 
Q 2766 1069 2766 1631 
L 2766 1759 
L 2194 1759 
z
M 3341 1997 
L 3341 0 
L 2766 0 
L 2766 531 
Q 2569 213 2275 61 
Q 1981 -91 1556 -91 
Q 1019 -91 701 211 
Q 384 513 384 1019 
Q 384 1609 779 1909 
Q 1175 2209 1959 2209 
L 2766 2209 
L 2766 2266 
Q 2766 2663 2505 2880 
Q 2244 3097 1772 3097 
Q 1472 3097 1187 3025 
Q 903 2953 641 2809 
L 641 3341 
Q 956 3463 1253 3523 
Q 1550 3584 1831 3584 
Q 2591 3584 2966 3190 
Q 3341 2797 3341 1997 
z
" transform="scale(0.015625)"/>
       <path id="DejaVuSans-64" d="M 2906 2969 
L 2906 4863 
L 3481 4863 
L 3481 0 
L 2906 0 
L 2906 525 
Q 2725 213 2448 61 
Q 2172 -91 1784 -91 
Q 1150 -91 751 415 
Q 353 922 353 1747 
Q 353 2572 751 3078 
Q 1150 3584 1784 3584 
Q 2172 3584 2448 3432 
Q 2725 3281 2906 2969 
z
M 947 1747 
Q 947 1113 1208 752 
Q 1469 391 1925 391 
Q 2381 391 2643 752 
Q 2906 1113 2906 1747 
Q 2906 2381 2643 2742 
Q 2381 3103 1925 3103 
Q 1469 3103 1208 2742 
Q 947 2381 947 1747 
z
" transform="scale(0.015625)"/>
       <path id="DejaVuSans-69" d="M 603 3500 
L 1178 3500 
L 1178 0 
L 603 0 
L 603 3500 
z
M 603 4863 
L 1178 4863 
L 1178 4134 
L 603 4134 
L 603 4863 
z
" transform="scale(0.015625)"/>
       <path id="DejaVuSans-75" d="M 544 1381 
L 544 3500 
L 1119 3500 
L 1119 1403 
Q 1119 906 1312 657 
Q 1506 409 1894 409 
Q 2359 409 2629 706 
Q 2900 1003 2900 1516 
L 2900 3500 
L 3475 3500 
L 3475 0 
L 2900 0 
L 2900 538 
Q 2691 219 2414 64 
Q 2138 -91 1772 -91 
Q 1169 -91 856 284 
Q 544 659 544 1381 
z
M 1991 3584 
L 1991 3584 
z
" transform="scale(0.015625)"/>
       <path id="DejaVuSans-73" d="M 2834 3397 
L 2834 2853 
Q 2591 2978 2328 3040 
Q 2066 3103 1784 3103 
Q 1356 3103 1142 2972 
Q 928 2841 928 2578 
Q 928 2378 1081 2264 
Q 1234 2150 1697 2047 
L 1894 2003 
Q 2506 1872 2764 1633 
Q 3022 1394 3022 966 
Q 3022 478 2636 193 
Q 2250 -91 1575 -91 
Q 1294 -91 989 -36 
Q 684 19 347 128 
L 347 722 
Q 666 556 975 473 
Q 1284 391 1588 391 
Q 1994 391 2212 530 
Q 2431 669 2431 922 
Q 2431 1156 2273 1281 
Q 2116 1406 1581 1522 
L 1381 1569 
Q 847 1681 609 1914 
Q 372 2147 372 2553 
Q 372 3047 722 3315 
Q 1072 3584 1716 3584 
Q 2034 3584 2315 3537 
Q 2597 3491 2834 3397 
z
" transform="scale(0.015625)"/>
       <path id="DejaVuSans-20" transform="scale(0.015625)"/>
       <path id="DejaVuSans-2f" d="M 1625 4666 
L 2156 4666 
L 531 -594 
L 0 -594 
L 1625 4666 
z
" transform="scale(0.015625)"/>
       <path id="DejaVuSans-6d" d="M 3328 2828 
Q 3544 3216 3844 3400 
Q 4144 3584 4550 3584 
Q 5097 3584 5394 3201 
Q 5691 2819 5691 2113 
L 5691 0 
L 5113 0 
L 5113 2094 
Q 5113 2597 4934 2840 
Q 4756 3084 4391 3084 
Q 3944 3084 3684 2787 
Q 3425 2491 3425 1978 
L 3425 0 
L 2847 0 
L 2847 2094 
Q 2847 2600 2669 2842 
Q 2491 3084 2119 3084 
Q 1678 3084 1418 2786 
Q 1159 2488 1159 1978 
L 1159 0 
L 581 0 
L 581 3500 
L 1159 3500 
L 1159 2956 
Q 1356 3278 1631 3431 
Q 1906 3584 2284 3584 
Q 2666 3584 2933 3390 
Q 3200 3197 3328 2828 
z
" transform="scale(0.015625)"/>
      </defs>
      <use xlink:href="#DejaVuSans-52"/>
      <use xlink:href="#DejaVuSans-61" transform="translate(67.232422 0)"/>
      <use xlink:href="#DejaVuSans-64" transform="translate(128.511719 0)"/>
      <use xlink:href="#DejaVuSans-69" transform="translate(191.988281 0)"/>
      <use xlink:href="#DejaVuSans-75" transform="translate(219.771484 0)"/>
      <use xlink:href="#DejaVuSans-73" transform="translate(283.150391 0)"/>
      <use xlink:href="#DejaVuSans-20" transform="translate(335.25 0)"/>
      <use xlink:href="#DejaVuSans-2f" transform="translate(367.037109 0)"/>
      <use xlink:href="#DejaVuSans-20" transform="translate(400.728516 0)"/>
      <use xlink:href="#DejaVuSans-6d" transform="translate(432.515625 0)"/>
     </g>
    </g>
   </g>
   <g id="matplotlib.axis_2">
    <g id="ytick_1">
     <g id="line2d_6">
      <defs>
       <path id="mff5cc0f167" d="M 0 0 
L -3.5 0 
" style="stroke: #000000; stroke-width: 0.8"/>
      </defs>
      <g>
       <use xlink:href="#mff5cc0f167" x="58.471875" y="361.274295" style="stroke: #000000; stroke-width: 0.8"/>
      </g>
     </g>
     <g id="text_7">
      <!-- 240 -->
      <g transform="translate(24.749375 366.593201) scale(0.14 -0.14)">
       <defs>
        <path id="DejaVuSans-32" d="M 1228 531 
L 3431 531 
L 3431 0 
L 469 0 
L 469 531 
Q 828 903 1448 1529 
Q 2069 2156 2228 2338 
Q 2531 2678 2651 2914 
Q 2772 3150 2772 3378 
Q 2772 3750 2511 3984 
Q 2250 4219 1831 4219 
Q 1534 4219 1204 4116 
Q 875 4013 500 3803 
L 500 4441 
Q 881 4594 1212 4672 
Q 1544 4750 1819 4750 
Q 2544 4750 2975 4387 
Q 3406 4025 3406 3419 
Q 3406 3131 3298 2873 
Q 3191 2616 2906 2266 
Q 2828 2175 2409 1742 
Q 1991 1309 1228 531 
z
" transform="scale(0.015625)"/>
       </defs>
       <use xlink:href="#DejaVuSans-32"/>
       <use xlink:href="#DejaVuSans-34" transform="translate(63.623047 0)"/>
       <use xlink:href="#DejaVuSans-30" transform="translate(127.246094 0)"/>
      </g>
     </g>
    </g>
    <g id="ytick_2">
     <g id="line2d_7">
      <g>
       <use xlink:href="#mff5cc0f167" x="58.471875" y="286.99287" style="stroke: #000000; stroke-width: 0.8"/>
      </g>
     </g>
     <g id="text_8">
      <!-- 250 -->
      <g transform="translate(24.749375 292.311776) scale(0.14 -0.14)">
       <use xlink:href="#DejaVuSans-32"/>
       <use xlink:href="#DejaVuSans-35" transform="translate(63.623047 0)"/>
       <use xlink:href="#DejaVuSans-30" transform="translate(127.246094 0)"/>
      </g>
     </g>
    </g>
    <g id="ytick_3">
     <g id="line2d_8">
      <g>
       <use xlink:href="#mff5cc0f167" x="58.471875" y="212.711446" style="stroke: #000000; stroke-width: 0.8"/>
      </g>
     </g>
     <g id="text_9">
      <!-- 260 -->
      <g transform="translate(24.749375 218.030352) scale(0.14 -0.14)">
       <use xlink:href="#DejaVuSans-32"/>
       <use xlink:href="#DejaVuSans-36" transform="translate(63.623047 0)"/>
       <use xlink:href="#DejaVuSans-30" transform="translate(127.246094 0)"/>
      </g>
     </g>
    </g>
    <g id="ytick_4">
     <g id="line2d_9">
      <g>
       <use xlink:href="#mff5cc0f167" x="58.471875" y="138.430021" style="stroke: #000000; stroke-width: 0.8"/>
      </g>
     </g>
     <g id="text_10">
      <!-- 270 -->
      <g transform="translate(24.749375 143.748928) scale(0.14 -0.14)">
       <use xlink:href="#DejaVuSans-32"/>
       <use xlink:href="#DejaVuSans-37" transform="translate(63.623047 0)"/>
       <use xlink:href="#DejaVuSans-30" transform="translate(127.246094 0)"/>
      </g>
     </g>
    </g>
    <g id="ytick_5">
     <g id="line2d_10">
      <g>
       <use xlink:href="#mff5cc0f167" x="58.471875" y="64.148597" style="stroke: #000000; stroke-width: 0.8"/>
      </g>
     </g>
     <g id="text_11">
      <!-- 280 -->
      <g transform="translate(24.749375 69.467503) scale(0.14 -0.14)">
       <use xlink:href="#DejaVuSans-32"/>
       <use xlink:href="#DejaVuSans-38" transform="translate(63.623047 0)"/>
       <use xlink:href="#DejaVuSans-30" transform="translate(127.246094 0)"/>
      </g>
     </g>
    </g>
    <g id="text_12">
     <!-- Wall temperature / K -->
     <g transform="translate(17.837813 265.492813) rotate(-90) scale(0.14 -0.14)">
      <defs>
       <path id="DejaVuSans-57" d="M 213 4666 
L 850 4666 
L 1831 722 
L 2809 4666 
L 3519 4666 
L 4500 722 
L 5478 4666 
L 6119 4666 
L 4947 0 
L 4153 0 
L 3169 4050 
L 2175 0 
L 1381 0 
L 213 4666 
z
" transform="scale(0.015625)"/>
       <path id="DejaVuSans-6c" d="M 603 4863 
L 1178 4863 
L 1178 0 
L 603 0 
L 603 4863 
z
" transform="scale(0.015625)"/>
       <path id="DejaVuSans-74" d="M 1172 4494 
L 1172 3500 
L 2356 3500 
L 2356 3053 
L 1172 3053 
L 1172 1153 
Q 1172 725 1289 603 
Q 1406 481 1766 481 
L 2356 481 
L 2356 0 
L 1766 0 
Q 1100 0 847 248 
Q 594 497 594 1153 
L 594 3053 
L 172 3053 
L 172 3500 
L 594 3500 
L 594 4494 
L 1172 4494 
z
" transform="scale(0.015625)"/>
       <path id="DejaVuSans-65" d="M 3597 1894 
L 3597 1613 
L 953 1613 
Q 991 1019 1311 708 
Q 1631 397 2203 397 
Q 2534 397 2845 478 
Q 3156 559 3463 722 
L 3463 178 
Q 3153 47 2828 -22 
Q 2503 -91 2169 -91 
Q 1331 -91 842 396 
Q 353 884 353 1716 
Q 353 2575 817 3079 
Q 1281 3584 2069 3584 
Q 2775 3584 3186 3129 
Q 3597 2675 3597 1894 
z
M 3022 2063 
Q 3016 2534 2758 2815 
Q 2500 3097 2075 3097 
Q 1594 3097 1305 2825 
Q 1016 2553 972 2059 
L 3022 2063 
z
" transform="scale(0.015625)"/>
       <path id="DejaVuSans-70" d="M 1159 525 
L 1159 -1331 
L 581 -1331 
L 581 3500 
L 1159 3500 
L 1159 2969 
Q 1341 3281 1617 3432 
Q 1894 3584 2278 3584 
Q 2916 3584 3314 3078 
Q 3713 2572 3713 1747 
Q 3713 922 3314 415 
Q 2916 -91 2278 -91 
Q 1894 -91 1617 61 
Q 1341 213 1159 525 
z
M 3116 1747 
Q 3116 2381 2855 2742 
Q 2594 3103 2138 3103 
Q 1681 3103 1420 2742 
Q 1159 2381 1159 1747 
Q 1159 1113 1420 752 
Q 1681 391 2138 391 
Q 2594 391 2855 752 
Q 3116 1113 3116 1747 
z
" transform="scale(0.015625)"/>
       <path id="DejaVuSans-72" d="M 2631 2963 
Q 2534 3019 2420 3045 
Q 2306 3072 2169 3072 
Q 1681 3072 1420 2755 
Q 1159 2438 1159 1844 
L 1159 0 
L 581 0 
L 581 3500 
L 1159 3500 
L 1159 2956 
Q 1341 3275 1631 3429 
Q 1922 3584 2338 3584 
Q 2397 3584 2469 3576 
Q 2541 3569 2628 3553 
L 2631 2963 
z
" transform="scale(0.015625)"/>
       <path id="DejaVuSans-4b" d="M 628 4666 
L 1259 4666 
L 1259 2694 
L 3353 4666 
L 4166 4666 
L 1850 2491 
L 4331 0 
L 3500 0 
L 1259 2247 
L 1259 0 
L 628 0 
L 628 4666 
z
" transform="scale(0.015625)"/>
      </defs>
      <use xlink:href="#DejaVuSans-57"/>
      <use xlink:href="#DejaVuSans-61" transform="translate(92.501953 0)"/>
      <use xlink:href="#DejaVuSans-6c" transform="translate(153.78125 0)"/>
      <use xlink:href="#DejaVuSans-6c" transform="translate(181.564453 0)"/>
      <use xlink:href="#DejaVuSans-20" transform="translate(209.347656 0)"/>
      <use xlink:href="#DejaVuSans-74" transform="translate(241.134766 0)"/>
      <use xlink:href="#DejaVuSans-65" transform="translate(280.34375 0)"/>
      <use xlink:href="#DejaVuSans-6d" transform="translate(341.867188 0)"/>
      <use xlink:href="#DejaVuSans-70" transform="translate(439.279297 0)"/>
      <use xlink:href="#DejaVuSans-65" transform="translate(502.755859 0)"/>
      <use xlink:href="#DejaVuSans-72" transform="translate(564.279297 0)"/>
      <use xlink:href="#DejaVuSans-61" transform="translate(605.392578 0)"/>
      <use xlink:href="#DejaVuSans-74" transform="translate(666.671875 0)"/>
      <use xlink:href="#DejaVuSans-75" transform="translate(705.880859 0)"/>
      <use xlink:href="#DejaVuSans-72" transform="translate(769.259766 0)"/>
      <use xlink:href="#DejaVuSans-65" transform="translate(808.123047 0)"/>
      <use xlink:href="#DejaVuSans-20" transform="translate(869.646484 0)"/>
      <use xlink:href="#DejaVuSans-2f" transform="translate(901.433594 0)"/>
      <use xlink:href="#DejaVuSans-20" transform="translate(935.125 0)"/>
      <use xlink:href="#DejaVuSans-4b" transform="translate(966.912109 0)"/>
     </g>
    </g>
   </g>
   <g id="line2d_11">
    <path d="M 83.723148 362.329091 
L 91.986351 356.490571 
L 100.249555 350.659479 
L 108.512758 344.835815 
L 116.775961 339.012152 
L 125.039164 333.203344 
L 133.302367 327.394537 
L 141.565571 321.600586 
L 149.828774 315.814063 
L 158.091977 310.034968 
L 166.35518 304.263301 
L 174.618383 298.506491 
L 182.881586 292.757109 
L 191.14479 287.015155 
L 199.407993 281.273201 
L 207.671196 275.538675 
L 215.934399 269.79672 
L 224.197602 264.062195 
L 232.460805 258.305384 
L 240.724009 252.548574 
L 248.987212 246.762051 
L 257.250415 240.960671 
L 265.513618 235.122152 
L 273.776821 229.246491 
L 282.040025 223.318833 
L 290.303228 217.33175 
L 298.566431 211.270386 
L 306.829634 205.13474 
L 315.092837 198.902529 
L 323.35604 192.558895 
L 331.619244 186.088983 
L 339.882447 179.485365 
L 348.14565 172.725755 
L 356.408853 165.78787 
L 364.672056 158.656853 
L 372.935259 151.317848 
L 381.198463 143.748571 
L 389.461666 135.926737 
L 397.724869 127.830062 
L 405.988072 119.443689 
L 414.251275 110.730478 
L 422.514478 101.690429 
L 430.777682 92.293829 
L 439.040885 82.518393 
L 447.304088 72.341838 
L 455.567291 61.749307 
L 463.830494 50.725943 
" clip-path="url(#p93d63b2fcc)" style="fill: none; stroke: #000004; stroke-width: 1.5; stroke-linecap: square"/>
   </g>
   <g id="line2d_12">
    <path d="M 83.723148 362.321663 
L 91.986351 356.304867 
L 100.249555 350.288072 
L 108.512758 344.263848 
L 116.775961 338.232197 
L 125.039164 332.185689 
L 133.302367 326.131753 
L 141.565571 320.048104 
L 149.828774 313.942171 
L 158.091977 307.806525 
L 166.35518 301.648595 
L 174.618383 295.438668 
L 182.881586 289.199029 
L 191.14479 282.907392 
L 199.407993 276.563758 
L 207.671196 270.160699 
L 215.934399 263.705644 
L 224.197602 257.176306 
L 232.460805 250.580116 
L 240.724009 243.902216 
L 248.987212 237.142606 
L 257.250415 230.286431 
L 265.513618 223.348546 
L 273.776821 216.299239 
L 282.040025 209.160794 
L 290.303228 201.89607 
L 298.566431 194.527353 
L 306.829634 187.024929 
L 315.092837 179.418511 
L 323.35604 171.670959 
L 331.619244 163.804556 
L 339.882447 155.797018 
L 348.14565 147.670631 
L 356.408853 139.410536 
L 364.672056 131.031591 
L 372.935259 122.51894 
L 381.198463 113.894867 
L 389.461666 105.151943 
L 397.724869 96.319882 
L 405.988072 87.398683 
L 414.251275 78.403202 
L 422.514478 69.348297 
L 430.777682 60.263678 
L 439.040885 51.164204 
L 447.304088 42.087014 
L 455.567291 33.061821 
L 463.830494 24.110909 
" clip-path="url(#p93d63b2fcc)" style="fill: none; stroke: #420a68; stroke-width: 1.5; stroke-linecap: square"/>
   </g>
   <g id="line2d_13">
    <path d="M 83.723148 362.306806 
L 91.986351 355.747757 
L 100.249555 349.181279 
L 108.512758 342.622229 
L 116.775961 336.048323 
L 125.039164 329.466989 
L 133.302367 322.870798 
L 141.565571 316.26718 
L 149.828774 309.633848 
L 158.091977 302.985661 
L 166.35518 296.315189 
L 174.618383 289.622433 
L 182.881586 282.899964 
L 191.14479 276.15521 
L 199.407993 269.380744 
L 207.671196 262.576566 
L 215.934399 255.750103 
L 224.197602 248.893928 
L 232.460805 242.00804 
L 240.724009 235.107295 
L 248.987212 228.184266 
L 257.250415 221.246381 
L 265.513618 214.286212 
L 273.776821 207.333471 
L 282.040025 200.365873 
L 290.303228 193.42056 
L 298.566431 186.475247 
L 306.829634 179.567074 
L 315.092837 172.688614 
L 323.35604 165.862151 
L 331.619244 159.095114 
L 339.882447 152.402357 
L 348.14565 145.806167 
L 356.408853 139.321398 
L 364.672056 132.962908 
L 372.935259 126.76041 
L 381.198463 120.728758 
L 389.461666 114.905094 
L 397.724869 109.296847 
L 405.988072 103.948584 
L 414.251275 98.875163 
L 422.514478 94.113723 
L 430.777682 89.693979 
L 439.040885 85.653069 
L 447.304088 82.028136 
L 455.567291 78.841463 
L 463.830494 76.137619 
" clip-path="url(#p93d63b2fcc)" style="fill: none; stroke: #932667; stroke-width: 1.5; stroke-linecap: square"/>
   </g>
   <g id="line2d_14">
    <path d="M 83.723148 362.299378 
L 91.986351 355.651191 
L 100.249555 349.010432 
L 108.512758 342.369672 
L 116.775961 335.743769 
L 125.039164 329.125294 
L 133.302367 322.514247 
L 141.565571 315.925485 
L 149.828774 309.359007 
L 158.091977 302.807385 
L 166.35518 296.278048 
L 174.618383 289.785852 
L 182.881586 283.31594 
L 191.14479 276.890597 
L 199.407993 270.494966 
L 207.671196 264.15876 
L 215.934399 257.859696 
L 224.197602 251.627484 
L 232.460805 245.454698 
L 240.724009 239.356193 
L 248.987212 233.324541 
L 257.250415 227.382027 
L 265.513618 221.536079 
L 273.776821 215.786697 
L 282.040025 210.141308 
L 290.303228 204.622199 
L 298.566431 199.221939 
L 306.829634 193.962814 
L 315.092837 188.844824 
L 323.35604 183.890253 
L 331.619244 179.084245 
L 339.882447 174.46394 
L 348.14565 170.021911 
L 356.408853 165.773014 
L 364.672056 161.717248 
L 372.935259 157.86947 
L 381.198463 154.22968 
L 389.461666 150.812735 
L 397.724869 147.603777 
L 405.988072 144.63252 
L 414.251275 141.869251 
L 422.514478 139.336255 
L 430.777682 137.011246 
L 439.040885 134.894226 
L 447.304088 132.977765 
L 455.567291 131.247008 
L 463.830494 129.67967 
" clip-path="url(#p93d63b2fcc)" style="fill: none; stroke: #dd513a; stroke-width: 1.5; stroke-linecap: square"/>
   </g>
   <g id="line2d_15">
    <path d="M 83.723148 362.314235 
L 91.986351 356.171161 
L 100.249555 350.035515 
L 108.512758 343.907298 
L 116.775961 337.793936 
L 125.039164 331.695431 
L 133.302367 325.626639 
L 141.565571 319.580131 
L 149.828774 313.563336 
L 158.091977 307.583681 
L 166.35518 301.641167 
L 174.618383 295.743222 
L 182.881586 289.889846 
L 191.14479 284.081038 
L 199.407993 278.331656 
L 207.671196 272.626843 
L 215.934399 266.988883 
L 224.197602 261.40292 
L 232.460805 255.88381 
L 240.724009 250.424125 
L 248.987212 245.031294 
L 257.250415 239.690459 
L 265.513618 234.423906 
L 273.776821 229.216778 
L 282.040025 224.069076 
L 290.303228 218.980798 
L 298.566431 213.944517 
L 306.829634 208.960234 
L 315.092837 204.013091 
L 323.35604 199.103089 
L 331.619244 194.222799 
L 339.882447 189.349938 
L 348.14565 184.491933 
L 356.408853 179.619071 
L 364.672056 174.723925 
L 372.935259 169.784211 
L 381.198463 164.785071 
L 389.461666 159.696793 
L 397.724869 154.504522 
L 405.988072 149.178543 
L 414.251275 143.689146 
L 422.514478 138.006617 
L 430.777682 132.093816 
L 439.040885 125.913601 
L 447.304088 119.428833 
L 455.567291 112.594942 
L 463.830494 105.374787 
" clip-path="url(#p93d63b2fcc)" style="fill: none; stroke: #fca50a; stroke-width: 1.5; stroke-linecap: square"/>
   </g>
   <g id="patch_3">
    <path d="M 58.471875 379.24 
L 58.471875 7.2 
" style="fill: none; stroke: #000000; stroke-width: 0.8; stroke-linejoin: miter; stroke-linecap: square"/>
   </g>
   <g id="patch_4">
    <path d="M 489.461875 379.24 
L 489.461875 7.2 
" style="fill: none; stroke: #000000; stroke-width: 0.8; stroke-linejoin: miter; stroke-linecap: square"/>
   </g>
   <g id="patch_5">
    <path d="M 58.471875 379.24 
L 489.461875 379.24 
" style="fill: none; stroke: #000000; stroke-width: 0.8; stroke-linejoin: miter; stroke-linecap: square"/>
   </g>
   <g id="patch_6">
    <path d="M 58.471875 7.2 
L 489.461875 7.2 
" style="fill: none; stroke: #000000; stroke-width: 0.8; stroke-linejoin: miter; stroke-linecap: square"/>
   </g>
   <g id="legend_1">
    <g id="patch_7">
     <path d="M 377.60625 372.24 
L 479.661875 372.24 
Q 482.461875 372.24 482.461875 369.44 
L 482.461875 268.093125 
Q 482.461875 265.293125 479.661875 265.293125 
L 377.60625 265.293125 
Q 374.80625 265.293125 374.80625 268.093125 
L 374.80625 369.44 
Q 374.80625 372.24 377.60625 372.24 
z
" style="fill: #ffffff; opacity: 0.8; stroke: #cccccc; stroke-linejoin: miter"/>
    </g>
    <g id="line2d_16">
     <path d="M 380.40625 276.630938 
L 394.40625 276.630938 
L 408.40625 276.630938 
" style="fill: none; stroke: #000004; stroke-width: 1.5; stroke-linecap: square"/>
    </g>
    <g id="text_13">
     <!-- t = 50 h -->
     <g transform="translate(419.60625 281.530938) scale(0.14 -0.14)">
      <defs>
       <path id="DejaVuSans-3d" d="M 678 2906 
L 4684 2906 
L 4684 2381 
L 678 2381 
L 678 2906 
z
M 678 1631 
L 4684 1631 
L 4684 1100 
L 678 1100 
L 678 1631 
z
" transform="scale(0.015625)"/>
       <path id="DejaVuSans-68" d="M 3513 2113 
L 3513 0 
L 2938 0 
L 2938 2094 
Q 2938 2591 2744 2837 
Q 2550 3084 2163 3084 
Q 1697 3084 1428 2787 
Q 1159 2491 1159 1978 
L 1159 0 
L 581 0 
L 581 4863 
L 1159 4863 
L 1159 2956 
Q 1366 3272 1645 3428 
Q 1925 3584 2291 3584 
Q 2894 3584 3203 3211 
Q 3513 2838 3513 2113 
z
" transform="scale(0.015625)"/>
      </defs>
      <use xlink:href="#DejaVuSans-74"/>
      <use xlink:href="#DejaVuSans-20" transform="translate(39.208984 0)"/>
      <use xlink:href="#DejaVuSans-3d" transform="translate(70.996094 0)"/>
      <use xlink:href="#DejaVuSans-20" transform="translate(154.785156 0)"/>
      <use xlink:href="#DejaVuSans-35" transform="translate(186.572266 0)"/>
      <use xlink:href="#DejaVuSans-30" transform="translate(250.195312 0)"/>
      <use xlink:href="#DejaVuSans-20" transform="translate(313.818359 0)"/>
      <use xlink:href="#DejaVuSans-68" transform="translate(345.605469 0)"/>
     </g>
    </g>
    <g id="line2d_17">
     <path d="M 380.40625 297.180313 
L 394.40625 297.180313 
L 408.40625 297.180313 
" style="fill: none; stroke: #420a68; stroke-width: 1.5; stroke-linecap: square"/>
    </g>
    <g id="text_14">
     <!-- t = 55 h -->
     <g transform="translate(419.60625 302.080313) scale(0.14 -0.14)">
      <use xlink:href="#DejaVuSans-74"/>
      <use xlink:href="#DejaVuSans-20" transform="translate(39.208984 0)"/>
      <use xlink:href="#DejaVuSans-3d" transform="translate(70.996094 0)"/>
      <use xlink:href="#DejaVuSans-20" transform="translate(154.785156 0)"/>
      <use xlink:href="#DejaVuSans-35" transform="translate(186.572266 0)"/>
      <use xlink:href="#DejaVuSans-35" transform="translate(250.195312 0)"/>
      <use xlink:href="#DejaVuSans-20" transform="translate(313.818359 0)"/>
      <use xlink:href="#DejaVuSans-68" transform="translate(345.605469 0)"/>
     </g>
    </g>
    <g id="line2d_18">
     <path d="M 380.40625 317.729688 
L 394.40625 317.729688 
L 408.40625 317.729688 
" style="fill: none; stroke: #932667; stroke-width: 1.5; stroke-linecap: square"/>
    </g>
    <g id="text_15">
     <!-- t = 60 h -->
     <g transform="translate(419.60625 322.629688) scale(0.14 -0.14)">
      <use xlink:href="#DejaVuSans-74"/>
      <use xlink:href="#DejaVuSans-20" transform="translate(39.208984 0)"/>
      <use xlink:href="#DejaVuSans-3d" transform="translate(70.996094 0)"/>
      <use xlink:href="#DejaVuSans-20" transform="translate(154.785156 0)"/>
      <use xlink:href="#DejaVuSans-36" transform="translate(186.572266 0)"/>
      <use xlink:href="#DejaVuSans-30" transform="translate(250.195312 0)"/>
      <use xlink:href="#DejaVuSans-20" transform="translate(313.818359 0)"/>
      <use xlink:href="#DejaVuSans-68" transform="translate(345.605469 0)"/>
     </g>
    </g>
    <g id="line2d_19">
     <path d="M 380.40625 338.279063 
L 394.40625 338.279063 
L 408.40625 338.279063 
" style="fill: none; stroke: #dd513a; stroke-width: 1.5; stroke-linecap: square"/>
    </g>
    <g id="text_16">
     <!-- t = 65 h -->
     <g transform="translate(419.60625 343.179063) scale(0.14 -0.14)">
      <use xlink:href="#DejaVuSans-74"/>
      <use xlink:href="#DejaVuSans-20" transform="translate(39.208984 0)"/>
      <use xlink:href="#DejaVuSans-3d" transform="translate(70.996094 0)"/>
      <use xlink:href="#DejaVuSans-20" transform="translate(154.785156 0)"/>
      <use xlink:href="#DejaVuSans-36" transform="translate(186.572266 0)"/>
      <use xlink:href="#DejaVuSans-35" transform="translate(250.195312 0)"/>
      <use xlink:href="#DejaVuSans-20" transform="translate(313.818359 0)"/>
      <use xlink:href="#DejaVuSans-68" transform="translate(345.605469 0)"/>
     </g>
    </g>
    <g id="line2d_20">
     <path d="M 380.40625 358.828438 
L 394.40625 358.828438 
L 408.40625 358.828438 
" style="fill: none; stroke: #fca50a; stroke-width: 1.5; stroke-linecap: square"/>
    </g>
    <g id="text_17">
     <!-- t = 70 h -->
     <g transform="translate(419.60625 363.728438) scale(0.14 -0.14)">
      <use xlink:href="#DejaVuSans-74"/>
      <use xlink:href="#DejaVuSans-20" transform="translate(39.208984 0)"/>
      <use xlink:href="#DejaVuSans-3d" transform="translate(70.996094 0)"/>
      <use xlink:href="#DejaVuSans-20" transform="translate(154.785156 0)"/>
      <use xlink:href="#DejaVuSans-37" transform="translate(186.572266 0)"/>
      <use xlink:href="#DejaVuSans-30" transform="translate(250.195312 0)"/>
      <use xlink:href="#DejaVuSans-20" transform="translate(313.818359 0)"/>
      <use xlink:href="#DejaVuSans-68" transform="translate(345.605469 0)"/>
     </g>
    </g>
   </g>
  </g>
 </g>
 <defs>
  <clipPath id="p93d63b2fcc">
   <rect x="58.471875" y="7.2" width="430.99" height="372.04"/>
  </clipPath>
 </defs>
</svg>
