<?xml version="1.0" encoding="utf-8" standalone="no"?>
<!DOCTYPE svg PUBLIC "-//W3C//DTD SVG 1.1//EN"
  "http://www.w3.org/Graphics/SVG/1.1/DTD/svg11.dtd">
<svg xmlns:xlink="http://www.w3.org/1999/xlink" width="568.6675pt" height="422.4447pt" viewBox="0 0 568.6675 422.4447" xmlns="http://www.w3.org/2000/svg" version="1.1">
 <metadata>
  <rdf:RDF xmlns:dc="http://purl.org/dc/elements/1.1/" xmlns:cc="http://creativecommons.org/ns#" xmlns:rdf="http://www.w3.org/1999/02/22-rdf-syntax-ns#">
   <cc:Work>
    <dc:type rdf:resource="http://purl.org/dc/dcmitype/StillImage"/>
    <dc:date>2025-09-23T10:04:38.000532</dc:date>
    <dc:format>image/svg+xml</dc:format>
    <dc:creator>
     <cc:Agent>
      <dc:title>Matplotlib v3.10.1, https://matplotlib.org/</dc:title>
     </cc:Agent>
    </dc:creator>
   </cc:Work>
  </rdf:RDF>
 </metadata>
 <defs>
  <style type="text/css">*{stroke-linejoin: round; stroke-linecap: butt}</style>
 </defs>
 <g id="figure_1">
  <g id="patch_1">
   <path d="M 0 422.4447 
L 568.6675 422.4447 
L 568.6675 0 
L 0 0 
z
" style="fill: #ffffff"/>
  </g>
  <g id="axes_1">
   <g id="patch_2">
    <path d="M 62.92125 330.978 
L 548.10625 330.978 
L 548.10625 7.2 
L 62.92125 7.2 
z
" style="fill: #ffffff"/>
   </g>
   <g id="matplotlib.axis_1">
    <g id="xtick_1">
     <g id="line2d_1">
      <defs>
       <path id="m85f49428e2" d="M 0 0 
L 0 3.5 
" style="stroke: #000000; stroke-width: 0.8"/>
      </defs>
      <g>
       <use xlink:href="#m85f49428e2" x="62.92125" y="330.978" style="stroke: #000000; stroke-width: 0.8"/>
      </g>
     </g>
     <g id="text_1">
      <!-- 20 -->
      <g transform="translate(54.01375 348.615813) scale(0.14 -0.14)">
       <defs>
        <path id="DejaVuSans-32" d="M 1228 531 
L 3431 531 
L 3431 0 
L 469 0 
L 469 531 
Q 828 903 1448 1529 
Q 2069 2156 2228 2338 
Q 2531 2678 2651 2914 
Q 2772 3150 2772 3378 
Q 2772 3750 2511 3984 
Q 2250 4219 1831 4219 
Q 1534 4219 1204 4116 
Q 875 4013 500 3803 
L 500 4441 
Q 881 4594 1212 4672 
Q 1544 4750 1819 4750 
Q 2544 4750 2975 4387 
Q 3406 4025 3406 3419 
Q 3406 3131 3298 2873 
Q 3191 2616 2906 2266 
Q 2828 2175 2409 1742 
Q 1991 1309 1228 531 
z
" transform="scale(0.015625)"/>
        <path id="DejaVuSans-30" d="M 2034 4250 
Q 1547 4250 1301 3770 
Q 1056 3291 1056 2328 
Q 1056 1369 1301 889 
Q 1547 409 2034 409 
Q 2525 409 2770 889 
Q 3016 1369 3016 2328 
Q 3016 3291 2770 3770 
Q 2525 4250 2034 4250 
z
M 2034 4750 
Q 2819 4750 3233 4129 
Q 3647 3509 3647 2328 
Q 3647 1150 3233 529 
Q 2819 -91 2034 -91 
Q 1250 -91 836 529 
Q 422 1150 422 2328 
Q 422 3509 836 4129 
Q 1250 4750 2034 4750 
z
" transform="scale(0.015625)"/>
       </defs>
       <use xlink:href="#DejaVuSans-32"/>
       <use xlink:href="#DejaVuSans-30" transform="translate(63.623047 0)"/>
      </g>
     </g>
    </g>
    <g id="xtick_2">
     <g id="line2d_2">
      <g>
       <use xlink:href="#m85f49428e2" x="116.830694" y="330.978" style="stroke: #000000; stroke-width: 0.8"/>
      </g>
     </g>
     <g id="text_2">
      <!-- 40 -->
      <g transform="translate(107.923194 348.615813) scale(0.14 -0.14)">
       <defs>
        <path id="DejaVuSans-34" d="M 2419 4116 
L 825 1625 
L 2419 1625 
L 2419 4116 
z
M 2253 4666 
L 3047 4666 
L 3047 1625 
L 3713 1625 
L 3713 1100 
L 3047 1100 
L 3047 0 
L 2419 0 
L 2419 1100 
L 313 1100 
L 313 1709 
L 2253 4666 
z
" transform="scale(0.015625)"/>
       </defs>
       <use xlink:href="#DejaVuSans-34"/>
       <use xlink:href="#DejaVuSans-30" transform="translate(63.623047 0)"/>
      </g>
     </g>
    </g>
    <g id="xtick_3">
     <g id="line2d_3">
      <g>
       <use xlink:href="#m85f49428e2" x="170.740139" y="330.978" style="stroke: #000000; stroke-width: 0.8"/>
      </g>
     </g>
     <g id="text_3">
      <!-- 60 -->
      <g transform="translate(161.832639 348.615813) scale(0.14 -0.14)">
       <defs>
        <path id="DejaVuSans-36" d="M 2113 2584 
Q 1688 2584 1439 2293 
Q 1191 2003 1191 1497 
Q 1191 994 1439 701 
Q 1688 409 2113 409 
Q 2538 409 2786 701 
Q 3034 994 3034 1497 
Q 3034 2003 2786 2293 
Q 2538 2584 2113 2584 
z
M 3366 4563 
L 3366 3988 
Q 3128 4100 2886 4159 
Q 2644 4219 2406 4219 
Q 1781 4219 1451 3797 
Q 1122 3375 1075 2522 
Q 1259 2794 1537 2939 
Q 1816 3084 2150 3084 
Q 2853 3084 3261 2657 
Q 3669 2231 3669 1497 
Q 3669 778 3244 343 
Q 2819 -91 2113 -91 
Q 1303 -91 875 529 
Q 447 1150 447 2328 
Q 447 3434 972 4092 
Q 1497 4750 2381 4750 
Q 2619 4750 2861 4703 
Q 3103 4656 3366 4563 
z
" transform="scale(0.015625)"/>
       </defs>
       <use xlink:href="#DejaVuSans-36"/>
       <use xlink:href="#DejaVuSans-30" transform="translate(63.623047 0)"/>
      </g>
     </g>
    </g>
    <g id="xtick_4">
     <g id="line2d_4">
      <g>
       <use xlink:href="#m85f49428e2" x="224.649583" y="330.978" style="stroke: #000000; stroke-width: 0.8"/>
      </g>
     </g>
     <g id="text_4">
      <!-- 80 -->
      <g transform="translate(215.742083 348.615813) scale(0.14 -0.14)">
       <defs>
        <path id="DejaVuSans-38" d="M 2034 2216 
Q 1584 2216 1326 1975 
Q 1069 1734 1069 1313 
Q 1069 891 1326 650 
Q 1584 409 2034 409 
Q 2484 409 2743 651 
Q 3003 894 3003 1313 
Q 3003 1734 2745 1975 
Q 2488 2216 2034 2216 
z
M 1403 2484 
Q 997 2584 770 2862 
Q 544 3141 544 3541 
Q 544 4100 942 4425 
Q 1341 4750 2034 4750 
Q 2731 4750 3128 4425 
Q 3525 4100 3525 3541 
Q 3525 3141 3298 2862 
Q 3072 2584 2669 2484 
Q 3125 2378 3379 2068 
Q 3634 1759 3634 1313 
Q 3634 634 3220 271 
Q 2806 -91 2034 -91 
Q 1263 -91 848 271 
Q 434 634 434 1313 
Q 434 1759 690 2068 
Q 947 2378 1403 2484 
z
M 1172 3481 
Q 1172 3119 1398 2916 
Q 1625 2713 2034 2713 
Q 2441 2713 2670 2916 
Q 2900 3119 2900 3481 
Q 2900 3844 2670 4047 
Q 2441 4250 2034 4250 
Q 1625 4250 1398 4047 
Q 1172 3844 1172 3481 
z
" transform="scale(0.015625)"/>
       </defs>
       <use xlink:href="#DejaVuSans-38"/>
       <use xlink:href="#DejaVuSans-30" transform="translate(63.623047 0)"/>
      </g>
     </g>
    </g>
    <g id="xtick_5">
     <g id="line2d_5">
      <g>
       <use xlink:href="#m85f49428e2" x="278.559028" y="330.978" style="stroke: #000000; stroke-width: 0.8"/>
      </g>
     </g>
     <g id="text_5">
      <!-- 100 -->
      <g transform="translate(265.197778 348.615813) scale(0.14 -0.14)">
       <defs>
        <path id="DejaVuSans-31" d="M 794 531 
L 1825 531 
L 1825 4091 
L 703 3866 
L 703 4441 
L 1819 4666 
L 2450 4666 
L 2450 531 
L 3481 531 
L 3481 0 
L 794 0 
L 794 531 
z
" transform="scale(0.015625)"/>
       </defs>
       <use xlink:href="#DejaVuSans-31"/>
       <use xlink:href="#DejaVuSans-30" transform="translate(63.623047 0)"/>
       <use xlink:href="#DejaVuSans-30" transform="translate(127.246094 0)"/>
      </g>
     </g>
    </g>
    <g id="xtick_6">
     <g id="line2d_6">
      <g>
       <use xlink:href="#m85f49428e2" x="332.468472" y="330.978" style="stroke: #000000; stroke-width: 0.8"/>
      </g>
     </g>
     <g id="text_6">
      <!-- 120 -->
      <g transform="translate(319.107222 348.615813) scale(0.14 -0.14)">
       <use xlink:href="#DejaVuSans-31"/>
       <use xlink:href="#DejaVuSans-32" transform="translate(63.623047 0)"/>
       <use xlink:href="#DejaVuSans-30" transform="translate(127.246094 0)"/>
      </g>
     </g>
    </g>
    <g id="xtick_7">
     <g id="line2d_7">
      <g>
       <use xlink:href="#m85f49428e2" x="386.377917" y="330.978" style="stroke: #000000; stroke-width: 0.8"/>
      </g>
     </g>
     <g id="text_7">
      <!-- 140 -->
      <g transform="translate(373.016667 348.615813) scale(0.14 -0.14)">
       <use xlink:href="#DejaVuSans-31"/>
       <use xlink:href="#DejaVuSans-34" transform="translate(63.623047 0)"/>
       <use xlink:href="#DejaVuSans-30" transform="translate(127.246094 0)"/>
      </g>
     </g>
    </g>
    <g id="xtick_8">
     <g id="line2d_8">
      <g>
       <use xlink:href="#m85f49428e2" x="440.287361" y="330.978" style="stroke: #000000; stroke-width: 0.8"/>
      </g>
     </g>
     <g id="text_8">
      <!-- 160 -->
      <g transform="translate(426.926111 348.615813) scale(0.14 -0.14)">
       <use xlink:href="#DejaVuSans-31"/>
       <use xlink:href="#DejaVuSans-36" transform="translate(63.623047 0)"/>
       <use xlink:href="#DejaVuSans-30" transform="translate(127.246094 0)"/>
      </g>
     </g>
    </g>
    <g id="xtick_9">
     <g id="line2d_9">
      <g>
       <use xlink:href="#m85f49428e2" x="494.196806" y="330.978" style="stroke: #000000; stroke-width: 0.8"/>
      </g>
     </g>
     <g id="text_9">
      <!-- 180 -->
      <g transform="translate(480.835556 348.615813) scale(0.14 -0.14)">
       <use xlink:href="#DejaVuSans-31"/>
       <use xlink:href="#DejaVuSans-38" transform="translate(63.623047 0)"/>
       <use xlink:href="#DejaVuSans-30" transform="translate(127.246094 0)"/>
      </g>
     </g>
    </g>
    <g id="xtick_10">
     <g id="line2d_10">
      <g>
       <use xlink:href="#m85f49428e2" x="548.10625" y="330.978" style="stroke: #000000; stroke-width: 0.8"/>
      </g>
     </g>
     <g id="text_10">
      <!-- 200 -->
      <g transform="translate(534.745 348.615813) scale(0.14 -0.14)">
       <use xlink:href="#DejaVuSans-32"/>
       <use xlink:href="#DejaVuSans-30" transform="translate(63.623047 0)"/>
       <use xlink:href="#DejaVuSans-30" transform="translate(127.246094 0)"/>
      </g>
     </g>
    </g>
    <g id="text_11">
     <!-- Time / h -->
     <g transform="translate(277.142969 366.165188) scale(0.14 -0.14)">
      <defs>
       <path id="DejaVuSans-54" d="M -19 4666 
L 3928 4666 
L 3928 4134 
L 2272 4134 
L 2272 0 
L 1638 0 
L 1638 4134 
L -19 4134 
L -19 4666 
z
" transform="scale(0.015625)"/>
       <path id="DejaVuSans-69" d="M 603 3500 
L 1178 3500 
L 1178 0 
L 603 0 
L 603 3500 
z
M 603 4863 
L 1178 4863 
L 1178 4134 
L 603 4134 
L 603 4863 
z
" transform="scale(0.015625)"/>
       <path id="DejaVuSans-6d" d="M 3328 2828 
Q 3544 3216 3844 3400 
Q 4144 3584 4550 3584 
Q 5097 3584 5394 3201 
Q 5691 2819 5691 2113 
L 5691 0 
L 5113 0 
L 5113 2094 
Q 5113 2597 4934 2840 
Q 4756 3084 4391 3084 
Q 3944 3084 3684 2787 
Q 3425 2491 3425 1978 
L 3425 0 
L 2847 0 
L 2847 2094 
Q 2847 2600 2669 2842 
Q 2491 3084 2119 3084 
Q 1678 3084 1418 2786 
Q 1159 2488 1159 1978 
L 1159 0 
L 581 0 
L 581 3500 
L 1159 3500 
L 1159 2956 
Q 1356 3278 1631 3431 
Q 1906 3584 2284 3584 
Q 2666 3584 2933 3390 
Q 3200 3197 3328 2828 
z
" transform="scale(0.015625)"/>
       <path id="DejaVuSans-65" d="M 3597 1894 
L 3597 1613 
L 953 1613 
Q 991 1019 1311 708 
Q 1631 397 2203 397 
Q 2534 397 2845 478 
Q 3156 559 3463 722 
L 3463 178 
Q 3153 47 2828 -22 
Q 2503 -91 2169 -91 
Q 1331 -91 842 396 
Q 353 884 353 1716 
Q 353 2575 817 3079 
Q 1281 3584 2069 3584 
Q 2775 3584 3186 3129 
Q 3597 2675 3597 1894 
z
M 3022 2063 
Q 3016 2534 2758 2815 
Q 2500 3097 2075 3097 
Q 1594 3097 1305 2825 
Q 1016 2553 972 2059 
L 3022 2063 
z
" transform="scale(0.015625)"/>
       <path id="DejaVuSans-20" transform="scale(0.015625)"/>
       <path id="DejaVuSans-2f" d="M 1625 4666 
L 2156 4666 
L 531 -594 
L 0 -594 
L 1625 4666 
z
" transform="scale(0.015625)"/>
       <path id="DejaVuSans-68" d="M 3513 2113 
L 3513 0 
L 2938 0 
L 2938 2094 
Q 2938 2591 2744 2837 
Q 2550 3084 2163 3084 
Q 1697 3084 1428 2787 
Q 1159 2491 1159 1978 
L 1159 0 
L 581 0 
L 581 4863 
L 1159 4863 
L 1159 2956 
Q 1366 3272 1645 3428 
Q 1925 3584 2291 3584 
Q 2894 3584 3203 3211 
Q 3513 2838 3513 2113 
z
" transform="scale(0.015625)"/>
      </defs>
      <use xlink:href="#DejaVuSans-54"/>
      <use xlink:href="#DejaVuSans-69" transform="translate(57.958984 0)"/>
      <use xlink:href="#DejaVuSans-6d" transform="translate(85.742188 0)"/>
      <use xlink:href="#DejaVuSans-65" transform="translate(183.154297 0)"/>
      <use xlink:href="#DejaVuSans-20" transform="translate(244.677734 0)"/>
      <use xlink:href="#DejaVuSans-2f" transform="translate(276.464844 0)"/>
      <use xlink:href="#DejaVuSans-20" transform="translate(310.15625 0)"/>
      <use xlink:href="#DejaVuSans-68" transform="translate(341.943359 0)"/>
     </g>
    </g>
   </g>
   <g id="matplotlib.axis_2">
    <g id="ytick_1">
     <g id="line2d_11">
      <defs>
       <path id="mb6f0f4a130" d="M 0 0 
L -3.5 0 
" style="stroke: #000000; stroke-width: 0.8"/>
      </defs>
      <g>
       <use xlink:href="#mb6f0f4a130" x="62.92125" y="323.226642" style="stroke: #000000; stroke-width: 0.8"/>
      </g>
     </g>
     <g id="text_12">
      <!-- 0.65 -->
      <g transform="translate(24.749375 328.545548) scale(0.14 -0.14)">
       <defs>
        <path id="DejaVuSans-2e" d="M 684 794 
L 1344 794 
L 1344 0 
L 684 0 
L 684 794 
z
" transform="scale(0.015625)"/>
        <path id="DejaVuSans-35" d="M 691 4666 
L 3169 4666 
L 3169 4134 
L 1269 4134 
L 1269 2991 
Q 1406 3038 1543 3061 
Q 1681 3084 1819 3084 
Q 2600 3084 3056 2656 
Q 3513 2228 3513 1497 
Q 3513 744 3044 326 
Q 2575 -91 1722 -91 
Q 1428 -91 1123 -41 
Q 819 9 494 109 
L 494 744 
Q 775 591 1075 516 
Q 1375 441 1709 441 
Q 2250 441 2565 725 
Q 2881 1009 2881 1497 
Q 2881 1984 2565 2268 
Q 2250 2553 1709 2553 
Q 1456 2553 1204 2497 
Q 953 2441 691 2322 
L 691 4666 
z
" transform="scale(0.015625)"/>
       </defs>
       <use xlink:href="#DejaVuSans-30"/>
       <use xlink:href="#DejaVuSans-2e" transform="translate(63.623047 0)"/>
       <use xlink:href="#DejaVuSans-36" transform="translate(95.410156 0)"/>
       <use xlink:href="#DejaVuSans-35" transform="translate(159.033203 0)"/>
      </g>
     </g>
    </g>
    <g id="ytick_2">
     <g id="line2d_12">
      <g>
       <use xlink:href="#mb6f0f4a130" x="62.92125" y="280.182433" style="stroke: #000000; stroke-width: 0.8"/>
      </g>
     </g>
     <g id="text_13">
      <!-- 0.70 -->
      <g transform="translate(24.749375 285.501339) scale(0.14 -0.14)">
       <defs>
        <path id="DejaVuSans-37" d="M 525 4666 
L 3525 4666 
L 3525 4397 
L 1831 0 
L 1172 0 
L 2766 4134 
L 525 4134 
L 525 4666 
z
" transform="scale(0.015625)"/>
       </defs>
       <use xlink:href="#DejaVuSans-30"/>
       <use xlink:href="#DejaVuSans-2e" transform="translate(63.623047 0)"/>
       <use xlink:href="#DejaVuSans-37" transform="translate(95.410156 0)"/>
       <use xlink:href="#DejaVuSans-30" transform="translate(159.033203 0)"/>
      </g>
     </g>
    </g>
    <g id="ytick_3">
     <g id="line2d_13">
      <g>
       <use xlink:href="#mb6f0f4a130" x="62.92125" y="237.138224" style="stroke: #000000; stroke-width: 0.8"/>
      </g>
     </g>
     <g id="text_14">
      <!-- 0.75 -->
      <g transform="translate(24.749375 242.457131) scale(0.14 -0.14)">
       <use xlink:href="#DejaVuSans-30"/>
       <use xlink:href="#DejaVuSans-2e" transform="translate(63.623047 0)"/>
       <use xlink:href="#DejaVuSans-37" transform="translate(95.410156 0)"/>
       <use xlink:href="#DejaVuSans-35" transform="translate(159.033203 0)"/>
      </g>
     </g>
    </g>
    <g id="ytick_4">
     <g id="line2d_14">
      <g>
       <use xlink:href="#mb6f0f4a130" x="62.92125" y="194.094016" style="stroke: #000000; stroke-width: 0.8"/>
      </g>
     </g>
     <g id="text_15">
      <!-- 0.80 -->
      <g transform="translate(24.749375 199.412922) scale(0.14 -0.14)">
       <use xlink:href="#DejaVuSans-30"/>
       <use xlink:href="#DejaVuSans-2e" transform="translate(63.623047 0)"/>
       <use xlink:href="#DejaVuSans-38" transform="translate(95.410156 0)"/>
       <use xlink:href="#DejaVuSans-30" transform="translate(159.033203 0)"/>
      </g>
     </g>
    </g>
    <g id="ytick_5">
     <g id="line2d_15">
      <g>
       <use xlink:href="#mb6f0f4a130" x="62.92125" y="151.049807" style="stroke: #000000; stroke-width: 0.8"/>
      </g>
     </g>
     <g id="text_16">
      <!-- 0.85 -->
      <g transform="translate(24.749375 156.368714) scale(0.14 -0.14)">
       <use xlink:href="#DejaVuSans-30"/>
       <use xlink:href="#DejaVuSans-2e" transform="translate(63.623047 0)"/>
       <use xlink:href="#DejaVuSans-38" transform="translate(95.410156 0)"/>
       <use xlink:href="#DejaVuSans-35" transform="translate(159.033203 0)"/>
      </g>
     </g>
    </g>
    <g id="ytick_6">
     <g id="line2d_16">
      <g>
       <use xlink:href="#mb6f0f4a130" x="62.92125" y="108.005599" style="stroke: #000000; stroke-width: 0.8"/>
      </g>
     </g>
     <g id="text_17">
      <!-- 0.90 -->
      <g transform="translate(24.749375 113.324505) scale(0.14 -0.14)">
       <defs>
        <path id="DejaVuSans-39" d="M 703 97 
L 703 672 
Q 941 559 1184 500 
Q 1428 441 1663 441 
Q 2288 441 2617 861 
Q 2947 1281 2994 2138 
Q 2813 1869 2534 1725 
Q 2256 1581 1919 1581 
Q 1219 1581 811 2004 
Q 403 2428 403 3163 
Q 403 3881 828 4315 
Q 1253 4750 1959 4750 
Q 2769 4750 3195 4129 
Q 3622 3509 3622 2328 
Q 3622 1225 3098 567 
Q 2575 -91 1691 -91 
Q 1453 -91 1209 -44 
Q 966 3 703 97 
z
M 1959 2075 
Q 2384 2075 2632 2365 
Q 2881 2656 2881 3163 
Q 2881 3666 2632 3958 
Q 2384 4250 1959 4250 
Q 1534 4250 1286 3958 
Q 1038 3666 1038 3163 
Q 1038 2656 1286 2365 
Q 1534 2075 1959 2075 
z
" transform="scale(0.015625)"/>
       </defs>
       <use xlink:href="#DejaVuSans-30"/>
       <use xlink:href="#DejaVuSans-2e" transform="translate(63.623047 0)"/>
       <use xlink:href="#DejaVuSans-39" transform="translate(95.410156 0)"/>
       <use xlink:href="#DejaVuSans-30" transform="translate(159.033203 0)"/>
      </g>
     </g>
    </g>
    <g id="ytick_7">
     <g id="line2d_17">
      <g>
       <use xlink:href="#mb6f0f4a130" x="62.92125" y="64.96139" style="stroke: #000000; stroke-width: 0.8"/>
      </g>
     </g>
     <g id="text_18">
      <!-- 0.95 -->
      <g transform="translate(24.749375 70.280297) scale(0.14 -0.14)">
       <use xlink:href="#DejaVuSans-30"/>
       <use xlink:href="#DejaVuSans-2e" transform="translate(63.623047 0)"/>
       <use xlink:href="#DejaVuSans-39" transform="translate(95.410156 0)"/>
       <use xlink:href="#DejaVuSans-35" transform="translate(159.033203 0)"/>
      </g>
     </g>
    </g>
    <g id="ytick_8">
     <g id="line2d_18">
      <g>
       <use xlink:href="#mb6f0f4a130" x="62.92125" y="21.917182" style="stroke: #000000; stroke-width: 0.8"/>
      </g>
     </g>
     <g id="text_19">
      <!-- 1.00 -->
      <g transform="translate(24.749375 27.236088) scale(0.14 -0.14)">
       <use xlink:href="#DejaVuSans-31"/>
       <use xlink:href="#DejaVuSans-2e" transform="translate(63.623047 0)"/>
       <use xlink:href="#DejaVuSans-30" transform="translate(95.410156 0)"/>
       <use xlink:href="#DejaVuSans-30" transform="translate(159.033203 0)"/>
      </g>
     </g>
    </g>
    <g id="text_20">
     <!-- Normalized Heat Transfer Rate -->
     <g transform="translate(17.837813 276.255719) rotate(-90) scale(0.14 -0.14)">
      <defs>
       <path id="DejaVuSans-4e" d="M 628 4666 
L 1478 4666 
L 3547 763 
L 3547 4666 
L 4159 4666 
L 4159 0 
L 3309 0 
L 1241 3903 
L 1241 0 
L 628 0 
L 628 4666 
z
" transform="scale(0.015625)"/>
       <path id="DejaVuSans-6f" d="M 1959 3097 
Q 1497 3097 1228 2736 
Q 959 2375 959 1747 
Q 959 1119 1226 758 
Q 1494 397 1959 397 
Q 2419 397 2687 759 
Q 2956 1122 2956 1747 
Q 2956 2369 2687 2733 
Q 2419 3097 1959 3097 
z
M 1959 3584 
Q 2709 3584 3137 3096 
Q 3566 2609 3566 1747 
Q 3566 888 3137 398 
Q 2709 -91 1959 -91 
Q 1206 -91 779 398 
Q 353 888 353 1747 
Q 353 2609 779 3096 
Q 1206 3584 1959 3584 
z
" transform="scale(0.015625)"/>
       <path id="DejaVuSans-72" d="M 2631 2963 
Q 2534 3019 2420 3045 
Q 2306 3072 2169 3072 
Q 1681 3072 1420 2755 
Q 1159 2438 1159 1844 
L 1159 0 
L 581 0 
L 581 3500 
L 1159 3500 
L 1159 2956 
Q 1341 3275 1631 3429 
Q 1922 3584 2338 3584 
Q 2397 3584 2469 3576 
Q 2541 3569 2628 3553 
L 2631 2963 
z
" transform="scale(0.015625)"/>
       <path id="DejaVuSans-61" d="M 2194 1759 
Q 1497 1759 1228 1600 
Q 959 1441 959 1056 
Q 959 750 1161 570 
Q 1363 391 1709 391 
Q 2188 391 2477 730 
Q 2766 1069 2766 1631 
L 2766 1759 
L 2194 1759 
z
M 3341 1997 
L 3341 0 
L 2766 0 
L 2766 531 
Q 2569 213 2275 61 
Q 1981 -91 1556 -91 
Q 1019 -91 701 211 
Q 384 513 384 1019 
Q 384 1609 779 1909 
Q 1175 2209 1959 2209 
L 2766 2209 
L 2766 2266 
Q 2766 2663 2505 2880 
Q 2244 3097 1772 3097 
Q 1472 3097 1187 3025 
Q 903 2953 641 2809 
L 641 3341 
Q 956 3463 1253 3523 
Q 1550 3584 1831 3584 
Q 2591 3584 2966 3190 
Q 3341 2797 3341 1997 
z
" transform="scale(0.015625)"/>
       <path id="DejaVuSans-6c" d="M 603 4863 
L 1178 4863 
L 1178 0 
L 603 0 
L 603 4863 
z
" transform="scale(0.015625)"/>
       <path id="DejaVuSans-7a" d="M 353 3500 
L 3084 3500 
L 3084 2975 
L 922 459 
L 3084 459 
L 3084 0 
L 275 0 
L 275 525 
L 2438 3041 
L 353 3041 
L 353 3500 
z
" transform="scale(0.015625)"/>
       <path id="DejaVuSans-64" d="M 2906 2969 
L 2906 4863 
L 3481 4863 
L 3481 0 
L 2906 0 
L 2906 525 
Q 2725 213 2448 61 
Q 2172 -91 1784 -91 
Q 1150 -91 751 415 
Q 353 922 353 1747 
Q 353 2572 751 3078 
Q 1150 3584 1784 3584 
Q 2172 3584 2448 3432 
Q 2725 3281 2906 2969 
z
M 947 1747 
Q 947 1113 1208 752 
Q 1469 391 1925 391 
Q 2381 391 2643 752 
Q 2906 1113 2906 1747 
Q 2906 2381 2643 2742 
Q 2381 3103 1925 3103 
Q 1469 3103 1208 2742 
Q 947 2381 947 1747 
z
" transform="scale(0.015625)"/>
       <path id="DejaVuSans-48" d="M 628 4666 
L 1259 4666 
L 1259 2753 
L 3553 2753 
L 3553 4666 
L 4184 4666 
L 4184 0 
L 3553 0 
L 3553 2222 
L 1259 2222 
L 1259 0 
L 628 0 
L 628 4666 
z
" transform="scale(0.015625)"/>
       <path id="DejaVuSans-74" d="M 1172 4494 
L 1172 3500 
L 2356 3500 
L 2356 3053 
L 1172 3053 
L 1172 1153 
Q 1172 725 1289 603 
Q 1406 481 1766 481 
L 2356 481 
L 2356 0 
L 1766 0 
Q 1100 0 847 248 
Q 594 497 594 1153 
L 594 3053 
L 172 3053 
L 172 3500 
L 594 3500 
L 594 4494 
L 1172 4494 
z
" transform="scale(0.015625)"/>
       <path id="DejaVuSans-6e" d="M 3513 2113 
L 3513 0 
L 2938 0 
L 2938 2094 
Q 2938 2591 2744 2837 
Q 2550 3084 2163 3084 
Q 1697 3084 1428 2787 
Q 1159 2491 1159 1978 
L 1159 0 
L 581 0 
L 581 3500 
L 1159 3500 
L 1159 2956 
Q 1366 3272 1645 3428 
Q 1925 3584 2291 3584 
Q 2894 3584 3203 3211 
Q 3513 2838 3513 2113 
z
" transform="scale(0.015625)"/>
       <path id="DejaVuSans-73" d="M 2834 3397 
L 2834 2853 
Q 2591 2978 2328 3040 
Q 2066 3103 1784 3103 
Q 1356 3103 1142 2972 
Q 928 2841 928 2578 
Q 928 2378 1081 2264 
Q 1234 2150 1697 2047 
L 1894 2003 
Q 2506 1872 2764 1633 
Q 3022 1394 3022 966 
Q 3022 478 2636 193 
Q 2250 -91 1575 -91 
Q 1294 -91 989 -36 
Q 684 19 347 128 
L 347 722 
Q 666 556 975 473 
Q 1284 391 1588 391 
Q 1994 391 2212 530 
Q 2431 669 2431 922 
Q 2431 1156 2273 1281 
Q 2116 1406 1581 1522 
L 1381 1569 
Q 847 1681 609 1914 
Q 372 2147 372 2553 
Q 372 3047 722 3315 
Q 1072 3584 1716 3584 
Q 2034 3584 2315 3537 
Q 2597 3491 2834 3397 
z
" transform="scale(0.015625)"/>
       <path id="DejaVuSans-66" d="M 2375 4863 
L 2375 4384 
L 1825 4384 
Q 1516 4384 1395 4259 
Q 1275 4134 1275 3809 
L 1275 3500 
L 2222 3500 
L 2222 3053 
L 1275 3053 
L 1275 0 
L 697 0 
L 697 3053 
L 147 3053 
L 147 3500 
L 697 3500 
L 697 3744 
Q 697 4328 969 4595 
Q 1241 4863 1831 4863 
L 2375 4863 
z
" transform="scale(0.015625)"/>
       <path id="DejaVuSans-52" d="M 2841 2188 
Q 3044 2119 3236 1894 
Q 3428 1669 3622 1275 
L 4263 0 
L 3584 0 
L 2988 1197 
Q 2756 1666 2539 1819 
Q 2322 1972 1947 1972 
L 1259 1972 
L 1259 0 
L 628 0 
L 628 4666 
L 2053 4666 
Q 2853 4666 3247 4331 
Q 3641 3997 3641 3322 
Q 3641 2881 3436 2590 
Q 3231 2300 2841 2188 
z
M 1259 4147 
L 1259 2491 
L 2053 2491 
Q 2509 2491 2742 2702 
Q 2975 2913 2975 3322 
Q 2975 3731 2742 3939 
Q 2509 4147 2053 4147 
L 1259 4147 
z
" transform="scale(0.015625)"/>
      </defs>
      <use xlink:href="#DejaVuSans-4e"/>
      <use xlink:href="#DejaVuSans-6f" transform="translate(74.804688 0)"/>
      <use xlink:href="#DejaVuSans-72" transform="translate(135.986328 0)"/>
      <use xlink:href="#DejaVuSans-6d" transform="translate(175.349609 0)"/>
      <use xlink:href="#DejaVuSans-61" transform="translate(272.761719 0)"/>
      <use xlink:href="#DejaVuSans-6c" transform="translate(334.041016 0)"/>
      <use xlink:href="#DejaVuSans-69" transform="translate(361.824219 0)"/>
      <use xlink:href="#DejaVuSans-7a" transform="translate(389.607422 0)"/>
      <use xlink:href="#DejaVuSans-65" transform="translate(442.097656 0)"/>
      <use xlink:href="#DejaVuSans-64" transform="translate(503.621094 0)"/>
      <use xlink:href="#DejaVuSans-20" transform="translate(567.097656 0)"/>
      <use xlink:href="#DejaVuSans-48" transform="translate(598.884766 0)"/>
      <use xlink:href="#DejaVuSans-65" transform="translate(674.080078 0)"/>
      <use xlink:href="#DejaVuSans-61" transform="translate(735.603516 0)"/>
      <use xlink:href="#DejaVuSans-74" transform="translate(796.882812 0)"/>
      <use xlink:href="#DejaVuSans-20" transform="translate(836.091797 0)"/>
      <use xlink:href="#DejaVuSans-54" transform="translate(867.878906 0)"/>
      <use xlink:href="#DejaVuSans-72" transform="translate(914.212891 0)"/>
      <use xlink:href="#DejaVuSans-61" transform="translate(955.326172 0)"/>
      <use xlink:href="#DejaVuSans-6e" transform="translate(1016.605469 0)"/>
      <use xlink:href="#DejaVuSans-73" transform="translate(1079.984375 0)"/>
      <use xlink:href="#DejaVuSans-66" transform="translate(1132.083984 0)"/>
      <use xlink:href="#DejaVuSans-65" transform="translate(1167.289062 0)"/>
      <use xlink:href="#DejaVuSans-72" transform="translate(1228.8125 0)"/>
      <use xlink:href="#DejaVuSans-20" transform="translate(1269.925781 0)"/>
      <use xlink:href="#DejaVuSans-52" transform="translate(1301.712891 0)"/>
      <use xlink:href="#DejaVuSans-61" transform="translate(1368.945312 0)"/>
      <use xlink:href="#DejaVuSans-74" transform="translate(1430.224609 0)"/>
      <use xlink:href="#DejaVuSans-65" transform="translate(1469.433594 0)"/>
     </g>
    </g>
   </g>
   <g id="line2d_19">
    <path d="M 62.92125 29.331797 
L 65.616722 40.432181 
L 68.312194 47.604488 
L 71.007667 51.249872 
L 73.703139 51.782949 
L 76.398611 49.766411 
L 79.094083 45.784488 
L 81.789556 40.677181 
L 84.485028 35.079873 
L 87.1805 29.773335 
L 89.875972 25.495258 
L 92.571444 22.646797 
L 95.266917 21.917182 
L 97.962389 23.306412 
L 100.657861 27.134874 
L 103.353333 33.055258 
L 106.048806 41.011027 
L 108.744278 50.487949 
L 114.135222 71.929486 
L 116.830694 82.674485 
L 119.526167 92.380254 
L 122.221639 100.651022 
L 124.917111 106.87833 
L 127.612583 110.690637 
L 130.308056 111.974868 
L 133.003528 110.572176 
L 135.699 106.671022 
L 138.394472 100.535253 
L 141.089944 92.654869 
L 143.785417 83.476793 
L 149.176361 64.167563 
L 151.871833 55.444487 
L 154.567306 47.970642 
L 157.262778 42.588719 
L 159.95825 39.320258 
L 162.653722 38.649873 
L 165.349194 40.574873 
L 168.044667 44.871796 
L 170.740139 51.451795 
L 173.435611 59.682179 
L 176.131083 69.11064 
L 181.522028 88.928716 
L 184.2175 97.872561 
L 186.912972 105.456791 
L 189.608444 111.048714 
L 192.303917 114.424868 
L 194.999389 115.151791 
L 197.694861 113.487945 
L 200.390333 109.129099 
L 203.085806 102.788715 
L 205.781278 94.555638 
L 208.47675 85.240254 
L 213.867694 65.521794 
L 216.563167 56.588718 
L 219.258639 49.061026 
L 221.954111 43.428719 
L 224.649583 40.149488 
L 227.345056 39.374104 
L 230.040528 41.151027 
L 232.736 45.488334 
L 235.431472 51.855641 
L 238.126944 60.139871 
L 240.822417 69.46064 
L 246.213361 89.152177 
L 248.908833 98.106792 
L 251.604306 105.642561 
L 254.299778 111.309868 
L 256.99525 114.578329 
L 259.690722 115.421021 
L 262.386194 113.571406 
L 265.081667 109.29333 
L 267.777139 102.850638 
L 270.472611 94.601408 
L 273.168083 85.2941 
L 278.559028 65.669871 
L 281.2545 56.650641 
L 283.949972 49.087949 
L 286.645444 43.439488 
L 289.340917 40.179104 
L 292.036389 39.336411 
L 294.731861 41.24795 
L 297.427333 45.469488 
L 300.122806 51.97141 
L 302.818278 60.129102 
L 305.51375 69.468717 
L 310.904694 89.171023 
L 313.600167 98.125638 
L 316.295639 105.701791 
L 318.991111 111.320637 
L 321.686583 114.599868 
L 324.382056 115.421021 
L 327.077528 113.528329 
L 329.773 109.331022 
L 332.468472 102.826407 
L 335.163944 94.703715 
L 337.859417 85.280639 
L 343.250361 65.58641 
L 345.945833 56.66141 
L 348.641306 49.066411 
L 351.336778 43.504103 
L 354.03225 40.160257 
L 356.727722 39.390258 
L 359.423194 41.218334 
L 362.118667 45.445257 
L 364.814139 51.955257 
L 367.509611 60.123718 
L 372.900556 79.406024 
L 375.596028 89.203331 
L 378.2915 98.109484 
L 380.986972 105.672176 
L 383.682444 111.245253 
L 386.377917 114.626791 
L 389.073389 115.342945 
L 391.768861 113.617175 
L 394.464333 109.28256 
L 397.159806 102.877561 
L 399.855278 94.660638 
L 402.55075 85.256408 
L 407.941694 65.519102 
L 410.637167 56.658718 
L 413.332639 49.104103 
L 416.028111 43.531026 
L 418.723583 40.157565 
L 421.419056 39.387565 
L 424.114528 41.148334 
L 426.81 45.47218 
L 429.505472 51.86641 
L 432.200944 60.164102 
L 434.896417 69.46064 
L 440.287361 89.176408 
L 442.982833 98.16333 
L 445.678306 105.704484 
L 448.373778 111.280253 
L 451.06925 114.632175 
L 453.764722 115.40756 
L 456.460194 113.595637 
L 459.155667 109.322945 
L 461.851139 102.874868 
L 464.546611 94.631023 
L 467.242083 85.326408 
L 472.633028 65.659102 
L 475.3285 56.637179 
L 478.023972 49.14718 
L 480.719444 43.479873 
L 483.414917 40.149488 
L 486.110389 39.376796 
L 488.805861 41.223719 
L 491.501333 45.477565 
L 494.196806 51.984872 
L 496.892278 60.153333 
L 499.58775 69.506409 
L 504.978694 89.138716 
L 507.674167 98.179484 
L 510.369639 105.696407 
L 513.065111 111.393329 
L 515.760583 114.642945 
L 518.456056 115.410252 
L 521.151528 113.566022 
L 523.847 109.331022 
L 526.542472 102.812945 
L 529.237944 94.701023 
L 531.933417 85.283331 
L 537.324361 65.624102 
L 540.019833 56.615641 
L 542.715306 49.104103 
L 545.410778 43.47718 
L 548.10625 40.179104 
L 550.801722 39.409104 
L 553.497194 41.239873 
L 556.192667 45.474872 
L 558.888139 51.995641 
L 561.583611 60.102179 
L 566.974556 79.414101 
L 569.6675 89.234497 
L 569.6675 89.234497 
" clip-path="url(#pdd5e2259d9)" style="fill: none; stroke: #000004; stroke-width: 1.5; stroke-linecap: square"/>
   </g>
   <g id="line2d_20">
    <path d="M 62.92125 21.917182 
L 65.616722 50.003226 
L 68.312194 76.352808 
L 71.007667 100.428723 
L 73.703139 121.519738 
L 76.398611 139.047034 
L 79.094083 152.431789 
L 81.789556 161.575643 
L 84.485028 166.259172 
L 87.1805 166.728282 
L 89.875972 163.478563 
L 92.571444 156.892113 
L 95.266917 148.115224 
L 100.657861 126.876667 
L 103.353333 116.333051 
L 106.048806 107.249727 
L 108.744278 100.288746 
L 111.43975 96.244568 
L 114.135222 95.257168 
L 116.830694 97.875102 
L 119.526167 103.651959 
L 122.221639 112.568824 
L 124.917111 123.952298 
L 127.612583 137.110065 
L 133.003528 165.600906 
L 135.699 179.023492 
L 138.394472 190.702051 
L 141.089944 199.944266 
L 143.785417 205.989727 
L 146.480889 208.675758 
L 149.176361 207.650526 
L 151.871833 203.288564 
L 154.567306 195.514207 
L 157.262778 185.337556 
L 159.95825 172.966683 
L 168.044667 133.26261 
L 170.740139 122.223402 
L 173.435611 113.491911 
L 176.131083 107.813415 
L 178.826556 105.55488 
L 181.522028 106.897895 
L 184.2175 111.588991 
L 186.912972 119.522239 
L 189.608444 130.005325 
L 192.303917 142.538873 
L 200.390333 182.628827 
L 203.085806 194.016083 
L 205.781278 202.755141 
L 208.47675 208.600095 
L 211.172222 210.934293 
L 213.867694 209.670724 
L 216.563167 205.002327 
L 219.258639 197.152308 
L 221.954111 186.620041 
L 224.649583 174.222686 
L 232.736 134.204612 
L 235.431472 122.862753 
L 238.126944 114.203142 
L 240.822417 108.369537 
L 243.517889 106.126134 
L 246.213361 107.26486 
L 248.908833 111.967305 
L 251.604306 119.83624 
L 254.299778 130.425254 
L 256.99525 142.79991 
L 262.386194 170.019615 
L 265.081667 182.908779 
L 267.777139 194.14471 
L 270.472611 202.857286 
L 273.168083 208.717372 
L 275.863556 211.044004 
L 278.559028 209.920411 
L 281.2545 205.127171 
L 283.949972 197.227971 
L 286.645444 186.669222 
L 289.340917 174.298348 
L 294.731861 147.169439 
L 297.427333 134.208395 
L 300.122806 123.05191 
L 302.818278 114.214491 
L 305.51375 108.403585 
L 308.209222 106.07317 
L 310.904694 107.314041 
L 313.600167 112.016486 
L 316.295639 119.938385 
L 318.991111 130.459302 
L 321.686583 142.852874 
L 327.077528 169.981784 
L 329.773 182.980659 
L 332.468472 194.133361 
L 335.163944 203.027527 
L 337.859417 208.721155 
L 340.554889 211.074269 
L 343.250361 209.825833 
L 345.945833 205.168785 
L 348.641306 197.220404 
L 351.336778 186.782716 
L 354.03225 174.298348 
L 362.118667 134.18948 
L 364.814139 123.05191 
L 367.509611 114.225841 
L 370.205083 108.554911 
L 372.900556 106.114785 
L 375.596028 107.378354 
L 378.2915 112.008919 
L 380.986972 119.911903 
L 383.682444 130.368506 
L 386.377917 142.909621 
L 394.464333 182.931478 
L 397.159806 194.224156 
L 399.855278 202.982129 
L 402.55075 208.706023 
L 405.246222 211.115884 
L 407.941694 209.753953 
L 410.637167 205.183918 
L 413.332639 197.292284 
L 416.028111 186.843246 
L 418.723583 174.313481 
L 426.81 134.25001 
L 429.505472 122.942199 
L 432.200944 114.29772 
L 434.896417 108.426284 
L 437.591889 106.20558 
L 440.287361 107.355655 
L 442.982833 112.099715 
L 445.678306 119.976216 
L 448.373778 130.429037 
L 451.06925 142.928537 
L 459.155667 183.003358 
L 461.851139 194.235505 
L 464.546611 202.963213 
L 467.242083 208.8233 
L 469.937556 211.051571 
L 472.633028 209.969592 
L 475.3285 205.172568 
L 478.023972 197.375513 
L 480.719444 186.786499 
L 483.414917 174.317264 
L 491.501333 134.272709 
L 494.196806 123.12379 
L 496.892278 114.29772 
L 499.58775 108.50573 
L 502.283222 106.194231 
L 504.978694 107.314041 
L 507.674167 112.133763 
L 510.369639 119.976216 
L 513.065111 130.606844 
L 515.760583 142.958802 
L 523.847 183.02984 
L 526.542472 194.167409 
L 529.237944 203.076708 
L 531.933417 208.781685 
L 534.628889 211.172631 
L 537.324361 209.939327 
L 540.019833 205.165002 
L 542.715306 197.333899 
L 545.410778 186.801632 
L 548.10625 174.381578 
L 556.192667 134.287841 
L 558.888139 123.157838 
L 561.583611 114.240973 
L 564.279083 108.611658 
L 566.974556 106.167749 
L 569.6675 107.475488 
L 569.6675 107.475488 
" clip-path="url(#pdd5e2259d9)" style="fill: none; stroke: #fca50a; stroke-width: 1.5; stroke-linecap: square"/>
   </g>
   <g id="line2d_21">
    <path d="M 62.92125 283.014958 
L 65.616722 260.778912 
L 68.312194 231.800005 
L 71.007667 198.053014 
L 76.398611 125.623903 
L 79.094083 91.873281 
L 81.789556 62.894374 
L 84.485028 40.662686 
L 87.1805 26.681634 
L 89.875972 21.917182 
L 92.571444 26.681634 
L 95.266917 40.662686 
L 97.962389 62.894374 
L 100.657861 91.873281 
L 103.353333 125.623903 
L 108.744278 198.053014 
L 111.43975 231.800005 
L 114.135222 260.778912 
L 116.830694 283.014958 
L 119.526167 296.993831 
L 122.221639 301.761188 
L 124.917111 296.993831 
L 127.612583 283.014958 
L 130.308056 260.778912 
L 133.003528 231.800005 
L 135.699 198.053014 
L 141.089944 125.623903 
L 143.785417 91.873281 
L 146.480889 62.894374 
L 149.176361 40.662686 
L 151.871833 26.681634 
L 154.567306 21.917182 
L 157.262778 26.681634 
L 159.95825 40.662686 
L 162.653722 62.894374 
L 165.349194 91.873281 
L 168.044667 125.623903 
L 173.435611 198.053014 
L 176.131083 231.800005 
L 178.826556 260.778912 
L 181.522028 283.014958 
L 184.2175 296.993831 
L 186.912972 301.761188 
L 189.608444 296.993831 
L 192.303917 283.014958 
L 194.999389 260.778912 
L 197.694861 231.800005 
L 200.390333 198.053014 
L 205.781278 125.623903 
L 208.47675 91.873281 
L 211.172222 62.894374 
L 213.867694 40.662686 
L 216.563167 26.681634 
L 219.258639 21.917182 
L 221.954111 26.681634 
L 224.649583 40.662686 
L 227.345056 62.894374 
L 230.040528 91.873281 
L 232.736 125.623903 
L 238.126944 198.053014 
L 240.822417 231.800005 
L 243.517889 260.778912 
L 246.213361 283.014958 
L 248.908833 296.993831 
L 251.604306 301.761188 
L 254.299778 296.993831 
L 256.99525 283.014958 
L 259.690722 260.778912 
L 262.386194 231.800005 
L 265.081667 198.053014 
L 270.472611 125.623903 
L 273.168083 91.873281 
L 275.863556 62.894374 
L 278.559028 40.662686 
L 281.2545 26.681634 
L 283.949972 21.917182 
L 286.645444 26.681634 
L 289.340917 40.662686 
L 292.036389 62.894374 
L 294.731861 91.873281 
L 297.427333 125.623903 
L 302.818278 198.053014 
L 305.51375 231.800005 
L 308.209222 260.778912 
L 310.904694 283.014958 
L 313.600167 296.993831 
L 316.295639 301.761188 
L 318.991111 296.993831 
L 321.686583 283.014958 
L 324.382056 260.778912 
L 327.077528 231.800005 
L 329.773 198.053014 
L 335.163944 125.623903 
L 337.859417 91.873281 
L 340.554889 62.894374 
L 343.250361 40.662686 
L 345.945833 26.681634 
L 348.641306 21.917182 
L 351.336778 26.681634 
L 354.03225 40.662686 
L 356.727722 62.894374 
L 359.423194 91.873281 
L 362.118667 125.623903 
L 367.509611 198.053014 
L 370.205083 231.800005 
L 372.900556 260.778912 
L 375.596028 283.014958 
L 378.2915 296.993831 
L 380.986972 301.761188 
L 383.682444 296.993831 
L 386.377917 283.014958 
L 389.073389 260.778912 
L 391.768861 231.800005 
L 394.464333 198.053014 
L 399.855278 125.623903 
L 402.55075 91.873281 
L 405.246222 62.894374 
L 407.941694 40.662686 
L 410.637167 26.681634 
L 413.332639 21.917182 
L 416.028111 26.681634 
L 418.723583 40.662686 
L 421.419056 62.894374 
L 424.114528 91.873281 
L 426.81 125.623903 
L 432.200944 198.053014 
L 434.896417 231.800005 
L 437.591889 260.778912 
L 440.287361 283.014958 
L 442.982833 296.993831 
L 445.678306 301.761188 
L 448.373778 296.993831 
L 451.06925 283.014958 
L 453.764722 260.778912 
L 456.460194 231.800005 
L 459.155667 198.053014 
L 464.546611 125.623903 
L 467.242083 91.873281 
L 469.937556 62.894374 
L 472.633028 40.662686 
L 475.3285 26.681634 
L 478.023972 21.917182 
L 480.719444 26.681634 
L 483.414917 40.662686 
L 486.110389 62.894374 
L 488.805861 91.873281 
L 491.501333 125.623903 
L 496.892278 198.053014 
L 499.58775 231.800005 
L 502.283222 260.778912 
L 504.978694 283.014958 
L 507.674167 296.993831 
L 510.369639 301.761188 
L 513.065111 296.993831 
L 515.760583 283.014958 
L 518.456056 260.778912 
L 521.151528 231.800005 
L 523.847 198.053014 
L 529.237944 125.623903 
L 531.933417 91.873281 
L 534.628889 62.894374 
L 537.324361 40.662686 
L 540.019833 26.681634 
L 542.715306 21.917182 
L 545.410778 26.681634 
L 548.10625 40.662686 
L 550.801722 62.894374 
L 553.497194 91.873281 
L 556.192667 125.623903 
L 561.583611 198.053014 
L 564.279083 231.800005 
L 566.974556 260.778912 
L 569.6675 282.994105 
L 569.6675 282.994105 
" clip-path="url(#pdd5e2259d9)" style="fill: none; stroke: #dd513a; stroke-width: 1.5; stroke-linecap: square"/>
   </g>
   <g id="line2d_22">
    <path d="M 62.92125 289.247859 
L 65.616722 266.767718 
L 68.312194 237.443931 
L 71.007667 203.305136 
L 76.398611 130.179093 
L 79.094083 96.228425 
L 81.789556 67.198326 
L 84.485028 45.089213 
L 87.1805 31.430141 
L 89.875972 27.175334 
L 92.571444 32.632064 
L 95.266917 47.449163 
L 97.962389 70.633735 
L 100.657861 100.622238 
L 103.353333 135.388123 
L 108.744278 209.663832 
L 111.43975 244.13812 
L 114.135222 273.660485 
L 116.830694 296.229464 
L 119.526167 310.317047 
L 122.221639 314.971103 
L 124.917111 309.884355 
L 127.612583 295.409021 
L 130.308056 272.539039 
L 133.003528 242.841088 
L 135.699 208.343806 
L 141.089944 134.547822 
L 143.785417 100.28779 
L 146.480889 70.966093 
L 149.176361 48.584196 
L 151.871833 34.672198 
L 154.567306 30.183277 
L 157.262778 35.424706 
L 159.95825 50.045316 
L 162.653722 73.050123 
L 165.349194 102.876627 
L 168.044667 137.493056 
L 173.435611 211.504341 
L 176.131083 245.860528 
L 178.826556 275.270017 
L 181.522028 297.7303 
L 184.2175 311.711278 
L 186.912972 316.260818 
L 189.608444 311.069556 
L 192.303917 296.490752 
L 194.999389 273.517299 
L 197.694861 243.716924 
L 200.390333 209.119308 
L 205.781278 135.133106 
L 208.47675 100.785281 
L 211.172222 71.383108 
L 213.867694 48.929096 
L 216.563167 34.954389 
L 219.258639 30.410075 
L 221.954111 35.607608 
L 224.649583 50.191637 
L 227.345056 73.169271 
L 230.040528 102.973826 
L 232.736 137.575623 
L 238.126944 211.568096 
L 240.822417 245.915921 
L 243.517889 275.316003 
L 246.213361 297.76479 
L 248.908833 311.731136 
L 251.604306 316.260818 
L 254.299778 311.044472 
L 256.99525 296.436404 
L 259.690722 273.430552 
L 262.386194 243.593596 
L 265.081667 208.958355 
L 270.472611 134.894812 
L 273.168083 100.512497 
L 275.863556 71.07897 
L 278.559028 48.598828 
L 281.2545 34.604263 
L 283.949972 30.046362 
L 286.645444 35.237625 
L 289.340917 49.821654 
L 292.036389 72.805558 
L 294.731861 102.621611 
L 297.427333 137.238039 
L 302.818278 211.263957 
L 305.51375 245.627459 
L 308.209222 275.041129 
L 310.904694 297.498277 
L 313.600167 311.468803 
L 316.295639 315.996395 
L 318.991111 310.772733 
L 321.686583 296.151078 
L 324.382056 273.127458 
L 327.077528 243.268555 
L 329.773 208.607184 
L 335.163944 134.491384 
L 337.859417 100.085031 
L 340.554889 70.6306 
L 343.250361 48.133736 
L 345.945833 34.127675 
L 348.641306 29.565593 
L 351.336778 34.7579 
L 354.03225 49.349246 
L 356.727722 72.345692 
L 359.423194 102.179512 
L 362.118667 136.815799 
L 367.509611 210.886658 
L 370.205083 245.270018 
L 372.900556 274.701455 
L 375.596028 297.17219 
L 378.2915 311.150032 
L 380.986972 315.68076 
L 383.682444 310.451872 
L 386.377917 295.82081 
L 389.073389 272.781514 
L 391.768861 242.902752 
L 394.464333 208.219434 
L 399.855278 134.055556 
L 402.55075 99.62621 
L 405.246222 70.151921 
L 407.941694 47.64147 
L 410.637167 33.626003 
L 413.332639 29.060785 
L 416.028111 34.255183 
L 418.723583 48.85698 
L 421.419056 71.867013 
L 424.114528 101.719646 
L 426.81 136.377881 
L 432.200944 210.494726 
L 434.896417 244.900034 
L 437.591889 274.349239 
L 440.287361 296.834606 
L 442.982833 310.82081 
L 445.678306 315.353628 
L 448.373778 310.122649 
L 451.06925 295.481137 
L 453.764722 272.427208 
L 456.460194 242.529633 
L 459.155667 207.823322 
L 464.546611 133.612412 
L 467.242083 99.162163 
L 469.937556 69.669062 
L 472.633028 47.143979 
L 475.3285 33.119105 
L 478.023972 28.550752 
L 480.719444 33.74933 
L 483.414917 48.359489 
L 486.110389 71.385199 
L 488.805861 101.255599 
L 491.501333 135.935782 
L 496.892278 210.099659 
L 499.58775 244.526916 
L 502.283222 273.994933 
L 504.978694 296.494933 
L 507.674167 310.489497 
L 510.369639 315.02545 
L 513.065111 309.790292 
L 515.760583 295.140417 
L 518.456056 272.070811 
L 521.151528 242.154424 
L 523.847 207.42721 
L 529.237944 133.168224 
L 531.933417 98.696026 
L 534.628889 69.184112 
L 537.324361 46.644397 
L 540.019833 32.611161 
L 542.715306 28.040718 
L 545.410778 33.242432 
L 548.10625 47.861997 
L 550.801722 70.902339 
L 553.497194 100.791552 
L 556.192667 135.493683 
L 561.583611 209.704592 
L 564.279083 244.153797 
L 566.974556 273.640627 
L 569.6675 296.133101 
L 569.6675 296.133101 
" clip-path="url(#pdd5e2259d9)" style="fill: none; stroke: #932667; stroke-width: 1.5; stroke-linecap: square"/>
   </g>
   <g id="patch_3">
    <path d="M 62.92125 330.978 
L 62.92125 7.2 
" style="fill: none; stroke: #000000; stroke-width: 0.8; stroke-linejoin: miter; stroke-linecap: square"/>
   </g>
   <g id="patch_4">
    <path d="M 548.10625 330.978 
L 548.10625 7.2 
" style="fill: none; stroke: #000000; stroke-width: 0.8; stroke-linejoin: miter; stroke-linecap: square"/>
   </g>
   <g id="patch_5">
    <path d="M 62.92125 330.978 
L 548.10625 330.978 
" style="fill: none; stroke: #000000; stroke-width: 0.8; stroke-linejoin: miter; stroke-linecap: square"/>
   </g>
   <g id="patch_6">
    <path d="M 62.92125 7.2 
L 548.10625 7.2 
" style="fill: none; stroke: #000000; stroke-width: 0.8; stroke-linejoin: miter; stroke-linecap: square"/>
   </g>
   <g id="legend_1">
    <g id="patch_7">
     <path d="M 138.84375 415.2447 
L 472.18375 415.2447 
Q 474.98375 415.2447 474.98375 412.4447 
L 474.98375 389.3447 
Q 474.98375 386.5447 472.18375 386.5447 
L 138.84375 386.5447 
Q 136.04375 386.5447 136.04375 389.3447 
L 136.04375 412.4447 
Q 136.04375 415.2447 138.84375 415.2447 
z
" style="fill: #ffffff; opacity: 0.8; stroke: #cccccc; stroke-linejoin: miter"/>
    </g>
    <g id="line2d_23">
     <path d="M 141.64375 401.833138 
L 155.64375 401.833138 
L 169.64375 401.833138 
" style="fill: none; stroke: #000004; stroke-width: 1.5; stroke-linecap: square"/>
    </g>
    <g id="text_21">
     <!-- $\dot{Q}_{\text{tot}}$ -->
     <g transform="translate(180.84375 406.733137) scale(0.14 -0.14)">
      <defs>
       <path id="DejaVuSans-307" d="M -1894 4863 
L -1319 4863 
L -1319 4134 
L -1894 4134 
L -1894 4863 
z
M -1600 3584 
L -1600 3584 
z
" transform="scale(0.015625)"/>
       <path id="DejaVuSans-Oblique-51" d="M 2309 -84 
Q 2275 -88 2237 -89 
Q 2200 -91 2125 -91 
Q 1250 -91 756 411 
Q 263 913 263 1797 
Q 263 2319 452 2844 
Q 641 3369 978 3788 
Q 1369 4269 1858 4509 
Q 2347 4750 2938 4750 
Q 3794 4750 4287 4245 
Q 4781 3741 4781 2869 
Q 4781 1928 4265 1147 
Q 3750 366 2919 44 
L 3553 -825 
L 2847 -825 
L 2309 -84 
z
M 2919 4238 
Q 2400 4238 2003 3986 
Q 1606 3734 1313 3219 
Q 1125 2891 1026 2522 
Q 928 2153 928 1778 
Q 928 1128 1239 775 
Q 1550 422 2119 422 
Q 2631 422 3032 676 
Q 3434 931 3719 1434 
Q 3909 1772 4009 2142 
Q 4109 2513 4109 2881 
Q 4109 3528 3796 3883 
Q 3484 4238 2919 4238 
z
" transform="scale(0.015625)"/>
      </defs>
      <use xlink:href="#DejaVuSans-307" transform="translate(74.271484 31.015625)"/>
      <use xlink:href="#DejaVuSans-Oblique-51" transform="translate(0 0.296875)"/>
      <use xlink:href="#DejaVuSans-74" transform="translate(79.667969 -16.109375) scale(0.7)"/>
      <use xlink:href="#DejaVuSans-6f" transform="translate(107.114258 -16.109375) scale(0.7)"/>
      <use xlink:href="#DejaVuSans-74" transform="translate(149.941406 -16.109375) scale(0.7)"/>
     </g>
    </g>
    <g id="line2d_24">
     <path d="M 234.18375 401.833138 
L 248.18375 401.833138 
L 262.18375 401.833138 
" style="fill: none; stroke: #fca50a; stroke-width: 1.5; stroke-linecap: square"/>
    </g>
    <g id="text_22">
     <!-- $\dot{Q}_{\text{Li}}$ -->
     <g transform="translate(273.38375 406.733137) scale(0.14 -0.14)">
      <defs>
       <path id="DejaVuSans-4c" d="M 628 4666 
L 1259 4666 
L 1259 531 
L 3531 531 
L 3531 0 
L 628 0 
L 628 4666 
z
" transform="scale(0.015625)"/>
      </defs>
      <use xlink:href="#DejaVuSans-307" transform="translate(74.271484 31.015625)"/>
      <use xlink:href="#DejaVuSans-Oblique-51" transform="translate(0 0.296875)"/>
      <use xlink:href="#DejaVuSans-4c" transform="translate(79.667969 -16.109375) scale(0.7)"/>
      <use xlink:href="#DejaVuSans-69" transform="translate(118.666992 -16.109375) scale(0.7)"/>
     </g>
    </g>
    <g id="line2d_25">
     <path d="M 321.12375 401.833138 
L 335.12375 401.833138 
L 349.12375 401.833138 
" style="fill: none; stroke: #dd513a; stroke-width: 1.5; stroke-linecap: square"/>
    </g>
    <g id="text_23">
     <!-- $\dot{Q}_{\text{b}}$ -->
     <g transform="translate(360.32375 406.733137) scale(0.14 -0.14)">
      <defs>
       <path id="DejaVuSans-62" d="M 3116 1747 
Q 3116 2381 2855 2742 
Q 2594 3103 2138 3103 
Q 1681 3103 1420 2742 
Q 1159 2381 1159 1747 
Q 1159 1113 1420 752 
Q 1681 391 2138 391 
Q 2594 391 2855 752 
Q 3116 1113 3116 1747 
z
M 1159 2969 
Q 1341 3281 1617 3432 
Q 1894 3584 2278 3584 
Q 2916 3584 3314 3078 
Q 3713 2572 3713 1747 
Q 3713 922 3314 415 
Q 2916 -91 2278 -91 
Q 1894 -91 1617 61 
Q 1341 213 1159 525 
L 1159 0 
L 581 0 
L 581 4863 
L 1159 4863 
L 1159 2969 
z
" transform="scale(0.015625)"/>
      </defs>
      <use xlink:href="#DejaVuSans-307" transform="translate(74.271484 31.015625)"/>
      <use xlink:href="#DejaVuSans-Oblique-51" transform="translate(0 0.296875)"/>
      <use xlink:href="#DejaVuSans-62" transform="translate(79.667969 -16.109375) scale(0.7)"/>
     </g>
    </g>
    <g id="line2d_26">
     <path d="M 406.10375 401.833138 
L 420.10375 401.833138 
L 434.10375 401.833138 
" style="fill: none; stroke: #932667; stroke-width: 1.5; stroke-linecap: square"/>
    </g>
    <g id="text_24">
     <!-- $\dot{Q}_{\text{Wi}}$ -->
     <g transform="translate(445.30375 406.733137) scale(0.14 -0.14)">
      <defs>
       <path id="DejaVuSans-57" d="M 213 4666 
L 850 4666 
L 1831 722 
L 2809 4666 
L 3519 4666 
L 4500 722 
L 5478 4666 
L 6119 4666 
L 4947 0 
L 4153 0 
L 3169 4050 
L 2175 0 
L 1381 0 
L 213 4666 
z
" transform="scale(0.015625)"/>
      </defs>
      <use xlink:href="#DejaVuSans-307" transform="translate(74.271484 31.015625)"/>
      <use xlink:href="#DejaVuSans-Oblique-51" transform="translate(0 0.296875)"/>
      <use xlink:href="#DejaVuSans-57" transform="translate(79.667969 -16.109375) scale(0.7)"/>
      <use xlink:href="#DejaVuSans-69" transform="translate(148.881836 -16.109375) scale(0.7)"/>
     </g>
    </g>
   </g>
  </g>
 </g>
 <defs>
  <clipPath id="pdd5e2259d9">
   <rect x="62.92125" y="7.2" width="485.185" height="323.778"/>
  </clipPath>
 </defs>
</svg>
