<?xml version="1.0" encoding="utf-8" standalone="no"?>
<!DOCTYPE svg PUBLIC "-//W3C//DTD SVG 1.1//EN"
  "http://www.w3.org/Graphics/SVG/1.1/DTD/svg11.dtd">
<svg xmlns:xlink="http://www.w3.org/1999/xlink" width="902.671875pt" height="385.13875pt" viewBox="0 0 902.671875 385.13875" xmlns="http://www.w3.org/2000/svg" version="1.1">
 <metadata>
  <rdf:RDF xmlns:dc="http://purl.org/dc/elements/1.1/" xmlns:cc="http://creativecommons.org/ns#" xmlns:rdf="http://www.w3.org/1999/02/22-rdf-syntax-ns#">
   <cc:Work>
    <dc:type rdf:resource="http://purl.org/dc/dcmitype/StillImage"/>
    <dc:date>2025-09-23T10:04:09.393692</dc:date>
    <dc:format>image/svg+xml</dc:format>
    <dc:creator>
     <cc:Agent>
      <dc:title>Matplotlib v3.10.1, https://matplotlib.org/</dc:title>
     </cc:Agent>
    </dc:creator>
   </cc:Work>
  </rdf:RDF>
 </metadata>
 <defs>
  <style type="text/css">*{stroke-linejoin: round; stroke-linecap: butt}</style>
 </defs>
 <g id="figure_1">
  <g id="patch_1">
   <path d="M 0 385.13875 
L 902.671875 385.13875 
L 902.671875 0 
L 0 0 
z
" style="fill: #ffffff"/>
  </g>
  <g id="axes_1">
   <g id="patch_2">
    <path d="M 58.471875 339.84 
L 438.92642 339.84 
L 438.92642 7.2 
L 58.471875 7.2 
z
" style="fill: #ffffff"/>
   </g>
   <g id="matplotlib.axis_1">
    <g id="xtick_1">
     <g id="line2d_1">
      <defs>
       <path id="m60d2d569ed" d="M 0 0 
L 0 3.5 
" style="stroke: #000000; stroke-width: 0.8"/>
      </defs>
      <g>
       <use xlink:href="#m60d2d569ed" x="96.425904" y="339.84" style="stroke: #000000; stroke-width: 0.8"/>
      </g>
     </g>
     <g id="text_1">
      <!-- 30.4 -->
      <g transform="translate(80.839967 357.477813) scale(0.14 -0.14)">
       <defs>
        <path id="DejaVuSans-33" d="M 2597 2516 
Q 3050 2419 3304 2112 
Q 3559 1806 3559 1356 
Q 3559 666 3084 287 
Q 2609 -91 1734 -91 
Q 1441 -91 1130 -33 
Q 819 25 488 141 
L 488 750 
Q 750 597 1062 519 
Q 1375 441 1716 441 
Q 2309 441 2620 675 
Q 2931 909 2931 1356 
Q 2931 1769 2642 2001 
Q 2353 2234 1838 2234 
L 1294 2234 
L 1294 2753 
L 1863 2753 
Q 2328 2753 2575 2939 
Q 2822 3125 2822 3475 
Q 2822 3834 2567 4026 
Q 2313 4219 1838 4219 
Q 1578 4219 1281 4162 
Q 984 4106 628 3988 
L 628 4550 
Q 988 4650 1302 4700 
Q 1616 4750 1894 4750 
Q 2613 4750 3031 4423 
Q 3450 4097 3450 3541 
Q 3450 3153 3228 2886 
Q 3006 2619 2597 2516 
z
" transform="scale(0.015625)"/>
        <path id="DejaVuSans-30" d="M 2034 4250 
Q 1547 4250 1301 3770 
Q 1056 3291 1056 2328 
Q 1056 1369 1301 889 
Q 1547 409 2034 409 
Q 2525 409 2770 889 
Q 3016 1369 3016 2328 
Q 3016 3291 2770 3770 
Q 2525 4250 2034 4250 
z
M 2034 4750 
Q 2819 4750 3233 4129 
Q 3647 3509 3647 2328 
Q 3647 1150 3233 529 
Q 2819 -91 2034 -91 
Q 1250 -91 836 529 
Q 422 1150 422 2328 
Q 422 3509 836 4129 
Q 1250 4750 2034 4750 
z
" transform="scale(0.015625)"/>
        <path id="DejaVuSans-2e" d="M 684 794 
L 1344 794 
L 1344 0 
L 684 0 
L 684 794 
z
" transform="scale(0.015625)"/>
        <path id="DejaVuSans-34" d="M 2419 4116 
L 825 1625 
L 2419 1625 
L 2419 4116 
z
M 2253 4666 
L 3047 4666 
L 3047 1625 
L 3713 1625 
L 3713 1100 
L 3047 1100 
L 3047 0 
L 2419 0 
L 2419 1100 
L 313 1100 
L 313 1709 
L 2253 4666 
z
" transform="scale(0.015625)"/>
       </defs>
       <use xlink:href="#DejaVuSans-33"/>
       <use xlink:href="#DejaVuSans-30" transform="translate(63.623047 0)"/>
       <use xlink:href="#DejaVuSans-2e" transform="translate(127.246094 0)"/>
       <use xlink:href="#DejaVuSans-34" transform="translate(159.033203 0)"/>
      </g>
     </g>
    </g>
    <g id="xtick_2">
     <g id="line2d_2">
      <g>
       <use xlink:href="#m60d2d569ed" x="172.075023" y="339.84" style="stroke: #000000; stroke-width: 0.8"/>
      </g>
     </g>
     <g id="text_2">
      <!-- 30.5 -->
      <g transform="translate(156.489085 357.477813) scale(0.14 -0.14)">
       <defs>
        <path id="DejaVuSans-35" d="M 691 4666 
L 3169 4666 
L 3169 4134 
L 1269 4134 
L 1269 2991 
Q 1406 3038 1543 3061 
Q 1681 3084 1819 3084 
Q 2600 3084 3056 2656 
Q 3513 2228 3513 1497 
Q 3513 744 3044 326 
Q 2575 -91 1722 -91 
Q 1428 -91 1123 -41 
Q 819 9 494 109 
L 494 744 
Q 775 591 1075 516 
Q 1375 441 1709 441 
Q 2250 441 2565 725 
Q 2881 1009 2881 1497 
Q 2881 1984 2565 2268 
Q 2250 2553 1709 2553 
Q 1456 2553 1204 2497 
Q 953 2441 691 2322 
L 691 4666 
z
" transform="scale(0.015625)"/>
       </defs>
       <use xlink:href="#DejaVuSans-33"/>
       <use xlink:href="#DejaVuSans-30" transform="translate(63.623047 0)"/>
       <use xlink:href="#DejaVuSans-2e" transform="translate(127.246094 0)"/>
       <use xlink:href="#DejaVuSans-35" transform="translate(159.033203 0)"/>
      </g>
     </g>
    </g>
    <g id="xtick_3">
     <g id="line2d_3">
      <g>
       <use xlink:href="#m60d2d569ed" x="247.724141" y="339.84" style="stroke: #000000; stroke-width: 0.8"/>
      </g>
     </g>
     <g id="text_3">
      <!-- 30.6 -->
      <g transform="translate(232.138203 357.477813) scale(0.14 -0.14)">
       <defs>
        <path id="DejaVuSans-36" d="M 2113 2584 
Q 1688 2584 1439 2293 
Q 1191 2003 1191 1497 
Q 1191 994 1439 701 
Q 1688 409 2113 409 
Q 2538 409 2786 701 
Q 3034 994 3034 1497 
Q 3034 2003 2786 2293 
Q 2538 2584 2113 2584 
z
M 3366 4563 
L 3366 3988 
Q 3128 4100 2886 4159 
Q 2644 4219 2406 4219 
Q 1781 4219 1451 3797 
Q 1122 3375 1075 2522 
Q 1259 2794 1537 2939 
Q 1816 3084 2150 3084 
Q 2853 3084 3261 2657 
Q 3669 2231 3669 1497 
Q 3669 778 3244 343 
Q 2819 -91 2113 -91 
Q 1303 -91 875 529 
Q 447 1150 447 2328 
Q 447 3434 972 4092 
Q 1497 4750 2381 4750 
Q 2619 4750 2861 4703 
Q 3103 4656 3366 4563 
z
" transform="scale(0.015625)"/>
       </defs>
       <use xlink:href="#DejaVuSans-33"/>
       <use xlink:href="#DejaVuSans-30" transform="translate(63.623047 0)"/>
       <use xlink:href="#DejaVuSans-2e" transform="translate(127.246094 0)"/>
       <use xlink:href="#DejaVuSans-36" transform="translate(159.033203 0)"/>
      </g>
     </g>
    </g>
    <g id="xtick_4">
     <g id="line2d_4">
      <g>
       <use xlink:href="#m60d2d569ed" x="323.373259" y="339.84" style="stroke: #000000; stroke-width: 0.8"/>
      </g>
     </g>
     <g id="text_4">
      <!-- 30.7 -->
      <g transform="translate(307.787321 357.477813) scale(0.14 -0.14)">
       <defs>
        <path id="DejaVuSans-37" d="M 525 4666 
L 3525 4666 
L 3525 4397 
L 1831 0 
L 1172 0 
L 2766 4134 
L 525 4134 
L 525 4666 
z
" transform="scale(0.015625)"/>
       </defs>
       <use xlink:href="#DejaVuSans-33"/>
       <use xlink:href="#DejaVuSans-30" transform="translate(63.623047 0)"/>
       <use xlink:href="#DejaVuSans-2e" transform="translate(127.246094 0)"/>
       <use xlink:href="#DejaVuSans-37" transform="translate(159.033203 0)"/>
      </g>
     </g>
    </g>
    <g id="xtick_5">
     <g id="line2d_5">
      <g>
       <use xlink:href="#m60d2d569ed" x="399.022377" y="339.84" style="stroke: #000000; stroke-width: 0.8"/>
      </g>
     </g>
     <g id="text_5">
      <!-- 30.8 -->
      <g transform="translate(383.43644 357.477813) scale(0.14 -0.14)">
       <defs>
        <path id="DejaVuSans-38" d="M 2034 2216 
Q 1584 2216 1326 1975 
Q 1069 1734 1069 1313 
Q 1069 891 1326 650 
Q 1584 409 2034 409 
Q 2484 409 2743 651 
Q 3003 894 3003 1313 
Q 3003 1734 2745 1975 
Q 2488 2216 2034 2216 
z
M 1403 2484 
Q 997 2584 770 2862 
Q 544 3141 544 3541 
Q 544 4100 942 4425 
Q 1341 4750 2034 4750 
Q 2731 4750 3128 4425 
Q 3525 4100 3525 3541 
Q 3525 3141 3298 2862 
Q 3072 2584 2669 2484 
Q 3125 2378 3379 2068 
Q 3634 1759 3634 1313 
Q 3634 634 3220 271 
Q 2806 -91 2034 -91 
Q 1263 -91 848 271 
Q 434 634 434 1313 
Q 434 1759 690 2068 
Q 947 2378 1403 2484 
z
M 1172 3481 
Q 1172 3119 1398 2916 
Q 1625 2713 2034 2713 
Q 2441 2713 2670 2916 
Q 2900 3119 2900 3481 
Q 2900 3844 2670 4047 
Q 2441 4250 2034 4250 
Q 1625 4250 1398 4047 
Q 1172 3844 1172 3481 
z
" transform="scale(0.015625)"/>
       </defs>
       <use xlink:href="#DejaVuSans-33"/>
       <use xlink:href="#DejaVuSans-30" transform="translate(63.623047 0)"/>
       <use xlink:href="#DejaVuSans-2e" transform="translate(127.246094 0)"/>
       <use xlink:href="#DejaVuSans-38" transform="translate(159.033203 0)"/>
      </g>
     </g>
    </g>
    <g id="text_6">
     <!-- Radius / m -->
     <g transform="translate(211.60571 375.027188) scale(0.14 -0.14)">
      <defs>
       <path id="DejaVuSans-52" d="M 2841 2188 
Q 3044 2119 3236 1894 
Q 3428 1669 3622 1275 
L 4263 0 
L 3584 0 
L 2988 1197 
Q 2756 1666 2539 1819 
Q 2322 1972 1947 1972 
L 1259 1972 
L 1259 0 
L 628 0 
L 628 4666 
L 2053 4666 
Q 2853 4666 3247 4331 
Q 3641 3997 3641 3322 
Q 3641 2881 3436 2590 
Q 3231 2300 2841 2188 
z
M 1259 4147 
L 1259 2491 
L 2053 2491 
Q 2509 2491 2742 2702 
Q 2975 2913 2975 3322 
Q 2975 3731 2742 3939 
Q 2509 4147 2053 4147 
L 1259 4147 
z
" transform="scale(0.015625)"/>
       <path id="DejaVuSans-61" d="M 2194 1759 
Q 1497 1759 1228 1600 
Q 959 1441 959 1056 
Q 959 750 1161 570 
Q 1363 391 1709 391 
Q 2188 391 2477 730 
Q 2766 1069 2766 1631 
L 2766 1759 
L 2194 1759 
z
M 3341 1997 
L 3341 0 
L 2766 0 
L 2766 531 
Q 2569 213 2275 61 
Q 1981 -91 1556 -91 
Q 1019 -91 701 211 
Q 384 513 384 1019 
Q 384 1609 779 1909 
Q 1175 2209 1959 2209 
L 2766 2209 
L 2766 2266 
Q 2766 2663 2505 2880 
Q 2244 3097 1772 3097 
Q 1472 3097 1187 3025 
Q 903 2953 641 2809 
L 641 3341 
Q 956 3463 1253 3523 
Q 1550 3584 1831 3584 
Q 2591 3584 2966 3190 
Q 3341 2797 3341 1997 
z
" transform="scale(0.015625)"/>
       <path id="DejaVuSans-64" d="M 2906 2969 
L 2906 4863 
L 3481 4863 
L 3481 0 
L 2906 0 
L 2906 525 
Q 2725 213 2448 61 
Q 2172 -91 1784 -91 
Q 1150 -91 751 415 
Q 353 922 353 1747 
Q 353 2572 751 3078 
Q 1150 3584 1784 3584 
Q 2172 3584 2448 3432 
Q 2725 3281 2906 2969 
z
M 947 1747 
Q 947 1113 1208 752 
Q 1469 391 1925 391 
Q 2381 391 2643 752 
Q 2906 1113 2906 1747 
Q 2906 2381 2643 2742 
Q 2381 3103 1925 3103 
Q 1469 3103 1208 2742 
Q 947 2381 947 1747 
z
" transform="scale(0.015625)"/>
       <path id="DejaVuSans-69" d="M 603 3500 
L 1178 3500 
L 1178 0 
L 603 0 
L 603 3500 
z
M 603 4863 
L 1178 4863 
L 1178 4134 
L 603 4134 
L 603 4863 
z
" transform="scale(0.015625)"/>
       <path id="DejaVuSans-75" d="M 544 1381 
L 544 3500 
L 1119 3500 
L 1119 1403 
Q 1119 906 1312 657 
Q 1506 409 1894 409 
Q 2359 409 2629 706 
Q 2900 1003 2900 1516 
L 2900 3500 
L 3475 3500 
L 3475 0 
L 2900 0 
L 2900 538 
Q 2691 219 2414 64 
Q 2138 -91 1772 -91 
Q 1169 -91 856 284 
Q 544 659 544 1381 
z
M 1991 3584 
L 1991 3584 
z
" transform="scale(0.015625)"/>
       <path id="DejaVuSans-73" d="M 2834 3397 
L 2834 2853 
Q 2591 2978 2328 3040 
Q 2066 3103 1784 3103 
Q 1356 3103 1142 2972 
Q 928 2841 928 2578 
Q 928 2378 1081 2264 
Q 1234 2150 1697 2047 
L 1894 2003 
Q 2506 1872 2764 1633 
Q 3022 1394 3022 966 
Q 3022 478 2636 193 
Q 2250 -91 1575 -91 
Q 1294 -91 989 -36 
Q 684 19 347 128 
L 347 722 
Q 666 556 975 473 
Q 1284 391 1588 391 
Q 1994 391 2212 530 
Q 2431 669 2431 922 
Q 2431 1156 2273 1281 
Q 2116 1406 1581 1522 
L 1381 1569 
Q 847 1681 609 1914 
Q 372 2147 372 2553 
Q 372 3047 722 3315 
Q 1072 3584 1716 3584 
Q 2034 3584 2315 3537 
Q 2597 3491 2834 3397 
z
" transform="scale(0.015625)"/>
       <path id="DejaVuSans-20" transform="scale(0.015625)"/>
       <path id="DejaVuSans-2f" d="M 1625 4666 
L 2156 4666 
L 531 -594 
L 0 -594 
L 1625 4666 
z
" transform="scale(0.015625)"/>
       <path id="DejaVuSans-6d" d="M 3328 2828 
Q 3544 3216 3844 3400 
Q 4144 3584 4550 3584 
Q 5097 3584 5394 3201 
Q 5691 2819 5691 2113 
L 5691 0 
L 5113 0 
L 5113 2094 
Q 5113 2597 4934 2840 
Q 4756 3084 4391 3084 
Q 3944 3084 3684 2787 
Q 3425 2491 3425 1978 
L 3425 0 
L 2847 0 
L 2847 2094 
Q 2847 2600 2669 2842 
Q 2491 3084 2119 3084 
Q 1678 3084 1418 2786 
Q 1159 2488 1159 1978 
L 1159 0 
L 581 0 
L 581 3500 
L 1159 3500 
L 1159 2956 
Q 1356 3278 1631 3431 
Q 1906 3584 2284 3584 
Q 2666 3584 2933 3390 
Q 3200 3197 3328 2828 
z
" transform="scale(0.015625)"/>
      </defs>
      <use xlink:href="#DejaVuSans-52"/>
      <use xlink:href="#DejaVuSans-61" transform="translate(67.232422 0)"/>
      <use xlink:href="#DejaVuSans-64" transform="translate(128.511719 0)"/>
      <use xlink:href="#DejaVuSans-69" transform="translate(191.988281 0)"/>
      <use xlink:href="#DejaVuSans-75" transform="translate(219.771484 0)"/>
      <use xlink:href="#DejaVuSans-73" transform="translate(283.150391 0)"/>
      <use xlink:href="#DejaVuSans-20" transform="translate(335.25 0)"/>
      <use xlink:href="#DejaVuSans-2f" transform="translate(367.037109 0)"/>
      <use xlink:href="#DejaVuSans-20" transform="translate(400.728516 0)"/>
      <use xlink:href="#DejaVuSans-6d" transform="translate(432.515625 0)"/>
     </g>
    </g>
   </g>
   <g id="matplotlib.axis_2">
    <g id="ytick_1">
     <g id="line2d_6">
      <defs>
       <path id="m24c1a201c9" d="M 0 0 
L -3.5 0 
" style="stroke: #000000; stroke-width: 0.8"/>
      </defs>
      <g>
       <use xlink:href="#m24c1a201c9" x="58.471875" y="324.002909" style="stroke: #000000; stroke-width: 0.8"/>
      </g>
     </g>
     <g id="text_7">
      <!-- 240 -->
      <g transform="translate(24.749375 329.321815) scale(0.14 -0.14)">
       <defs>
        <path id="DejaVuSans-32" d="M 1228 531 
L 3431 531 
L 3431 0 
L 469 0 
L 469 531 
Q 828 903 1448 1529 
Q 2069 2156 2228 2338 
Q 2531 2678 2651 2914 
Q 2772 3150 2772 3378 
Q 2772 3750 2511 3984 
Q 2250 4219 1831 4219 
Q 1534 4219 1204 4116 
Q 875 4013 500 3803 
L 500 4441 
Q 881 4594 1212 4672 
Q 1544 4750 1819 4750 
Q 2544 4750 2975 4387 
Q 3406 4025 3406 3419 
Q 3406 3131 3298 2873 
Q 3191 2616 2906 2266 
Q 2828 2175 2409 1742 
Q 1991 1309 1228 531 
z
" transform="scale(0.015625)"/>
       </defs>
       <use xlink:href="#DejaVuSans-32"/>
       <use xlink:href="#DejaVuSans-34" transform="translate(63.623047 0)"/>
       <use xlink:href="#DejaVuSans-30" transform="translate(127.246094 0)"/>
      </g>
     </g>
    </g>
    <g id="ytick_2">
     <g id="line2d_7">
      <g>
       <use xlink:href="#m24c1a201c9" x="58.471875" y="257.605579" style="stroke: #000000; stroke-width: 0.8"/>
      </g>
     </g>
     <g id="text_8">
      <!-- 250 -->
      <g transform="translate(24.749375 262.924485) scale(0.14 -0.14)">
       <use xlink:href="#DejaVuSans-32"/>
       <use xlink:href="#DejaVuSans-35" transform="translate(63.623047 0)"/>
       <use xlink:href="#DejaVuSans-30" transform="translate(127.246094 0)"/>
      </g>
     </g>
    </g>
    <g id="ytick_3">
     <g id="line2d_8">
      <g>
       <use xlink:href="#m24c1a201c9" x="58.471875" y="191.208249" style="stroke: #000000; stroke-width: 0.8"/>
      </g>
     </g>
     <g id="text_9">
      <!-- 260 -->
      <g transform="translate(24.749375 196.527155) scale(0.14 -0.14)">
       <use xlink:href="#DejaVuSans-32"/>
       <use xlink:href="#DejaVuSans-36" transform="translate(63.623047 0)"/>
       <use xlink:href="#DejaVuSans-30" transform="translate(127.246094 0)"/>
      </g>
     </g>
    </g>
    <g id="ytick_4">
     <g id="line2d_9">
      <g>
       <use xlink:href="#m24c1a201c9" x="58.471875" y="124.810919" style="stroke: #000000; stroke-width: 0.8"/>
      </g>
     </g>
     <g id="text_10">
      <!-- 270 -->
      <g transform="translate(24.749375 130.129825) scale(0.14 -0.14)">
       <use xlink:href="#DejaVuSans-32"/>
       <use xlink:href="#DejaVuSans-37" transform="translate(63.623047 0)"/>
       <use xlink:href="#DejaVuSans-30" transform="translate(127.246094 0)"/>
      </g>
     </g>
    </g>
    <g id="ytick_5">
     <g id="line2d_10">
      <g>
       <use xlink:href="#m24c1a201c9" x="58.471875" y="58.413589" style="stroke: #000000; stroke-width: 0.8"/>
      </g>
     </g>
     <g id="text_11">
      <!-- 280 -->
      <g transform="translate(24.749375 63.732495) scale(0.14 -0.14)">
       <use xlink:href="#DejaVuSans-32"/>
       <use xlink:href="#DejaVuSans-38" transform="translate(63.623047 0)"/>
       <use xlink:href="#DejaVuSans-30" transform="translate(127.246094 0)"/>
      </g>
     </g>
    </g>
    <g id="text_12">
     <!-- Wall temperature / K -->
     <g transform="translate(17.837813 245.792813) rotate(-90) scale(0.14 -0.14)">
      <defs>
       <path id="DejaVuSans-57" d="M 213 4666 
L 850 4666 
L 1831 722 
L 2809 4666 
L 3519 4666 
L 4500 722 
L 5478 4666 
L 6119 4666 
L 4947 0 
L 4153 0 
L 3169 4050 
L 2175 0 
L 1381 0 
L 213 4666 
z
" transform="scale(0.015625)"/>
       <path id="DejaVuSans-6c" d="M 603 4863 
L 1178 4863 
L 1178 0 
L 603 0 
L 603 4863 
z
" transform="scale(0.015625)"/>
       <path id="DejaVuSans-74" d="M 1172 4494 
L 1172 3500 
L 2356 3500 
L 2356 3053 
L 1172 3053 
L 1172 1153 
Q 1172 725 1289 603 
Q 1406 481 1766 481 
L 2356 481 
L 2356 0 
L 1766 0 
Q 1100 0 847 248 
Q 594 497 594 1153 
L 594 3053 
L 172 3053 
L 172 3500 
L 594 3500 
L 594 4494 
L 1172 4494 
z
" transform="scale(0.015625)"/>
       <path id="DejaVuSans-65" d="M 3597 1894 
L 3597 1613 
L 953 1613 
Q 991 1019 1311 708 
Q 1631 397 2203 397 
Q 2534 397 2845 478 
Q 3156 559 3463 722 
L 3463 178 
Q 3153 47 2828 -22 
Q 2503 -91 2169 -91 
Q 1331 -91 842 396 
Q 353 884 353 1716 
Q 353 2575 817 3079 
Q 1281 3584 2069 3584 
Q 2775 3584 3186 3129 
Q 3597 2675 3597 1894 
z
M 3022 2063 
Q 3016 2534 2758 2815 
Q 2500 3097 2075 3097 
Q 1594 3097 1305 2825 
Q 1016 2553 972 2059 
L 3022 2063 
z
" transform="scale(0.015625)"/>
       <path id="DejaVuSans-70" d="M 1159 525 
L 1159 -1331 
L 581 -1331 
L 581 3500 
L 1159 3500 
L 1159 2969 
Q 1341 3281 1617 3432 
Q 1894 3584 2278 3584 
Q 2916 3584 3314 3078 
Q 3713 2572 3713 1747 
Q 3713 922 3314 415 
Q 2916 -91 2278 -91 
Q 1894 -91 1617 61 
Q 1341 213 1159 525 
z
M 3116 1747 
Q 3116 2381 2855 2742 
Q 2594 3103 2138 3103 
Q 1681 3103 1420 2742 
Q 1159 2381 1159 1747 
Q 1159 1113 1420 752 
Q 1681 391 2138 391 
Q 2594 391 2855 752 
Q 3116 1113 3116 1747 
z
" transform="scale(0.015625)"/>
       <path id="DejaVuSans-72" d="M 2631 2963 
Q 2534 3019 2420 3045 
Q 2306 3072 2169 3072 
Q 1681 3072 1420 2755 
Q 1159 2438 1159 1844 
L 1159 0 
L 581 0 
L 581 3500 
L 1159 3500 
L 1159 2956 
Q 1341 3275 1631 3429 
Q 1922 3584 2338 3584 
Q 2397 3584 2469 3576 
Q 2541 3569 2628 3553 
L 2631 2963 
z
" transform="scale(0.015625)"/>
       <path id="DejaVuSans-4b" d="M 628 4666 
L 1259 4666 
L 1259 2694 
L 3353 4666 
L 4166 4666 
L 1850 2491 
L 4331 0 
L 3500 0 
L 1259 2247 
L 1259 0 
L 628 0 
L 628 4666 
z
" transform="scale(0.015625)"/>
      </defs>
      <use xlink:href="#DejaVuSans-57"/>
      <use xlink:href="#DejaVuSans-61" transform="translate(92.501953 0)"/>
      <use xlink:href="#DejaVuSans-6c" transform="translate(153.78125 0)"/>
      <use xlink:href="#DejaVuSans-6c" transform="translate(181.564453 0)"/>
      <use xlink:href="#DejaVuSans-20" transform="translate(209.347656 0)"/>
      <use xlink:href="#DejaVuSans-74" transform="translate(241.134766 0)"/>
      <use xlink:href="#DejaVuSans-65" transform="translate(280.34375 0)"/>
      <use xlink:href="#DejaVuSans-6d" transform="translate(341.867188 0)"/>
      <use xlink:href="#DejaVuSans-70" transform="translate(439.279297 0)"/>
      <use xlink:href="#DejaVuSans-65" transform="translate(502.755859 0)"/>
      <use xlink:href="#DejaVuSans-72" transform="translate(564.279297 0)"/>
      <use xlink:href="#DejaVuSans-61" transform="translate(605.392578 0)"/>
      <use xlink:href="#DejaVuSans-74" transform="translate(666.671875 0)"/>
      <use xlink:href="#DejaVuSans-75" transform="translate(705.880859 0)"/>
      <use xlink:href="#DejaVuSans-72" transform="translate(769.259766 0)"/>
      <use xlink:href="#DejaVuSans-65" transform="translate(808.123047 0)"/>
      <use xlink:href="#DejaVuSans-20" transform="translate(869.646484 0)"/>
      <use xlink:href="#DejaVuSans-2f" transform="translate(901.433594 0)"/>
      <use xlink:href="#DejaVuSans-20" transform="translate(935.125 0)"/>
      <use xlink:href="#DejaVuSans-4b" transform="translate(966.912109 0)"/>
     </g>
    </g>
   </g>
   <g id="line2d_11">
    <path d="M 75.765263 323.896673 
L 83.284128 284.376982 
L 90.802992 246.404349 
L 98.321857 211.253603 
L 105.840722 179.920703 
L 113.359586 153.016504 
L 120.878451 130.766759 
L 128.397315 113.025393 
L 135.91618 99.394021 
L 143.435044 89.294987 
L 150.953909 82.084237 
L 158.472773 77.104437 
L 165.991638 73.79121 
L 173.510502 71.653216 
L 181.029367 70.331909 
L 188.548231 69.535141 
L 196.067096 69.07036 
L 203.585961 68.804771 
L 211.104825 68.665336 
L 218.62369 68.592299 
L 226.142554 68.552461 
L 233.661419 68.532542 
L 241.180283 68.525902 
L 248.699148 68.519262 
L 256.218012 68.519262 
L 263.736877 68.512623 
L 271.255741 68.512623 
L 278.774606 68.512623 
L 286.29347 68.512623 
L 293.812335 68.512623 
L 301.331199 68.512623 
L 308.850064 68.512623 
L 316.368929 68.505983 
L 323.887793 68.499343 
L 331.406658 68.492703 
L 338.925522 68.472784 
L 346.444387 68.432946 
L 353.963251 68.379828 
L 361.482116 68.286872 
L 369.00098 68.140797 
L 376.519845 67.928326 
L 384.038709 67.602979 
L 391.557574 67.131558 
L 399.076438 66.474224 
L 406.595303 65.571221 
L 414.114167 64.35615 
L 421.633032 62.769253 
" clip-path="url(#p9dae75f747)" style="fill: none; stroke: #000004; stroke-width: 1.5; stroke-linecap: square"/>
   </g>
   <g id="line2d_12">
    <path d="M 75.765263 324.241939 
L 83.284128 296.222266 
L 90.802992 268.75369 
L 98.321857 242.320913 
L 105.840722 217.368797 
L 113.359586 194.249246 
L 120.878451 173.221212 
L 128.397315 154.457327 
L 135.91618 138.017348 
L 143.435044 123.881356 
L 150.953909 111.963035 
L 158.472773 102.083113 
L 165.991638 94.049036 
L 173.510502 87.635054 
L 181.029367 82.608776 
L 188.548231 78.737811 
L 196.067096 75.816329 
L 203.585961 73.645136 
L 211.104825 72.05824 
L 218.62369 70.929485 
L 226.142554 70.132717 
L 233.661419 69.57498 
L 241.180283 69.203155 
L 248.699148 68.950845 
L 256.218012 68.784852 
L 263.736877 68.678616 
L 271.255741 68.605579 
L 278.774606 68.559101 
L 286.29347 68.519262 
L 293.812335 68.486064 
L 301.331199 68.452865 
L 308.850064 68.406387 
L 316.368929 68.346629 
L 323.887793 68.266952 
L 331.406658 68.154077 
L 338.925522 67.994723 
L 346.444387 67.782252 
L 353.963251 67.496743 
L 361.482116 67.111639 
L 369.00098 66.607019 
L 376.519845 65.956325 
L 384.038709 65.119719 
L 391.557574 64.070641 
L 399.076438 62.762614 
L 406.595303 61.149159 
L 414.114167 59.190437 
L 421.633032 56.839972 
" clip-path="url(#p9dae75f747)" style="fill: none; stroke: #320a5e; stroke-width: 1.5; stroke-linecap: square"/>
   </g>
   <g id="line2d_13">
    <path d="M 75.765263 324.494249 
L 83.284128 304.641447 
L 90.802992 284.987838 
L 98.321857 265.719333 
L 105.840722 246.988646 
L 113.359586 228.96841 
L 120.878451 211.778142 
L 128.397315 195.543994 
L 135.91618 180.345646 
L 143.435044 166.262772 
L 150.953909 153.321932 
L 158.472773 141.556325 
L 165.991638 130.946032 
L 173.510502 121.471133 
L 181.029367 113.08515 
L 188.548231 105.741605 
L 196.067096 99.354182 
L 203.585961 93.863123 
L 211.104825 89.175472 
L 218.62369 85.218191 
L 226.142554 81.898324 
L 233.661419 79.136195 
L 241.180283 76.858767 
L 248.699148 74.993002 
L 256.218012 73.472503 
L 263.736877 72.230873 
L 271.255741 71.214994 
L 278.774606 70.378387 
L 286.29347 69.674576 
L 293.812335 69.07036 
L 301.331199 68.525902 
L 308.850064 68.008003 
L 316.368929 67.490104 
L 323.887793 66.945646 
L 331.406658 66.34143 
L 338.925522 65.664177 
L 346.444387 64.880689 
L 353.963251 63.964405 
L 361.482116 62.902048 
L 369.00098 61.653778 
L 376.519845 60.193037 
L 384.038709 58.499905 
L 391.557574 56.541184 
L 399.076438 54.290314 
L 406.595303 51.720738 
L 414.114167 48.799255 
L 421.633032 45.499308 
" clip-path="url(#p9dae75f747)" style="fill: none; stroke: #781c6d; stroke-width: 1.5; stroke-linecap: square"/>
   </g>
   <g id="line2d_14">
    <path d="M 75.765263 324.607125 
L 83.284128 308.379617 
L 90.802992 292.271625 
L 98.321857 276.362825 
L 105.840722 260.759452 
L 113.359586 245.554463 
L 120.878451 230.820896 
L 128.397315 216.638426 
L 135.91618 203.066812 
L 143.435044 190.165811 
L 150.953909 177.975261 
L 158.472773 166.528361 
L 165.991638 155.838391 
L 173.510502 145.931909 
L 181.029367 136.788997 
L 188.548231 128.422933 
L 196.067096 120.78724 
L 203.585961 113.888558 
L 211.104825 107.660488 
L 218.62369 102.089752 
L 226.142554 97.116592 
L 233.661419 92.70781 
L 241.180283 88.803647 
L 248.699148 85.377544 
L 256.218012 82.349826 
L 263.736877 79.693933 
L 271.255741 77.343467 
L 278.774606 75.271871 
L 286.29347 73.406106 
L 293.812335 71.726253 
L 301.331199 70.172556 
L 308.850064 68.718454 
L 316.368929 67.310831 
L 323.887793 65.929766 
L 331.406658 64.522143 
L 338.925522 63.068041 
L 346.444387 61.527623 
L 353.963251 59.88097 
L 361.482116 58.081602 
L 369.00098 56.116241 
L 376.519845 53.958328 
L 384.038709 51.574664 
L 391.557574 48.93869 
L 399.076438 46.043766 
L 406.595303 42.850054 
L 414.114167 39.357555 
L 421.633032 35.533069 
" clip-path="url(#p9dae75f747)" style="fill: none; stroke: #bc3754; stroke-width: 1.5; stroke-linecap: square"/>
   </g>
   <g id="line2d_15">
    <path d="M 75.765263 324.673522 
L 83.284128 310.610567 
L 90.802992 296.61401 
L 98.321857 282.763527 
L 105.840722 269.105596 
L 113.359586 255.706615 
L 120.878451 242.626341 
L 128.397315 229.911252 
L 135.91618 217.601187 
L 143.435044 205.755904 
L 150.953909 194.388681 
L 158.472773 183.552637 
L 165.991638 173.247771 
L 173.510502 163.507283 
L 181.029367 154.324532 
L 188.548231 145.726078 
L 196.067096 137.685361 
L 203.585961 130.209022 
L 211.104825 123.28378 
L 218.62369 116.883077 
L 226.142554 110.993634 
L 233.661419 105.588892 
L 241.180283 100.629011 
L 248.699148 96.100713 
L 256.218012 91.95088 
L 263.736877 88.152953 
L 271.255741 84.673733 
L 278.774606 81.473381 
L 286.29347 78.51206 
L 293.812335 75.749931 
L 301.331199 73.153796 
L 308.850064 70.683815 
L 316.368929 68.306791 
L 323.887793 65.989524 
L 331.406658 63.685537 
L 338.925522 61.381549 
L 346.444387 59.024444 
L 353.963251 56.607581 
L 361.482116 54.084483 
L 369.00098 51.435229 
L 376.519845 48.633262 
L 384.038709 45.665301 
L 391.557574 42.504788 
L 399.076438 39.131804 
L 406.595303 35.539708 
L 414.114167 31.708582 
L 421.633032 27.638426 
" clip-path="url(#p9dae75f747)" style="fill: none; stroke: #ed6925; stroke-width: 1.5; stroke-linecap: square"/>
   </g>
   <g id="line2d_16">
    <path d="M 75.765263 324.72 
L 83.284128 312.117787 
L 90.802992 299.568691 
L 98.321857 287.119192 
L 105.840722 274.809127 
L 113.359586 262.684975 
L 120.878451 250.786573 
L 128.397315 239.153761 
L 135.91618 227.813097 
L 143.435044 216.811059 
L 150.953909 206.160927 
L 158.472773 195.8959 
L 165.991638 186.035897 
L 173.510502 176.587557 
L 181.029367 167.577439 
L 188.548231 158.998904 
L 196.067096 150.865231 
L 203.585961 143.16978 
L 211.104825 135.912552 
L 218.62369 129.073627 
L 226.142554 122.659645 
L 233.661419 116.637407 
L 241.180283 111.000274 
L 248.699148 105.721686 
L 256.218012 100.775085 
L 263.736877 96.147191 
L 271.255741 91.804806 
L 278.774606 87.72137 
L 286.29347 83.863685 
L 293.812335 80.205192 
L 301.331199 76.719333 
L 308.850064 73.366267 
L 316.368929 70.132717 
L 323.887793 66.972204 
L 331.406658 63.864809 
L 338.925522 60.783973 
L 346.444387 57.703137 
L 353.963251 54.589102 
L 361.482116 51.435229 
L 369.00098 48.201679 
L 376.519845 44.881813 
L 384.038709 41.455711 
L 391.557574 37.903453 
L 399.076438 34.225041 
L 406.595303 30.407195 
L 414.114167 26.436634 
L 421.633032 22.32 
" clip-path="url(#p9dae75f747)" style="fill: none; stroke: #fbb61a; stroke-width: 1.5; stroke-linecap: square"/>
   </g>
   <g id="patch_3">
    <path d="M 58.471875 339.84 
L 58.471875 7.2 
" style="fill: none; stroke: #000000; stroke-width: 0.8; stroke-linejoin: miter; stroke-linecap: square"/>
   </g>
   <g id="patch_4">
    <path d="M 438.92642 339.84 
L 438.92642 7.2 
" style="fill: none; stroke: #000000; stroke-width: 0.8; stroke-linejoin: miter; stroke-linecap: square"/>
   </g>
   <g id="patch_5">
    <path d="M 58.471875 339.84 
L 438.92642 339.84 
" style="fill: none; stroke: #000000; stroke-width: 0.8; stroke-linejoin: miter; stroke-linecap: square"/>
   </g>
   <g id="patch_6">
    <path d="M 58.471875 7.2 
L 438.92642 7.2 
" style="fill: none; stroke: #000000; stroke-width: 0.8; stroke-linejoin: miter; stroke-linecap: square"/>
   </g>
   <g id="legend_1">
    <g id="patch_7">
     <path d="M 326.64642 332.84 
L 429.12642 332.84 
Q 431.92642 332.84 431.92642 330.04 
L 431.92642 208.14375 
Q 431.92642 205.34375 429.12642 205.34375 
L 326.64642 205.34375 
Q 323.84642 205.34375 323.84642 208.14375 
L 323.84642 330.04 
Q 323.84642 332.84 326.64642 332.84 
z
" style="fill: #ffffff; opacity: 0.8; stroke: #cccccc; stroke-linejoin: miter"/>
    </g>
    <g id="line2d_17">
     <path d="M 329.44642 216.681563 
L 343.44642 216.681563 
L 357.44642 216.681563 
" style="fill: none; stroke: #000004; stroke-width: 1.5; stroke-linecap: square"/>
    </g>
    <g id="text_13">
     <!-- t$^*$ = 0.1 -->
     <g transform="translate(368.64642 221.581563) scale(0.14 -0.14)">
      <defs>
       <path id="DejaVuSans-2a" d="M 3009 3897 
L 1888 3291 
L 3009 2681 
L 2828 2375 
L 1778 3009 
L 1778 1831 
L 1422 1831 
L 1422 3009 
L 372 2375 
L 191 2681 
L 1313 3291 
L 191 3897 
L 372 4206 
L 1422 3572 
L 1422 4750 
L 1778 4750 
L 1778 3572 
L 2828 4206 
L 3009 3897 
z
" transform="scale(0.015625)"/>
       <path id="DejaVuSans-3d" d="M 678 2906 
L 4684 2906 
L 4684 2381 
L 678 2381 
L 678 2906 
z
M 678 1631 
L 4684 1631 
L 4684 1100 
L 678 1100 
L 678 1631 
z
" transform="scale(0.015625)"/>
       <path id="DejaVuSans-31" d="M 794 531 
L 1825 531 
L 1825 4091 
L 703 3866 
L 703 4441 
L 1819 4666 
L 2450 4666 
L 2450 531 
L 3481 531 
L 3481 0 
L 794 0 
L 794 531 
z
" transform="scale(0.015625)"/>
      </defs>
      <use xlink:href="#DejaVuSans-74" transform="translate(0 0.765625)"/>
      <use xlink:href="#DejaVuSans-2a" transform="translate(53.803711 39.046875) scale(0.7)"/>
      <use xlink:href="#DejaVuSans-20" transform="translate(105.175781 0.765625)"/>
      <use xlink:href="#DejaVuSans-3d" transform="translate(136.962891 0.765625)"/>
      <use xlink:href="#DejaVuSans-20" transform="translate(220.751953 0.765625)"/>
      <use xlink:href="#DejaVuSans-30" transform="translate(252.539062 0.765625)"/>
      <use xlink:href="#DejaVuSans-2e" transform="translate(316.162109 0.765625)"/>
      <use xlink:href="#DejaVuSans-31" transform="translate(347.949219 0.765625)"/>
     </g>
    </g>
    <g id="line2d_18">
     <path d="M 329.44642 237.230938 
L 343.44642 237.230938 
L 357.44642 237.230938 
" style="fill: none; stroke: #320a5e; stroke-width: 1.5; stroke-linecap: square"/>
    </g>
    <g id="text_14">
     <!-- t$^*$ = 0.2 -->
     <g transform="translate(368.64642 242.130938) scale(0.14 -0.14)">
      <use xlink:href="#DejaVuSans-74" transform="translate(0 0.765625)"/>
      <use xlink:href="#DejaVuSans-2a" transform="translate(53.803711 39.046875) scale(0.7)"/>
      <use xlink:href="#DejaVuSans-20" transform="translate(105.175781 0.765625)"/>
      <use xlink:href="#DejaVuSans-3d" transform="translate(136.962891 0.765625)"/>
      <use xlink:href="#DejaVuSans-20" transform="translate(220.751953 0.765625)"/>
      <use xlink:href="#DejaVuSans-30" transform="translate(252.539062 0.765625)"/>
      <use xlink:href="#DejaVuSans-2e" transform="translate(316.162109 0.765625)"/>
      <use xlink:href="#DejaVuSans-32" transform="translate(342.449219 0.765625)"/>
     </g>
    </g>
    <g id="line2d_19">
     <path d="M 329.44642 257.780313 
L 343.44642 257.780313 
L 357.44642 257.780313 
" style="fill: none; stroke: #781c6d; stroke-width: 1.5; stroke-linecap: square"/>
    </g>
    <g id="text_15">
     <!-- t$^*$ = 0.4 -->
     <g transform="translate(368.64642 262.680313) scale(0.14 -0.14)">
      <use xlink:href="#DejaVuSans-74" transform="translate(0 0.765625)"/>
      <use xlink:href="#DejaVuSans-2a" transform="translate(53.803711 39.046875) scale(0.7)"/>
      <use xlink:href="#DejaVuSans-20" transform="translate(105.175781 0.765625)"/>
      <use xlink:href="#DejaVuSans-3d" transform="translate(136.962891 0.765625)"/>
      <use xlink:href="#DejaVuSans-20" transform="translate(220.751953 0.765625)"/>
      <use xlink:href="#DejaVuSans-30" transform="translate(252.539062 0.765625)"/>
      <use xlink:href="#DejaVuSans-2e" transform="translate(316.162109 0.765625)"/>
      <use xlink:href="#DejaVuSans-34" transform="translate(347.949219 0.765625)"/>
     </g>
    </g>
    <g id="line2d_20">
     <path d="M 329.44642 278.329688 
L 343.44642 278.329688 
L 357.44642 278.329688 
" style="fill: none; stroke: #bc3754; stroke-width: 1.5; stroke-linecap: square"/>
    </g>
    <g id="text_16">
     <!-- t$^*$ = 0.6 -->
     <g transform="translate(368.64642 283.229688) scale(0.14 -0.14)">
      <use xlink:href="#DejaVuSans-74" transform="translate(0 0.765625)"/>
      <use xlink:href="#DejaVuSans-2a" transform="translate(53.803711 39.046875) scale(0.7)"/>
      <use xlink:href="#DejaVuSans-20" transform="translate(105.175781 0.765625)"/>
      <use xlink:href="#DejaVuSans-3d" transform="translate(136.962891 0.765625)"/>
      <use xlink:href="#DejaVuSans-20" transform="translate(220.751953 0.765625)"/>
      <use xlink:href="#DejaVuSans-30" transform="translate(252.539062 0.765625)"/>
      <use xlink:href="#DejaVuSans-2e" transform="translate(316.162109 0.765625)"/>
      <use xlink:href="#DejaVuSans-36" transform="translate(347.949219 0.765625)"/>
     </g>
    </g>
    <g id="line2d_21">
     <path d="M 329.44642 298.879063 
L 343.44642 298.879063 
L 357.44642 298.879063 
" style="fill: none; stroke: #ed6925; stroke-width: 1.5; stroke-linecap: square"/>
    </g>
    <g id="text_17">
     <!-- t$^*$ = 0.8 -->
     <g transform="translate(368.64642 303.779063) scale(0.14 -0.14)">
      <use xlink:href="#DejaVuSans-74" transform="translate(0 0.765625)"/>
      <use xlink:href="#DejaVuSans-2a" transform="translate(53.803711 39.046875) scale(0.7)"/>
      <use xlink:href="#DejaVuSans-20" transform="translate(105.175781 0.765625)"/>
      <use xlink:href="#DejaVuSans-3d" transform="translate(136.962891 0.765625)"/>
      <use xlink:href="#DejaVuSans-20" transform="translate(220.751953 0.765625)"/>
      <use xlink:href="#DejaVuSans-30" transform="translate(252.539062 0.765625)"/>
      <use xlink:href="#DejaVuSans-2e" transform="translate(316.162109 0.765625)"/>
      <use xlink:href="#DejaVuSans-38" transform="translate(345.324219 0.765625)"/>
     </g>
    </g>
    <g id="line2d_22">
     <path d="M 329.44642 319.428438 
L 343.44642 319.428438 
L 357.44642 319.428438 
" style="fill: none; stroke: #fbb61a; stroke-width: 1.5; stroke-linecap: square"/>
    </g>
    <g id="text_18">
     <!-- t$^*$ = 1.0 -->
     <g transform="translate(368.64642 324.328438) scale(0.14 -0.14)">
      <use xlink:href="#DejaVuSans-74" transform="translate(0 0.765625)"/>
      <use xlink:href="#DejaVuSans-2a" transform="translate(53.803711 39.046875) scale(0.7)"/>
      <use xlink:href="#DejaVuSans-20" transform="translate(105.175781 0.765625)"/>
      <use xlink:href="#DejaVuSans-3d" transform="translate(136.962891 0.765625)"/>
      <use xlink:href="#DejaVuSans-20" transform="translate(220.751953 0.765625)"/>
      <use xlink:href="#DejaVuSans-31" transform="translate(252.539062 0.765625)"/>
      <use xlink:href="#DejaVuSans-2e" transform="translate(316.162109 0.765625)"/>
      <use xlink:href="#DejaVuSans-30" transform="translate(347.949219 0.765625)"/>
     </g>
    </g>
   </g>
  </g>
  <g id="axes_2">
   <g id="patch_8">
    <path d="M 515.01733 339.84 
L 895.471875 339.84 
L 895.471875 7.2 
L 515.01733 7.2 
z
" style="fill: #ffffff"/>
   </g>
   <g id="matplotlib.axis_3">
    <g id="xtick_6">
     <g id="line2d_23">
      <g>
       <use xlink:href="#m60d2d569ed" x="557.351373" y="339.84" style="stroke: #000000; stroke-width: 0.8"/>
      </g>
     </g>
     <g id="text_19">
      <!-- 30.4 -->
      <g transform="translate(541.765435 357.477813) scale(0.14 -0.14)">
       <use xlink:href="#DejaVuSans-33"/>
       <use xlink:href="#DejaVuSans-30" transform="translate(63.623047 0)"/>
       <use xlink:href="#DejaVuSans-2e" transform="translate(127.246094 0)"/>
       <use xlink:href="#DejaVuSans-34" transform="translate(159.033203 0)"/>
      </g>
     </g>
    </g>
    <g id="xtick_7">
     <g id="line2d_24">
      <g>
       <use xlink:href="#m60d2d569ed" x="630.741159" y="339.84" style="stroke: #000000; stroke-width: 0.8"/>
      </g>
     </g>
     <g id="text_20">
      <!-- 30.5 -->
      <g transform="translate(615.155222 357.477813) scale(0.14 -0.14)">
       <use xlink:href="#DejaVuSans-33"/>
       <use xlink:href="#DejaVuSans-30" transform="translate(63.623047 0)"/>
       <use xlink:href="#DejaVuSans-2e" transform="translate(127.246094 0)"/>
       <use xlink:href="#DejaVuSans-35" transform="translate(159.033203 0)"/>
      </g>
     </g>
    </g>
    <g id="xtick_8">
     <g id="line2d_25">
      <g>
       <use xlink:href="#m60d2d569ed" x="704.130946" y="339.84" style="stroke: #000000; stroke-width: 0.8"/>
      </g>
     </g>
     <g id="text_21">
      <!-- 30.6 -->
      <g transform="translate(688.545008 357.477813) scale(0.14 -0.14)">
       <use xlink:href="#DejaVuSans-33"/>
       <use xlink:href="#DejaVuSans-30" transform="translate(63.623047 0)"/>
       <use xlink:href="#DejaVuSans-2e" transform="translate(127.246094 0)"/>
       <use xlink:href="#DejaVuSans-36" transform="translate(159.033203 0)"/>
      </g>
     </g>
    </g>
    <g id="xtick_9">
     <g id="line2d_26">
      <g>
       <use xlink:href="#m60d2d569ed" x="777.520732" y="339.84" style="stroke: #000000; stroke-width: 0.8"/>
      </g>
     </g>
     <g id="text_22">
      <!-- 30.7 -->
      <g transform="translate(761.934795 357.477813) scale(0.14 -0.14)">
       <use xlink:href="#DejaVuSans-33"/>
       <use xlink:href="#DejaVuSans-30" transform="translate(63.623047 0)"/>
       <use xlink:href="#DejaVuSans-2e" transform="translate(127.246094 0)"/>
       <use xlink:href="#DejaVuSans-37" transform="translate(159.033203 0)"/>
      </g>
     </g>
    </g>
    <g id="xtick_10">
     <g id="line2d_27">
      <g>
       <use xlink:href="#m60d2d569ed" x="850.910519" y="339.84" style="stroke: #000000; stroke-width: 0.8"/>
      </g>
     </g>
     <g id="text_23">
      <!-- 30.8 -->
      <g transform="translate(835.324581 357.477813) scale(0.14 -0.14)">
       <use xlink:href="#DejaVuSans-33"/>
       <use xlink:href="#DejaVuSans-30" transform="translate(63.623047 0)"/>
       <use xlink:href="#DejaVuSans-2e" transform="translate(127.246094 0)"/>
       <use xlink:href="#DejaVuSans-38" transform="translate(159.033203 0)"/>
      </g>
     </g>
    </g>
    <g id="text_24">
     <!-- Radius / m -->
     <g transform="translate(668.151165 375.027188) scale(0.14 -0.14)">
      <use xlink:href="#DejaVuSans-52"/>
      <use xlink:href="#DejaVuSans-61" transform="translate(67.232422 0)"/>
      <use xlink:href="#DejaVuSans-64" transform="translate(128.511719 0)"/>
      <use xlink:href="#DejaVuSans-69" transform="translate(191.988281 0)"/>
      <use xlink:href="#DejaVuSans-75" transform="translate(219.771484 0)"/>
      <use xlink:href="#DejaVuSans-73" transform="translate(283.150391 0)"/>
      <use xlink:href="#DejaVuSans-20" transform="translate(335.25 0)"/>
      <use xlink:href="#DejaVuSans-2f" transform="translate(367.037109 0)"/>
      <use xlink:href="#DejaVuSans-20" transform="translate(400.728516 0)"/>
      <use xlink:href="#DejaVuSans-6d" transform="translate(432.515625 0)"/>
     </g>
    </g>
   </g>
   <g id="matplotlib.axis_4">
    <g id="ytick_6">
     <g id="line2d_28">
      <g>
       <use xlink:href="#m24c1a201c9" x="515.01733" y="323.794724" style="stroke: #000000; stroke-width: 0.8"/>
      </g>
     </g>
     <g id="text_25">
      <!-- 240 -->
      <g transform="translate(481.29483 329.11363) scale(0.14 -0.14)">
       <use xlink:href="#DejaVuSans-32"/>
       <use xlink:href="#DejaVuSans-34" transform="translate(63.623047 0)"/>
       <use xlink:href="#DejaVuSans-30" transform="translate(127.246094 0)"/>
      </g>
     </g>
    </g>
    <g id="ytick_7">
     <g id="line2d_29">
      <g>
       <use xlink:href="#m24c1a201c9" x="515.01733" y="257.703586" style="stroke: #000000; stroke-width: 0.8"/>
      </g>
     </g>
     <g id="text_26">
      <!-- 250 -->
      <g transform="translate(481.29483 263.022493) scale(0.14 -0.14)">
       <use xlink:href="#DejaVuSans-32"/>
       <use xlink:href="#DejaVuSans-35" transform="translate(63.623047 0)"/>
       <use xlink:href="#DejaVuSans-30" transform="translate(127.246094 0)"/>
      </g>
     </g>
    </g>
    <g id="ytick_8">
     <g id="line2d_30">
      <g>
       <use xlink:href="#m24c1a201c9" x="515.01733" y="191.612449" style="stroke: #000000; stroke-width: 0.8"/>
      </g>
     </g>
     <g id="text_27">
      <!-- 260 -->
      <g transform="translate(481.29483 196.931355) scale(0.14 -0.14)">
       <use xlink:href="#DejaVuSans-32"/>
       <use xlink:href="#DejaVuSans-36" transform="translate(63.623047 0)"/>
       <use xlink:href="#DejaVuSans-30" transform="translate(127.246094 0)"/>
      </g>
     </g>
    </g>
    <g id="ytick_9">
     <g id="line2d_31">
      <g>
       <use xlink:href="#m24c1a201c9" x="515.01733" y="125.521311" style="stroke: #000000; stroke-width: 0.8"/>
      </g>
     </g>
     <g id="text_28">
      <!-- 270 -->
      <g transform="translate(481.29483 130.840218) scale(0.14 -0.14)">
       <use xlink:href="#DejaVuSans-32"/>
       <use xlink:href="#DejaVuSans-37" transform="translate(63.623047 0)"/>
       <use xlink:href="#DejaVuSans-30" transform="translate(127.246094 0)"/>
      </g>
     </g>
    </g>
    <g id="ytick_10">
     <g id="line2d_32">
      <g>
       <use xlink:href="#m24c1a201c9" x="515.01733" y="59.430174" style="stroke: #000000; stroke-width: 0.8"/>
      </g>
     </g>
     <g id="text_29">
      <!-- 280 -->
      <g transform="translate(481.29483 64.74908) scale(0.14 -0.14)">
       <use xlink:href="#DejaVuSans-32"/>
       <use xlink:href="#DejaVuSans-38" transform="translate(63.623047 0)"/>
       <use xlink:href="#DejaVuSans-30" transform="translate(127.246094 0)"/>
      </g>
     </g>
    </g>
   </g>
   <g id="line2d_33">
    <path d="M 537.307781 324.515117 
L 544.602088 312.215557 
L 551.896394 299.968869 
L 559.190701 287.814709 
L 566.485008 275.792731 
L 573.779314 263.94259 
L 581.073621 252.303941 
L 588.367927 240.909828 
L 595.662234 229.799908 
L 602.956541 218.994007 
L 610.250847 208.53178 
L 617.545154 198.419836 
L 624.83946 188.691221 
L 632.133767 179.359152 
L 639.428074 170.430239 
L 646.72238 161.911092 
L 654.016687 153.808318 
L 661.310994 146.128528 
L 668.6053 138.858503 
L 675.899607 131.991634 
L 683.193913 125.52792 
L 690.48822 119.440927 
L 697.782527 113.717434 
L 705.076833 108.337616 
L 712.37114 103.288253 
L 719.665446 98.542909 
L 726.959753 94.068539 
L 734.25406 89.845315 
L 741.548366 85.846801 
L 748.842673 82.046561 
L 756.13698 78.418158 
L 763.431286 74.921936 
L 770.725593 71.544679 
L 778.019899 68.246732 
L 785.314206 65.008266 
L 792.608513 61.796236 
L 799.902819 58.597425 
L 807.197126 55.372178 
L 814.491432 52.113885 
L 821.785739 48.79611 
L 829.080046 45.405634 
L 836.374352 41.916022 
L 843.668659 38.327274 
L 850.962966 34.619561 
L 858.257272 30.792884 
L 865.551579 26.840634 
L 872.845885 22.762811 
" clip-path="url(#p280b00fd0e)" style="fill: none; stroke: #000004; stroke-width: 1.5; stroke-linecap: square"/>
   </g>
   <g id="line2d_34">
    <path d="M 537.307781 324.614254 
L 544.602088 315.592814 
L 551.896394 306.591201 
L 559.190701 297.616024 
L 566.485008 288.680503 
L 573.779314 279.804463 
L 581.073621 270.987905 
L 588.367927 262.244048 
L 595.662234 253.592718 
L 602.956541 245.040525 
L 610.250847 236.594077 
L 617.545154 228.259985 
L 624.83946 220.058075 
L 632.133767 211.981738 
L 639.428074 204.050801 
L 646.72238 196.265265 
L 654.016687 188.631739 
L 661.310994 181.150222 
L 668.6053 173.833933 
L 675.899607 166.682872 
L 683.193913 159.697039 
L 690.48822 152.883042 
L 697.782527 146.240883 
L 705.076833 139.770561 
L 712.37114 133.478684 
L 719.665446 127.358645 
L 726.959753 121.410443 
L 734.25406 115.640686 
L 741.548366 110.055985 
L 748.842673 104.643121 
L 756.13698 99.408703 
L 763.431286 94.35934 
L 770.725593 89.488423 
L 778.019899 84.81578 
L 785.314206 80.328191 
L 792.608513 76.038877 
L 799.902819 71.954444 
L 807.197126 68.081504 
L 814.491432 64.433273 
L 821.785739 61.016361 
L 829.080046 57.850596 
L 836.374352 54.942586 
L 843.668659 52.312158 
L 850.962966 49.98575 
L 858.257272 47.97658 
L 865.551579 46.311083 
L 872.845885 45.009088 
" clip-path="url(#p280b00fd0e)" style="fill: none; stroke: #320a5e; stroke-width: 1.5; stroke-linecap: square"/>
   </g>
   <g id="line2d_35">
    <path d="M 537.307781 324.653909 
L 544.602088 316.941073 
L 551.896394 309.234846 
L 559.190701 301.555056 
L 566.485008 293.895093 
L 573.779314 286.274785 
L 581.073621 278.694132 
L 588.367927 271.166351 
L 595.662234 263.698053 
L 602.956541 256.289236 
L 610.250847 248.959729 
L 617.545154 241.709531 
L 624.83946 234.55847 
L 632.133767 227.493328 
L 639.428074 220.54054 
L 646.72238 213.700107 
L 654.016687 206.985248 
L 661.310994 200.395961 
L 668.6053 193.945466 
L 675.899607 187.640372 
L 683.193913 181.487287 
L 690.48822 175.49943 
L 697.782527 169.683409 
L 705.076833 164.045835 
L 712.37114 158.599926 
L 719.665446 153.34568 
L 726.959753 148.296317 
L 734.25406 143.465055 
L 741.548366 138.858503 
L 748.842673 134.48327 
L 756.13698 130.352573 
L 763.431286 126.473024 
L 770.725593 122.857838 
L 778.019899 119.507018 
L 785.314206 116.440389 
L 792.608513 113.657952 
L 799.902819 111.179534 
L 807.197126 109.005136 
L 814.491432 107.147975 
L 821.785739 105.614661 
L 829.080046 104.405193 
L 836.374352 103.526181 
L 843.668659 102.990843 
L 850.962966 102.799178 
L 858.257272 102.944579 
L 865.551579 103.433653 
L 872.845885 104.259792 
" clip-path="url(#p280b00fd0e)" style="fill: none; stroke: #781c6d; stroke-width: 1.5; stroke-linecap: square"/>
   </g>
   <g id="line2d_36">
    <path d="M 537.307781 324.686954 
L 544.602088 318.091059 
L 551.896394 311.501772 
L 559.190701 304.925704 
L 566.485008 298.382682 
L 573.779314 291.872705 
L 581.073621 285.402382 
L 588.367927 278.984933 
L 595.662234 272.620356 
L 602.956541 266.321871 
L 610.250847 260.096086 
L 617.545154 253.94961 
L 624.83946 247.889053 
L 632.133767 241.921023 
L 639.428074 236.05213 
L 646.72238 230.295592 
L 654.016687 224.651409 
L 661.310994 219.126189 
L 668.6053 213.726544 
L 675.899607 208.45908 
L 683.193913 203.323798 
L 690.48822 198.333918 
L 697.782527 193.482828 
L 705.076833 188.783748 
L 712.37114 184.236678 
L 719.665446 179.841617 
L 726.959753 175.605175 
L 734.25406 171.520743 
L 741.548366 167.58832 
L 748.842673 163.807907 
L 756.13698 160.179504 
L 763.431286 156.696501 
L 770.725593 153.352289 
L 778.019899 150.14026 
L 785.314206 147.053804 
L 792.608513 144.079703 
L 799.902819 141.198129 
L 807.197126 138.409083 
L 814.491432 135.686128 
L 821.785739 133.002828 
L 829.080046 130.352573 
L 836.374352 127.69571 
L 843.668659 125.01241 
L 850.962966 122.269627 
L 858.257272 119.434318 
L 865.551579 116.460216 
L 872.845885 113.314278 
" clip-path="url(#p280b00fd0e)" style="fill: none; stroke: #bc3754; stroke-width: 1.5; stroke-linecap: square"/>
   </g>
   <g id="line2d_37">
    <path d="M 537.307781 324.713391 
L 544.602088 319.009726 
L 551.896394 313.31267 
L 559.190701 307.628832 
L 566.485008 301.958212 
L 573.779314 296.30742 
L 581.073621 290.676455 
L 588.367927 285.071927 
L 595.662234 279.493835 
L 602.956541 273.955397 
L 610.250847 268.443396 
L 617.545154 262.977659 
L 624.83946 257.544968 
L 632.133767 252.15854 
L 639.428074 246.811767 
L 646.72238 241.504649 
L 654.016687 236.243794 
L 661.310994 231.022594 
L 668.6053 225.841049 
L 675.899607 220.699159 
L 683.193913 215.590314 
L 690.48822 210.507905 
L 697.782527 205.451933 
L 705.076833 200.415788 
L 712.37114 195.392862 
L 719.665446 190.369936 
L 726.959753 185.3404 
L 734.25406 180.297646 
L 741.548366 175.228456 
L 748.842673 170.119611 
L 756.13698 164.957893 
L 763.431286 159.723475 
L 770.725593 154.403138 
L 778.019899 148.983665 
L 785.314206 143.445228 
L 792.608513 137.76139 
L 799.902819 131.912324 
L 807.197126 125.878203 
L 814.491432 119.6392 
L 821.785739 113.168878 
L 829.080046 106.4408 
L 836.374352 99.421921 
L 843.668659 92.099023 
L 850.962966 84.43906 
L 858.257272 76.415596 
L 865.551579 68.002194 
L 872.845885 59.172418 
" clip-path="url(#p280b00fd0e)" style="fill: none; stroke: #ed6925; stroke-width: 1.5; stroke-linecap: square"/>
   </g>
   <g id="line2d_38">
    <path d="M 537.307781 324.72 
L 544.602088 319.20139 
L 551.896394 313.68278 
L 559.190701 308.16417 
L 566.485008 302.64556 
L 573.779314 297.113732 
L 581.073621 291.581904 
L 588.367927 286.043466 
L 595.662234 280.49842 
L 602.956541 274.933546 
L 610.250847 269.355454 
L 617.545154 263.764144 
L 624.83946 258.153006 
L 632.133767 252.515432 
L 639.428074 246.851422 
L 646.72238 241.154366 
L 654.016687 235.424264 
L 661.310994 229.647899 
L 668.6053 223.838488 
L 675.899607 217.969595 
L 683.193913 212.047829 
L 690.48822 206.066581 
L 697.782527 200.019242 
L 705.076833 193.892593 
L 712.37114 187.693244 
L 719.665446 181.407977 
L 726.959753 175.023573 
L 734.25406 168.546642 
L 741.548366 161.963965 
L 748.842673 155.268932 
L 756.13698 148.454936 
L 763.431286 141.521976 
L 770.725593 134.456833 
L 778.019899 127.266117 
L 785.314206 119.93661 
L 792.608513 112.474921 
L 799.902819 104.87444 
L 807.197126 97.135168 
L 814.491432 89.257104 
L 821.785739 81.246858 
L 829.080046 73.117648 
L 836.374352 64.869474 
L 843.668659 56.508945 
L 850.962966 48.055889 
L 858.257272 39.530132 
L 865.551579 30.944893 
L 872.845885 22.32 
" clip-path="url(#p280b00fd0e)" style="fill: none; stroke: #fbb61a; stroke-width: 1.5; stroke-linecap: square"/>
   </g>
   <g id="patch_9">
    <path d="M 515.01733 339.84 
L 515.01733 7.2 
" style="fill: none; stroke: #000000; stroke-width: 0.8; stroke-linejoin: miter; stroke-linecap: square"/>
   </g>
   <g id="patch_10">
    <path d="M 895.471875 339.84 
L 895.471875 7.2 
" style="fill: none; stroke: #000000; stroke-width: 0.8; stroke-linejoin: miter; stroke-linecap: square"/>
   </g>
   <g id="patch_11">
    <path d="M 515.01733 339.84 
L 895.471875 339.84 
" style="fill: none; stroke: #000000; stroke-width: 0.8; stroke-linejoin: miter; stroke-linecap: square"/>
   </g>
   <g id="patch_12">
    <path d="M 515.01733 7.2 
L 895.471875 7.2 
" style="fill: none; stroke: #000000; stroke-width: 0.8; stroke-linejoin: miter; stroke-linecap: square"/>
   </g>
   <g id="legend_2">
    <g id="patch_13">
     <path d="M 783.61625 332.84 
L 885.671875 332.84 
Q 888.471875 332.84 888.471875 330.04 
L 888.471875 208.14375 
Q 888.471875 205.34375 885.671875 205.34375 
L 783.61625 205.34375 
Q 780.81625 205.34375 780.81625 208.14375 
L 780.81625 330.04 
Q 780.81625 332.84 783.61625 332.84 
z
" style="fill: #ffffff; opacity: 0.8; stroke: #cccccc; stroke-linejoin: miter"/>
    </g>
    <g id="line2d_39">
     <path d="M 786.41625 216.681563 
L 800.41625 216.681563 
L 814.41625 216.681563 
" style="fill: none; stroke: #000004; stroke-width: 1.5; stroke-linecap: square"/>
    </g>
    <g id="text_30">
     <!-- t = 5 h -->
     <g transform="translate(825.61625 221.581563) scale(0.14 -0.14)">
      <defs>
       <path id="DejaVuSans-68" d="M 3513 2113 
L 3513 0 
L 2938 0 
L 2938 2094 
Q 2938 2591 2744 2837 
Q 2550 3084 2163 3084 
Q 1697 3084 1428 2787 
Q 1159 2491 1159 1978 
L 1159 0 
L 581 0 
L 581 4863 
L 1159 4863 
L 1159 2956 
Q 1366 3272 1645 3428 
Q 1925 3584 2291 3584 
Q 2894 3584 3203 3211 
Q 3513 2838 3513 2113 
z
" transform="scale(0.015625)"/>
      </defs>
      <use xlink:href="#DejaVuSans-74"/>
      <use xlink:href="#DejaVuSans-20" transform="translate(39.208984 0)"/>
      <use xlink:href="#DejaVuSans-3d" transform="translate(70.996094 0)"/>
      <use xlink:href="#DejaVuSans-20" transform="translate(154.785156 0)"/>
      <use xlink:href="#DejaVuSans-35" transform="translate(186.572266 0)"/>
      <use xlink:href="#DejaVuSans-20" transform="translate(250.195312 0)"/>
      <use xlink:href="#DejaVuSans-68" transform="translate(281.982422 0)"/>
     </g>
    </g>
    <g id="line2d_40">
     <path d="M 786.41625 237.230938 
L 800.41625 237.230938 
L 814.41625 237.230938 
" style="fill: none; stroke: #320a5e; stroke-width: 1.5; stroke-linecap: square"/>
    </g>
    <g id="text_31">
     <!-- t = 10 h -->
     <g transform="translate(825.61625 242.130938) scale(0.14 -0.14)">
      <use xlink:href="#DejaVuSans-74"/>
      <use xlink:href="#DejaVuSans-20" transform="translate(39.208984 0)"/>
      <use xlink:href="#DejaVuSans-3d" transform="translate(70.996094 0)"/>
      <use xlink:href="#DejaVuSans-20" transform="translate(154.785156 0)"/>
      <use xlink:href="#DejaVuSans-31" transform="translate(186.572266 0)"/>
      <use xlink:href="#DejaVuSans-30" transform="translate(250.195312 0)"/>
      <use xlink:href="#DejaVuSans-20" transform="translate(313.818359 0)"/>
      <use xlink:href="#DejaVuSans-68" transform="translate(345.605469 0)"/>
     </g>
    </g>
    <g id="line2d_41">
     <path d="M 786.41625 257.780313 
L 800.41625 257.780313 
L 814.41625 257.780313 
" style="fill: none; stroke: #781c6d; stroke-width: 1.5; stroke-linecap: square"/>
    </g>
    <g id="text_32">
     <!-- t = 15 h -->
     <g transform="translate(825.61625 262.680313) scale(0.14 -0.14)">
      <use xlink:href="#DejaVuSans-74"/>
      <use xlink:href="#DejaVuSans-20" transform="translate(39.208984 0)"/>
      <use xlink:href="#DejaVuSans-3d" transform="translate(70.996094 0)"/>
      <use xlink:href="#DejaVuSans-20" transform="translate(154.785156 0)"/>
      <use xlink:href="#DejaVuSans-31" transform="translate(186.572266 0)"/>
      <use xlink:href="#DejaVuSans-35" transform="translate(250.195312 0)"/>
      <use xlink:href="#DejaVuSans-20" transform="translate(313.818359 0)"/>
      <use xlink:href="#DejaVuSans-68" transform="translate(345.605469 0)"/>
     </g>
    </g>
    <g id="line2d_42">
     <path d="M 786.41625 278.329688 
L 800.41625 278.329688 
L 814.41625 278.329688 
" style="fill: none; stroke: #bc3754; stroke-width: 1.5; stroke-linecap: square"/>
    </g>
    <g id="text_33">
     <!-- t = 20 h -->
     <g transform="translate(825.61625 283.229688) scale(0.14 -0.14)">
      <use xlink:href="#DejaVuSans-74"/>
      <use xlink:href="#DejaVuSans-20" transform="translate(39.208984 0)"/>
      <use xlink:href="#DejaVuSans-3d" transform="translate(70.996094 0)"/>
      <use xlink:href="#DejaVuSans-20" transform="translate(154.785156 0)"/>
      <use xlink:href="#DejaVuSans-32" transform="translate(186.572266 0)"/>
      <use xlink:href="#DejaVuSans-30" transform="translate(250.195312 0)"/>
      <use xlink:href="#DejaVuSans-20" transform="translate(313.818359 0)"/>
      <use xlink:href="#DejaVuSans-68" transform="translate(345.605469 0)"/>
     </g>
    </g>
    <g id="line2d_43">
     <path d="M 786.41625 298.879063 
L 800.41625 298.879063 
L 814.41625 298.879063 
" style="fill: none; stroke: #ed6925; stroke-width: 1.5; stroke-linecap: square"/>
    </g>
    <g id="text_34">
     <!-- t = 25 h -->
     <g transform="translate(825.61625 303.779063) scale(0.14 -0.14)">
      <use xlink:href="#DejaVuSans-74"/>
      <use xlink:href="#DejaVuSans-20" transform="translate(39.208984 0)"/>
      <use xlink:href="#DejaVuSans-3d" transform="translate(70.996094 0)"/>
      <use xlink:href="#DejaVuSans-20" transform="translate(154.785156 0)"/>
      <use xlink:href="#DejaVuSans-32" transform="translate(186.572266 0)"/>
      <use xlink:href="#DejaVuSans-35" transform="translate(250.195312 0)"/>
      <use xlink:href="#DejaVuSans-20" transform="translate(313.818359 0)"/>
      <use xlink:href="#DejaVuSans-68" transform="translate(345.605469 0)"/>
     </g>
    </g>
    <g id="line2d_44">
     <path d="M 786.41625 319.428438 
L 800.41625 319.428438 
L 814.41625 319.428438 
" style="fill: none; stroke: #fbb61a; stroke-width: 1.5; stroke-linecap: square"/>
    </g>
    <g id="text_35">
     <!-- t = 30 h -->
     <g transform="translate(825.61625 324.328438) scale(0.14 -0.14)">
      <use xlink:href="#DejaVuSans-74"/>
      <use xlink:href="#DejaVuSans-20" transform="translate(39.208984 0)"/>
      <use xlink:href="#DejaVuSans-3d" transform="translate(70.996094 0)"/>
      <use xlink:href="#DejaVuSans-20" transform="translate(154.785156 0)"/>
      <use xlink:href="#DejaVuSans-33" transform="translate(186.572266 0)"/>
      <use xlink:href="#DejaVuSans-30" transform="translate(250.195312 0)"/>
      <use xlink:href="#DejaVuSans-20" transform="translate(313.818359 0)"/>
      <use xlink:href="#DejaVuSans-68" transform="translate(345.605469 0)"/>
     </g>
    </g>
   </g>
  </g>
 </g>
 <defs>
  <clipPath id="p9dae75f747">
   <rect x="58.471875" y="7.2" width="380.454545" height="332.64"/>
  </clipPath>
  <clipPath id="p280b00fd0e">
   <rect x="515.01733" y="7.2" width="380.454545" height="332.64"/>
  </clipPath>
 </defs>
</svg>
