<?xml version="1.0" encoding="utf-8" standalone="no"?>
<!DOCTYPE svg PUBLIC "-//W3C//DTD SVG 1.1//EN"
  "http://www.w3.org/Graphics/SVG/1.1/DTD/svg11.dtd">
<svg xmlns:xlink="http://www.w3.org/1999/xlink" width="1066.224814pt" height="424.53875pt" viewBox="0 0 1066.224814 424.53875" xmlns="http://www.w3.org/2000/svg" version="1.1">
 <metadata>
  <rdf:RDF xmlns:dc="http://purl.org/dc/elements/1.1/" xmlns:cc="http://creativecommons.org/ns#" xmlns:rdf="http://www.w3.org/1999/02/22-rdf-syntax-ns#">
   <cc:Work>
    <dc:type rdf:resource="http://purl.org/dc/dcmitype/StillImage"/>
    <dc:date>2025-09-23T10:04:31.435270</dc:date>
    <dc:format>image/svg+xml</dc:format>
    <dc:creator>
     <cc:Agent>
      <dc:title>Matplotlib v3.10.1, https://matplotlib.org/</dc:title>
     </cc:Agent>
    </dc:creator>
   </cc:Work>
  </rdf:RDF>
 </metadata>
 <defs>
  <style type="text/css">*{stroke-linejoin: round; stroke-linecap: butt}</style>
 </defs>
 <g id="figure_1">
  <g id="patch_1">
   <path d="M 0 424.53875 
L 1066.224814 424.53875 
L 1066.224814 0 
L 0 0 
z
" style="fill: #ffffff"/>
  </g>
  <g id="axes_1">
   <g id="patch_2">
    <path d="M 58.471875 379.24 
L 511.063564 379.24 
L 511.063564 7.2 
L 58.471875 7.2 
z
" style="fill: #ffffff"/>
   </g>
   <g id="matplotlib.axis_1">
    <g id="xtick_1">
     <g id="line2d_1">
      <defs>
       <path id="m4dc9e23d40" d="M 0 0 
L 0 3.5 
" style="stroke: #000000; stroke-width: 0.8"/>
      </defs>
      <g>
       <use xlink:href="#m4dc9e23d40" x="59.375252" y="379.24" style="stroke: #000000; stroke-width: 0.8"/>
      </g>
     </g>
     <g id="text_1">
      <!-- 0 -->
      <g transform="translate(54.921502 396.877812) scale(0.14 -0.14)">
       <defs>
        <path id="DejaVuSans-30" d="M 2034 4250 
Q 1547 4250 1301 3770 
Q 1056 3291 1056 2328 
Q 1056 1369 1301 889 
Q 1547 409 2034 409 
Q 2525 409 2770 889 
Q 3016 1369 3016 2328 
Q 3016 3291 2770 3770 
Q 2525 4250 2034 4250 
z
M 2034 4750 
Q 2819 4750 3233 4129 
Q 3647 3509 3647 2328 
Q 3647 1150 3233 529 
Q 2819 -91 2034 -91 
Q 1250 -91 836 529 
Q 422 1150 422 2328 
Q 422 3509 836 4129 
Q 1250 4750 2034 4750 
z
" transform="scale(0.015625)"/>
       </defs>
       <use xlink:href="#DejaVuSans-30"/>
      </g>
     </g>
    </g>
    <g id="xtick_2">
     <g id="line2d_2">
      <g>
       <use xlink:href="#m4dc9e23d40" x="149.712914" y="379.24" style="stroke: #000000; stroke-width: 0.8"/>
      </g>
     </g>
     <g id="text_2">
      <!-- 100 -->
      <g transform="translate(136.351664 396.877812) scale(0.14 -0.14)">
       <defs>
        <path id="DejaVuSans-31" d="M 794 531 
L 1825 531 
L 1825 4091 
L 703 3866 
L 703 4441 
L 1819 4666 
L 2450 4666 
L 2450 531 
L 3481 531 
L 3481 0 
L 794 0 
L 794 531 
z
" transform="scale(0.015625)"/>
       </defs>
       <use xlink:href="#DejaVuSans-31"/>
       <use xlink:href="#DejaVuSans-30" transform="translate(63.623047 0)"/>
       <use xlink:href="#DejaVuSans-30" transform="translate(127.246094 0)"/>
      </g>
     </g>
    </g>
    <g id="xtick_3">
     <g id="line2d_3">
      <g>
       <use xlink:href="#m4dc9e23d40" x="240.050577" y="379.24" style="stroke: #000000; stroke-width: 0.8"/>
      </g>
     </g>
     <g id="text_3">
      <!-- 200 -->
      <g transform="translate(226.689327 396.877812) scale(0.14 -0.14)">
       <defs>
        <path id="DejaVuSans-32" d="M 1228 531 
L 3431 531 
L 3431 0 
L 469 0 
L 469 531 
Q 828 903 1448 1529 
Q 2069 2156 2228 2338 
Q 2531 2678 2651 2914 
Q 2772 3150 2772 3378 
Q 2772 3750 2511 3984 
Q 2250 4219 1831 4219 
Q 1534 4219 1204 4116 
Q 875 4013 500 3803 
L 500 4441 
Q 881 4594 1212 4672 
Q 1544 4750 1819 4750 
Q 2544 4750 2975 4387 
Q 3406 4025 3406 3419 
Q 3406 3131 3298 2873 
Q 3191 2616 2906 2266 
Q 2828 2175 2409 1742 
Q 1991 1309 1228 531 
z
" transform="scale(0.015625)"/>
       </defs>
       <use xlink:href="#DejaVuSans-32"/>
       <use xlink:href="#DejaVuSans-30" transform="translate(63.623047 0)"/>
       <use xlink:href="#DejaVuSans-30" transform="translate(127.246094 0)"/>
      </g>
     </g>
    </g>
    <g id="xtick_4">
     <g id="line2d_4">
      <g>
       <use xlink:href="#m4dc9e23d40" x="330.388239" y="379.24" style="stroke: #000000; stroke-width: 0.8"/>
      </g>
     </g>
     <g id="text_4">
      <!-- 300 -->
      <g transform="translate(317.026989 396.877812) scale(0.14 -0.14)">
       <defs>
        <path id="DejaVuSans-33" d="M 2597 2516 
Q 3050 2419 3304 2112 
Q 3559 1806 3559 1356 
Q 3559 666 3084 287 
Q 2609 -91 1734 -91 
Q 1441 -91 1130 -33 
Q 819 25 488 141 
L 488 750 
Q 750 597 1062 519 
Q 1375 441 1716 441 
Q 2309 441 2620 675 
Q 2931 909 2931 1356 
Q 2931 1769 2642 2001 
Q 2353 2234 1838 2234 
L 1294 2234 
L 1294 2753 
L 1863 2753 
Q 2328 2753 2575 2939 
Q 2822 3125 2822 3475 
Q 2822 3834 2567 4026 
Q 2313 4219 1838 4219 
Q 1578 4219 1281 4162 
Q 984 4106 628 3988 
L 628 4550 
Q 988 4650 1302 4700 
Q 1616 4750 1894 4750 
Q 2613 4750 3031 4423 
Q 3450 4097 3450 3541 
Q 3450 3153 3228 2886 
Q 3006 2619 2597 2516 
z
" transform="scale(0.015625)"/>
       </defs>
       <use xlink:href="#DejaVuSans-33"/>
       <use xlink:href="#DejaVuSans-30" transform="translate(63.623047 0)"/>
       <use xlink:href="#DejaVuSans-30" transform="translate(127.246094 0)"/>
      </g>
     </g>
    </g>
    <g id="xtick_5">
     <g id="line2d_5">
      <g>
       <use xlink:href="#m4dc9e23d40" x="420.725901" y="379.24" style="stroke: #000000; stroke-width: 0.8"/>
      </g>
     </g>
     <g id="text_5">
      <!-- 400 -->
      <g transform="translate(407.364651 396.877812) scale(0.14 -0.14)">
       <defs>
        <path id="DejaVuSans-34" d="M 2419 4116 
L 825 1625 
L 2419 1625 
L 2419 4116 
z
M 2253 4666 
L 3047 4666 
L 3047 1625 
L 3713 1625 
L 3713 1100 
L 3047 1100 
L 3047 0 
L 2419 0 
L 2419 1100 
L 313 1100 
L 313 1709 
L 2253 4666 
z
" transform="scale(0.015625)"/>
       </defs>
       <use xlink:href="#DejaVuSans-34"/>
       <use xlink:href="#DejaVuSans-30" transform="translate(63.623047 0)"/>
       <use xlink:href="#DejaVuSans-30" transform="translate(127.246094 0)"/>
      </g>
     </g>
    </g>
    <g id="xtick_6">
     <g id="line2d_6">
      <g>
       <use xlink:href="#m4dc9e23d40" x="511.063564" y="379.24" style="stroke: #000000; stroke-width: 0.8"/>
      </g>
     </g>
     <g id="text_6">
      <!-- 500 -->
      <g transform="translate(497.702314 396.877812) scale(0.14 -0.14)">
       <defs>
        <path id="DejaVuSans-35" d="M 691 4666 
L 3169 4666 
L 3169 4134 
L 1269 4134 
L 1269 2991 
Q 1406 3038 1543 3061 
Q 1681 3084 1819 3084 
Q 2600 3084 3056 2656 
Q 3513 2228 3513 1497 
Q 3513 744 3044 326 
Q 2575 -91 1722 -91 
Q 1428 -91 1123 -41 
Q 819 9 494 109 
L 494 744 
Q 775 591 1075 516 
Q 1375 441 1709 441 
Q 2250 441 2565 725 
Q 2881 1009 2881 1497 
Q 2881 1984 2565 2268 
Q 2250 2553 1709 2553 
Q 1456 2553 1204 2497 
Q 953 2441 691 2322 
L 691 4666 
z
" transform="scale(0.015625)"/>
       </defs>
       <use xlink:href="#DejaVuSans-35"/>
       <use xlink:href="#DejaVuSans-30" transform="translate(63.623047 0)"/>
       <use xlink:href="#DejaVuSans-30" transform="translate(127.246094 0)"/>
      </g>
     </g>
    </g>
    <g id="text_7">
     <!-- Time / h -->
     <g transform="translate(256.396938 414.427187) scale(0.14 -0.14)">
      <defs>
       <path id="DejaVuSans-54" d="M -19 4666 
L 3928 4666 
L 3928 4134 
L 2272 4134 
L 2272 0 
L 1638 0 
L 1638 4134 
L -19 4134 
L -19 4666 
z
" transform="scale(0.015625)"/>
       <path id="DejaVuSans-69" d="M 603 3500 
L 1178 3500 
L 1178 0 
L 603 0 
L 603 3500 
z
M 603 4863 
L 1178 4863 
L 1178 4134 
L 603 4134 
L 603 4863 
z
" transform="scale(0.015625)"/>
       <path id="DejaVuSans-6d" d="M 3328 2828 
Q 3544 3216 3844 3400 
Q 4144 3584 4550 3584 
Q 5097 3584 5394 3201 
Q 5691 2819 5691 2113 
L 5691 0 
L 5113 0 
L 5113 2094 
Q 5113 2597 4934 2840 
Q 4756 3084 4391 3084 
Q 3944 3084 3684 2787 
Q 3425 2491 3425 1978 
L 3425 0 
L 2847 0 
L 2847 2094 
Q 2847 2600 2669 2842 
Q 2491 3084 2119 3084 
Q 1678 3084 1418 2786 
Q 1159 2488 1159 1978 
L 1159 0 
L 581 0 
L 581 3500 
L 1159 3500 
L 1159 2956 
Q 1356 3278 1631 3431 
Q 1906 3584 2284 3584 
Q 2666 3584 2933 3390 
Q 3200 3197 3328 2828 
z
" transform="scale(0.015625)"/>
       <path id="DejaVuSans-65" d="M 3597 1894 
L 3597 1613 
L 953 1613 
Q 991 1019 1311 708 
Q 1631 397 2203 397 
Q 2534 397 2845 478 
Q 3156 559 3463 722 
L 3463 178 
Q 3153 47 2828 -22 
Q 2503 -91 2169 -91 
Q 1331 -91 842 396 
Q 353 884 353 1716 
Q 353 2575 817 3079 
Q 1281 3584 2069 3584 
Q 2775 3584 3186 3129 
Q 3597 2675 3597 1894 
z
M 3022 2063 
Q 3016 2534 2758 2815 
Q 2500 3097 2075 3097 
Q 1594 3097 1305 2825 
Q 1016 2553 972 2059 
L 3022 2063 
z
" transform="scale(0.015625)"/>
       <path id="DejaVuSans-20" transform="scale(0.015625)"/>
       <path id="DejaVuSans-2f" d="M 1625 4666 
L 2156 4666 
L 531 -594 
L 0 -594 
L 1625 4666 
z
" transform="scale(0.015625)"/>
       <path id="DejaVuSans-68" d="M 3513 2113 
L 3513 0 
L 2938 0 
L 2938 2094 
Q 2938 2591 2744 2837 
Q 2550 3084 2163 3084 
Q 1697 3084 1428 2787 
Q 1159 2491 1159 1978 
L 1159 0 
L 581 0 
L 581 4863 
L 1159 4863 
L 1159 2956 
Q 1366 3272 1645 3428 
Q 1925 3584 2291 3584 
Q 2894 3584 3203 3211 
Q 3513 2838 3513 2113 
z
" transform="scale(0.015625)"/>
      </defs>
      <use xlink:href="#DejaVuSans-54"/>
      <use xlink:href="#DejaVuSans-69" transform="translate(57.958984 0)"/>
      <use xlink:href="#DejaVuSans-6d" transform="translate(85.742188 0)"/>
      <use xlink:href="#DejaVuSans-65" transform="translate(183.154297 0)"/>
      <use xlink:href="#DejaVuSans-20" transform="translate(244.677734 0)"/>
      <use xlink:href="#DejaVuSans-2f" transform="translate(276.464844 0)"/>
      <use xlink:href="#DejaVuSans-20" transform="translate(310.15625 0)"/>
      <use xlink:href="#DejaVuSans-68" transform="translate(341.943359 0)"/>
     </g>
    </g>
   </g>
   <g id="matplotlib.axis_2">
    <g id="ytick_1">
     <g id="line2d_7">
      <defs>
       <path id="m236219741e" d="M 0 0 
L -3.5 0 
" style="stroke: #000000; stroke-width: 0.8"/>
      </defs>
      <g>
       <use xlink:href="#m236219741e" x="58.471875" y="361.112389" style="stroke: #000000; stroke-width: 0.8"/>
      </g>
     </g>
     <g id="text_8">
      <!-- 240 -->
      <g transform="translate(24.749375 366.431295) scale(0.14 -0.14)">
       <use xlink:href="#DejaVuSans-32"/>
       <use xlink:href="#DejaVuSans-34" transform="translate(63.623047 0)"/>
       <use xlink:href="#DejaVuSans-30" transform="translate(127.246094 0)"/>
      </g>
     </g>
    </g>
    <g id="ytick_2">
     <g id="line2d_8">
      <g>
       <use xlink:href="#m236219741e" x="58.471875" y="287.8171" style="stroke: #000000; stroke-width: 0.8"/>
      </g>
     </g>
     <g id="text_9">
      <!-- 250 -->
      <g transform="translate(24.749375 293.136006) scale(0.14 -0.14)">
       <use xlink:href="#DejaVuSans-32"/>
       <use xlink:href="#DejaVuSans-35" transform="translate(63.623047 0)"/>
       <use xlink:href="#DejaVuSans-30" transform="translate(127.246094 0)"/>
      </g>
     </g>
    </g>
    <g id="ytick_3">
     <g id="line2d_9">
      <g>
       <use xlink:href="#m236219741e" x="58.471875" y="214.52181" style="stroke: #000000; stroke-width: 0.8"/>
      </g>
     </g>
     <g id="text_10">
      <!-- 260 -->
      <g transform="translate(24.749375 219.840716) scale(0.14 -0.14)">
       <defs>
        <path id="DejaVuSans-36" d="M 2113 2584 
Q 1688 2584 1439 2293 
Q 1191 2003 1191 1497 
Q 1191 994 1439 701 
Q 1688 409 2113 409 
Q 2538 409 2786 701 
Q 3034 994 3034 1497 
Q 3034 2003 2786 2293 
Q 2538 2584 2113 2584 
z
M 3366 4563 
L 3366 3988 
Q 3128 4100 2886 4159 
Q 2644 4219 2406 4219 
Q 1781 4219 1451 3797 
Q 1122 3375 1075 2522 
Q 1259 2794 1537 2939 
Q 1816 3084 2150 3084 
Q 2853 3084 3261 2657 
Q 3669 2231 3669 1497 
Q 3669 778 3244 343 
Q 2819 -91 2113 -91 
Q 1303 -91 875 529 
Q 447 1150 447 2328 
Q 447 3434 972 4092 
Q 1497 4750 2381 4750 
Q 2619 4750 2861 4703 
Q 3103 4656 3366 4563 
z
" transform="scale(0.015625)"/>
       </defs>
       <use xlink:href="#DejaVuSans-32"/>
       <use xlink:href="#DejaVuSans-36" transform="translate(63.623047 0)"/>
       <use xlink:href="#DejaVuSans-30" transform="translate(127.246094 0)"/>
      </g>
     </g>
    </g>
    <g id="ytick_4">
     <g id="line2d_10">
      <g>
       <use xlink:href="#m236219741e" x="58.471875" y="141.22652" style="stroke: #000000; stroke-width: 0.8"/>
      </g>
     </g>
     <g id="text_11">
      <!-- 270 -->
      <g transform="translate(24.749375 146.545427) scale(0.14 -0.14)">
       <defs>
        <path id="DejaVuSans-37" d="M 525 4666 
L 3525 4666 
L 3525 4397 
L 1831 0 
L 1172 0 
L 2766 4134 
L 525 4134 
L 525 4666 
z
" transform="scale(0.015625)"/>
       </defs>
       <use xlink:href="#DejaVuSans-32"/>
       <use xlink:href="#DejaVuSans-37" transform="translate(63.623047 0)"/>
       <use xlink:href="#DejaVuSans-30" transform="translate(127.246094 0)"/>
      </g>
     </g>
    </g>
    <g id="ytick_5">
     <g id="line2d_11">
      <g>
       <use xlink:href="#m236219741e" x="58.471875" y="67.931231" style="stroke: #000000; stroke-width: 0.8"/>
      </g>
     </g>
     <g id="text_12">
      <!-- 280 -->
      <g transform="translate(24.749375 73.250137) scale(0.14 -0.14)">
       <defs>
        <path id="DejaVuSans-38" d="M 2034 2216 
Q 1584 2216 1326 1975 
Q 1069 1734 1069 1313 
Q 1069 891 1326 650 
Q 1584 409 2034 409 
Q 2484 409 2743 651 
Q 3003 894 3003 1313 
Q 3003 1734 2745 1975 
Q 2488 2216 2034 2216 
z
M 1403 2484 
Q 997 2584 770 2862 
Q 544 3141 544 3541 
Q 544 4100 942 4425 
Q 1341 4750 2034 4750 
Q 2731 4750 3128 4425 
Q 3525 4100 3525 3541 
Q 3525 3141 3298 2862 
Q 3072 2584 2669 2484 
Q 3125 2378 3379 2068 
Q 3634 1759 3634 1313 
Q 3634 634 3220 271 
Q 2806 -91 2034 -91 
Q 1263 -91 848 271 
Q 434 634 434 1313 
Q 434 1759 690 2068 
Q 947 2378 1403 2484 
z
M 1172 3481 
Q 1172 3119 1398 2916 
Q 1625 2713 2034 2713 
Q 2441 2713 2670 2916 
Q 2900 3119 2900 3481 
Q 2900 3844 2670 4047 
Q 2441 4250 2034 4250 
Q 1625 4250 1398 4047 
Q 1172 3844 1172 3481 
z
" transform="scale(0.015625)"/>
       </defs>
       <use xlink:href="#DejaVuSans-32"/>
       <use xlink:href="#DejaVuSans-38" transform="translate(63.623047 0)"/>
       <use xlink:href="#DejaVuSans-30" transform="translate(127.246094 0)"/>
      </g>
     </g>
    </g>
    <g id="text_13">
     <!-- Temperature / K -->
     <g transform="translate(17.837813 248.955312) rotate(-90) scale(0.14 -0.14)">
      <defs>
       <path id="DejaVuSans-70" d="M 1159 525 
L 1159 -1331 
L 581 -1331 
L 581 3500 
L 1159 3500 
L 1159 2969 
Q 1341 3281 1617 3432 
Q 1894 3584 2278 3584 
Q 2916 3584 3314 3078 
Q 3713 2572 3713 1747 
Q 3713 922 3314 415 
Q 2916 -91 2278 -91 
Q 1894 -91 1617 61 
Q 1341 213 1159 525 
z
M 3116 1747 
Q 3116 2381 2855 2742 
Q 2594 3103 2138 3103 
Q 1681 3103 1420 2742 
Q 1159 2381 1159 1747 
Q 1159 1113 1420 752 
Q 1681 391 2138 391 
Q 2594 391 2855 752 
Q 3116 1113 3116 1747 
z
" transform="scale(0.015625)"/>
       <path id="DejaVuSans-72" d="M 2631 2963 
Q 2534 3019 2420 3045 
Q 2306 3072 2169 3072 
Q 1681 3072 1420 2755 
Q 1159 2438 1159 1844 
L 1159 0 
L 581 0 
L 581 3500 
L 1159 3500 
L 1159 2956 
Q 1341 3275 1631 3429 
Q 1922 3584 2338 3584 
Q 2397 3584 2469 3576 
Q 2541 3569 2628 3553 
L 2631 2963 
z
" transform="scale(0.015625)"/>
       <path id="DejaVuSans-61" d="M 2194 1759 
Q 1497 1759 1228 1600 
Q 959 1441 959 1056 
Q 959 750 1161 570 
Q 1363 391 1709 391 
Q 2188 391 2477 730 
Q 2766 1069 2766 1631 
L 2766 1759 
L 2194 1759 
z
M 3341 1997 
L 3341 0 
L 2766 0 
L 2766 531 
Q 2569 213 2275 61 
Q 1981 -91 1556 -91 
Q 1019 -91 701 211 
Q 384 513 384 1019 
Q 384 1609 779 1909 
Q 1175 2209 1959 2209 
L 2766 2209 
L 2766 2266 
Q 2766 2663 2505 2880 
Q 2244 3097 1772 3097 
Q 1472 3097 1187 3025 
Q 903 2953 641 2809 
L 641 3341 
Q 956 3463 1253 3523 
Q 1550 3584 1831 3584 
Q 2591 3584 2966 3190 
Q 3341 2797 3341 1997 
z
" transform="scale(0.015625)"/>
       <path id="DejaVuSans-74" d="M 1172 4494 
L 1172 3500 
L 2356 3500 
L 2356 3053 
L 1172 3053 
L 1172 1153 
Q 1172 725 1289 603 
Q 1406 481 1766 481 
L 2356 481 
L 2356 0 
L 1766 0 
Q 1100 0 847 248 
Q 594 497 594 1153 
L 594 3053 
L 172 3053 
L 172 3500 
L 594 3500 
L 594 4494 
L 1172 4494 
z
" transform="scale(0.015625)"/>
       <path id="DejaVuSans-75" d="M 544 1381 
L 544 3500 
L 1119 3500 
L 1119 1403 
Q 1119 906 1312 657 
Q 1506 409 1894 409 
Q 2359 409 2629 706 
Q 2900 1003 2900 1516 
L 2900 3500 
L 3475 3500 
L 3475 0 
L 2900 0 
L 2900 538 
Q 2691 219 2414 64 
Q 2138 -91 1772 -91 
Q 1169 -91 856 284 
Q 544 659 544 1381 
z
M 1991 3584 
L 1991 3584 
z
" transform="scale(0.015625)"/>
       <path id="DejaVuSans-4b" d="M 628 4666 
L 1259 4666 
L 1259 2694 
L 3353 4666 
L 4166 4666 
L 1850 2491 
L 4331 0 
L 3500 0 
L 1259 2247 
L 1259 0 
L 628 0 
L 628 4666 
z
" transform="scale(0.015625)"/>
      </defs>
      <use xlink:href="#DejaVuSans-54"/>
      <use xlink:href="#DejaVuSans-65" transform="translate(44.083984 0)"/>
      <use xlink:href="#DejaVuSans-6d" transform="translate(105.607422 0)"/>
      <use xlink:href="#DejaVuSans-70" transform="translate(203.019531 0)"/>
      <use xlink:href="#DejaVuSans-65" transform="translate(266.496094 0)"/>
      <use xlink:href="#DejaVuSans-72" transform="translate(328.019531 0)"/>
      <use xlink:href="#DejaVuSans-61" transform="translate(369.132812 0)"/>
      <use xlink:href="#DejaVuSans-74" transform="translate(430.412109 0)"/>
      <use xlink:href="#DejaVuSans-75" transform="translate(469.621094 0)"/>
      <use xlink:href="#DejaVuSans-72" transform="translate(533 0)"/>
      <use xlink:href="#DejaVuSans-65" transform="translate(571.863281 0)"/>
      <use xlink:href="#DejaVuSans-20" transform="translate(633.386719 0)"/>
      <use xlink:href="#DejaVuSans-2f" transform="translate(665.173828 0)"/>
      <use xlink:href="#DejaVuSans-20" transform="translate(698.865234 0)"/>
      <use xlink:href="#DejaVuSans-4b" transform="translate(730.652344 0)"/>
     </g>
    </g>
   </g>
   <g id="line2d_12">
    <path d="M 59.375252 79.082376 
L 61.182005 51.596643 
L 62.085381 40.211679 
L 62.988758 31.475689 
L 63.892135 25.984016 
L 64.795511 24.110909 
L 65.698888 25.984016 
L 66.602265 31.475689 
L 67.505641 40.211679 
L 68.409018 51.596643 
L 70.215771 79.082376 
L 72.022524 106.56811 
L 72.925901 117.953073 
L 73.829278 126.689063 
L 74.732654 132.180736 
L 75.636031 134.053843 
L 76.539407 132.180736 
L 77.442784 126.689063 
L 78.346161 117.953073 
L 79.249537 106.56811 
L 81.056291 79.082376 
L 82.863044 51.596643 
L 83.76642 40.211679 
L 84.669797 31.475689 
L 85.573174 25.984016 
L 86.47655 24.110909 
L 87.379927 25.984016 
L 88.283304 31.475689 
L 89.18668 40.211679 
L 90.090057 51.596643 
L 91.89681 79.082376 
L 93.703563 106.56811 
L 94.60694 117.953073 
L 95.510317 126.689063 
L 96.413693 132.180736 
L 97.31707 134.053843 
L 98.220446 132.180736 
L 99.123823 126.689063 
L 100.0272 117.953073 
L 100.930576 106.56811 
L 102.73733 79.082376 
L 104.544083 51.596643 
L 105.447459 40.211679 
L 106.350836 31.475689 
L 107.254213 25.984016 
L 108.157589 24.110909 
L 109.060966 25.984016 
L 109.964343 31.475689 
L 110.867719 40.211679 
L 111.771096 51.596643 
L 113.577849 79.082376 
L 115.384602 106.56811 
L 116.287979 117.953073 
L 117.191356 126.689063 
L 118.094732 132.180736 
L 118.998109 134.053843 
L 119.901485 132.180736 
L 120.804862 126.689063 
L 121.708239 117.953073 
L 122.611615 106.56811 
L 124.418369 79.082376 
L 126.225122 51.596643 
L 127.128498 40.211679 
L 128.031875 31.475689 
L 128.935252 25.984016 
L 129.838628 24.110909 
L 130.742005 25.984016 
L 131.645382 31.475689 
L 132.548758 40.211679 
L 133.452135 51.596643 
L 135.258888 79.082376 
L 137.065641 106.56811 
L 137.969018 117.953073 
L 138.872395 126.689063 
L 139.775771 132.180736 
L 140.679148 134.053843 
L 141.582524 132.180736 
L 142.485901 126.689063 
L 143.389278 117.953073 
L 144.292654 106.56811 
L 146.099408 79.082376 
L 147.906161 51.596643 
L 148.809537 40.211679 
L 149.712914 31.475689 
L 150.616291 25.984016 
L 151.519667 24.110909 
L 152.423044 25.984016 
L 153.326421 31.475689 
L 154.229797 40.211679 
L 155.133174 51.596643 
L 156.939927 79.082376 
L 158.74668 106.56811 
L 159.650057 117.953073 
L 160.553434 126.689063 
L 161.45681 132.180736 
L 162.360187 134.053843 
L 163.263563 132.180736 
L 164.16694 126.689063 
L 165.070317 117.953073 
L 165.973693 106.56811 
L 167.780447 79.082376 
L 169.5872 51.596643 
L 170.490576 40.211679 
L 171.393953 31.475689 
L 172.29733 25.984016 
L 173.200706 24.110909 
L 174.104083 25.984016 
L 175.00746 31.475689 
L 175.910836 40.211679 
L 176.814213 51.596643 
L 178.620966 79.082376 
L 180.427719 106.56811 
L 181.331096 117.953073 
L 182.234473 126.689063 
L 183.137849 132.180736 
L 184.041226 134.053843 
L 184.944602 132.180736 
L 185.847979 126.689063 
L 186.751356 117.953073 
L 187.654732 106.56811 
L 189.461486 79.082376 
L 191.268239 51.596643 
L 192.171615 40.211679 
L 193.074992 31.475689 
L 193.978369 25.984016 
L 194.881745 24.110909 
L 195.785122 25.984016 
L 196.688499 31.475689 
L 197.591875 40.211679 
L 198.495252 51.596643 
L 200.302005 79.082376 
L 202.108758 106.56811 
L 203.012135 117.953073 
L 203.915512 126.689063 
L 204.818888 132.180736 
L 205.722265 134.053843 
L 206.625641 132.180736 
L 207.529018 126.689063 
L 208.432395 117.953073 
L 209.335771 106.56811 
L 211.142525 79.082376 
L 212.949278 51.596643 
L 213.852654 40.211679 
L 214.756031 31.475689 
L 215.659408 25.984016 
L 216.562784 24.110909 
L 217.466161 25.984016 
L 218.369538 31.475689 
L 219.272914 40.211679 
L 220.176291 51.596643 
L 221.983044 79.082376 
L 223.789797 106.56811 
L 224.693174 117.953073 
L 225.596551 126.689063 
L 226.499927 132.180736 
L 227.403304 134.053843 
L 228.30668 132.180736 
L 229.210057 126.689063 
L 230.113434 117.953073 
L 231.01681 106.56811 
L 232.823564 79.082376 
L 234.630317 51.596643 
L 235.533693 40.211679 
L 236.43707 31.475689 
L 237.340447 25.984016 
L 238.243823 24.110909 
L 239.1472 25.984016 
L 240.050577 31.475689 
L 240.953953 40.211679 
L 241.85733 51.596643 
L 243.664083 79.082376 
L 245.470836 106.56811 
L 246.374213 117.953073 
L 247.27759 126.689063 
L 248.180966 132.180736 
L 249.084343 134.053843 
L 249.987719 132.180736 
L 250.891096 126.689063 
L 251.794473 117.953073 
L 252.697849 106.56811 
L 254.504603 79.082376 
L 256.311356 51.596643 
L 257.214732 40.211679 
L 258.118109 31.475689 
L 259.021486 25.984016 
L 259.924862 24.110909 
L 260.828239 25.984016 
L 261.731616 31.475689 
L 262.634992 40.211679 
L 263.538369 51.596643 
L 265.345122 79.082376 
L 267.151875 106.56811 
L 268.055252 117.953073 
L 268.958629 126.689063 
L 269.862005 132.180736 
L 270.765382 134.053843 
L 271.668758 132.180736 
L 272.572135 126.689063 
L 273.475512 117.953073 
L 274.378888 106.56811 
L 276.185641 79.082376 
L 277.992395 51.596643 
L 278.895771 40.211679 
L 279.799148 31.475689 
L 280.702525 25.984016 
L 281.605901 24.110909 
L 282.509278 25.984016 
L 283.412654 31.475689 
L 284.316031 40.211679 
L 285.219408 51.596643 
L 287.026161 79.082376 
L 288.832914 106.56811 
L 289.736291 117.953073 
L 290.639667 126.689063 
L 291.543044 132.180736 
L 292.446421 134.053843 
L 293.349797 132.180736 
L 294.253174 126.689063 
L 295.156551 117.953073 
L 296.059927 106.56811 
L 297.86668 79.082376 
L 299.673434 51.596643 
L 300.57681 40.211679 
L 301.480187 31.475689 
L 302.383564 25.984016 
L 303.28694 24.110909 
L 304.190317 25.984016 
L 305.093693 31.475689 
L 305.99707 40.211679 
L 306.900447 51.596643 
L 308.7072 79.082376 
L 310.513953 106.56811 
L 311.41733 117.953073 
L 312.320706 126.689063 
L 313.224083 132.180736 
L 314.12746 134.053843 
L 315.030836 132.180736 
L 315.934213 126.689063 
L 316.83759 117.953073 
L 317.740966 106.56811 
L 319.547719 79.082376 
L 321.354473 51.596643 
L 322.257849 40.211679 
L 323.161226 31.475689 
L 324.064603 25.984016 
L 324.967979 24.110909 
L 325.871356 25.984016 
L 326.774732 31.475689 
L 327.678109 40.211679 
L 328.581486 51.596643 
L 330.388239 79.082376 
L 332.194992 106.56811 
L 333.098369 117.953073 
L 334.001745 126.689063 
L 334.905122 132.180736 
L 335.808499 134.053843 
L 336.711875 132.180736 
L 337.615252 126.689063 
L 338.518629 117.953073 
L 339.422005 106.56811 
L 341.228758 79.082376 
L 343.035512 51.596643 
L 343.938888 40.211679 
L 344.842265 31.475689 
L 345.745642 25.984016 
L 346.649018 24.110909 
L 347.552395 25.984016 
L 348.455771 31.475689 
L 349.359148 40.211679 
L 350.262525 51.596643 
L 352.069278 79.082376 
L 353.876031 106.56811 
L 354.779408 117.953073 
L 355.682784 126.689063 
L 356.586161 132.180736 
L 357.489538 134.053843 
L 358.392914 132.180736 
L 359.296291 126.689063 
L 360.199668 117.953073 
L 361.103044 106.56811 
L 362.909797 79.082376 
L 364.716551 51.596643 
L 365.619927 40.211679 
L 366.523304 31.475689 
L 367.426681 25.984016 
L 368.330057 24.110909 
L 369.233434 25.984016 
L 370.13681 31.475689 
L 371.040187 40.211679 
L 371.943564 51.596643 
L 373.750317 79.082376 
L 375.55707 106.56811 
L 376.460447 117.953073 
L 377.363823 126.689063 
L 378.2672 132.180736 
L 379.170577 134.053843 
L 380.073953 132.180736 
L 380.97733 126.689063 
L 381.880707 117.953073 
L 382.784083 106.56811 
L 384.590836 79.082376 
L 386.39759 51.596643 
L 387.300966 40.211679 
L 388.204343 31.475689 
L 389.10772 25.984016 
L 390.011096 24.110909 
L 390.914473 25.984016 
L 391.817849 31.475689 
L 392.721226 40.211679 
L 393.624603 51.596643 
L 395.431356 79.082376 
L 397.238109 106.56811 
L 398.141486 117.953073 
L 399.044862 126.689063 
L 399.948239 132.180736 
L 400.851616 134.053843 
L 401.754992 132.180736 
L 402.658369 126.689063 
L 403.561746 117.953073 
L 404.465122 106.56811 
L 406.271875 79.082376 
L 408.078629 51.596643 
L 408.982005 40.211679 
L 409.885382 31.475689 
L 410.788759 25.984016 
L 411.692135 24.110909 
L 412.595512 25.984016 
L 413.498888 31.475689 
L 414.402265 40.211679 
L 415.305642 51.596643 
L 417.112395 79.082376 
L 418.919148 106.56811 
L 419.822525 117.953073 
L 420.725901 126.689063 
L 421.629278 132.180736 
L 422.532655 134.053843 
L 423.436031 132.180736 
L 424.339408 126.689063 
L 425.242785 117.953073 
L 426.146161 106.56811 
L 427.952914 79.082376 
L 429.759668 51.596643 
L 430.663044 40.211679 
L 431.566421 31.475689 
L 432.469798 25.984016 
L 433.373174 24.110909 
L 434.276551 25.984016 
L 435.179927 31.475689 
L 436.083304 40.211679 
L 436.986681 51.596643 
L 438.793434 79.082376 
L 440.600187 106.56811 
L 441.503564 117.953073 
L 442.40694 126.689063 
L 443.310317 132.180736 
L 444.213694 134.053843 
L 445.11707 132.180736 
L 446.020447 126.689063 
L 446.923824 117.953073 
L 447.8272 106.56811 
L 449.633953 79.082376 
L 451.440707 51.596643 
L 452.344083 40.211679 
L 453.24746 31.475689 
L 454.150837 25.984016 
L 455.054213 24.110909 
L 455.95759 25.984016 
L 456.860966 31.475689 
L 457.764343 40.211679 
L 458.66772 51.596643 
L 460.474473 79.082376 
L 462.281226 106.56811 
L 463.184603 117.953073 
L 464.087979 126.689063 
L 464.991356 132.180736 
L 465.894733 134.053843 
L 466.798109 132.180736 
L 467.701486 126.689063 
L 468.604863 117.953073 
L 469.508239 106.56811 
L 471.314992 79.082376 
L 473.121746 51.596643 
L 474.025122 40.211679 
L 474.928499 31.475689 
L 475.831876 25.984016 
L 476.735252 24.110909 
L 477.638629 25.984016 
L 478.542005 31.475689 
L 479.445382 40.211679 
L 480.348759 51.596643 
L 482.155512 79.082376 
L 483.962265 106.56811 
L 484.865642 117.953073 
L 485.769018 126.689063 
L 486.672395 132.180736 
L 487.575772 134.053843 
L 488.479148 132.180736 
L 489.382525 126.689063 
L 490.285901 117.953073 
L 491.189278 106.56811 
L 492.996031 79.082376 
L 494.802785 51.596643 
L 495.706161 40.211679 
L 496.609538 31.475689 
L 497.512914 25.984016 
L 498.416291 24.110909 
L 499.319668 25.984016 
L 500.223044 31.475689 
L 501.126421 40.211679 
L 502.029798 51.596643 
L 503.836551 79.082376 
L 505.643304 106.56811 
L 506.546681 117.953073 
L 507.450057 126.689063 
L 508.353434 132.180736 
L 509.256811 134.053843 
L 510.160187 132.180736 
L 511.063564 126.689063 
L 511.96694 117.953073 
L 512.870317 106.56811 
L 514.67707 79.082376 
L 514.67707 79.082376 
" clip-path="url(#p965d9fa706)" style="fill: none; stroke: #000004; stroke-width: 1.5; stroke-linecap: square"/>
   </g>
   <g id="line2d_13">
    <path d="M 59.375252 81.043758 
L 60.278628 114.334479 
L 61.182005 127.359052 
L 62.085381 136.41102 
L 62.988758 143.425379 
L 64.795511 154.346377 
L 68.409018 173.732981 
L 70.215771 184.8079 
L 73.829278 208.152449 
L 74.732654 213.27579 
L 75.636031 217.739473 
L 76.539407 221.382249 
L 77.442784 224.079516 
L 78.346161 225.750648 
L 79.249537 226.395647 
L 80.152914 226.04383 
L 81.056291 224.805139 
L 81.959667 222.818837 
L 83.76642 217.431633 
L 85.573174 211.707271 
L 86.47655 209.310515 
L 87.379927 207.485462 
L 88.283304 206.386033 
L 89.18668 206.11484 
L 90.090057 206.715862 
L 90.993433 208.152449 
L 91.89681 210.358638 
L 92.800187 213.187836 
L 94.60694 219.97498 
L 96.413693 226.776782 
L 97.31707 229.627969 
L 98.220446 231.841487 
L 99.123823 233.285404 
L 100.0272 233.857107 
L 100.930576 233.527279 
L 101.833953 232.325236 
L 102.73733 230.331604 
L 103.640706 227.678314 
L 105.447459 221.199011 
L 107.254213 214.624423 
L 108.157589 211.87585 
L 109.060966 209.742957 
L 109.964343 208.379665 
L 110.867719 207.866598 
L 111.771096 208.255063 
L 112.674472 209.508412 
L 113.577849 211.553351 
L 114.481226 214.235958 
L 116.287979 220.788557 
L 118.094732 227.407122 
L 118.998109 230.177684 
L 119.901485 232.332565 
L 120.804862 233.717846 
L 121.708239 234.238243 
L 122.611615 233.864437 
L 123.514992 232.618417 
L 124.418369 230.588137 
L 125.321745 227.912859 
L 127.128498 221.37492 
L 128.935252 214.763684 
L 129.838628 212.000452 
L 130.742005 209.8529 
L 131.645382 208.467619 
L 132.548758 207.954552 
L 133.452135 208.328358 
L 134.355511 209.574378 
L 135.258888 211.604657 
L 136.162265 214.287265 
L 137.969018 220.825205 
L 139.775771 227.43644 
L 140.679148 230.207002 
L 141.582524 232.354554 
L 142.485901 233.732505 
L 143.389278 234.252902 
L 144.292654 233.879096 
L 145.196031 232.633076 
L 146.099408 230.602797 
L 147.002784 227.920189 
L 148.809537 221.382249 
L 150.616291 214.771014 
L 151.519667 212.000452 
L 152.423044 209.8529 
L 153.326421 208.474949 
L 154.229797 207.954552 
L 155.133174 208.328358 
L 156.03655 209.581707 
L 156.939927 211.611987 
L 157.843304 214.287265 
L 159.650057 220.825205 
L 161.45681 227.43644 
L 162.360187 230.207002 
L 163.263563 232.354554 
L 164.16694 233.739835 
L 165.070317 234.252902 
L 165.973693 233.879096 
L 166.87707 232.633076 
L 167.780447 230.602797 
L 168.683823 227.920189 
L 170.490576 221.382249 
L 172.29733 214.771014 
L 173.200706 212.000452 
L 174.104083 209.8529 
L 175.00746 208.474949 
L 175.910836 207.954552 
L 176.814213 208.328358 
L 177.717589 209.581707 
L 178.620966 211.611987 
L 179.524343 214.287265 
L 181.331096 220.825205 
L 183.137849 227.44377 
L 184.041226 230.207002 
L 184.944602 232.354554 
L 185.847979 233.732505 
L 186.751356 234.252902 
L 187.654732 233.879096 
L 188.558109 232.633076 
L 189.461486 230.602797 
L 190.364862 227.920189 
L 192.171615 221.382249 
L 193.978369 214.771014 
L 194.881745 212.000452 
L 195.785122 209.8529 
L 196.688499 208.474949 
L 197.591875 207.954552 
L 198.495252 208.335688 
L 199.398628 209.574378 
L 200.302005 211.611987 
L 201.205382 214.287265 
L 203.012135 220.825205 
L 204.818888 227.44377 
L 205.722265 230.207002 
L 206.625641 232.354554 
L 207.529018 233.739835 
L 208.432395 234.252902 
L 209.335771 233.879096 
L 210.239148 232.633076 
L 211.142525 230.602797 
L 212.045901 227.920189 
L 213.852654 221.382249 
L 215.659408 214.771014 
L 216.562784 212.000452 
L 217.466161 209.8529 
L 218.369538 208.474949 
L 219.272914 207.954552 
L 220.176291 208.328358 
L 221.079667 209.581707 
L 221.983044 211.611987 
L 222.886421 214.287265 
L 224.693174 220.825205 
L 226.499927 227.44377 
L 227.403304 230.207002 
L 228.30668 232.354554 
L 229.210057 233.739835 
L 230.113434 234.252902 
L 231.01681 233.879096 
L 231.920187 232.633076 
L 232.823564 230.602797 
L 233.72694 227.920189 
L 235.533693 221.382249 
L 237.340447 214.771014 
L 238.243823 212.000452 
L 239.1472 209.8529 
L 240.050577 208.474949 
L 240.953953 207.954552 
L 241.85733 208.328358 
L 242.760706 209.581707 
L 243.664083 211.611987 
L 244.56746 214.287265 
L 246.374213 220.825205 
L 248.180966 227.44377 
L 249.084343 230.207002 
L 249.987719 232.354554 
L 250.891096 233.732505 
L 251.794473 234.252902 
L 252.697849 233.879096 
L 253.601226 232.633076 
L 254.504603 230.602797 
L 255.407979 227.920189 
L 257.214732 221.382249 
L 259.021486 214.771014 
L 259.924862 212.000452 
L 260.828239 209.8529 
L 261.731616 208.474949 
L 262.634992 207.954552 
L 263.538369 208.335688 
L 264.441745 209.581707 
L 265.345122 211.611987 
L 266.248499 214.287265 
L 268.055252 220.825205 
L 269.862005 227.44377 
L 270.765382 230.207002 
L 271.668758 232.354554 
L 272.572135 233.732505 
L 273.475512 234.252902 
L 274.378888 233.879096 
L 275.282265 232.633076 
L 276.185641 230.602797 
L 277.089018 227.920189 
L 278.895771 221.382249 
L 280.702525 214.771014 
L 281.605901 212.000452 
L 282.509278 209.8529 
L 283.412654 208.474949 
L 284.316031 207.954552 
L 285.219408 208.328358 
L 286.122784 209.581707 
L 287.026161 211.611987 
L 287.929538 214.287265 
L 289.736291 220.825205 
L 291.543044 227.44377 
L 292.446421 230.207002 
L 293.349797 232.354554 
L 294.253174 233.739835 
L 295.156551 234.252902 
L 296.059927 233.879096 
L 296.963304 232.633076 
L 297.86668 230.602797 
L 298.770057 227.920189 
L 300.57681 221.382249 
L 302.383564 214.771014 
L 303.28694 212.000452 
L 304.190317 209.8529 
L 305.093693 208.474949 
L 305.99707 207.954552 
L 306.900447 208.328358 
L 307.803823 209.581707 
L 308.7072 211.611987 
L 309.610577 214.287265 
L 311.41733 220.825205 
L 313.224083 227.44377 
L 314.12746 230.207002 
L 315.030836 232.354554 
L 315.934213 233.739835 
L 316.83759 234.252902 
L 317.740966 233.879096 
L 318.644343 232.633076 
L 319.547719 230.602797 
L 320.451096 227.920189 
L 322.257849 221.382249 
L 324.064603 214.771014 
L 324.967979 212.000452 
L 325.871356 209.8529 
L 326.774732 208.474949 
L 327.678109 207.954552 
L 328.581486 208.328358 
L 329.484862 209.581707 
L 330.388239 211.611987 
L 331.291616 214.287265 
L 333.098369 220.825205 
L 334.905122 227.44377 
L 335.808499 230.207002 
L 336.711875 232.354554 
L 337.615252 233.732505 
L 338.518629 234.252902 
L 339.422005 233.879096 
L 340.325382 232.633076 
L 341.228758 230.602797 
L 342.132135 227.920189 
L 343.938888 221.382249 
L 345.745642 214.771014 
L 346.649018 212.000452 
L 347.552395 209.8529 
L 348.455771 208.474949 
L 349.359148 207.954552 
L 350.262525 208.335688 
L 351.165901 209.574378 
L 352.069278 211.611987 
L 352.972655 214.287265 
L 354.779408 220.825205 
L 356.586161 227.44377 
L 357.489538 230.207002 
L 358.392914 232.354554 
L 359.296291 233.732505 
L 360.199668 234.252902 
L 361.103044 233.879096 
L 362.006421 232.633076 
L 362.909797 230.602797 
L 363.813174 227.920189 
L 365.619927 221.382249 
L 367.426681 214.771014 
L 368.330057 212.000452 
L 369.233434 209.86023 
L 370.13681 208.474949 
L 371.040187 207.954552 
L 371.943564 208.328358 
L 372.84694 209.581707 
L 373.750317 211.611987 
L 374.653694 214.287265 
L 376.460447 220.825205 
L 378.2672 227.43644 
L 379.170577 230.207002 
L 380.073953 232.354554 
L 380.97733 233.739835 
L 381.880707 234.252902 
L 382.784083 233.879096 
L 383.68746 232.633076 
L 384.590836 230.602797 
L 385.494213 227.920189 
L 387.300966 221.382249 
L 389.10772 214.771014 
L 390.011096 212.000452 
L 390.914473 209.8529 
L 391.817849 208.474949 
L 392.721226 207.954552 
L 393.624603 208.328358 
L 394.527979 209.581707 
L 395.431356 211.611987 
L 396.334733 214.287265 
L 398.141486 220.825205 
L 399.948239 227.44377 
L 400.851616 230.207002 
L 401.754992 232.354554 
L 402.658369 233.732505 
L 403.561746 234.252902 
L 404.465122 233.879096 
L 405.368499 232.633076 
L 406.271875 230.602797 
L 407.175252 227.920189 
L 408.982005 221.382249 
L 410.788759 214.771014 
L 411.692135 212.000452 
L 412.595512 209.8529 
L 413.498888 208.474949 
L 414.402265 207.954552 
L 415.305642 208.328358 
L 416.209018 209.574378 
L 417.112395 211.611987 
L 418.015772 214.287265 
L 419.822525 220.825205 
L 421.629278 227.44377 
L 422.532655 230.207002 
L 423.436031 232.354554 
L 424.339408 233.732505 
L 425.242785 234.252902 
L 426.146161 233.879096 
L 427.049538 232.633076 
L 427.952914 230.602797 
L 428.856291 227.920189 
L 430.663044 221.382249 
L 432.469798 214.771014 
L 433.373174 212.000452 
L 434.276551 209.8529 
L 435.179927 208.474949 
L 436.083304 207.954552 
L 436.986681 208.328358 
L 437.890057 209.574378 
L 438.793434 211.611987 
L 439.696811 214.287265 
L 441.503564 220.825205 
L 443.310317 227.44377 
L 444.213694 230.207002 
L 445.11707 232.354554 
L 446.020447 233.739835 
L 446.923824 234.252902 
L 447.8272 233.879096 
L 448.730577 232.633076 
L 449.633953 230.602797 
L 450.53733 227.920189 
L 452.344083 221.382249 
L 454.150837 214.771014 
L 455.054213 212.000452 
L 455.95759 209.8529 
L 456.860966 208.474949 
L 457.764343 207.954552 
L 458.66772 208.328358 
L 459.571096 209.581707 
L 460.474473 211.611987 
L 461.37785 214.287265 
L 463.184603 220.825205 
L 464.991356 227.44377 
L 465.894733 230.207002 
L 466.798109 232.354554 
L 467.701486 233.732505 
L 468.604863 234.252902 
L 469.508239 233.879096 
L 470.411616 232.633076 
L 471.314992 230.602797 
L 472.218369 227.920189 
L 474.025122 221.382249 
L 475.831876 214.771014 
L 476.735252 212.000452 
L 477.638629 209.8529 
L 478.542005 208.474949 
L 479.445382 207.954552 
L 480.348759 208.328358 
L 481.252135 209.581707 
L 482.155512 211.611987 
L 483.058889 214.287265 
L 484.865642 220.825205 
L 486.672395 227.44377 
L 487.575772 230.207002 
L 488.479148 232.354554 
L 489.382525 233.732505 
L 490.285901 234.260231 
L 491.189278 233.879096 
L 492.092655 232.633076 
L 492.996031 230.602797 
L 493.899408 227.920189 
L 495.706161 221.382249 
L 497.512914 214.771014 
L 498.416291 212.000452 
L 499.319668 209.8529 
L 500.223044 208.474949 
L 501.126421 207.954552 
L 502.029798 208.328358 
L 502.933174 209.574378 
L 503.836551 211.611987 
L 504.739927 214.287265 
L 506.546681 220.825205 
L 508.353434 227.44377 
L 509.256811 230.207002 
L 510.160187 232.354554 
L 511.063564 233.739835 
L 511.96694 234.252902 
L 512.870317 233.879096 
L 513.773694 232.633076 
L 514.67707 230.602797 
L 514.67707 230.602797 
" clip-path="url(#p965d9fa706)" style="fill: none; stroke: #781c6d; stroke-width: 1.5; stroke-linecap: square"/>
   </g>
   <g id="line2d_14">
    <path d="M 59.375252 362.329091 
L 62.085381 359.485234 
L 65.698888 355.666549 
L 67.505641 354.061382 
L 69.312394 352.771385 
L 71.119148 351.811217 
L 72.925901 351.151559 
L 75.636031 350.550538 
L 79.249537 349.876221 
L 81.959667 349.084632 
L 84.669797 347.999862 
L 88.283304 346.526626 
L 90.090057 345.984241 
L 91.89681 345.669072 
L 93.703563 345.588447 
L 96.413693 345.793674 
L 100.0272 346.16015 
L 101.833953 346.16748 
L 103.640706 345.991571 
L 106.350836 345.427197 
L 109.964343 344.511006 
L 111.771096 344.210495 
L 113.577849 344.107882 
L 115.384602 344.210495 
L 118.094732 344.657597 
L 121.708239 345.280607 
L 123.514992 345.390549 
L 125.321745 345.309925 
L 128.031875 344.855494 
L 132.548758 343.931973 
L 134.355511 343.770724 
L 136.162265 343.82203 
L 138.872395 344.217825 
L 143.389278 345.082709 
L 145.196031 345.22197 
L 147.002784 345.156005 
L 148.809537 344.906801 
L 155.133174 343.734076 
L 156.939927 343.690099 
L 158.74668 343.844019 
L 161.45681 344.342427 
L 165.070317 345.031403 
L 166.87707 345.170664 
L 168.683823 345.112027 
L 171.393953 344.694244 
L 175.910836 343.800042 
L 177.717589 343.653451 
L 179.524343 343.712087 
L 182.234473 344.122541 
L 186.751356 345.009414 
L 188.558109 345.148675 
L 190.364862 345.090039 
L 193.074992 344.672256 
L 197.591875 343.778053 
L 199.398628 343.631463 
L 201.205382 343.690099 
L 203.915512 344.107882 
L 208.432395 344.987425 
L 210.239148 345.126686 
L 212.045901 345.06805 
L 214.756031 344.650267 
L 219.272914 343.763394 
L 221.079667 343.616803 
L 222.886421 343.67544 
L 224.693174 343.917314 
L 231.01681 345.060721 
L 232.823564 345.104698 
L 234.630317 344.950778 
L 237.340447 344.437711 
L 240.953953 343.741405 
L 242.760706 343.594815 
L 244.56746 343.653451 
L 247.27759 344.071234 
L 251.794473 344.950778 
L 253.601226 345.090039 
L 255.407979 345.031403 
L 258.118109 344.613619 
L 262.634992 343.726746 
L 264.441745 343.580156 
L 266.248499 343.638792 
L 268.055252 343.880667 
L 274.378888 345.024073 
L 276.185641 345.06805 
L 277.992395 344.91413 
L 280.702525 344.401063 
L 284.316031 343.704758 
L 286.122784 343.558167 
L 287.929538 343.616803 
L 290.639667 344.034587 
L 295.156551 344.91413 
L 296.963304 345.053391 
L 298.770057 344.994755 
L 301.480187 344.576972 
L 305.99707 343.690099 
L 307.803823 343.543508 
L 309.610577 343.602144 
L 312.320706 344.012598 
L 316.83759 344.892142 
L 318.644343 345.038732 
L 320.451096 344.980096 
L 323.161226 344.562313 
L 327.678109 343.66811 
L 329.484862 343.528849 
L 331.291616 343.580156 
L 334.001745 343.997939 
L 338.518629 344.877482 
L 340.325382 345.016744 
L 342.132135 344.958107 
L 343.938888 344.716233 
L 350.262525 343.558167 
L 352.069278 343.506861 
L 353.876031 343.66811 
L 356.586161 344.166518 
L 360.199668 344.855494 
L 362.006421 345.002084 
L 363.813174 344.943448 
L 366.523304 344.525665 
L 371.040187 343.638792 
L 372.84694 343.492201 
L 374.653694 343.543508 
L 377.363823 343.961291 
L 381.880707 344.840835 
L 383.68746 344.980096 
L 385.494213 344.928789 
L 388.204343 344.511006 
L 392.721226 343.616803 
L 394.527979 343.470213 
L 396.334733 343.528849 
L 399.044862 343.939303 
L 403.561746 344.818846 
L 405.368499 344.965437 
L 407.175252 344.906801 
L 409.885382 344.489017 
L 414.402265 343.602144 
L 416.209018 343.455554 
L 418.015772 343.506861 
L 420.725901 343.924644 
L 425.242785 344.804187 
L 427.049538 344.950778 
L 428.856291 344.892142 
L 431.566421 344.474358 
L 436.083304 343.580156 
L 437.890057 343.433565 
L 439.696811 343.492201 
L 442.40694 343.902655 
L 446.923824 344.789528 
L 448.730577 344.928789 
L 450.53733 344.870153 
L 453.24746 344.45237 
L 457.764343 343.565497 
L 459.571096 343.418906 
L 461.37785 343.477542 
L 463.184603 343.712087 
L 469.508239 344.862823 
L 471.314992 344.906801 
L 473.121746 344.75288 
L 475.831876 344.247143 
L 479.445382 343.543508 
L 481.252135 343.396918 
L 483.058889 343.455554 
L 485.769018 343.866007 
L 490.285901 344.75288 
L 492.092655 344.892142 
L 493.899408 344.833505 
L 496.609538 344.415722 
L 501.126421 343.528849 
L 502.933174 343.382259 
L 504.739927 343.440895 
L 506.546681 343.682769 
L 512.870317 344.826176 
L 514.67707 344.870153 
L 514.67707 344.870153 
" clip-path="url(#p965d9fa706)" style="fill: none; stroke: #bc3754; stroke-width: 1.5; stroke-linecap: square"/>
   </g>
   <g id="line2d_15">
    <path d="M 59.375252 362.329091 
L 62.085381 360.078926 
L 64.795511 358.158589 
L 66.602265 357.088478 
L 68.409018 356.223593 
L 70.215771 355.593254 
L 72.022524 355.168141 
L 74.732654 354.801665 
L 79.249537 354.281268 
L 81.959667 353.716894 
L 89.18668 351.855194 
L 90.993433 351.635308 
L 93.703563 351.60599 
L 101.833953 352.016444 
L 104.544083 351.730592 
L 111.771096 350.66781 
L 114.481226 350.711788 
L 117.191356 351.004969 
L 121.708239 351.525365 
L 124.418369 351.518036 
L 127.128498 351.224855 
L 132.548758 350.491902 
L 135.258888 350.462584 
L 137.969018 350.726447 
L 143.389278 351.408093 
L 145.196031 351.45207 
L 147.906161 351.261502 
L 155.133174 350.389288 
L 157.843304 350.477243 
L 160.553434 350.814401 
L 165.070317 351.378775 
L 166.87707 351.422752 
L 169.5872 351.239514 
L 176.814213 350.3673 
L 179.524343 350.455254 
L 183.137849 350.931673 
L 186.751356 351.364116 
L 188.558109 351.408093 
L 191.268239 351.224855 
L 198.495252 350.35997 
L 201.205382 350.440595 
L 204.818888 350.917014 
L 207.529018 351.276161 
L 210.239148 351.400763 
L 212.949278 351.210195 
L 220.176291 350.345311 
L 222.886421 350.433265 
L 226.499927 350.909685 
L 230.113434 351.342127 
L 232.823564 351.356786 
L 235.533693 351.085593 
L 240.953953 350.374629 
L 243.664083 350.35997 
L 246.374213 350.631163 
L 251.794473 351.327468 
L 254.504603 351.349457 
L 257.214732 351.070934 
L 262.634992 350.3673 
L 265.345122 350.345311 
L 268.055252 350.616504 
L 273.475512 351.320138 
L 276.185641 351.334797 
L 278.895771 351.063605 
L 284.316031 350.352641 
L 286.122784 350.308663 
L 288.832914 350.491902 
L 296.059927 351.349457 
L 298.770057 351.261502 
L 302.383564 350.777753 
L 305.99707 350.345311 
L 308.7072 350.323322 
L 311.41733 350.594515 
L 316.83759 351.29815 
L 319.547719 351.312809 
L 322.257849 351.041616 
L 327.678109 350.330652 
L 329.484862 350.286675 
L 332.194992 350.469913 
L 339.422005 351.327468 
L 342.132135 351.239514 
L 345.745642 350.755765 
L 349.359148 350.323322 
L 352.069278 350.301334 
L 354.779408 350.572526 
L 360.199668 351.276161 
L 362.909797 351.29082 
L 365.619927 351.019628 
L 371.040187 350.308663 
L 373.750317 350.286675 
L 376.460447 350.557867 
L 381.880707 351.261502 
L 383.68746 351.312809 
L 386.39759 351.122241 
L 393.624603 350.257357 
L 396.334733 350.345311 
L 399.044862 350.682469 
L 402.658369 351.173548 
L 405.368499 351.29815 
L 408.078629 351.114912 
L 415.305642 350.242698 
L 418.015772 350.330652 
L 421.629278 350.807071 
L 425.242785 351.239514 
L 427.049538 351.29082 
L 429.759668 351.100253 
L 436.986681 350.235368 
L 439.696811 350.315993 
L 443.310317 350.792412 
L 446.020447 351.151559 
L 448.730577 351.276161 
L 451.440707 351.085593 
L 458.66772 350.220709 
L 461.37785 350.308663 
L 464.087979 350.645822 
L 467.701486 351.14423 
L 470.411616 351.261502 
L 473.121746 351.078264 
L 480.348759 350.21338 
L 483.058889 350.294004 
L 486.672395 350.770424 
L 489.382525 351.129571 
L 492.092655 351.254173 
L 494.802785 351.063605 
L 502.029798 350.19872 
L 504.739927 350.286675 
L 507.450057 350.623833 
L 511.063564 351.122241 
L 513.773694 351.239514 
L 514.67707 351.210195 
L 514.67707 351.210195 
" clip-path="url(#p965d9fa706)" style="fill: none; stroke: #ed6925; stroke-width: 1.5; stroke-linecap: square"/>
   </g>
   <g id="line2d_16">
    <path d="M 61.182005 361.669433 
L 63.892135 361.911308 
L 71.119148 362.050569 
L 93.703563 362.123864 
L 514.67707 362.145853 
L 514.67707 362.145853 
" clip-path="url(#p965d9fa706)" style="fill: none; stroke: #fbb61a; stroke-width: 1.5; stroke-linecap: square"/>
   </g>
   <g id="patch_3">
    <path d="M 58.471875 379.24 
L 58.471875 7.2 
" style="fill: none; stroke: #000000; stroke-width: 0.8; stroke-linejoin: miter; stroke-linecap: square"/>
   </g>
   <g id="patch_4">
    <path d="M 511.063564 379.24 
L 511.063564 7.2 
" style="fill: none; stroke: #000000; stroke-width: 0.8; stroke-linejoin: miter; stroke-linecap: square"/>
   </g>
   <g id="patch_5">
    <path d="M 58.471875 379.24 
L 511.063564 379.24 
" style="fill: none; stroke: #000000; stroke-width: 0.8; stroke-linejoin: miter; stroke-linecap: square"/>
   </g>
   <g id="patch_6">
    <path d="M 58.471875 7.2 
L 511.063564 7.2 
" style="fill: none; stroke: #000000; stroke-width: 0.8; stroke-linejoin: miter; stroke-linecap: square"/>
   </g>
   <g id="legend_1">
    <g id="patch_7">
     <path d="M 296.619553 330.8748 
L 494.579553 330.8748 
Q 497.379553 330.8748 497.379553 328.0748 
L 497.379553 266.398237 
Q 497.379553 263.598237 494.579553 263.598237 
L 296.619553 263.598237 
Q 293.819553 263.598237 293.819553 266.398237 
L 293.819553 328.0748 
Q 293.819553 330.8748 296.619553 330.8748 
z
" style="fill: #ffffff; opacity: 0.8; stroke: #cccccc; stroke-linejoin: miter"/>
    </g>
    <g id="line2d_17">
     <path d="M 299.419553 274.93605 
L 313.419553 274.93605 
L 327.419553 274.93605 
" style="fill: none; stroke: #000004; stroke-width: 1.5; stroke-linecap: square"/>
    </g>
    <g id="text_14">
     <!-- $T_{\text{air}}$ -->
     <g transform="translate(338.619553 279.83605) scale(0.14 -0.14)">
      <defs>
       <path id="DejaVuSans-Oblique-54" d="M 378 4666 
L 4325 4666 
L 4225 4134 
L 2559 4134 
L 1759 0 
L 1125 0 
L 1925 4134 
L 275 4134 
L 378 4666 
z
" transform="scale(0.015625)"/>
      </defs>
      <use xlink:href="#DejaVuSans-Oblique-54" transform="translate(0 0.09375)"/>
      <use xlink:href="#DejaVuSans-61" transform="translate(61.083984 -16.3125) scale(0.7)"/>
      <use xlink:href="#DejaVuSans-69" transform="translate(103.979492 -16.3125) scale(0.7)"/>
      <use xlink:href="#DejaVuSans-72" transform="translate(123.427734 -16.3125) scale(0.7)"/>
     </g>
    </g>
    <g id="line2d_18">
     <path d="M 299.419553 295.485425 
L 313.419553 295.485425 
L 327.419553 295.485425 
" style="fill: none; stroke: #781c6d; stroke-width: 1.5; stroke-linecap: square"/>
    </g>
    <g id="text_15">
     <!-- $T_{\text{W,avg}}$ -->
     <g transform="translate(338.619553 300.385425) scale(0.14 -0.14)">
      <defs>
       <path id="DejaVuSans-57" d="M 213 4666 
L 850 4666 
L 1831 722 
L 2809 4666 
L 3519 4666 
L 4500 722 
L 5478 4666 
L 6119 4666 
L 4947 0 
L 4153 0 
L 3169 4050 
L 2175 0 
L 1381 0 
L 213 4666 
z
" transform="scale(0.015625)"/>
       <path id="DejaVuSans-2c" d="M 750 794 
L 1409 794 
L 1409 256 
L 897 -744 
L 494 -744 
L 750 256 
L 750 794 
z
" transform="scale(0.015625)"/>
       <path id="DejaVuSans-76" d="M 191 3500 
L 800 3500 
L 1894 563 
L 2988 3500 
L 3597 3500 
L 2284 0 
L 1503 0 
L 191 3500 
z
" transform="scale(0.015625)"/>
       <path id="DejaVuSans-67" d="M 2906 1791 
Q 2906 2416 2648 2759 
Q 2391 3103 1925 3103 
Q 1463 3103 1205 2759 
Q 947 2416 947 1791 
Q 947 1169 1205 825 
Q 1463 481 1925 481 
Q 2391 481 2648 825 
Q 2906 1169 2906 1791 
z
M 3481 434 
Q 3481 -459 3084 -895 
Q 2688 -1331 1869 -1331 
Q 1566 -1331 1297 -1286 
Q 1028 -1241 775 -1147 
L 775 -588 
Q 1028 -725 1275 -790 
Q 1522 -856 1778 -856 
Q 2344 -856 2625 -561 
Q 2906 -266 2906 331 
L 2906 616 
Q 2728 306 2450 153 
Q 2172 0 1784 0 
Q 1141 0 747 490 
Q 353 981 353 1791 
Q 353 2603 747 3093 
Q 1141 3584 1784 3584 
Q 2172 3584 2450 3431 
Q 2728 3278 2906 2969 
L 2906 3500 
L 3481 3500 
L 3481 434 
z
" transform="scale(0.015625)"/>
      </defs>
      <use xlink:href="#DejaVuSans-Oblique-54" transform="translate(0 0.09375)"/>
      <use xlink:href="#DejaVuSans-57" transform="translate(61.083984 -16.3125) scale(0.7)"/>
      <use xlink:href="#DejaVuSans-2c" transform="translate(130.297852 -16.3125) scale(0.7)"/>
      <use xlink:href="#DejaVuSans-61" transform="translate(152.548828 -16.3125) scale(0.7)"/>
      <use xlink:href="#DejaVuSans-76" transform="translate(195.444336 -16.3125) scale(0.7)"/>
      <use xlink:href="#DejaVuSans-67" transform="translate(236.870117 -16.3125) scale(0.7)"/>
     </g>
    </g>
    <g id="line2d_19">
     <path d="M 299.419553 317.463237 
L 313.419553 317.463237 
L 327.419553 317.463237 
" style="fill: none; stroke: #bc3754; stroke-width: 1.5; stroke-linecap: square"/>
    </g>
    <g id="text_16">
     <!-- $T_{\text{BOG}}$ -->
     <g transform="translate(338.619553 322.363237) scale(0.14 -0.14)">
      <defs>
       <path id="DejaVuSans-42" d="M 1259 2228 
L 1259 519 
L 2272 519 
Q 2781 519 3026 730 
Q 3272 941 3272 1375 
Q 3272 1813 3026 2020 
Q 2781 2228 2272 2228 
L 1259 2228 
z
M 1259 4147 
L 1259 2741 
L 2194 2741 
Q 2656 2741 2882 2914 
Q 3109 3088 3109 3444 
Q 3109 3797 2882 3972 
Q 2656 4147 2194 4147 
L 1259 4147 
z
M 628 4666 
L 2241 4666 
Q 2963 4666 3353 4366 
Q 3744 4066 3744 3513 
Q 3744 3084 3544 2831 
Q 3344 2578 2956 2516 
Q 3422 2416 3680 2098 
Q 3938 1781 3938 1306 
Q 3938 681 3513 340 
Q 3088 0 2303 0 
L 628 0 
L 628 4666 
z
" transform="scale(0.015625)"/>
       <path id="DejaVuSans-4f" d="M 2522 4238 
Q 1834 4238 1429 3725 
Q 1025 3213 1025 2328 
Q 1025 1447 1429 934 
Q 1834 422 2522 422 
Q 3209 422 3611 934 
Q 4013 1447 4013 2328 
Q 4013 3213 3611 3725 
Q 3209 4238 2522 4238 
z
M 2522 4750 
Q 3503 4750 4090 4092 
Q 4678 3434 4678 2328 
Q 4678 1225 4090 567 
Q 3503 -91 2522 -91 
Q 1538 -91 948 565 
Q 359 1222 359 2328 
Q 359 3434 948 4092 
Q 1538 4750 2522 4750 
z
" transform="scale(0.015625)"/>
       <path id="DejaVuSans-47" d="M 3809 666 
L 3809 1919 
L 2778 1919 
L 2778 2438 
L 4434 2438 
L 4434 434 
Q 4069 175 3628 42 
Q 3188 -91 2688 -91 
Q 1594 -91 976 548 
Q 359 1188 359 2328 
Q 359 3472 976 4111 
Q 1594 4750 2688 4750 
Q 3144 4750 3555 4637 
Q 3966 4525 4313 4306 
L 4313 3634 
Q 3963 3931 3569 4081 
Q 3175 4231 2741 4231 
Q 1884 4231 1454 3753 
Q 1025 3275 1025 2328 
Q 1025 1384 1454 906 
Q 1884 428 2741 428 
Q 3075 428 3337 486 
Q 3600 544 3809 666 
z
" transform="scale(0.015625)"/>
      </defs>
      <use xlink:href="#DejaVuSans-Oblique-54" transform="translate(0 0.09375)"/>
      <use xlink:href="#DejaVuSans-42" transform="translate(61.083984 -16.3125) scale(0.7)"/>
      <use xlink:href="#DejaVuSans-4f" transform="translate(109.106445 -16.3125) scale(0.7)"/>
      <use xlink:href="#DejaVuSans-47" transform="translate(164.204102 -16.3125) scale(0.7)"/>
     </g>
    </g>
    <g id="line2d_20">
     <path d="M 406.519553 274.93605 
L 420.519553 274.93605 
L 434.519553 274.93605 
" style="fill: none; stroke: #ed6925; stroke-width: 1.5; stroke-linecap: square"/>
    </g>
    <g id="text_17">
     <!-- $T_{\text{V,avg}}$ -->
     <g transform="translate(445.719553 279.83605) scale(0.14 -0.14)">
      <defs>
       <path id="DejaVuSans-56" d="M 1831 0 
L 50 4666 
L 709 4666 
L 2188 738 
L 3669 4666 
L 4325 4666 
L 2547 0 
L 1831 0 
z
" transform="scale(0.015625)"/>
      </defs>
      <use xlink:href="#DejaVuSans-Oblique-54" transform="translate(0 0.09375)"/>
      <use xlink:href="#DejaVuSans-56" transform="translate(61.083984 -16.3125) scale(0.7)"/>
      <use xlink:href="#DejaVuSans-2c" transform="translate(108.969727 -16.3125) scale(0.7)"/>
      <use xlink:href="#DejaVuSans-61" transform="translate(131.220703 -16.3125) scale(0.7)"/>
      <use xlink:href="#DejaVuSans-76" transform="translate(174.116211 -16.3125) scale(0.7)"/>
      <use xlink:href="#DejaVuSans-67" transform="translate(215.541992 -16.3125) scale(0.7)"/>
     </g>
    </g>
    <g id="line2d_21">
     <path d="M 406.519553 296.913862 
L 420.519553 296.913862 
L 434.519553 296.913862 
" style="fill: none; stroke: #fbb61a; stroke-width: 1.5; stroke-linecap: square"/>
    </g>
    <g id="text_18">
     <!-- $T_{\text{W},\text{r}=0}$ -->
     <g transform="translate(445.719553 301.813862) scale(0.14 -0.14)">
      <defs>
       <path id="DejaVuSans-3d" d="M 678 2906 
L 4684 2906 
L 4684 2381 
L 678 2381 
L 678 2906 
z
M 678 1631 
L 4684 1631 
L 4684 1100 
L 678 1100 
L 678 1631 
z
" transform="scale(0.015625)"/>
      </defs>
      <use xlink:href="#DejaVuSans-Oblique-54" transform="translate(0 0.09375)"/>
      <use xlink:href="#DejaVuSans-57" transform="translate(61.083984 -16.3125) scale(0.7)"/>
      <use xlink:href="#DejaVuSans-2c" transform="translate(130.297852 -16.3125) scale(0.7)"/>
      <use xlink:href="#DejaVuSans-72" transform="translate(166.186523 -16.3125) scale(0.7)"/>
      <use xlink:href="#DejaVuSans-3d" transform="translate(208.603516 -16.3125) scale(0.7)"/>
      <use xlink:href="#DejaVuSans-30" transform="translate(280.893555 -16.3125) scale(0.7)"/>
     </g>
    </g>
   </g>
  </g>
  <g id="axes_2">
   <g id="patch_8">
    <path d="M 593.071875 379.24 
L 1045.663564 379.24 
L 1045.663564 7.2 
L 593.071875 7.2 
z
" style="fill: #ffffff"/>
   </g>
   <g id="matplotlib.axis_3">
    <g id="xtick_7">
     <g id="line2d_22">
      <g>
       <use xlink:href="#m4dc9e23d40" x="593.975252" y="379.24" style="stroke: #000000; stroke-width: 0.8"/>
      </g>
     </g>
     <g id="text_19">
      <!-- 0 -->
      <g transform="translate(589.521502 396.877812) scale(0.14 -0.14)">
       <use xlink:href="#DejaVuSans-30"/>
      </g>
     </g>
    </g>
    <g id="xtick_8">
     <g id="line2d_23">
      <g>
       <use xlink:href="#m4dc9e23d40" x="684.312914" y="379.24" style="stroke: #000000; stroke-width: 0.8"/>
      </g>
     </g>
     <g id="text_20">
      <!-- 100 -->
      <g transform="translate(670.951664 396.877812) scale(0.14 -0.14)">
       <use xlink:href="#DejaVuSans-31"/>
       <use xlink:href="#DejaVuSans-30" transform="translate(63.623047 0)"/>
       <use xlink:href="#DejaVuSans-30" transform="translate(127.246094 0)"/>
      </g>
     </g>
    </g>
    <g id="xtick_9">
     <g id="line2d_24">
      <g>
       <use xlink:href="#m4dc9e23d40" x="774.650577" y="379.24" style="stroke: #000000; stroke-width: 0.8"/>
      </g>
     </g>
     <g id="text_21">
      <!-- 200 -->
      <g transform="translate(761.289327 396.877812) scale(0.14 -0.14)">
       <use xlink:href="#DejaVuSans-32"/>
       <use xlink:href="#DejaVuSans-30" transform="translate(63.623047 0)"/>
       <use xlink:href="#DejaVuSans-30" transform="translate(127.246094 0)"/>
      </g>
     </g>
    </g>
    <g id="xtick_10">
     <g id="line2d_25">
      <g>
       <use xlink:href="#m4dc9e23d40" x="864.988239" y="379.24" style="stroke: #000000; stroke-width: 0.8"/>
      </g>
     </g>
     <g id="text_22">
      <!-- 300 -->
      <g transform="translate(851.626989 396.877812) scale(0.14 -0.14)">
       <use xlink:href="#DejaVuSans-33"/>
       <use xlink:href="#DejaVuSans-30" transform="translate(63.623047 0)"/>
       <use xlink:href="#DejaVuSans-30" transform="translate(127.246094 0)"/>
      </g>
     </g>
    </g>
    <g id="xtick_11">
     <g id="line2d_26">
      <g>
       <use xlink:href="#m4dc9e23d40" x="955.325901" y="379.24" style="stroke: #000000; stroke-width: 0.8"/>
      </g>
     </g>
     <g id="text_23">
      <!-- 400 -->
      <g transform="translate(941.964651 396.877812) scale(0.14 -0.14)">
       <use xlink:href="#DejaVuSans-34"/>
       <use xlink:href="#DejaVuSans-30" transform="translate(63.623047 0)"/>
       <use xlink:href="#DejaVuSans-30" transform="translate(127.246094 0)"/>
      </g>
     </g>
    </g>
    <g id="xtick_12">
     <g id="line2d_27">
      <g>
       <use xlink:href="#m4dc9e23d40" x="1045.663564" y="379.24" style="stroke: #000000; stroke-width: 0.8"/>
      </g>
     </g>
     <g id="text_24">
      <!-- 500 -->
      <g transform="translate(1032.302314 396.877812) scale(0.14 -0.14)">
       <use xlink:href="#DejaVuSans-35"/>
       <use xlink:href="#DejaVuSans-30" transform="translate(63.623047 0)"/>
       <use xlink:href="#DejaVuSans-30" transform="translate(127.246094 0)"/>
      </g>
     </g>
    </g>
    <g id="text_25">
     <!-- Time / h -->
     <g transform="translate(790.996938 414.427187) scale(0.14 -0.14)">
      <use xlink:href="#DejaVuSans-54"/>
      <use xlink:href="#DejaVuSans-69" transform="translate(57.958984 0)"/>
      <use xlink:href="#DejaVuSans-6d" transform="translate(85.742188 0)"/>
      <use xlink:href="#DejaVuSans-65" transform="translate(183.154297 0)"/>
      <use xlink:href="#DejaVuSans-20" transform="translate(244.677734 0)"/>
      <use xlink:href="#DejaVuSans-2f" transform="translate(276.464844 0)"/>
      <use xlink:href="#DejaVuSans-20" transform="translate(310.15625 0)"/>
      <use xlink:href="#DejaVuSans-68" transform="translate(341.943359 0)"/>
     </g>
    </g>
   </g>
   <g id="matplotlib.axis_4">
    <g id="ytick_6">
     <g id="line2d_28">
      <g>
       <use xlink:href="#m236219741e" x="593.071875" y="361.112389" style="stroke: #000000; stroke-width: 0.8"/>
      </g>
     </g>
     <g id="text_26">
      <!-- 240 -->
      <g transform="translate(559.349375 366.431295) scale(0.14 -0.14)">
       <use xlink:href="#DejaVuSans-32"/>
       <use xlink:href="#DejaVuSans-34" transform="translate(63.623047 0)"/>
       <use xlink:href="#DejaVuSans-30" transform="translate(127.246094 0)"/>
      </g>
     </g>
    </g>
    <g id="ytick_7">
     <g id="line2d_29">
      <g>
       <use xlink:href="#m236219741e" x="593.071875" y="287.8171" style="stroke: #000000; stroke-width: 0.8"/>
      </g>
     </g>
     <g id="text_27">
      <!-- 250 -->
      <g transform="translate(559.349375 293.136006) scale(0.14 -0.14)">
       <use xlink:href="#DejaVuSans-32"/>
       <use xlink:href="#DejaVuSans-35" transform="translate(63.623047 0)"/>
       <use xlink:href="#DejaVuSans-30" transform="translate(127.246094 0)"/>
      </g>
     </g>
    </g>
    <g id="ytick_8">
     <g id="line2d_30">
      <g>
       <use xlink:href="#m236219741e" x="593.071875" y="214.52181" style="stroke: #000000; stroke-width: 0.8"/>
      </g>
     </g>
     <g id="text_28">
      <!-- 260 -->
      <g transform="translate(559.349375 219.840716) scale(0.14 -0.14)">
       <use xlink:href="#DejaVuSans-32"/>
       <use xlink:href="#DejaVuSans-36" transform="translate(63.623047 0)"/>
       <use xlink:href="#DejaVuSans-30" transform="translate(127.246094 0)"/>
      </g>
     </g>
    </g>
    <g id="ytick_9">
     <g id="line2d_31">
      <g>
       <use xlink:href="#m236219741e" x="593.071875" y="141.22652" style="stroke: #000000; stroke-width: 0.8"/>
      </g>
     </g>
     <g id="text_29">
      <!-- 270 -->
      <g transform="translate(559.349375 146.545427) scale(0.14 -0.14)">
       <use xlink:href="#DejaVuSans-32"/>
       <use xlink:href="#DejaVuSans-37" transform="translate(63.623047 0)"/>
       <use xlink:href="#DejaVuSans-30" transform="translate(127.246094 0)"/>
      </g>
     </g>
    </g>
    <g id="ytick_10">
     <g id="line2d_32">
      <g>
       <use xlink:href="#m236219741e" x="593.071875" y="67.931231" style="stroke: #000000; stroke-width: 0.8"/>
      </g>
     </g>
     <g id="text_30">
      <!-- 280 -->
      <g transform="translate(559.349375 73.250137) scale(0.14 -0.14)">
       <use xlink:href="#DejaVuSans-32"/>
       <use xlink:href="#DejaVuSans-38" transform="translate(63.623047 0)"/>
       <use xlink:href="#DejaVuSans-30" transform="translate(127.246094 0)"/>
      </g>
     </g>
    </g>
    <g id="text_31">
     <!-- Temperature / K -->
     <g transform="translate(552.437813 248.955312) rotate(-90) scale(0.14 -0.14)">
      <use xlink:href="#DejaVuSans-54"/>
      <use xlink:href="#DejaVuSans-65" transform="translate(44.083984 0)"/>
      <use xlink:href="#DejaVuSans-6d" transform="translate(105.607422 0)"/>
      <use xlink:href="#DejaVuSans-70" transform="translate(203.019531 0)"/>
      <use xlink:href="#DejaVuSans-65" transform="translate(266.496094 0)"/>
      <use xlink:href="#DejaVuSans-72" transform="translate(328.019531 0)"/>
      <use xlink:href="#DejaVuSans-61" transform="translate(369.132812 0)"/>
      <use xlink:href="#DejaVuSans-74" transform="translate(430.412109 0)"/>
      <use xlink:href="#DejaVuSans-75" transform="translate(469.621094 0)"/>
      <use xlink:href="#DejaVuSans-72" transform="translate(533 0)"/>
      <use xlink:href="#DejaVuSans-65" transform="translate(571.863281 0)"/>
      <use xlink:href="#DejaVuSans-20" transform="translate(633.386719 0)"/>
      <use xlink:href="#DejaVuSans-2f" transform="translate(665.173828 0)"/>
      <use xlink:href="#DejaVuSans-20" transform="translate(698.865234 0)"/>
      <use xlink:href="#DejaVuSans-4b" transform="translate(730.652344 0)"/>
     </g>
    </g>
   </g>
   <g id="line2d_33">
    <path d="M 593.975252 79.082376 
L 595.782005 51.596643 
L 596.685381 40.211679 
L 597.588758 31.475689 
L 598.492135 25.984016 
L 599.395511 24.110909 
L 600.298888 25.984016 
L 601.202265 31.475689 
L 602.105641 40.211679 
L 603.009018 51.596643 
L 604.815771 79.082376 
L 606.622524 106.56811 
L 607.525901 117.953073 
L 608.429278 126.689063 
L 609.332654 132.180736 
L 610.236031 134.053843 
L 611.139407 132.180736 
L 612.042784 126.689063 
L 612.946161 117.953073 
L 613.849537 106.56811 
L 615.656291 79.082376 
L 617.463044 51.596643 
L 618.36642 40.211679 
L 619.269797 31.475689 
L 620.173174 25.984016 
L 621.07655 24.110909 
L 621.979927 25.984016 
L 622.883304 31.475689 
L 623.78668 40.211679 
L 624.690057 51.596643 
L 626.49681 79.082376 
L 628.303563 106.56811 
L 629.20694 117.953073 
L 630.110317 126.689063 
L 631.013693 132.180736 
L 631.91707 134.053843 
L 632.820446 132.180736 
L 633.723823 126.689063 
L 634.6272 117.953073 
L 635.530576 106.56811 
L 637.33733 79.082376 
L 639.144083 51.596643 
L 640.047459 40.211679 
L 640.950836 31.475689 
L 641.854213 25.984016 
L 642.757589 24.110909 
L 643.660966 25.984016 
L 644.564343 31.475689 
L 645.467719 40.211679 
L 646.371096 51.596643 
L 648.177849 79.082376 
L 649.984602 106.56811 
L 650.887979 117.953073 
L 651.791356 126.689063 
L 652.694732 132.180736 
L 653.598109 134.053843 
L 654.501485 132.180736 
L 655.404862 126.689063 
L 656.308239 117.953073 
L 657.211615 106.56811 
L 659.018369 79.082376 
L 660.825122 51.596643 
L 661.728498 40.211679 
L 662.631875 31.475689 
L 663.535252 25.984016 
L 664.438628 24.110909 
L 665.342005 25.984016 
L 666.245382 31.475689 
L 667.148758 40.211679 
L 668.052135 51.596643 
L 669.858888 79.082376 
L 671.665641 106.56811 
L 672.569018 117.953073 
L 673.472395 126.689063 
L 674.375771 132.180736 
L 675.279148 134.053843 
L 676.182524 132.180736 
L 677.085901 126.689063 
L 677.989278 117.953073 
L 678.892654 106.56811 
L 680.699408 79.082376 
L 682.506161 51.596643 
L 683.409537 40.211679 
L 684.312914 31.475689 
L 685.216291 25.984016 
L 686.119667 24.110909 
L 687.023044 25.984016 
L 687.926421 31.475689 
L 688.829797 40.211679 
L 689.733174 51.596643 
L 691.539927 79.082376 
L 693.34668 106.56811 
L 694.250057 117.953073 
L 695.153434 126.689063 
L 696.05681 132.180736 
L 696.960187 134.053843 
L 697.863563 132.180736 
L 698.76694 126.689063 
L 699.670317 117.953073 
L 700.573693 106.56811 
L 702.380447 79.082376 
L 704.1872 51.596643 
L 705.090576 40.211679 
L 705.993953 31.475689 
L 706.89733 25.984016 
L 707.800706 24.110909 
L 708.704083 25.984016 
L 709.60746 31.475689 
L 710.510836 40.211679 
L 711.414213 51.596643 
L 713.220966 79.082376 
L 715.027719 106.56811 
L 715.931096 117.953073 
L 716.834473 126.689063 
L 717.737849 132.180736 
L 718.641226 134.053843 
L 719.544602 132.180736 
L 720.447979 126.689063 
L 721.351356 117.953073 
L 722.254732 106.56811 
L 724.061486 79.082376 
L 725.868239 51.596643 
L 726.771615 40.211679 
L 727.674992 31.475689 
L 728.578369 25.984016 
L 729.481745 24.110909 
L 730.385122 25.984016 
L 731.288499 31.475689 
L 732.191875 40.211679 
L 733.095252 51.596643 
L 734.902005 79.082376 
L 736.708758 106.56811 
L 737.612135 117.953073 
L 738.515512 126.689063 
L 739.418888 132.180736 
L 740.322265 134.053843 
L 741.225641 132.180736 
L 742.129018 126.689063 
L 743.032395 117.953073 
L 743.935771 106.56811 
L 745.742525 79.082376 
L 747.549278 51.596643 
L 748.452654 40.211679 
L 749.356031 31.475689 
L 750.259408 25.984016 
L 751.162784 24.110909 
L 752.066161 25.984016 
L 752.969538 31.475689 
L 753.872914 40.211679 
L 754.776291 51.596643 
L 756.583044 79.082376 
L 758.389797 106.56811 
L 759.293174 117.953073 
L 760.196551 126.689063 
L 761.099927 132.180736 
L 762.003304 134.053843 
L 762.90668 132.180736 
L 763.810057 126.689063 
L 764.713434 117.953073 
L 765.61681 106.56811 
L 767.423564 79.082376 
L 769.230317 51.596643 
L 770.133693 40.211679 
L 771.03707 31.475689 
L 771.940447 25.984016 
L 772.843823 24.110909 
L 773.7472 25.984016 
L 774.650577 31.475689 
L 775.553953 40.211679 
L 776.45733 51.596643 
L 778.264083 79.082376 
L 780.070836 106.56811 
L 780.974213 117.953073 
L 781.87759 126.689063 
L 782.780966 132.180736 
L 783.684343 134.053843 
L 784.587719 132.180736 
L 785.491096 126.689063 
L 786.394473 117.953073 
L 787.297849 106.56811 
L 789.104603 79.082376 
L 790.911356 51.596643 
L 791.814732 40.211679 
L 792.718109 31.475689 
L 793.621486 25.984016 
L 794.524862 24.110909 
L 795.428239 25.984016 
L 796.331616 31.475689 
L 797.234992 40.211679 
L 798.138369 51.596643 
L 799.945122 79.082376 
L 801.751875 106.56811 
L 802.655252 117.953073 
L 803.558629 126.689063 
L 804.462005 132.180736 
L 805.365382 134.053843 
L 806.268758 132.180736 
L 807.172135 126.689063 
L 808.075512 117.953073 
L 808.978888 106.56811 
L 810.785641 79.082376 
L 812.592395 51.596643 
L 813.495771 40.211679 
L 814.399148 31.475689 
L 815.302525 25.984016 
L 816.205901 24.110909 
L 817.109278 25.984016 
L 818.012654 31.475689 
L 818.916031 40.211679 
L 819.819408 51.596643 
L 821.626161 79.082376 
L 823.432914 106.56811 
L 824.336291 117.953073 
L 825.239667 126.689063 
L 826.143044 132.180736 
L 827.046421 134.053843 
L 827.949797 132.180736 
L 828.853174 126.689063 
L 829.756551 117.953073 
L 830.659927 106.56811 
L 832.46668 79.082376 
L 834.273434 51.596643 
L 835.17681 40.211679 
L 836.080187 31.475689 
L 836.983564 25.984016 
L 837.88694 24.110909 
L 838.790317 25.984016 
L 839.693693 31.475689 
L 840.59707 40.211679 
L 841.500447 51.596643 
L 843.3072 79.082376 
L 845.113953 106.56811 
L 846.01733 117.953073 
L 846.920706 126.689063 
L 847.824083 132.180736 
L 848.72746 134.053843 
L 849.630836 132.180736 
L 850.534213 126.689063 
L 851.43759 117.953073 
L 852.340966 106.56811 
L 854.147719 79.082376 
L 855.954473 51.596643 
L 856.857849 40.211679 
L 857.761226 31.475689 
L 858.664603 25.984016 
L 859.567979 24.110909 
L 860.471356 25.984016 
L 861.374732 31.475689 
L 862.278109 40.211679 
L 863.181486 51.596643 
L 864.988239 79.082376 
L 866.794992 106.56811 
L 867.698369 117.953073 
L 868.601745 126.689063 
L 869.505122 132.180736 
L 870.408499 134.053843 
L 871.311875 132.180736 
L 872.215252 126.689063 
L 873.118629 117.953073 
L 874.022005 106.56811 
L 875.828758 79.082376 
L 877.635512 51.596643 
L 878.538888 40.211679 
L 879.442265 31.475689 
L 880.345642 25.984016 
L 881.249018 24.110909 
L 882.152395 25.984016 
L 883.055771 31.475689 
L 883.959148 40.211679 
L 884.862525 51.596643 
L 886.669278 79.082376 
L 888.476031 106.56811 
L 889.379408 117.953073 
L 890.282784 126.689063 
L 891.186161 132.180736 
L 892.089538 134.053843 
L 892.992914 132.180736 
L 893.896291 126.689063 
L 894.799668 117.953073 
L 895.703044 106.56811 
L 897.509797 79.082376 
L 899.316551 51.596643 
L 900.219927 40.211679 
L 901.123304 31.475689 
L 902.026681 25.984016 
L 902.930057 24.110909 
L 903.833434 25.984016 
L 904.73681 31.475689 
L 905.640187 40.211679 
L 906.543564 51.596643 
L 908.350317 79.082376 
L 910.15707 106.56811 
L 911.060447 117.953073 
L 911.963823 126.689063 
L 912.8672 132.180736 
L 913.770577 134.053843 
L 914.673953 132.180736 
L 915.57733 126.689063 
L 916.480707 117.953073 
L 917.384083 106.56811 
L 919.190836 79.082376 
L 920.99759 51.596643 
L 921.900966 40.211679 
L 922.804343 31.475689 
L 923.70772 25.984016 
L 924.611096 24.110909 
L 925.514473 25.984016 
L 926.417849 31.475689 
L 927.321226 40.211679 
L 928.224603 51.596643 
L 930.031356 79.082376 
L 931.838109 106.56811 
L 932.741486 117.953073 
L 933.644862 126.689063 
L 934.548239 132.180736 
L 935.451616 134.053843 
L 936.354992 132.180736 
L 937.258369 126.689063 
L 938.161746 117.953073 
L 939.065122 106.56811 
L 940.871875 79.082376 
L 942.678629 51.596643 
L 943.582005 40.211679 
L 944.485382 31.475689 
L 945.388759 25.984016 
L 946.292135 24.110909 
L 947.195512 25.984016 
L 948.098888 31.475689 
L 949.002265 40.211679 
L 949.905642 51.596643 
L 951.712395 79.082376 
L 953.519148 106.56811 
L 954.422525 117.953073 
L 955.325901 126.689063 
L 956.229278 132.180736 
L 957.132655 134.053843 
L 958.036031 132.180736 
L 958.939408 126.689063 
L 959.842785 117.953073 
L 960.746161 106.56811 
L 962.552914 79.082376 
L 964.359668 51.596643 
L 965.263044 40.211679 
L 966.166421 31.475689 
L 967.069798 25.984016 
L 967.973174 24.110909 
L 968.876551 25.984016 
L 969.779927 31.475689 
L 970.683304 40.211679 
L 971.586681 51.596643 
L 973.393434 79.082376 
L 975.200187 106.56811 
L 976.103564 117.953073 
L 977.00694 126.689063 
L 977.910317 132.180736 
L 978.813694 134.053843 
L 979.71707 132.180736 
L 980.620447 126.689063 
L 981.523824 117.953073 
L 982.4272 106.56811 
L 984.233953 79.082376 
L 986.040707 51.596643 
L 986.944083 40.211679 
L 987.84746 31.475689 
L 988.750837 25.984016 
L 989.654213 24.110909 
L 990.55759 25.984016 
L 991.460966 31.475689 
L 992.364343 40.211679 
L 993.26772 51.596643 
L 995.074473 79.082376 
L 996.881226 106.56811 
L 997.784603 117.953073 
L 998.687979 126.689063 
L 999.591356 132.180736 
L 1000.494733 134.053843 
L 1001.398109 132.180736 
L 1002.301486 126.689063 
L 1003.204863 117.953073 
L 1004.108239 106.56811 
L 1005.914992 79.082376 
L 1007.721746 51.596643 
L 1008.625122 40.211679 
L 1009.528499 31.475689 
L 1010.431876 25.984016 
L 1011.335252 24.110909 
L 1012.238629 25.984016 
L 1013.142005 31.475689 
L 1014.045382 40.211679 
L 1014.948759 51.596643 
L 1016.755512 79.082376 
L 1018.562265 106.56811 
L 1019.465642 117.953073 
L 1020.369018 126.689063 
L 1021.272395 132.180736 
L 1022.175772 134.053843 
L 1023.079148 132.180736 
L 1023.982525 126.689063 
L 1024.885901 117.953073 
L 1025.789278 106.56811 
L 1027.596031 79.082376 
L 1029.402785 51.596643 
L 1030.306161 40.211679 
L 1031.209538 31.475689 
L 1032.112914 25.984016 
L 1033.016291 24.110909 
L 1033.919668 25.984016 
L 1034.823044 31.475689 
L 1035.726421 40.211679 
L 1036.629798 51.596643 
L 1038.436551 79.082376 
L 1040.243304 106.56811 
L 1041.146681 117.953073 
L 1042.050057 126.689063 
L 1042.953434 132.180736 
L 1043.856811 134.053843 
L 1044.760187 132.180736 
L 1045.663564 126.689063 
L 1046.56694 117.953073 
L 1047.470317 106.56811 
L 1049.27707 79.082376 
L 1049.27707 79.082376 
" clip-path="url(#pf23ccc1f0d)" style="fill: none; stroke: #000004; stroke-width: 1.5; stroke-linecap: square"/>
   </g>
   <g id="line2d_34">
    <path d="M 593.975252 81.043758 
L 594.878628 114.334479 
L 595.782005 127.359052 
L 596.685381 136.41102 
L 597.588758 143.425379 
L 599.395511 154.346377 
L 603.009018 173.732981 
L 604.815771 184.8079 
L 608.429278 208.152449 
L 609.332654 213.27579 
L 610.236031 217.739473 
L 611.139407 221.382249 
L 612.042784 224.079516 
L 612.946161 225.750648 
L 613.849537 226.395647 
L 614.752914 226.04383 
L 615.656291 224.805139 
L 616.559667 222.818837 
L 618.36642 217.431633 
L 620.173174 211.707271 
L 621.07655 209.310515 
L 621.979927 207.485462 
L 622.883304 206.386033 
L 623.78668 206.11484 
L 624.690057 206.708532 
L 625.593433 208.152449 
L 626.49681 210.358638 
L 627.400187 213.187836 
L 629.20694 219.97498 
L 631.013693 226.776782 
L 631.91707 229.627969 
L 632.820446 231.841487 
L 633.723823 233.285404 
L 634.6272 233.857107 
L 635.530576 233.534608 
L 636.433953 232.325236 
L 637.33733 230.331604 
L 638.240706 227.678314 
L 640.047459 221.199011 
L 641.854213 214.624423 
L 642.757589 211.87585 
L 643.660966 209.742957 
L 644.564343 208.379665 
L 645.467719 207.866598 
L 646.371096 208.255063 
L 647.274472 209.508412 
L 648.177849 211.553351 
L 649.081226 214.235958 
L 650.887979 220.788557 
L 652.694732 227.407122 
L 653.598109 230.177684 
L 654.501485 232.332565 
L 655.404862 233.717846 
L 656.308239 234.238243 
L 657.211615 233.864437 
L 658.114992 232.618417 
L 659.018369 230.588137 
L 659.921745 227.912859 
L 661.728498 221.37492 
L 663.535252 214.763684 
L 664.438628 212.000452 
L 665.342005 209.8529 
L 666.245382 208.467619 
L 667.148758 207.947223 
L 668.052135 208.328358 
L 668.955511 209.574378 
L 669.858888 211.611987 
L 670.762265 214.287265 
L 672.569018 220.825205 
L 674.375771 227.43644 
L 675.279148 230.207002 
L 676.182524 232.354554 
L 677.085901 233.732505 
L 677.989278 234.252902 
L 678.892654 233.879096 
L 679.796031 232.633076 
L 680.699408 230.602797 
L 681.602784 227.920189 
L 683.409537 221.382249 
L 685.216291 214.771014 
L 686.119667 212.000452 
L 687.023044 209.86023 
L 687.926421 208.474949 
L 688.829797 207.954552 
L 689.733174 208.328358 
L 690.63655 209.574378 
L 691.539927 211.611987 
L 692.443304 214.287265 
L 694.250057 220.825205 
L 696.05681 227.44377 
L 696.960187 230.207002 
L 697.863563 232.354554 
L 698.76694 233.739835 
L 699.670317 234.252902 
L 700.573693 233.879096 
L 701.47707 232.633076 
L 702.380447 230.602797 
L 703.283823 227.920189 
L 705.090576 221.382249 
L 706.89733 214.771014 
L 707.800706 212.000452 
L 708.704083 209.86023 
L 709.60746 208.474949 
L 710.510836 207.954552 
L 711.414213 208.328358 
L 712.317589 209.581707 
L 713.220966 211.611987 
L 714.124343 214.287265 
L 715.931096 220.832534 
L 717.737849 227.44377 
L 718.641226 230.207002 
L 719.544602 232.354554 
L 720.447979 233.732505 
L 721.351356 234.252902 
L 722.254732 233.879096 
L 723.158109 232.633076 
L 724.061486 230.602797 
L 724.964862 227.920189 
L 726.771615 221.382249 
L 728.578369 214.771014 
L 729.481745 212.000452 
L 730.385122 209.8529 
L 731.288499 208.474949 
L 732.191875 207.954552 
L 733.095252 208.335688 
L 733.998628 209.574378 
L 734.902005 211.611987 
L 735.805382 214.287265 
L 737.612135 220.825205 
L 739.418888 227.44377 
L 740.322265 230.207002 
L 741.225641 232.354554 
L 742.129018 233.732505 
L 743.032395 234.252902 
L 743.935771 233.879096 
L 744.839148 232.633076 
L 745.742525 230.602797 
L 746.645901 227.920189 
L 748.452654 221.382249 
L 750.259408 214.771014 
L 751.162784 212.000452 
L 752.066161 209.8529 
L 752.969538 208.474949 
L 753.872914 207.954552 
L 754.776291 208.335688 
L 755.679667 209.574378 
L 756.583044 211.611987 
L 757.486421 214.287265 
L 759.293174 220.825205 
L 761.099927 227.43644 
L 762.003304 230.207002 
L 762.90668 232.354554 
L 763.810057 233.739835 
L 764.713434 234.252902 
L 765.61681 233.879096 
L 766.520187 232.633076 
L 767.423564 230.602797 
L 768.32694 227.920189 
L 770.133693 221.382249 
L 771.940447 214.771014 
L 772.843823 212.000452 
L 773.7472 209.86023 
L 774.650577 208.474949 
L 775.553953 207.954552 
L 776.45733 208.328358 
L 777.360706 209.581707 
L 778.264083 211.611987 
L 779.16746 214.287265 
L 780.974213 220.825205 
L 782.780966 227.44377 
L 783.684343 230.207002 
L 784.587719 232.354554 
L 785.491096 233.739835 
L 786.394473 234.252902 
L 787.297849 233.879096 
L 788.201226 232.633076 
L 789.104603 230.602797 
L 790.007979 227.920189 
L 791.814732 221.382249 
L 793.621486 214.771014 
L 794.524862 212.007782 
L 795.428239 209.8529 
L 796.331616 208.474949 
L 797.234992 207.954552 
L 798.138369 208.328358 
L 799.041745 209.581707 
L 799.945122 211.611987 
L 800.848499 214.287265 
L 802.655252 220.825205 
L 804.462005 227.44377 
L 805.365382 230.207002 
L 806.268758 232.354554 
L 807.172135 233.732505 
L 808.075512 234.252902 
L 808.978888 233.879096 
L 809.882265 232.633076 
L 810.785641 230.602797 
L 811.689018 227.920189 
L 813.495771 221.382249 
L 815.302525 214.771014 
L 816.205901 212.000452 
L 817.109278 209.8529 
L 818.012654 208.474949 
L 818.916031 207.954552 
L 819.819408 208.335688 
L 820.722784 209.574378 
L 821.626161 211.611987 
L 822.529538 214.287265 
L 824.336291 220.825205 
L 826.143044 227.44377 
L 827.046421 230.207002 
L 827.949797 232.354554 
L 828.853174 233.739835 
L 829.756551 234.252902 
L 830.659927 233.879096 
L 831.563304 232.633076 
L 832.46668 230.602797 
L 833.370057 227.920189 
L 835.17681 221.382249 
L 836.983564 214.771014 
L 837.88694 212.000452 
L 838.790317 209.8529 
L 839.693693 208.474949 
L 840.59707 207.954552 
L 841.500447 208.328358 
L 842.403823 209.581707 
L 843.3072 211.611987 
L 844.210577 214.287265 
L 846.01733 220.825205 
L 847.824083 227.44377 
L 848.72746 230.207002 
L 849.630836 232.354554 
L 850.534213 233.739835 
L 851.43759 234.252902 
L 852.340966 233.879096 
L 853.244343 232.633076 
L 854.147719 230.602797 
L 855.051096 227.920189 
L 856.857849 221.382249 
L 858.664603 214.771014 
L 859.567979 212.000452 
L 860.471356 209.8529 
L 861.374732 208.474949 
L 862.278109 207.954552 
L 863.181486 208.328358 
L 864.084862 209.581707 
L 864.988239 211.611987 
L 865.891616 214.294595 
L 867.698369 220.825205 
L 869.505122 227.44377 
L 870.408499 230.207002 
L 871.311875 232.354554 
L 872.215252 233.732505 
L 873.118629 234.260231 
L 874.022005 233.879096 
L 874.925382 232.633076 
L 875.828758 230.602797 
L 876.732135 227.920189 
L 878.538888 221.382249 
L 880.345642 214.771014 
L 881.249018 212.007782 
L 882.152395 209.8529 
L 883.055771 208.474949 
L 883.959148 207.954552 
L 884.862525 208.335688 
L 885.765901 209.574378 
L 886.669278 211.611987 
L 887.572655 214.287265 
L 889.379408 220.825205 
L 891.186161 227.44377 
L 892.089538 230.207002 
L 892.992914 232.354554 
L 893.896291 233.732505 
L 894.799668 234.260231 
L 895.703044 233.879096 
L 896.606421 232.633076 
L 897.509797 230.602797 
L 898.413174 227.920189 
L 900.219927 221.382249 
L 902.026681 214.771014 
L 902.930057 212.000452 
L 903.833434 209.8529 
L 904.73681 208.474949 
L 905.640187 207.954552 
L 906.543564 208.335688 
L 907.44694 209.581707 
L 908.350317 211.611987 
L 909.253694 214.287265 
L 911.060447 220.825205 
L 912.8672 227.43644 
L 913.770577 230.207002 
L 914.673953 232.354554 
L 915.57733 233.739835 
L 916.480707 234.252902 
L 917.384083 233.879096 
L 918.28746 232.633076 
L 919.190836 230.602797 
L 920.094213 227.920189 
L 921.900966 221.382249 
L 923.70772 214.771014 
L 924.611096 212.000452 
L 925.514473 209.86023 
L 926.417849 208.474949 
L 927.321226 207.954552 
L 928.224603 208.328358 
L 929.127979 209.581707 
L 930.031356 211.611987 
L 930.934733 214.287265 
L 932.741486 220.825205 
L 934.548239 227.43644 
L 935.451616 230.207002 
L 936.354992 232.354554 
L 937.258369 233.739835 
L 938.161746 234.252902 
L 939.065122 233.879096 
L 939.968499 232.633076 
L 940.871875 230.602797 
L 941.775252 227.920189 
L 943.582005 221.382249 
L 945.388759 214.771014 
L 946.292135 212.007782 
L 947.195512 209.8529 
L 948.098888 208.474949 
L 949.002265 207.954552 
L 949.905642 208.328358 
L 950.809018 209.581707 
L 951.712395 211.611987 
L 952.615772 214.294595 
L 954.422525 220.832534 
L 956.229278 227.44377 
L 957.132655 230.207002 
L 958.036031 232.354554 
L 958.939408 233.732505 
L 959.842785 234.260231 
L 960.746161 233.879096 
L 961.649538 232.633076 
L 962.552914 230.602797 
L 963.456291 227.920189 
L 965.263044 221.382249 
L 967.069798 214.771014 
L 967.973174 212.000452 
L 968.876551 209.8529 
L 969.779927 208.474949 
L 970.683304 207.954552 
L 971.586681 208.335688 
L 972.490057 209.574378 
L 973.393434 211.611987 
L 974.296811 214.287265 
L 976.103564 220.825205 
L 977.910317 227.43644 
L 978.813694 230.207002 
L 979.71707 232.354554 
L 980.620447 233.739835 
L 981.523824 234.252902 
L 982.4272 233.879096 
L 983.330577 232.633076 
L 984.233953 230.602797 
L 985.13733 227.920189 
L 986.944083 221.382249 
L 988.750837 214.771014 
L 989.654213 212.000452 
L 990.55759 209.86023 
L 991.460966 208.474949 
L 992.364343 207.954552 
L 993.26772 208.328358 
L 994.171096 209.581707 
L 995.074473 211.611987 
L 995.97785 214.287265 
L 997.784603 220.825205 
L 999.591356 227.44377 
L 1000.494733 230.207002 
L 1001.398109 232.354554 
L 1002.301486 233.739835 
L 1003.204863 234.252902 
L 1004.108239 233.879096 
L 1005.011616 232.633076 
L 1005.914992 230.602797 
L 1006.818369 227.920189 
L 1008.625122 221.382249 
L 1010.431876 214.771014 
L 1011.335252 212.000452 
L 1012.238629 209.8529 
L 1013.142005 208.474949 
L 1014.045382 207.954552 
L 1014.948759 208.328358 
L 1015.852135 209.581707 
L 1016.755512 211.611987 
L 1017.658889 214.287265 
L 1019.465642 220.832534 
L 1021.272395 227.44377 
L 1022.175772 230.207002 
L 1023.079148 232.354554 
L 1023.982525 233.732505 
L 1024.885901 234.252902 
L 1025.789278 233.879096 
L 1026.692655 232.633076 
L 1027.596031 230.602797 
L 1028.499408 227.920189 
L 1030.306161 221.382249 
L 1032.112914 214.771014 
L 1033.016291 212.007782 
L 1033.919668 209.8529 
L 1034.823044 208.474949 
L 1035.726421 207.954552 
L 1036.629798 208.328358 
L 1037.533174 209.574378 
L 1038.436551 211.611987 
L 1039.339927 214.287265 
L 1041.146681 220.825205 
L 1042.953434 227.44377 
L 1043.856811 230.207002 
L 1044.760187 232.354554 
L 1045.663564 233.732505 
L 1046.56694 234.260231 
L 1047.470317 233.879096 
L 1048.373694 232.633076 
L 1049.27707 230.602797 
L 1049.27707 230.602797 
" clip-path="url(#pf23ccc1f0d)" style="fill: none; stroke: #781c6d; stroke-width: 1.5; stroke-linecap: square"/>
   </g>
   <g id="line2d_35">
    <path d="M 593.975252 362.329091 
L 596.685381 359.477904 
L 603.912394 351.386104 
L 606.622524 348.872076 
L 609.332654 346.717194 
L 613.849537 343.228338 
L 616.559667 340.772946 
L 619.269797 337.958407 
L 624.690057 332.094784 
L 627.400187 329.588085 
L 630.110317 327.48451 
L 636.433953 322.896225 
L 639.144083 320.462822 
L 642.757589 316.74675 
L 646.371096 313.067327 
L 649.081226 310.714548 
L 651.791356 308.764893 
L 658.114992 304.535755 
L 660.825122 302.248942 
L 663.535252 299.6323 
L 668.052135 295.234583 
L 670.762265 293.021065 
L 673.472395 291.225331 
L 679.796031 287.355339 
L 682.506161 285.207787 
L 686.119667 281.865522 
L 689.733174 278.567234 
L 691.539927 277.137976 
L 694.250057 275.3569 
L 702.380447 270.69532 
L 705.090576 268.562427 
L 712.317589 262.339657 
L 714.124343 261.100967 
L 716.834473 259.598413 
L 722.254732 256.923135 
L 724.061486 255.816376 
L 726.771615 253.815415 
L 733.998628 247.951792 
L 735.805382 246.808385 
L 738.515512 245.437763 
L 744.839148 242.557258 
L 746.645901 241.44317 
L 749.356031 239.456868 
L 754.776291 235.242388 
L 756.583044 234.084323 
L 758.389797 233.131484 
L 761.099927 231.995407 
L 764.713434 230.624785 
L 767.423564 229.29814 
L 769.230317 228.184052 
L 771.940447 226.234397 
L 775.553953 223.55179 
L 778.264083 221.880657 
L 780.070836 221.015773 
L 782.780966 220.018957 
L 786.394473 218.824243 
L 788.201226 218.069302 
L 790.007979 217.138452 
L 792.718109 215.416013 
L 798.138369 211.72193 
L 799.945122 210.739773 
L 801.751875 209.962843 
L 804.462005 209.097959 
L 808.075512 208.086484 
L 809.882265 207.419496 
L 811.689018 206.569271 
L 814.399148 204.978763 
L 819.819408 201.541214 
L 821.626161 200.647012 
L 823.432914 199.958036 
L 826.143044 199.225083 
L 829.756551 198.382187 
L 831.563304 197.803154 
L 833.370057 197.048213 
L 836.080187 195.574978 
L 841.500447 192.393962 
L 843.3072 191.580384 
L 845.113953 190.979363 
L 847.824083 190.371012 
L 851.43759 189.696695 
L 853.244343 189.205617 
L 855.051096 188.523971 
L 857.761226 187.175337 
L 863.181486 184.236196 
L 864.988239 183.503243 
L 866.794992 182.982847 
L 869.505122 182.499098 
L 873.118629 181.978701 
L 874.925382 181.560918 
L 876.732135 180.959897 
L 878.538888 180.175637 
L 885.765901 176.664793 
L 887.572655 176.107749 
L 889.379408 175.755931 
L 892.992914 175.382125 
L 895.703044 175.022978 
L 897.509797 174.583207 
L 899.316551 173.960197 
L 902.026681 172.736165 
L 905.640187 171.028385 
L 907.44694 170.346739 
L 909.253694 169.87032 
L 911.060447 169.584468 
L 914.673953 169.342594 
L 917.384083 169.08606 
L 919.190836 168.712254 
L 920.99759 168.15521 
L 923.70772 167.026462 
L 927.321226 165.443284 
L 929.127979 164.834933 
L 930.934733 164.41715 
L 932.741486 164.189935 
L 936.354992 164.079992 
L 939.065122 163.911413 
L 940.871875 163.596243 
L 942.678629 163.097835 
L 945.388759 162.057042 
L 949.002265 160.591136 
L 950.809018 160.034092 
L 952.615772 159.674945 
L 954.422525 159.506366 
L 957.132655 159.491707 
L 959.842785 159.477048 
L 961.649538 159.308468 
L 963.456291 158.956651 
L 966.166421 158.099096 
L 971.586681 156.105464 
L 973.393434 155.695011 
L 975.200187 155.489784 
L 977.910317 155.475125 
L 981.523824 155.570409 
L 983.330577 155.445807 
L 985.13733 155.145296 
L 987.84746 154.353707 
L 992.364343 152.755869 
L 994.171096 152.294109 
L 995.97785 152.022917 
L 997.784603 151.949621 
L 1001.398109 152.13286 
L 1004.108239 152.184166 
L 1005.914992 152.015587 
L 1007.721746 151.649111 
L 1010.431876 150.820874 
L 1014.045382 149.626161 
L 1015.852135 149.201048 
L 1017.658889 148.973833 
L 1019.465642 148.944514 
L 1023.079148 149.201048 
L 1025.789278 149.303661 
L 1027.596031 149.17173 
L 1029.402785 148.841901 
L 1032.112914 148.064971 
L 1035.726421 146.936224 
L 1037.533174 146.555088 
L 1039.339927 146.357191 
L 1041.146681 146.357191 
L 1048.373694 146.804292 
L 1049.27707 146.730997 
L 1049.27707 146.730997 
" clip-path="url(#pf23ccc1f0d)" style="fill: none; stroke: #bc3754; stroke-width: 1.5; stroke-linecap: square"/>
   </g>
   <g id="line2d_36">
    <path d="M 593.975252 362.329091 
L 596.685381 359.529211 
L 603.912394 351.818546 
L 606.622524 349.487756 
L 609.332654 347.523442 
L 613.849537 344.371745 
L 616.559667 342.143568 
L 619.269797 339.585563 
L 624.690057 334.33029 
L 626.49681 332.827737 
L 629.20694 330.91473 
L 632.820446 328.767178 
L 635.530576 327.110704 
L 638.240706 325.139061 
L 640.950836 322.844918 
L 646.371096 318.102713 
L 648.177849 316.761409 
L 650.887979 315.090277 
L 659.018369 310.721878 
L 661.728498 308.757564 
L 668.955511 303.128486 
L 670.762265 302.029056 
L 673.472395 300.695082 
L 678.892654 298.342303 
L 681.602784 296.817761 
L 684.312914 294.956061 
L 689.733174 291.07874 
L 691.539927 290.015958 
L 694.250057 288.769938 
L 697.863563 287.479941 
L 700.573693 286.446478 
L 703.283823 285.105174 
L 705.993953 283.426712 
L 711.414213 279.923197 
L 713.220966 278.985017 
L 715.027719 278.230076 
L 717.737849 277.357862 
L 722.254732 275.97991 
L 724.061486 275.239628 
L 726.771615 273.832358 
L 733.998628 269.691174 
L 735.805382 268.958222 
L 738.515512 268.151973 
L 743.935771 266.817999 
L 745.742525 266.173001 
L 748.452654 264.919651 
L 754.776291 261.562727 
L 757.486421 260.536593 
L 760.196551 259.869606 
L 765.61681 258.806824 
L 767.423564 258.257109 
L 770.133693 257.135691 
L 777.360706 253.756778 
L 779.16746 253.199734 
L 781.87759 252.657349 
L 787.297849 251.836442 
L 789.104603 251.367352 
L 791.814732 250.363207 
L 799.041745 247.306793 
L 800.848499 246.823044 
L 803.558629 246.397931 
L 808.978888 245.789581 
L 810.785641 245.386456 
L 813.495771 244.492254 
L 820.722784 241.714362 
L 822.529538 241.303909 
L 825.239667 240.97408 
L 830.659927 240.556297 
L 832.46668 240.219139 
L 835.17681 239.42022 
L 842.403823 236.891532 
L 844.210577 236.539715 
L 846.920706 236.297841 
L 852.340966 236.041307 
L 855.051096 235.557558 
L 857.761226 234.74398 
L 863.181486 232.948246 
L 864.988239 232.56711 
L 866.794992 232.347224 
L 869.505122 232.25927 
L 873.118629 232.222622 
L 875.828758 231.922112 
L 877.635512 231.526317 
L 880.345642 230.712739 
L 883.959148 229.576662 
L 885.765901 229.158879 
L 887.572655 228.909675 
L 890.282784 228.807062 
L 895.703044 228.821721 
L 898.413174 228.469904 
L 901.123304 227.788257 
L 906.543564 226.263715 
L 908.350317 225.970534 
L 910.15707 225.838603 
L 912.8672 225.87525 
L 917.384083 225.963205 
L 919.190836 225.801955 
L 921.900966 225.274229 
L 929.127979 223.471165 
L 930.934733 223.295256 
L 933.644862 223.295256 
L 939.065122 223.515142 
L 940.871875 223.383211 
L 943.582005 222.906791 
L 950.809018 221.228329 
L 952.615772 221.074409 
L 955.325901 221.125716 
L 960.746161 221.418897 
L 962.552914 221.316283 
L 965.263044 220.883841 
L 971.586681 219.432594 
L 973.393434 219.227368 
L 975.200187 219.176061 
L 978.813694 219.425265 
L 982.4272 219.637821 
L 984.233953 219.557196 
L 986.944083 219.154072 
L 994.171096 217.673507 
L 995.97785 217.563565 
L 998.687979 217.680837 
L 1004.108239 218.10595 
L 1005.914992 218.047313 
L 1008.625122 217.673507 
L 1015.852135 216.273567 
L 1017.658889 216.185613 
L 1020.369018 216.332204 
L 1025.789278 216.808623 
L 1027.596031 216.764646 
L 1030.306161 216.420158 
L 1037.533174 215.078854 
L 1040.243304 215.034877 
L 1042.953434 215.276751 
L 1046.56694 215.657887 
L 1048.373694 215.701864 
L 1049.27707 215.672546 
L 1049.27707 215.672546 
" clip-path="url(#pf23ccc1f0d)" style="fill: none; stroke: #ed6925; stroke-width: 1.5; stroke-linecap: square"/>
   </g>
   <g id="line2d_37">
    <path d="M 595.782005 361.669433 
L 597.588758 361.860001 
L 602.105641 362.006592 
L 616.559667 362.131194 
L 629.20694 362.123864 
L 1049.27707 362.145853 
L 1049.27707 362.145853 
" clip-path="url(#pf23ccc1f0d)" style="fill: none; stroke: #fbb61a; stroke-width: 1.5; stroke-linecap: square"/>
   </g>
   <g id="patch_9">
    <path d="M 593.071875 379.24 
L 593.071875 7.2 
" style="fill: none; stroke: #000000; stroke-width: 0.8; stroke-linejoin: miter; stroke-linecap: square"/>
   </g>
   <g id="patch_10">
    <path d="M 1045.663564 379.24 
L 1045.663564 7.2 
" style="fill: none; stroke: #000000; stroke-width: 0.8; stroke-linejoin: miter; stroke-linecap: square"/>
   </g>
   <g id="patch_11">
    <path d="M 593.071875 379.24 
L 1045.663564 379.24 
" style="fill: none; stroke: #000000; stroke-width: 0.8; stroke-linejoin: miter; stroke-linecap: square"/>
   </g>
   <g id="patch_12">
    <path d="M 593.071875 7.2 
L 1045.663564 7.2 
" style="fill: none; stroke: #000000; stroke-width: 0.8; stroke-linejoin: miter; stroke-linecap: square"/>
   </g>
   <g id="legend_2">
    <g id="patch_13">
     <path d="M 831.219553 330.8748 
L 1029.179553 330.8748 
Q 1031.979553 330.8748 1031.979553 328.0748 
L 1031.979553 266.398237 
Q 1031.979553 263.598237 1029.179553 263.598237 
L 831.219553 263.598237 
Q 828.419553 263.598237 828.419553 266.398237 
L 828.419553 328.0748 
Q 828.419553 330.8748 831.219553 330.8748 
z
" style="fill: #ffffff; opacity: 0.8; stroke: #cccccc; stroke-linejoin: miter"/>
    </g>
    <g id="line2d_38">
     <path d="M 834.019553 274.93605 
L 848.019553 274.93605 
L 862.019553 274.93605 
" style="fill: none; stroke: #000004; stroke-width: 1.5; stroke-linecap: square"/>
    </g>
    <g id="text_32">
     <!-- $T_{\text{air}}$ -->
     <g transform="translate(873.219553 279.83605) scale(0.14 -0.14)">
      <use xlink:href="#DejaVuSans-Oblique-54" transform="translate(0 0.09375)"/>
      <use xlink:href="#DejaVuSans-61" transform="translate(61.083984 -16.3125) scale(0.7)"/>
      <use xlink:href="#DejaVuSans-69" transform="translate(103.979492 -16.3125) scale(0.7)"/>
      <use xlink:href="#DejaVuSans-72" transform="translate(123.427734 -16.3125) scale(0.7)"/>
     </g>
    </g>
    <g id="line2d_39">
     <path d="M 834.019553 295.485425 
L 848.019553 295.485425 
L 862.019553 295.485425 
" style="fill: none; stroke: #781c6d; stroke-width: 1.5; stroke-linecap: square"/>
    </g>
    <g id="text_33">
     <!-- $T_{\text{W,avg}}$ -->
     <g transform="translate(873.219553 300.385425) scale(0.14 -0.14)">
      <use xlink:href="#DejaVuSans-Oblique-54" transform="translate(0 0.09375)"/>
      <use xlink:href="#DejaVuSans-57" transform="translate(61.083984 -16.3125) scale(0.7)"/>
      <use xlink:href="#DejaVuSans-2c" transform="translate(130.297852 -16.3125) scale(0.7)"/>
      <use xlink:href="#DejaVuSans-61" transform="translate(152.548828 -16.3125) scale(0.7)"/>
      <use xlink:href="#DejaVuSans-76" transform="translate(195.444336 -16.3125) scale(0.7)"/>
      <use xlink:href="#DejaVuSans-67" transform="translate(236.870117 -16.3125) scale(0.7)"/>
     </g>
    </g>
    <g id="line2d_40">
     <path d="M 834.019553 317.463237 
L 848.019553 317.463237 
L 862.019553 317.463237 
" style="fill: none; stroke: #bc3754; stroke-width: 1.5; stroke-linecap: square"/>
    </g>
    <g id="text_34">
     <!-- $T_{\text{BOG}}$ -->
     <g transform="translate(873.219553 322.363237) scale(0.14 -0.14)">
      <use xlink:href="#DejaVuSans-Oblique-54" transform="translate(0 0.09375)"/>
      <use xlink:href="#DejaVuSans-42" transform="translate(61.083984 -16.3125) scale(0.7)"/>
      <use xlink:href="#DejaVuSans-4f" transform="translate(109.106445 -16.3125) scale(0.7)"/>
      <use xlink:href="#DejaVuSans-47" transform="translate(164.204102 -16.3125) scale(0.7)"/>
     </g>
    </g>
    <g id="line2d_41">
     <path d="M 941.119553 274.93605 
L 955.119553 274.93605 
L 969.119553 274.93605 
" style="fill: none; stroke: #ed6925; stroke-width: 1.5; stroke-linecap: square"/>
    </g>
    <g id="text_35">
     <!-- $T_{\text{V,avg}}$ -->
     <g transform="translate(980.319553 279.83605) scale(0.14 -0.14)">
      <use xlink:href="#DejaVuSans-Oblique-54" transform="translate(0 0.09375)"/>
      <use xlink:href="#DejaVuSans-56" transform="translate(61.083984 -16.3125) scale(0.7)"/>
      <use xlink:href="#DejaVuSans-2c" transform="translate(108.969727 -16.3125) scale(0.7)"/>
      <use xlink:href="#DejaVuSans-61" transform="translate(131.220703 -16.3125) scale(0.7)"/>
      <use xlink:href="#DejaVuSans-76" transform="translate(174.116211 -16.3125) scale(0.7)"/>
      <use xlink:href="#DejaVuSans-67" transform="translate(215.541992 -16.3125) scale(0.7)"/>
     </g>
    </g>
    <g id="line2d_42">
     <path d="M 941.119553 296.913862 
L 955.119553 296.913862 
L 969.119553 296.913862 
" style="fill: none; stroke: #fbb61a; stroke-width: 1.5; stroke-linecap: square"/>
    </g>
    <g id="text_36">
     <!-- $T_{\text{W},\text{r}=0}$ -->
     <g transform="translate(980.319553 301.813862) scale(0.14 -0.14)">
      <use xlink:href="#DejaVuSans-Oblique-54" transform="translate(0 0.09375)"/>
      <use xlink:href="#DejaVuSans-57" transform="translate(61.083984 -16.3125) scale(0.7)"/>
      <use xlink:href="#DejaVuSans-2c" transform="translate(130.297852 -16.3125) scale(0.7)"/>
      <use xlink:href="#DejaVuSans-72" transform="translate(166.186523 -16.3125) scale(0.7)"/>
      <use xlink:href="#DejaVuSans-3d" transform="translate(208.603516 -16.3125) scale(0.7)"/>
      <use xlink:href="#DejaVuSans-30" transform="translate(280.893555 -16.3125) scale(0.7)"/>
     </g>
    </g>
   </g>
  </g>
 </g>
 <defs>
  <clipPath id="p965d9fa706">
   <rect x="58.471875" y="7.2" width="452.591689" height="372.04"/>
  </clipPath>
  <clipPath id="pf23ccc1f0d">
   <rect x="593.071875" y="7.2" width="452.591689" height="372.04"/>
  </clipPath>
 </defs>
</svg>
