<?xml version="1.0" encoding="utf-8" standalone="no"?>
<!DOCTYPE svg PUBLIC "-//W3C//DTD SVG 1.1//EN"
  "http://www.w3.org/Graphics/SVG/1.1/DTD/svg11.dtd">
<svg xmlns:xlink="http://www.w3.org/1999/xlink" width="1072.660625pt" height="424.457656pt" viewBox="0 0 1072.660625 424.457656" xmlns="http://www.w3.org/2000/svg" version="1.1">
 <metadata>
  <rdf:RDF xmlns:dc="http://purl.org/dc/elements/1.1/" xmlns:cc="http://creativecommons.org/ns#" xmlns:rdf="http://www.w3.org/1999/02/22-rdf-syntax-ns#">
   <cc:Work>
    <dc:type rdf:resource="http://purl.org/dc/dcmitype/StillImage"/>
    <dc:date>2025-09-23T10:04:25.795249</dc:date>
    <dc:format>image/svg+xml</dc:format>
    <dc:creator>
     <cc:Agent>
      <dc:title>Matplotlib v3.10.1, https://matplotlib.org/</dc:title>
     </cc:Agent>
    </dc:creator>
   </cc:Work>
  </rdf:RDF>
 </metadata>
 <defs>
  <style type="text/css">*{stroke-linejoin: round; stroke-linecap: butt}</style>
 </defs>
 <g id="figure_1">
  <g id="patch_1">
   <path d="M 0 424.457656 
L 1072.660625 424.457656 
L 1072.660625 0 
L 0 0 
z
" style="fill: #ffffff"/>
  </g>
  <g id="axes_1">
   <g id="patch_2">
    <path d="M 49.564375 379.158906 
L 515.879375 379.158906 
L 515.879375 12.518906 
L 49.564375 12.518906 
z
" style="fill: #ffffff"/>
   </g>
   <g id="matplotlib.axis_1">
    <g id="xtick_1">
     <g id="line2d_1">
      <defs>
       <path id="ma80f1ccfe9" d="M 0 0 
L 0 3.5 
" style="stroke: #000000; stroke-width: 0.8"/>
      </defs>
      <g>
       <use xlink:href="#ma80f1ccfe9" x="76.994669" y="379.158906" style="stroke: #000000; stroke-width: 0.8"/>
      </g>
     </g>
     <g id="text_1">
      <!-- 80 -->
      <g transform="translate(68.087169 396.796719) scale(0.14 -0.14)">
       <defs>
        <path id="DejaVuSans-38" d="M 2034 2216 
Q 1584 2216 1326 1975 
Q 1069 1734 1069 1313 
Q 1069 891 1326 650 
Q 1584 409 2034 409 
Q 2484 409 2743 651 
Q 3003 894 3003 1313 
Q 3003 1734 2745 1975 
Q 2488 2216 2034 2216 
z
M 1403 2484 
Q 997 2584 770 2862 
Q 544 3141 544 3541 
Q 544 4100 942 4425 
Q 1341 4750 2034 4750 
Q 2731 4750 3128 4425 
Q 3525 4100 3525 3541 
Q 3525 3141 3298 2862 
Q 3072 2584 2669 2484 
Q 3125 2378 3379 2068 
Q 3634 1759 3634 1313 
Q 3634 634 3220 271 
Q 2806 -91 2034 -91 
Q 1263 -91 848 271 
Q 434 634 434 1313 
Q 434 1759 690 2068 
Q 947 2378 1403 2484 
z
M 1172 3481 
Q 1172 3119 1398 2916 
Q 1625 2713 2034 2713 
Q 2441 2713 2670 2916 
Q 2900 3119 2900 3481 
Q 2900 3844 2670 4047 
Q 2441 4250 2034 4250 
Q 1625 4250 1398 4047 
Q 1172 3844 1172 3481 
z
" transform="scale(0.015625)"/>
        <path id="DejaVuSans-30" d="M 2034 4250 
Q 1547 4250 1301 3770 
Q 1056 3291 1056 2328 
Q 1056 1369 1301 889 
Q 1547 409 2034 409 
Q 2525 409 2770 889 
Q 3016 1369 3016 2328 
Q 3016 3291 2770 3770 
Q 2525 4250 2034 4250 
z
M 2034 4750 
Q 2819 4750 3233 4129 
Q 3647 3509 3647 2328 
Q 3647 1150 3233 529 
Q 2819 -91 2034 -91 
Q 1250 -91 836 529 
Q 422 1150 422 2328 
Q 422 3509 836 4129 
Q 1250 4750 2034 4750 
z
" transform="scale(0.015625)"/>
       </defs>
       <use xlink:href="#DejaVuSans-38"/>
       <use xlink:href="#DejaVuSans-30" transform="translate(63.623047 0)"/>
      </g>
     </g>
    </g>
    <g id="xtick_2">
     <g id="line2d_2">
      <g>
       <use xlink:href="#ma80f1ccfe9" x="131.855257" y="379.158906" style="stroke: #000000; stroke-width: 0.8"/>
      </g>
     </g>
     <g id="text_2">
      <!-- 100 -->
      <g transform="translate(118.494007 396.796719) scale(0.14 -0.14)">
       <defs>
        <path id="DejaVuSans-31" d="M 794 531 
L 1825 531 
L 1825 4091 
L 703 3866 
L 703 4441 
L 1819 4666 
L 2450 4666 
L 2450 531 
L 3481 531 
L 3481 0 
L 794 0 
L 794 531 
z
" transform="scale(0.015625)"/>
       </defs>
       <use xlink:href="#DejaVuSans-31"/>
       <use xlink:href="#DejaVuSans-30" transform="translate(63.623047 0)"/>
       <use xlink:href="#DejaVuSans-30" transform="translate(127.246094 0)"/>
      </g>
     </g>
    </g>
    <g id="xtick_3">
     <g id="line2d_3">
      <g>
       <use xlink:href="#ma80f1ccfe9" x="186.715846" y="379.158906" style="stroke: #000000; stroke-width: 0.8"/>
      </g>
     </g>
     <g id="text_3">
      <!-- 120 -->
      <g transform="translate(173.354596 396.796719) scale(0.14 -0.14)">
       <defs>
        <path id="DejaVuSans-32" d="M 1228 531 
L 3431 531 
L 3431 0 
L 469 0 
L 469 531 
Q 828 903 1448 1529 
Q 2069 2156 2228 2338 
Q 2531 2678 2651 2914 
Q 2772 3150 2772 3378 
Q 2772 3750 2511 3984 
Q 2250 4219 1831 4219 
Q 1534 4219 1204 4116 
Q 875 4013 500 3803 
L 500 4441 
Q 881 4594 1212 4672 
Q 1544 4750 1819 4750 
Q 2544 4750 2975 4387 
Q 3406 4025 3406 3419 
Q 3406 3131 3298 2873 
Q 3191 2616 2906 2266 
Q 2828 2175 2409 1742 
Q 1991 1309 1228 531 
z
" transform="scale(0.015625)"/>
       </defs>
       <use xlink:href="#DejaVuSans-31"/>
       <use xlink:href="#DejaVuSans-32" transform="translate(63.623047 0)"/>
       <use xlink:href="#DejaVuSans-30" transform="translate(127.246094 0)"/>
      </g>
     </g>
    </g>
    <g id="xtick_4">
     <g id="line2d_4">
      <g>
       <use xlink:href="#ma80f1ccfe9" x="241.576434" y="379.158906" style="stroke: #000000; stroke-width: 0.8"/>
      </g>
     </g>
     <g id="text_4">
      <!-- 140 -->
      <g transform="translate(228.215184 396.796719) scale(0.14 -0.14)">
       <defs>
        <path id="DejaVuSans-34" d="M 2419 4116 
L 825 1625 
L 2419 1625 
L 2419 4116 
z
M 2253 4666 
L 3047 4666 
L 3047 1625 
L 3713 1625 
L 3713 1100 
L 3047 1100 
L 3047 0 
L 2419 0 
L 2419 1100 
L 313 1100 
L 313 1709 
L 2253 4666 
z
" transform="scale(0.015625)"/>
       </defs>
       <use xlink:href="#DejaVuSans-31"/>
       <use xlink:href="#DejaVuSans-34" transform="translate(63.623047 0)"/>
       <use xlink:href="#DejaVuSans-30" transform="translate(127.246094 0)"/>
      </g>
     </g>
    </g>
    <g id="xtick_5">
     <g id="line2d_5">
      <g>
       <use xlink:href="#ma80f1ccfe9" x="296.437022" y="379.158906" style="stroke: #000000; stroke-width: 0.8"/>
      </g>
     </g>
     <g id="text_5">
      <!-- 160 -->
      <g transform="translate(283.075772 396.796719) scale(0.14 -0.14)">
       <defs>
        <path id="DejaVuSans-36" d="M 2113 2584 
Q 1688 2584 1439 2293 
Q 1191 2003 1191 1497 
Q 1191 994 1439 701 
Q 1688 409 2113 409 
Q 2538 409 2786 701 
Q 3034 994 3034 1497 
Q 3034 2003 2786 2293 
Q 2538 2584 2113 2584 
z
M 3366 4563 
L 3366 3988 
Q 3128 4100 2886 4159 
Q 2644 4219 2406 4219 
Q 1781 4219 1451 3797 
Q 1122 3375 1075 2522 
Q 1259 2794 1537 2939 
Q 1816 3084 2150 3084 
Q 2853 3084 3261 2657 
Q 3669 2231 3669 1497 
Q 3669 778 3244 343 
Q 2819 -91 2113 -91 
Q 1303 -91 875 529 
Q 447 1150 447 2328 
Q 447 3434 972 4092 
Q 1497 4750 2381 4750 
Q 2619 4750 2861 4703 
Q 3103 4656 3366 4563 
z
" transform="scale(0.015625)"/>
       </defs>
       <use xlink:href="#DejaVuSans-31"/>
       <use xlink:href="#DejaVuSans-36" transform="translate(63.623047 0)"/>
       <use xlink:href="#DejaVuSans-30" transform="translate(127.246094 0)"/>
      </g>
     </g>
    </g>
    <g id="xtick_6">
     <g id="line2d_6">
      <g>
       <use xlink:href="#ma80f1ccfe9" x="351.29761" y="379.158906" style="stroke: #000000; stroke-width: 0.8"/>
      </g>
     </g>
     <g id="text_6">
      <!-- 180 -->
      <g transform="translate(337.93636 396.796719) scale(0.14 -0.14)">
       <use xlink:href="#DejaVuSans-31"/>
       <use xlink:href="#DejaVuSans-38" transform="translate(63.623047 0)"/>
       <use xlink:href="#DejaVuSans-30" transform="translate(127.246094 0)"/>
      </g>
     </g>
    </g>
    <g id="xtick_7">
     <g id="line2d_7">
      <g>
       <use xlink:href="#ma80f1ccfe9" x="406.158199" y="379.158906" style="stroke: #000000; stroke-width: 0.8"/>
      </g>
     </g>
     <g id="text_7">
      <!-- 200 -->
      <g transform="translate(392.796949 396.796719) scale(0.14 -0.14)">
       <use xlink:href="#DejaVuSans-32"/>
       <use xlink:href="#DejaVuSans-30" transform="translate(63.623047 0)"/>
       <use xlink:href="#DejaVuSans-30" transform="translate(127.246094 0)"/>
      </g>
     </g>
    </g>
    <g id="xtick_8">
     <g id="line2d_8">
      <g>
       <use xlink:href="#ma80f1ccfe9" x="461.018787" y="379.158906" style="stroke: #000000; stroke-width: 0.8"/>
      </g>
     </g>
     <g id="text_8">
      <!-- 220 -->
      <g transform="translate(447.657537 396.796719) scale(0.14 -0.14)">
       <use xlink:href="#DejaVuSans-32"/>
       <use xlink:href="#DejaVuSans-32" transform="translate(63.623047 0)"/>
       <use xlink:href="#DejaVuSans-30" transform="translate(127.246094 0)"/>
      </g>
     </g>
    </g>
    <g id="xtick_9">
     <g id="line2d_9">
      <g>
       <use xlink:href="#ma80f1ccfe9" x="515.879375" y="379.158906" style="stroke: #000000; stroke-width: 0.8"/>
      </g>
     </g>
     <g id="text_9">
      <!-- 240 -->
      <g transform="translate(502.518125 396.796719) scale(0.14 -0.14)">
       <use xlink:href="#DejaVuSans-32"/>
       <use xlink:href="#DejaVuSans-34" transform="translate(63.623047 0)"/>
       <use xlink:href="#DejaVuSans-30" transform="translate(127.246094 0)"/>
      </g>
     </g>
    </g>
    <g id="text_10">
     <!-- Time / h -->
     <g transform="translate(254.351094 414.346094) scale(0.14 -0.14)">
      <defs>
       <path id="DejaVuSans-54" d="M -19 4666 
L 3928 4666 
L 3928 4134 
L 2272 4134 
L 2272 0 
L 1638 0 
L 1638 4134 
L -19 4134 
L -19 4666 
z
" transform="scale(0.015625)"/>
       <path id="DejaVuSans-69" d="M 603 3500 
L 1178 3500 
L 1178 0 
L 603 0 
L 603 3500 
z
M 603 4863 
L 1178 4863 
L 1178 4134 
L 603 4134 
L 603 4863 
z
" transform="scale(0.015625)"/>
       <path id="DejaVuSans-6d" d="M 3328 2828 
Q 3544 3216 3844 3400 
Q 4144 3584 4550 3584 
Q 5097 3584 5394 3201 
Q 5691 2819 5691 2113 
L 5691 0 
L 5113 0 
L 5113 2094 
Q 5113 2597 4934 2840 
Q 4756 3084 4391 3084 
Q 3944 3084 3684 2787 
Q 3425 2491 3425 1978 
L 3425 0 
L 2847 0 
L 2847 2094 
Q 2847 2600 2669 2842 
Q 2491 3084 2119 3084 
Q 1678 3084 1418 2786 
Q 1159 2488 1159 1978 
L 1159 0 
L 581 0 
L 581 3500 
L 1159 3500 
L 1159 2956 
Q 1356 3278 1631 3431 
Q 1906 3584 2284 3584 
Q 2666 3584 2933 3390 
Q 3200 3197 3328 2828 
z
" transform="scale(0.015625)"/>
       <path id="DejaVuSans-65" d="M 3597 1894 
L 3597 1613 
L 953 1613 
Q 991 1019 1311 708 
Q 1631 397 2203 397 
Q 2534 397 2845 478 
Q 3156 559 3463 722 
L 3463 178 
Q 3153 47 2828 -22 
Q 2503 -91 2169 -91 
Q 1331 -91 842 396 
Q 353 884 353 1716 
Q 353 2575 817 3079 
Q 1281 3584 2069 3584 
Q 2775 3584 3186 3129 
Q 3597 2675 3597 1894 
z
M 3022 2063 
Q 3016 2534 2758 2815 
Q 2500 3097 2075 3097 
Q 1594 3097 1305 2825 
Q 1016 2553 972 2059 
L 3022 2063 
z
" transform="scale(0.015625)"/>
       <path id="DejaVuSans-20" transform="scale(0.015625)"/>
       <path id="DejaVuSans-2f" d="M 1625 4666 
L 2156 4666 
L 531 -594 
L 0 -594 
L 1625 4666 
z
" transform="scale(0.015625)"/>
       <path id="DejaVuSans-68" d="M 3513 2113 
L 3513 0 
L 2938 0 
L 2938 2094 
Q 2938 2591 2744 2837 
Q 2550 3084 2163 3084 
Q 1697 3084 1428 2787 
Q 1159 2491 1159 1978 
L 1159 0 
L 581 0 
L 581 4863 
L 1159 4863 
L 1159 2956 
Q 1366 3272 1645 3428 
Q 1925 3584 2291 3584 
Q 2894 3584 3203 3211 
Q 3513 2838 3513 2113 
z
" transform="scale(0.015625)"/>
      </defs>
      <use xlink:href="#DejaVuSans-54"/>
      <use xlink:href="#DejaVuSans-69" transform="translate(57.958984 0)"/>
      <use xlink:href="#DejaVuSans-6d" transform="translate(85.742188 0)"/>
      <use xlink:href="#DejaVuSans-65" transform="translate(183.154297 0)"/>
      <use xlink:href="#DejaVuSans-20" transform="translate(244.677734 0)"/>
      <use xlink:href="#DejaVuSans-2f" transform="translate(276.464844 0)"/>
      <use xlink:href="#DejaVuSans-20" transform="translate(310.15625 0)"/>
      <use xlink:href="#DejaVuSans-68" transform="translate(341.943359 0)"/>
     </g>
    </g>
   </g>
   <g id="matplotlib.axis_2">
    <g id="ytick_1">
     <g id="line2d_10">
      <defs>
       <path id="m91e55c3a31" d="M 0 0 
L -3.5 0 
" style="stroke: #000000; stroke-width: 0.8"/>
      </defs>
      <g>
       <use xlink:href="#m91e55c3a31" x="49.564375" y="379.158906" style="stroke: #000000; stroke-width: 0.8"/>
      </g>
     </g>
     <g id="text_11">
      <!-- 0 -->
      <g transform="translate(33.656875 384.477812) scale(0.14 -0.14)">
       <use xlink:href="#DejaVuSans-30"/>
      </g>
     </g>
    </g>
    <g id="ytick_2">
     <g id="line2d_11">
      <g>
       <use xlink:href="#m91e55c3a31" x="49.564375" y="305.830906" style="stroke: #000000; stroke-width: 0.8"/>
      </g>
     </g>
     <g id="text_12">
      <!-- 10 -->
      <g transform="translate(24.749375 311.149812) scale(0.14 -0.14)">
       <use xlink:href="#DejaVuSans-31"/>
       <use xlink:href="#DejaVuSans-30" transform="translate(63.623047 0)"/>
      </g>
     </g>
    </g>
    <g id="ytick_3">
     <g id="line2d_12">
      <g>
       <use xlink:href="#m91e55c3a31" x="49.564375" y="232.502906" style="stroke: #000000; stroke-width: 0.8"/>
      </g>
     </g>
     <g id="text_13">
      <!-- 20 -->
      <g transform="translate(24.749375 237.821812) scale(0.14 -0.14)">
       <use xlink:href="#DejaVuSans-32"/>
       <use xlink:href="#DejaVuSans-30" transform="translate(63.623047 0)"/>
      </g>
     </g>
    </g>
    <g id="ytick_4">
     <g id="line2d_13">
      <g>
       <use xlink:href="#m91e55c3a31" x="49.564375" y="159.174906" style="stroke: #000000; stroke-width: 0.8"/>
      </g>
     </g>
     <g id="text_14">
      <!-- 30 -->
      <g transform="translate(24.749375 164.493812) scale(0.14 -0.14)">
       <defs>
        <path id="DejaVuSans-33" d="M 2597 2516 
Q 3050 2419 3304 2112 
Q 3559 1806 3559 1356 
Q 3559 666 3084 287 
Q 2609 -91 1734 -91 
Q 1441 -91 1130 -33 
Q 819 25 488 141 
L 488 750 
Q 750 597 1062 519 
Q 1375 441 1716 441 
Q 2309 441 2620 675 
Q 2931 909 2931 1356 
Q 2931 1769 2642 2001 
Q 2353 2234 1838 2234 
L 1294 2234 
L 1294 2753 
L 1863 2753 
Q 2328 2753 2575 2939 
Q 2822 3125 2822 3475 
Q 2822 3834 2567 4026 
Q 2313 4219 1838 4219 
Q 1578 4219 1281 4162 
Q 984 4106 628 3988 
L 628 4550 
Q 988 4650 1302 4700 
Q 1616 4750 1894 4750 
Q 2613 4750 3031 4423 
Q 3450 4097 3450 3541 
Q 3450 3153 3228 2886 
Q 3006 2619 2597 2516 
z
" transform="scale(0.015625)"/>
       </defs>
       <use xlink:href="#DejaVuSans-33"/>
       <use xlink:href="#DejaVuSans-30" transform="translate(63.623047 0)"/>
      </g>
     </g>
    </g>
    <g id="ytick_5">
     <g id="line2d_14">
      <g>
       <use xlink:href="#m91e55c3a31" x="49.564375" y="85.846906" style="stroke: #000000; stroke-width: 0.8"/>
      </g>
     </g>
     <g id="text_15">
      <!-- 40 -->
      <g transform="translate(24.749375 91.165812) scale(0.14 -0.14)">
       <use xlink:href="#DejaVuSans-34"/>
       <use xlink:href="#DejaVuSans-30" transform="translate(63.623047 0)"/>
      </g>
     </g>
    </g>
    <g id="ytick_6">
     <g id="line2d_15">
      <g>
       <use xlink:href="#m91e55c3a31" x="49.564375" y="12.518906" style="stroke: #000000; stroke-width: 0.8"/>
      </g>
     </g>
     <g id="text_16">
      <!-- 50 -->
      <g transform="translate(24.749375 17.837812) scale(0.14 -0.14)">
       <defs>
        <path id="DejaVuSans-35" d="M 691 4666 
L 3169 4666 
L 3169 4134 
L 1269 4134 
L 1269 2991 
Q 1406 3038 1543 3061 
Q 1681 3084 1819 3084 
Q 2600 3084 3056 2656 
Q 3513 2228 3513 1497 
Q 3513 744 3044 326 
Q 2575 -91 1722 -91 
Q 1428 -91 1123 -41 
Q 819 9 494 109 
L 494 744 
Q 775 591 1075 516 
Q 1375 441 1709 441 
Q 2250 441 2565 725 
Q 2881 1009 2881 1497 
Q 2881 1984 2565 2268 
Q 2250 2553 1709 2553 
Q 1456 2553 1204 2497 
Q 953 2441 691 2322 
L 691 4666 
z
" transform="scale(0.015625)"/>
       </defs>
       <use xlink:href="#DejaVuSans-35"/>
       <use xlink:href="#DejaVuSans-30" transform="translate(63.623047 0)"/>
      </g>
     </g>
    </g>
    <g id="text_17">
     <!-- Heat transfer rate / kW -->
     <g transform="translate(17.837813 276.537969) rotate(-90) scale(0.14 -0.14)">
      <defs>
       <path id="DejaVuSans-48" d="M 628 4666 
L 1259 4666 
L 1259 2753 
L 3553 2753 
L 3553 4666 
L 4184 4666 
L 4184 0 
L 3553 0 
L 3553 2222 
L 1259 2222 
L 1259 0 
L 628 0 
L 628 4666 
z
" transform="scale(0.015625)"/>
       <path id="DejaVuSans-61" d="M 2194 1759 
Q 1497 1759 1228 1600 
Q 959 1441 959 1056 
Q 959 750 1161 570 
Q 1363 391 1709 391 
Q 2188 391 2477 730 
Q 2766 1069 2766 1631 
L 2766 1759 
L 2194 1759 
z
M 3341 1997 
L 3341 0 
L 2766 0 
L 2766 531 
Q 2569 213 2275 61 
Q 1981 -91 1556 -91 
Q 1019 -91 701 211 
Q 384 513 384 1019 
Q 384 1609 779 1909 
Q 1175 2209 1959 2209 
L 2766 2209 
L 2766 2266 
Q 2766 2663 2505 2880 
Q 2244 3097 1772 3097 
Q 1472 3097 1187 3025 
Q 903 2953 641 2809 
L 641 3341 
Q 956 3463 1253 3523 
Q 1550 3584 1831 3584 
Q 2591 3584 2966 3190 
Q 3341 2797 3341 1997 
z
" transform="scale(0.015625)"/>
       <path id="DejaVuSans-74" d="M 1172 4494 
L 1172 3500 
L 2356 3500 
L 2356 3053 
L 1172 3053 
L 1172 1153 
Q 1172 725 1289 603 
Q 1406 481 1766 481 
L 2356 481 
L 2356 0 
L 1766 0 
Q 1100 0 847 248 
Q 594 497 594 1153 
L 594 3053 
L 172 3053 
L 172 3500 
L 594 3500 
L 594 4494 
L 1172 4494 
z
" transform="scale(0.015625)"/>
       <path id="DejaVuSans-72" d="M 2631 2963 
Q 2534 3019 2420 3045 
Q 2306 3072 2169 3072 
Q 1681 3072 1420 2755 
Q 1159 2438 1159 1844 
L 1159 0 
L 581 0 
L 581 3500 
L 1159 3500 
L 1159 2956 
Q 1341 3275 1631 3429 
Q 1922 3584 2338 3584 
Q 2397 3584 2469 3576 
Q 2541 3569 2628 3553 
L 2631 2963 
z
" transform="scale(0.015625)"/>
       <path id="DejaVuSans-6e" d="M 3513 2113 
L 3513 0 
L 2938 0 
L 2938 2094 
Q 2938 2591 2744 2837 
Q 2550 3084 2163 3084 
Q 1697 3084 1428 2787 
Q 1159 2491 1159 1978 
L 1159 0 
L 581 0 
L 581 3500 
L 1159 3500 
L 1159 2956 
Q 1366 3272 1645 3428 
Q 1925 3584 2291 3584 
Q 2894 3584 3203 3211 
Q 3513 2838 3513 2113 
z
" transform="scale(0.015625)"/>
       <path id="DejaVuSans-73" d="M 2834 3397 
L 2834 2853 
Q 2591 2978 2328 3040 
Q 2066 3103 1784 3103 
Q 1356 3103 1142 2972 
Q 928 2841 928 2578 
Q 928 2378 1081 2264 
Q 1234 2150 1697 2047 
L 1894 2003 
Q 2506 1872 2764 1633 
Q 3022 1394 3022 966 
Q 3022 478 2636 193 
Q 2250 -91 1575 -91 
Q 1294 -91 989 -36 
Q 684 19 347 128 
L 347 722 
Q 666 556 975 473 
Q 1284 391 1588 391 
Q 1994 391 2212 530 
Q 2431 669 2431 922 
Q 2431 1156 2273 1281 
Q 2116 1406 1581 1522 
L 1381 1569 
Q 847 1681 609 1914 
Q 372 2147 372 2553 
Q 372 3047 722 3315 
Q 1072 3584 1716 3584 
Q 2034 3584 2315 3537 
Q 2597 3491 2834 3397 
z
" transform="scale(0.015625)"/>
       <path id="DejaVuSans-66" d="M 2375 4863 
L 2375 4384 
L 1825 4384 
Q 1516 4384 1395 4259 
Q 1275 4134 1275 3809 
L 1275 3500 
L 2222 3500 
L 2222 3053 
L 1275 3053 
L 1275 0 
L 697 0 
L 697 3053 
L 147 3053 
L 147 3500 
L 697 3500 
L 697 3744 
Q 697 4328 969 4595 
Q 1241 4863 1831 4863 
L 2375 4863 
z
" transform="scale(0.015625)"/>
       <path id="DejaVuSans-6b" d="M 581 4863 
L 1159 4863 
L 1159 1991 
L 2875 3500 
L 3609 3500 
L 1753 1863 
L 3688 0 
L 2938 0 
L 1159 1709 
L 1159 0 
L 581 0 
L 581 4863 
z
" transform="scale(0.015625)"/>
       <path id="DejaVuSans-57" d="M 213 4666 
L 850 4666 
L 1831 722 
L 2809 4666 
L 3519 4666 
L 4500 722 
L 5478 4666 
L 6119 4666 
L 4947 0 
L 4153 0 
L 3169 4050 
L 2175 0 
L 1381 0 
L 213 4666 
z
" transform="scale(0.015625)"/>
      </defs>
      <use xlink:href="#DejaVuSans-48"/>
      <use xlink:href="#DejaVuSans-65" transform="translate(75.195312 0)"/>
      <use xlink:href="#DejaVuSans-61" transform="translate(136.71875 0)"/>
      <use xlink:href="#DejaVuSans-74" transform="translate(197.998047 0)"/>
      <use xlink:href="#DejaVuSans-20" transform="translate(237.207031 0)"/>
      <use xlink:href="#DejaVuSans-74" transform="translate(268.994141 0)"/>
      <use xlink:href="#DejaVuSans-72" transform="translate(308.203125 0)"/>
      <use xlink:href="#DejaVuSans-61" transform="translate(349.316406 0)"/>
      <use xlink:href="#DejaVuSans-6e" transform="translate(410.595703 0)"/>
      <use xlink:href="#DejaVuSans-73" transform="translate(473.974609 0)"/>
      <use xlink:href="#DejaVuSans-66" transform="translate(526.074219 0)"/>
      <use xlink:href="#DejaVuSans-65" transform="translate(561.279297 0)"/>
      <use xlink:href="#DejaVuSans-72" transform="translate(622.802734 0)"/>
      <use xlink:href="#DejaVuSans-20" transform="translate(663.916016 0)"/>
      <use xlink:href="#DejaVuSans-72" transform="translate(695.703125 0)"/>
      <use xlink:href="#DejaVuSans-61" transform="translate(736.816406 0)"/>
      <use xlink:href="#DejaVuSans-74" transform="translate(798.095703 0)"/>
      <use xlink:href="#DejaVuSans-65" transform="translate(837.304688 0)"/>
      <use xlink:href="#DejaVuSans-20" transform="translate(898.828125 0)"/>
      <use xlink:href="#DejaVuSans-2f" transform="translate(930.615234 0)"/>
      <use xlink:href="#DejaVuSans-20" transform="translate(964.306641 0)"/>
      <use xlink:href="#DejaVuSans-6b" transform="translate(996.09375 0)"/>
      <use xlink:href="#DejaVuSans-57" transform="translate(1054.003906 0)"/>
     </g>
    </g>
   </g>
   <g id="line2d_16">
    <path d="M 49.564375 169.627813 
L 52.307404 168.440632 
L 55.050434 166.713758 
L 57.793463 164.471388 
L 60.536493 161.934239 
L 66.022551 156.563696 
L 68.765581 154.130673 
L 71.50861 152.080422 
L 74.25164 150.5464 
L 76.994669 149.653265 
L 79.737699 149.442081 
L 82.480728 149.926046 
L 85.223757 151.10736 
L 87.966787 152.841567 
L 90.709816 155.097869 
L 93.452846 157.636485 
L 98.938904 162.999695 
L 101.681934 165.438584 
L 104.424963 167.491035 
L 107.167993 169.034589 
L 109.911022 169.924791 
L 112.654051 170.154308 
L 115.397081 169.650544 
L 118.14011 168.485362 
L 120.88314 166.730623 
L 123.626169 164.483853 
L 126.369199 161.948904 
L 131.855257 156.604027 
L 134.598287 154.147539 
L 137.341316 152.087755 
L 140.084346 150.549334 
L 142.827375 149.661332 
L 145.570404 149.431815 
L 148.313434 149.952444 
L 151.056463 151.102227 
L 153.799493 152.873098 
L 156.542522 155.094936 
L 159.285551 157.638685 
L 164.77161 163.004828 
L 167.51464 165.443717 
L 170.257669 167.507167 
L 173.000699 169.037522 
L 175.743728 169.930657 
L 178.486757 170.154308 
L 181.229787 169.638812 
L 183.972816 168.495628 
L 186.715846 166.724024 
L 189.458875 164.511718 
L 194.944934 159.246768 
L 197.687963 156.581295 
L 200.430993 154.150472 
L 203.174022 152.081889 
L 205.917051 150.566932 
L 208.660081 149.656199 
L 211.40311 149.44648 
L 214.14614 149.944378 
L 216.889169 151.095627 
L 219.632199 152.868698 
L 222.375228 155.09347 
L 227.861287 160.345221 
L 230.604316 163.013627 
L 233.347346 165.439317 
L 236.090375 167.499101 
L 238.833404 169.01699 
L 241.576434 169.93799 
L 244.319463 170.133043 
L 247.062493 169.66301 
L 249.805522 168.482429 
L 252.548551 166.737956 
L 255.291581 164.499986 
L 260.77764 159.251167 
L 263.520669 156.562963 
L 266.263699 154.149738 
L 269.006728 152.092155 
L 271.749757 150.574265 
L 274.492787 149.655465 
L 277.235816 149.445747 
L 279.978846 149.925312 
L 282.721875 151.10296 
L 285.464904 152.8445 
L 288.207934 155.104469 
L 290.950963 157.636485 
L 296.437022 163.006294 
L 299.180051 165.453983 
L 301.923081 167.5079 
L 304.66611 169.026523 
L 307.40914 169.939457 
L 310.152169 170.150641 
L 312.895199 169.657144 
L 315.638228 168.493428 
L 318.381257 166.737223 
L 321.124287 164.49192 
L 323.867316 161.957704 
L 329.353375 156.601093 
L 332.096404 154.143872 
L 334.839434 152.103887 
L 337.582463 150.560333 
L 340.325493 149.653265 
L 343.068522 149.442814 
L 345.811551 149.945844 
L 348.554581 151.104427 
L 351.29761 152.876764 
L 354.04064 155.101536 
L 356.783669 157.648951 
L 362.269728 162.996028 
L 365.012757 165.458383 
L 367.755787 167.5057 
L 370.498816 169.057321 
L 373.241846 169.94239 
L 375.984875 170.151375 
L 378.727904 169.649078 
L 381.470934 168.495628 
L 384.213963 166.720357 
L 386.956993 164.510985 
L 392.443051 159.254834 
L 395.186081 156.591561 
L 397.92911 154.138006 
L 400.67214 152.092155 
L 403.415169 150.5596 
L 406.158199 149.661332 
L 408.901228 149.451613 
L 411.644257 149.950244 
L 414.387287 151.103693 
L 417.130316 152.879697 
L 419.873346 155.087604 
L 425.359404 160.347421 
L 428.102434 163.024626 
L 430.845463 165.45325 
L 433.588493 167.507167 
L 436.331522 169.036789 
L 439.074551 169.946789 
L 441.817581 170.149175 
L 444.56061 169.66521 
L 447.30364 168.493428 
L 450.046669 166.72989 
L 452.789699 164.506585 
L 458.275757 159.257767 
L 461.018787 156.566629 
L 463.761816 154.163671 
L 466.504846 152.090688 
L 469.247875 150.565466 
L 471.990904 149.651066 
L 474.733934 149.441348 
L 477.476963 149.928979 
L 480.219993 151.111759 
L 482.963022 152.859166 
L 485.706051 155.111802 
L 488.449081 157.651884 
L 493.93514 163.017293 
L 496.678169 165.44445 
L 499.421199 167.517433 
L 502.164228 169.017724 
L 504.907257 169.951189 
L 507.650287 170.138909 
L 510.393316 169.674743 
L 513.136346 168.490495 
L 515.879375 166.72989 
L 518.622404 164.502185 
L 524.108463 159.243101 
L 526.851493 156.595227 
L 529.594522 154.139472 
L 532.337551 152.102421 
L 535.080581 150.561799 
L 537.82361 149.660598 
L 540.56664 149.454547 
L 543.309669 149.931912 
L 546.052699 151.116892 
L 548.795728 152.871631 
L 551.538757 155.124268 
L 554.281787 157.660683 
L 559.767846 163.009227 
L 562.510875 165.469382 
L 565.253904 167.502034 
L 567.996934 169.059521 
L 570.739963 169.94459 
L 573.482993 170.167507 
L 576.226022 169.66301 
L 578.969051 168.487562 
L 581.712081 166.73209 
L 584.45511 164.504385 
L 589.941169 159.257034 
L 592.684199 156.595227 
L 595.427228 154.143872 
L 595.427228 154.143872 
" clip-path="url(#p5fc3b257eb)" style="fill: none; stroke: #000004; stroke-width: 1.5; stroke-linecap: square"/>
   </g>
   <g id="line2d_17">
    <path d="M 49.564375 240.970824 
L 52.307404 243.445644 
L 55.050434 245.652816 
L 57.793463 247.346693 
L 60.536493 248.479611 
L 63.279522 248.932045 
L 66.022551 248.687129 
L 68.765581 247.782262 
L 71.50861 246.260706 
L 74.25164 244.219254 
L 76.994669 241.816296 
L 85.223757 234.05966 
L 87.966787 231.861286 
L 90.709816 230.182808 
L 93.452846 229.052091 
L 96.195875 228.617256 
L 98.938904 228.837973 
L 101.681934 229.74944 
L 104.424963 231.274662 
L 107.167993 233.327113 
L 109.911022 235.725672 
L 118.14011 243.499906 
L 120.88314 245.677748 
L 123.626169 247.366492 
L 126.369199 248.502343 
L 129.112228 248.95331 
L 131.855257 248.735526 
L 134.598287 247.80646 
L 137.341316 246.275371 
L 140.084346 244.228787 
L 142.827375 241.830961 
L 151.056463 234.060393 
L 153.799493 231.89795 
L 156.542522 230.185008 
L 159.285551 229.05869 
L 162.028581 228.60699 
L 164.77161 228.847505 
L 167.51464 229.758972 
L 170.257669 231.294461 
L 173.000699 233.333712 
L 175.743728 235.735938 
L 183.972816 243.513839 
L 186.715846 245.675548 
L 189.458875 247.399489 
L 192.201904 248.503076 
L 194.944934 248.959176 
L 197.687963 248.717194 
L 200.430993 247.814526 
L 203.174022 246.273905 
L 205.917051 244.250785 
L 208.660081 241.830961 
L 216.889169 234.056727 
L 219.632199 231.89795 
L 222.375228 230.187208 
L 225.118257 229.088021 
L 227.861287 228.615056 
L 230.604316 228.859971 
L 233.347346 229.757506 
L 236.090375 231.289328 
L 238.833404 233.316114 
L 241.576434 235.746937 
L 249.805522 243.504306 
L 252.548551 245.693147 
L 255.291581 247.39069 
L 258.03461 248.500143 
L 260.77764 248.967242 
L 263.520669 248.703261 
L 266.263699 247.817459 
L 269.006728 246.287837 
L 271.749757 244.262518 
L 274.492787 241.833894 
L 282.721875 234.068459 
L 285.464904 231.876685 
L 288.207934 230.20114 
L 290.950963 229.06309 
L 293.693993 228.632654 
L 296.437022 228.855572 
L 299.180051 229.775105 
L 301.923081 231.301794 
L 304.66611 233.327846 
L 307.40914 235.750603 
L 315.638228 243.518238 
L 318.381257 245.695347 
L 321.124287 247.387024 
L 323.867316 248.522874 
L 326.610346 248.954776 
L 329.353375 248.745058 
L 332.096404 247.815259 
L 334.839434 246.303969 
L 337.582463 244.251518 
L 340.325493 241.834628 
L 348.554581 234.072859 
L 351.29761 231.911883 
L 354.04064 230.20114 
L 356.783669 229.078489 
L 359.526699 228.630455 
L 362.269728 228.847505 
L 365.012757 229.781704 
L 367.755787 231.301794 
L 370.498816 233.36231 
L 373.241846 235.75647 
L 381.470934 243.523371 
L 384.213963 245.682148 
L 386.956993 247.409022 
L 389.700022 248.514808 
L 392.443051 248.978241 
L 395.186081 248.739192 
L 397.92911 247.813793 
L 400.67214 246.295903 
L 403.415169 244.254452 
L 406.158199 241.847093 
L 414.387287 234.075792 
L 417.130316 231.918482 
L 419.873346 230.190141 
L 422.616375 229.09902 
L 425.359404 228.625322 
L 428.102434 228.879036 
L 430.845463 229.780238 
L 433.588493 231.306193 
L 436.331522 233.343978 
L 439.074551 235.763802 
L 447.30364 243.524838 
L 450.046669 245.695347 
L 452.789699 247.407556 
L 455.532728 248.500876 
L 458.275757 248.984841 
L 461.018787 248.71866 
L 463.761816 247.843857 
L 466.504846 246.298836 
L 469.247875 244.264717 
L 471.990904 241.841227 
L 480.219993 234.087524 
L 482.963022 231.901617 
L 485.706051 230.218006 
L 488.449081 229.088021 
L 491.19211 228.64072 
L 493.93514 228.874637 
L 496.678169 229.773638 
L 499.421199 231.318659 
L 502.164228 233.327846 
L 504.907257 235.771135 
L 513.136346 243.524838 
L 515.879375 245.69828 
L 518.622404 247.407556 
L 521.365434 248.519941 
L 524.108463 248.973842 
L 526.851493 248.750924 
L 529.594522 247.823325 
L 532.337551 246.314235 
L 535.080581 244.264717 
L 537.82361 241.853693 
L 546.052699 234.096324 
L 548.795728 231.917016 
L 551.538757 230.233405 
L 554.281787 229.09902 
L 557.024816 228.637787 
L 559.767846 228.868771 
L 562.510875 229.801503 
L 565.253904 231.306193 
L 567.996934 233.371843 
L 570.739963 235.766736 
L 578.969051 243.524838 
L 581.712081 245.703413 
L 584.45511 247.412688 
L 587.19814 248.528741 
L 589.941169 248.992174 
L 592.684199 248.754591 
L 595.427228 247.831391 
L 595.427228 247.831391 
" clip-path="url(#p5fc3b257eb)" style="fill: none; stroke: #fca50a; stroke-width: 1.5; stroke-linecap: square"/>
   </g>
   <g id="line2d_18">
    <path d="M 49.564375 313.432087 
L 52.307404 310.024901 
L 57.793463 302.712266 
L 60.536493 299.304714 
L 63.279522 296.378927 
L 66.022551 294.134357 
L 68.765581 292.722793 
L 71.50861 292.241761 
L 74.25164 292.722793 
L 76.994669 294.134357 
L 79.737699 296.378927 
L 82.480728 299.304714 
L 85.223757 302.712266 
L 90.709816 310.024901 
L 93.452846 313.432087 
L 96.195875 316.357874 
L 98.938904 318.602884 
L 101.681934 320.014228 
L 104.424963 320.495553 
L 107.167993 320.014228 
L 109.911022 318.602884 
L 112.654051 316.357874 
L 115.397081 313.432087 
L 118.14011 310.024901 
L 123.626169 302.712266 
L 126.369199 299.304714 
L 129.112228 296.378927 
L 131.855257 294.134357 
L 134.598287 292.722793 
L 137.341316 292.241761 
L 140.084346 292.722793 
L 142.827375 294.134357 
L 145.570404 296.378927 
L 148.313434 299.304714 
L 151.056463 302.712266 
L 156.542522 310.024901 
L 159.285551 313.432087 
L 162.028581 316.357874 
L 164.77161 318.602884 
L 167.51464 320.014228 
L 170.257669 320.495553 
L 173.000699 320.014228 
L 175.743728 318.602884 
L 178.486757 316.357874 
L 181.229787 313.432087 
L 183.972816 310.024901 
L 189.458875 302.712266 
L 192.201904 299.304714 
L 194.944934 296.378927 
L 197.687963 294.134357 
L 200.430993 292.722793 
L 203.174022 292.241761 
L 205.917051 292.722793 
L 208.660081 294.134357 
L 211.40311 296.378927 
L 214.14614 299.304714 
L 216.889169 302.712266 
L 222.375228 310.024901 
L 225.118257 313.432087 
L 227.861287 316.357874 
L 230.604316 318.602884 
L 233.347346 320.014228 
L 236.090375 320.495553 
L 238.833404 320.014228 
L 241.576434 318.602884 
L 244.319463 316.357874 
L 247.062493 313.432087 
L 249.805522 310.024901 
L 255.291581 302.712266 
L 258.03461 299.304714 
L 260.77764 296.378927 
L 263.520669 294.134357 
L 266.263699 292.722793 
L 269.006728 292.241761 
L 271.749757 292.722793 
L 274.492787 294.134357 
L 277.235816 296.378927 
L 279.978846 299.304714 
L 282.721875 302.712266 
L 288.207934 310.024901 
L 290.950963 313.432087 
L 293.693993 316.357874 
L 296.437022 318.602884 
L 299.180051 320.014228 
L 301.923081 320.495553 
L 304.66611 320.014228 
L 307.40914 318.602884 
L 310.152169 316.357874 
L 312.895199 313.432087 
L 315.638228 310.024901 
L 321.124287 302.712266 
L 323.867316 299.304714 
L 326.610346 296.378927 
L 329.353375 294.134357 
L 332.096404 292.722793 
L 334.839434 292.241761 
L 337.582463 292.722793 
L 340.325493 294.134357 
L 343.068522 296.378927 
L 345.811551 299.304714 
L 348.554581 302.712266 
L 354.04064 310.024901 
L 356.783669 313.432087 
L 359.526699 316.357874 
L 362.269728 318.602884 
L 365.012757 320.014228 
L 367.755787 320.495553 
L 370.498816 320.014228 
L 373.241846 318.602884 
L 375.984875 316.357874 
L 378.727904 313.432087 
L 381.470934 310.024901 
L 386.956993 302.712266 
L 389.700022 299.304714 
L 392.443051 296.378927 
L 395.186081 294.134357 
L 397.92911 292.722793 
L 400.67214 292.241761 
L 403.415169 292.722793 
L 406.158199 294.134357 
L 408.901228 296.378927 
L 411.644257 299.304714 
L 414.387287 302.712266 
L 419.873346 310.024901 
L 422.616375 313.432087 
L 425.359404 316.357874 
L 428.102434 318.602884 
L 430.845463 320.014228 
L 433.588493 320.495553 
L 436.331522 320.014228 
L 439.074551 318.602884 
L 441.817581 316.357874 
L 444.56061 313.432087 
L 447.30364 310.024901 
L 452.789699 302.712266 
L 455.532728 299.304714 
L 458.275757 296.378927 
L 461.018787 294.134357 
L 463.761816 292.722793 
L 466.504846 292.241761 
L 469.247875 292.722793 
L 471.990904 294.134357 
L 474.733934 296.378927 
L 477.476963 299.304714 
L 480.219993 302.712266 
L 485.706051 310.024901 
L 488.449081 313.432087 
L 491.19211 316.357874 
L 493.93514 318.602884 
L 496.678169 320.014228 
L 499.421199 320.495553 
L 502.164228 320.014228 
L 504.907257 318.602884 
L 507.650287 316.357874 
L 510.393316 313.432087 
L 513.136346 310.024901 
L 518.622404 302.712266 
L 521.365434 299.304714 
L 524.108463 296.378927 
L 526.851493 294.134357 
L 529.594522 292.722793 
L 532.337551 292.241761 
L 535.080581 292.722793 
L 537.82361 294.134357 
L 540.56664 296.378927 
L 543.309669 299.304714 
L 546.052699 302.712266 
L 551.538757 310.024901 
L 554.281787 313.432087 
L 557.024816 316.357874 
L 559.767846 318.602884 
L 562.510875 320.014228 
L 565.253904 320.495553 
L 567.996934 320.014228 
L 570.739963 318.602884 
L 573.482993 316.357874 
L 576.226022 313.432087 
L 578.969051 310.024901 
L 584.45511 302.712266 
L 587.19814 299.304714 
L 589.941169 296.378927 
L 592.684199 294.134357 
L 595.427228 292.722793 
L 595.427228 292.722793 
" clip-path="url(#p5fc3b257eb)" style="fill: none; stroke: #dd513a; stroke-width: 1.5; stroke-linecap: square"/>
   </g>
   <g id="line2d_19">
    <path d="M 49.564375 374.675075 
L 66.022551 373.308439 
L 71.50861 373.178509 
L 76.994669 373.317297 
L 82.480728 373.687618 
L 98.938904 375.054276 
L 104.424963 375.184045 
L 109.911022 375.044956 
L 115.397081 374.67421 
L 131.855257 373.306122 
L 137.341316 373.175957 
L 142.827375 373.314701 
L 148.313434 373.685147 
L 164.77161 375.052406 
L 170.257669 375.182189 
L 175.743728 375.042954 
L 181.229787 374.671929 
L 197.687963 373.302859 
L 203.174022 373.172584 
L 208.660081 373.311387 
L 214.14614 373.682045 
L 230.604316 375.050118 
L 236.090375 375.179975 
L 241.576434 375.040637 
L 247.062493 374.669363 
L 263.520669 373.299405 
L 269.006728 373.169043 
L 274.492787 373.307933 
L 279.978846 373.678819 
L 296.437022 375.04775 
L 301.923081 375.17768 
L 307.40914 375.038254 
L 312.895199 374.666745 
L 329.353375 373.295915 
L 334.839434 373.165464 
L 340.325493 373.304443 
L 345.811551 373.675563 
L 362.269728 375.045367 
L 367.755787 375.175377 
L 373.241846 375.035863 
L 378.727904 374.664113 
L 395.186081 373.29241 
L 400.67214 373.161886 
L 406.158199 373.300952 
L 411.644257 373.672307 
L 428.102434 375.042976 
L 433.588493 375.173067 
L 439.074551 375.033466 
L 444.56061 374.66148 
L 461.018787 373.288912 
L 466.504846 373.1583 
L 471.990904 373.297462 
L 477.476963 373.669052 
L 493.93514 375.040586 
L 499.421199 375.170758 
L 504.907257 375.031068 
L 510.393316 374.658848 
L 526.851493 373.285414 
L 532.337551 373.154722 
L 537.82361 373.293964 
L 543.309669 373.665796 
L 559.767846 375.038195 
L 565.253904 375.168455 
L 570.739963 375.02867 
L 576.226022 374.656215 
L 592.684199 373.281916 
L 595.427228 373.183268 
L 595.427228 373.183268 
" clip-path="url(#p5fc3b257eb)" style="fill: none; stroke: #932667; stroke-width: 1.5; stroke-linecap: square"/>
   </g>
   <g id="patch_3">
    <path d="M 49.564375 379.158906 
L 49.564375 12.518906 
" style="fill: none; stroke: #000000; stroke-width: 0.8; stroke-linejoin: miter; stroke-linecap: square"/>
   </g>
   <g id="patch_4">
    <path d="M 515.879375 379.158906 
L 515.879375 12.518906 
" style="fill: none; stroke: #000000; stroke-width: 0.8; stroke-linejoin: miter; stroke-linecap: square"/>
   </g>
   <g id="patch_5">
    <path d="M 49.564375 379.158906 
L 515.879375 379.158906 
" style="fill: none; stroke: #000000; stroke-width: 0.8; stroke-linejoin: miter; stroke-linecap: square"/>
   </g>
   <g id="patch_6">
    <path d="M 49.564375 12.518906 
L 515.879375 12.518906 
" style="fill: none; stroke: #000000; stroke-width: 0.8; stroke-linejoin: miter; stroke-linecap: square"/>
   </g>
   <g id="legend_1">
    <g id="patch_7">
     <path d="M 435.939375 121.438906 
L 506.079375 121.438906 
Q 508.879375 121.438906 508.879375 118.638906 
L 508.879375 22.318906 
Q 508.879375 19.518906 506.079375 19.518906 
L 435.939375 19.518906 
Q 433.139375 19.518906 433.139375 22.318906 
L 433.139375 118.638906 
Q 433.139375 121.438906 435.939375 121.438906 
z
" style="fill: #ffffff; stroke: #cccccc; stroke-linejoin: miter"/>
    </g>
    <g id="line2d_20">
     <path d="M 438.739375 34.807344 
L 452.739375 34.807344 
L 466.739375 34.807344 
" style="fill: none; stroke: #000004; stroke-width: 1.5; stroke-linecap: square"/>
    </g>
    <g id="text_18">
     <!-- $\dot{Q}_{\text{tot}}$ -->
     <g transform="translate(477.939375 39.707344) scale(0.14 -0.14)">
      <defs>
       <path id="DejaVuSans-307" d="M -1894 4863 
L -1319 4863 
L -1319 4134 
L -1894 4134 
L -1894 4863 
z
M -1600 3584 
L -1600 3584 
z
" transform="scale(0.015625)"/>
       <path id="DejaVuSans-Oblique-51" d="M 2309 -84 
Q 2275 -88 2237 -89 
Q 2200 -91 2125 -91 
Q 1250 -91 756 411 
Q 263 913 263 1797 
Q 263 2319 452 2844 
Q 641 3369 978 3788 
Q 1369 4269 1858 4509 
Q 2347 4750 2938 4750 
Q 3794 4750 4287 4245 
Q 4781 3741 4781 2869 
Q 4781 1928 4265 1147 
Q 3750 366 2919 44 
L 3553 -825 
L 2847 -825 
L 2309 -84 
z
M 2919 4238 
Q 2400 4238 2003 3986 
Q 1606 3734 1313 3219 
Q 1125 2891 1026 2522 
Q 928 2153 928 1778 
Q 928 1128 1239 775 
Q 1550 422 2119 422 
Q 2631 422 3032 676 
Q 3434 931 3719 1434 
Q 3909 1772 4009 2142 
Q 4109 2513 4109 2881 
Q 4109 3528 3796 3883 
Q 3484 4238 2919 4238 
z
" transform="scale(0.015625)"/>
       <path id="DejaVuSans-6f" d="M 1959 3097 
Q 1497 3097 1228 2736 
Q 959 2375 959 1747 
Q 959 1119 1226 758 
Q 1494 397 1959 397 
Q 2419 397 2687 759 
Q 2956 1122 2956 1747 
Q 2956 2369 2687 2733 
Q 2419 3097 1959 3097 
z
M 1959 3584 
Q 2709 3584 3137 3096 
Q 3566 2609 3566 1747 
Q 3566 888 3137 398 
Q 2709 -91 1959 -91 
Q 1206 -91 779 398 
Q 353 888 353 1747 
Q 353 2609 779 3096 
Q 1206 3584 1959 3584 
z
" transform="scale(0.015625)"/>
      </defs>
      <use xlink:href="#DejaVuSans-307" transform="translate(74.271484 31.015625)"/>
      <use xlink:href="#DejaVuSans-Oblique-51" transform="translate(0 0.296875)"/>
      <use xlink:href="#DejaVuSans-74" transform="translate(79.667969 -16.109375) scale(0.7)"/>
      <use xlink:href="#DejaVuSans-6f" transform="translate(107.114258 -16.109375) scale(0.7)"/>
      <use xlink:href="#DejaVuSans-74" transform="translate(149.941406 -16.109375) scale(0.7)"/>
     </g>
    </g>
    <g id="line2d_21">
     <path d="M 438.739375 59.167344 
L 452.739375 59.167344 
L 466.739375 59.167344 
" style="fill: none; stroke: #fca50a; stroke-width: 1.5; stroke-linecap: square"/>
    </g>
    <g id="text_19">
     <!-- $\dot{Q}_{\text{L}}$ -->
     <g transform="translate(477.939375 64.067344) scale(0.14 -0.14)">
      <defs>
       <path id="DejaVuSans-4c" d="M 628 4666 
L 1259 4666 
L 1259 531 
L 3531 531 
L 3531 0 
L 628 0 
L 628 4666 
z
" transform="scale(0.015625)"/>
      </defs>
      <use xlink:href="#DejaVuSans-307" transform="translate(74.271484 31.015625)"/>
      <use xlink:href="#DejaVuSans-Oblique-51" transform="translate(0 0.296875)"/>
      <use xlink:href="#DejaVuSans-4c" transform="translate(79.667969 -16.109375) scale(0.7)"/>
     </g>
    </g>
    <g id="line2d_22">
     <path d="M 438.739375 83.667344 
L 452.739375 83.667344 
L 466.739375 83.667344 
" style="fill: none; stroke: #dd513a; stroke-width: 1.5; stroke-linecap: square"/>
    </g>
    <g id="text_20">
     <!-- $\dot{Q}_{\text{b}}$ -->
     <g transform="translate(477.939375 88.567344) scale(0.14 -0.14)">
      <defs>
       <path id="DejaVuSans-62" d="M 3116 1747 
Q 3116 2381 2855 2742 
Q 2594 3103 2138 3103 
Q 1681 3103 1420 2742 
Q 1159 2381 1159 1747 
Q 1159 1113 1420 752 
Q 1681 391 2138 391 
Q 2594 391 2855 752 
Q 3116 1113 3116 1747 
z
M 1159 2969 
Q 1341 3281 1617 3432 
Q 1894 3584 2278 3584 
Q 2916 3584 3314 3078 
Q 3713 2572 3713 1747 
Q 3713 922 3314 415 
Q 2916 -91 2278 -91 
Q 1894 -91 1617 61 
Q 1341 213 1159 525 
L 1159 0 
L 581 0 
L 581 4863 
L 1159 4863 
L 1159 2969 
z
" transform="scale(0.015625)"/>
      </defs>
      <use xlink:href="#DejaVuSans-307" transform="translate(74.271484 31.015625)"/>
      <use xlink:href="#DejaVuSans-Oblique-51" transform="translate(0 0.296875)"/>
      <use xlink:href="#DejaVuSans-62" transform="translate(79.667969 -16.109375) scale(0.7)"/>
     </g>
    </g>
    <g id="line2d_23">
     <path d="M 438.739375 108.027344 
L 452.739375 108.027344 
L 466.739375 108.027344 
" style="fill: none; stroke: #932667; stroke-width: 1.5; stroke-linecap: square"/>
    </g>
    <g id="text_21">
     <!-- $\dot{Q}_{\text{Wi}}$ -->
     <g transform="translate(477.939375 112.927344) scale(0.14 -0.14)">
      <use xlink:href="#DejaVuSans-307" transform="translate(74.271484 31.015625)"/>
      <use xlink:href="#DejaVuSans-Oblique-51" transform="translate(0 0.296875)"/>
      <use xlink:href="#DejaVuSans-57" transform="translate(79.667969 -16.109375) scale(0.7)"/>
      <use xlink:href="#DejaVuSans-69" transform="translate(148.881836 -16.109375) scale(0.7)"/>
     </g>
    </g>
   </g>
  </g>
  <g id="axes_2">
   <g id="patch_8">
    <path d="M 585.784375 379.158906 
L 1052.099375 379.158906 
L 1052.099375 12.518906 
L 585.784375 12.518906 
z
" style="fill: #ffffff"/>
   </g>
   <g id="matplotlib.axis_3">
    <g id="xtick_10">
     <g id="line2d_24">
      <g>
       <use xlink:href="#ma80f1ccfe9" x="613.214669" y="379.158906" style="stroke: #000000; stroke-width: 0.8"/>
      </g>
     </g>
     <g id="text_22">
      <!-- 80 -->
      <g transform="translate(604.307169 396.796719) scale(0.14 -0.14)">
       <use xlink:href="#DejaVuSans-38"/>
       <use xlink:href="#DejaVuSans-30" transform="translate(63.623047 0)"/>
      </g>
     </g>
    </g>
    <g id="xtick_11">
     <g id="line2d_25">
      <g>
       <use xlink:href="#ma80f1ccfe9" x="668.075257" y="379.158906" style="stroke: #000000; stroke-width: 0.8"/>
      </g>
     </g>
     <g id="text_23">
      <!-- 100 -->
      <g transform="translate(654.714007 396.796719) scale(0.14 -0.14)">
       <use xlink:href="#DejaVuSans-31"/>
       <use xlink:href="#DejaVuSans-30" transform="translate(63.623047 0)"/>
       <use xlink:href="#DejaVuSans-30" transform="translate(127.246094 0)"/>
      </g>
     </g>
    </g>
    <g id="xtick_12">
     <g id="line2d_26">
      <g>
       <use xlink:href="#ma80f1ccfe9" x="722.935846" y="379.158906" style="stroke: #000000; stroke-width: 0.8"/>
      </g>
     </g>
     <g id="text_24">
      <!-- 120 -->
      <g transform="translate(709.574596 396.796719) scale(0.14 -0.14)">
       <use xlink:href="#DejaVuSans-31"/>
       <use xlink:href="#DejaVuSans-32" transform="translate(63.623047 0)"/>
       <use xlink:href="#DejaVuSans-30" transform="translate(127.246094 0)"/>
      </g>
     </g>
    </g>
    <g id="xtick_13">
     <g id="line2d_27">
      <g>
       <use xlink:href="#ma80f1ccfe9" x="777.796434" y="379.158906" style="stroke: #000000; stroke-width: 0.8"/>
      </g>
     </g>
     <g id="text_25">
      <!-- 140 -->
      <g transform="translate(764.435184 396.796719) scale(0.14 -0.14)">
       <use xlink:href="#DejaVuSans-31"/>
       <use xlink:href="#DejaVuSans-34" transform="translate(63.623047 0)"/>
       <use xlink:href="#DejaVuSans-30" transform="translate(127.246094 0)"/>
      </g>
     </g>
    </g>
    <g id="xtick_14">
     <g id="line2d_28">
      <g>
       <use xlink:href="#ma80f1ccfe9" x="832.657022" y="379.158906" style="stroke: #000000; stroke-width: 0.8"/>
      </g>
     </g>
     <g id="text_26">
      <!-- 160 -->
      <g transform="translate(819.295772 396.796719) scale(0.14 -0.14)">
       <use xlink:href="#DejaVuSans-31"/>
       <use xlink:href="#DejaVuSans-36" transform="translate(63.623047 0)"/>
       <use xlink:href="#DejaVuSans-30" transform="translate(127.246094 0)"/>
      </g>
     </g>
    </g>
    <g id="xtick_15">
     <g id="line2d_29">
      <g>
       <use xlink:href="#ma80f1ccfe9" x="887.51761" y="379.158906" style="stroke: #000000; stroke-width: 0.8"/>
      </g>
     </g>
     <g id="text_27">
      <!-- 180 -->
      <g transform="translate(874.15636 396.796719) scale(0.14 -0.14)">
       <use xlink:href="#DejaVuSans-31"/>
       <use xlink:href="#DejaVuSans-38" transform="translate(63.623047 0)"/>
       <use xlink:href="#DejaVuSans-30" transform="translate(127.246094 0)"/>
      </g>
     </g>
    </g>
    <g id="xtick_16">
     <g id="line2d_30">
      <g>
       <use xlink:href="#ma80f1ccfe9" x="942.378199" y="379.158906" style="stroke: #000000; stroke-width: 0.8"/>
      </g>
     </g>
     <g id="text_28">
      <!-- 200 -->
      <g transform="translate(929.016949 396.796719) scale(0.14 -0.14)">
       <use xlink:href="#DejaVuSans-32"/>
       <use xlink:href="#DejaVuSans-30" transform="translate(63.623047 0)"/>
       <use xlink:href="#DejaVuSans-30" transform="translate(127.246094 0)"/>
      </g>
     </g>
    </g>
    <g id="xtick_17">
     <g id="line2d_31">
      <g>
       <use xlink:href="#ma80f1ccfe9" x="997.238787" y="379.158906" style="stroke: #000000; stroke-width: 0.8"/>
      </g>
     </g>
     <g id="text_29">
      <!-- 220 -->
      <g transform="translate(983.877537 396.796719) scale(0.14 -0.14)">
       <use xlink:href="#DejaVuSans-32"/>
       <use xlink:href="#DejaVuSans-32" transform="translate(63.623047 0)"/>
       <use xlink:href="#DejaVuSans-30" transform="translate(127.246094 0)"/>
      </g>
     </g>
    </g>
    <g id="xtick_18">
     <g id="line2d_32">
      <g>
       <use xlink:href="#ma80f1ccfe9" x="1052.099375" y="379.158906" style="stroke: #000000; stroke-width: 0.8"/>
      </g>
     </g>
     <g id="text_30">
      <!-- 240 -->
      <g transform="translate(1038.738125 396.796719) scale(0.14 -0.14)">
       <use xlink:href="#DejaVuSans-32"/>
       <use xlink:href="#DejaVuSans-34" transform="translate(63.623047 0)"/>
       <use xlink:href="#DejaVuSans-30" transform="translate(127.246094 0)"/>
      </g>
     </g>
    </g>
    <g id="text_31">
     <!-- Time / h -->
     <g transform="translate(790.571094 414.346094) scale(0.14 -0.14)">
      <use xlink:href="#DejaVuSans-54"/>
      <use xlink:href="#DejaVuSans-69" transform="translate(57.958984 0)"/>
      <use xlink:href="#DejaVuSans-6d" transform="translate(85.742188 0)"/>
      <use xlink:href="#DejaVuSans-65" transform="translate(183.154297 0)"/>
      <use xlink:href="#DejaVuSans-20" transform="translate(244.677734 0)"/>
      <use xlink:href="#DejaVuSans-2f" transform="translate(276.464844 0)"/>
      <use xlink:href="#DejaVuSans-20" transform="translate(310.15625 0)"/>
      <use xlink:href="#DejaVuSans-68" transform="translate(341.943359 0)"/>
     </g>
    </g>
   </g>
   <g id="matplotlib.axis_4">
    <g id="ytick_7">
     <g id="line2d_33">
      <g>
       <use xlink:href="#m91e55c3a31" x="585.784375" y="379.158906" style="stroke: #000000; stroke-width: 0.8"/>
      </g>
     </g>
     <g id="text_32">
      <!-- 70 -->
      <g transform="translate(560.969375 384.477813) scale(0.14 -0.14)">
       <defs>
        <path id="DejaVuSans-37" d="M 525 4666 
L 3525 4666 
L 3525 4397 
L 1831 0 
L 1172 0 
L 2766 4134 
L 525 4134 
L 525 4666 
z
" transform="scale(0.015625)"/>
       </defs>
       <use xlink:href="#DejaVuSans-37"/>
       <use xlink:href="#DejaVuSans-30" transform="translate(63.623047 0)"/>
      </g>
     </g>
    </g>
    <g id="ytick_8">
     <g id="line2d_34">
      <g>
       <use xlink:href="#m91e55c3a31" x="585.784375" y="338.421128" style="stroke: #000000; stroke-width: 0.8"/>
      </g>
     </g>
     <g id="text_33">
      <!-- 72 -->
      <g transform="translate(560.969375 343.740035) scale(0.14 -0.14)">
       <use xlink:href="#DejaVuSans-37"/>
       <use xlink:href="#DejaVuSans-32" transform="translate(63.623047 0)"/>
      </g>
     </g>
    </g>
    <g id="ytick_9">
     <g id="line2d_35">
      <g>
       <use xlink:href="#m91e55c3a31" x="585.784375" y="297.683351" style="stroke: #000000; stroke-width: 0.8"/>
      </g>
     </g>
     <g id="text_34">
      <!-- 74 -->
      <g transform="translate(560.969375 303.002257) scale(0.14 -0.14)">
       <use xlink:href="#DejaVuSans-37"/>
       <use xlink:href="#DejaVuSans-34" transform="translate(63.623047 0)"/>
      </g>
     </g>
    </g>
    <g id="ytick_10">
     <g id="line2d_36">
      <g>
       <use xlink:href="#m91e55c3a31" x="585.784375" y="256.945573" style="stroke: #000000; stroke-width: 0.8"/>
      </g>
     </g>
     <g id="text_35">
      <!-- 76 -->
      <g transform="translate(560.969375 262.264479) scale(0.14 -0.14)">
       <use xlink:href="#DejaVuSans-37"/>
       <use xlink:href="#DejaVuSans-36" transform="translate(63.623047 0)"/>
      </g>
     </g>
    </g>
    <g id="ytick_11">
     <g id="line2d_37">
      <g>
       <use xlink:href="#m91e55c3a31" x="585.784375" y="216.207795" style="stroke: #000000; stroke-width: 0.8"/>
      </g>
     </g>
     <g id="text_36">
      <!-- 78 -->
      <g transform="translate(560.969375 221.526701) scale(0.14 -0.14)">
       <use xlink:href="#DejaVuSans-37"/>
       <use xlink:href="#DejaVuSans-38" transform="translate(63.623047 0)"/>
      </g>
     </g>
    </g>
    <g id="ytick_12">
     <g id="line2d_38">
      <g>
       <use xlink:href="#m91e55c3a31" x="585.784375" y="175.470017" style="stroke: #000000; stroke-width: 0.8"/>
      </g>
     </g>
     <g id="text_37">
      <!-- 80 -->
      <g transform="translate(560.969375 180.788924) scale(0.14 -0.14)">
       <use xlink:href="#DejaVuSans-38"/>
       <use xlink:href="#DejaVuSans-30" transform="translate(63.623047 0)"/>
      </g>
     </g>
    </g>
    <g id="ytick_13">
     <g id="line2d_39">
      <g>
       <use xlink:href="#m91e55c3a31" x="585.784375" y="134.73224" style="stroke: #000000; stroke-width: 0.8"/>
      </g>
     </g>
     <g id="text_38">
      <!-- 82 -->
      <g transform="translate(560.969375 140.051146) scale(0.14 -0.14)">
       <use xlink:href="#DejaVuSans-38"/>
       <use xlink:href="#DejaVuSans-32" transform="translate(63.623047 0)"/>
      </g>
     </g>
    </g>
    <g id="ytick_14">
     <g id="line2d_40">
      <g>
       <use xlink:href="#m91e55c3a31" x="585.784375" y="93.994462" style="stroke: #000000; stroke-width: 0.8"/>
      </g>
     </g>
     <g id="text_39">
      <!-- 84 -->
      <g transform="translate(560.969375 99.313368) scale(0.14 -0.14)">
       <use xlink:href="#DejaVuSans-38"/>
       <use xlink:href="#DejaVuSans-34" transform="translate(63.623047 0)"/>
      </g>
     </g>
    </g>
    <g id="ytick_15">
     <g id="line2d_41">
      <g>
       <use xlink:href="#m91e55c3a31" x="585.784375" y="53.256684" style="stroke: #000000; stroke-width: 0.8"/>
      </g>
     </g>
     <g id="text_40">
      <!-- 86 -->
      <g transform="translate(560.969375 58.57559) scale(0.14 -0.14)">
       <use xlink:href="#DejaVuSans-38"/>
       <use xlink:href="#DejaVuSans-36" transform="translate(63.623047 0)"/>
      </g>
     </g>
    </g>
    <g id="ytick_16">
     <g id="line2d_42">
      <g>
       <use xlink:href="#m91e55c3a31" x="585.784375" y="12.518906" style="stroke: #000000; stroke-width: 0.8"/>
      </g>
     </g>
     <g id="text_41">
      <!-- 88 -->
      <g transform="translate(560.969375 17.837813) scale(0.14 -0.14)">
       <use xlink:href="#DejaVuSans-38"/>
       <use xlink:href="#DejaVuSans-38" transform="translate(63.623047 0)"/>
      </g>
     </g>
    </g>
    <g id="text_42">
     <!-- Boil-off gas rate / $kg\ h^{-1}$ -->
     <g transform="translate(554.029375 281.588906) rotate(-90) scale(0.14 -0.14)">
      <defs>
       <path id="DejaVuSans-42" d="M 1259 2228 
L 1259 519 
L 2272 519 
Q 2781 519 3026 730 
Q 3272 941 3272 1375 
Q 3272 1813 3026 2020 
Q 2781 2228 2272 2228 
L 1259 2228 
z
M 1259 4147 
L 1259 2741 
L 2194 2741 
Q 2656 2741 2882 2914 
Q 3109 3088 3109 3444 
Q 3109 3797 2882 3972 
Q 2656 4147 2194 4147 
L 1259 4147 
z
M 628 4666 
L 2241 4666 
Q 2963 4666 3353 4366 
Q 3744 4066 3744 3513 
Q 3744 3084 3544 2831 
Q 3344 2578 2956 2516 
Q 3422 2416 3680 2098 
Q 3938 1781 3938 1306 
Q 3938 681 3513 340 
Q 3088 0 2303 0 
L 628 0 
L 628 4666 
z
" transform="scale(0.015625)"/>
       <path id="DejaVuSans-6c" d="M 603 4863 
L 1178 4863 
L 1178 0 
L 603 0 
L 603 4863 
z
" transform="scale(0.015625)"/>
       <path id="DejaVuSans-2d" d="M 313 2009 
L 1997 2009 
L 1997 1497 
L 313 1497 
L 313 2009 
z
" transform="scale(0.015625)"/>
       <path id="DejaVuSans-67" d="M 2906 1791 
Q 2906 2416 2648 2759 
Q 2391 3103 1925 3103 
Q 1463 3103 1205 2759 
Q 947 2416 947 1791 
Q 947 1169 1205 825 
Q 1463 481 1925 481 
Q 2391 481 2648 825 
Q 2906 1169 2906 1791 
z
M 3481 434 
Q 3481 -459 3084 -895 
Q 2688 -1331 1869 -1331 
Q 1566 -1331 1297 -1286 
Q 1028 -1241 775 -1147 
L 775 -588 
Q 1028 -725 1275 -790 
Q 1522 -856 1778 -856 
Q 2344 -856 2625 -561 
Q 2906 -266 2906 331 
L 2906 616 
Q 2728 306 2450 153 
Q 2172 0 1784 0 
Q 1141 0 747 490 
Q 353 981 353 1791 
Q 353 2603 747 3093 
Q 1141 3584 1784 3584 
Q 2172 3584 2450 3431 
Q 2728 3278 2906 2969 
L 2906 3500 
L 3481 3500 
L 3481 434 
z
" transform="scale(0.015625)"/>
       <path id="DejaVuSans-Oblique-6b" d="M 1172 4863 
L 1747 4863 
L 1197 2028 
L 3169 3500 
L 3916 3500 
L 1716 1825 
L 3322 0 
L 2625 0 
L 1131 1709 
L 800 0 
L 225 0 
L 1172 4863 
z
" transform="scale(0.015625)"/>
       <path id="DejaVuSans-Oblique-67" d="M 3816 3500 
L 3219 434 
Q 3047 -456 2561 -893 
Q 2075 -1331 1253 -1331 
Q 950 -1331 690 -1286 
Q 431 -1241 206 -1147 
L 313 -588 
Q 525 -725 762 -790 
Q 1000 -856 1269 -856 
Q 1816 -856 2167 -557 
Q 2519 -259 2631 300 
L 2681 563 
Q 2441 288 2122 144 
Q 1803 0 1434 0 
Q 903 0 598 351 
Q 294 703 294 1319 
Q 294 1803 478 2267 
Q 663 2731 997 3091 
Q 1219 3328 1514 3456 
Q 1809 3584 2131 3584 
Q 2484 3584 2746 3420 
Q 3009 3256 3138 2956 
L 3238 3500 
L 3816 3500 
z
M 2950 2216 
Q 2950 2641 2750 2872 
Q 2550 3103 2181 3103 
Q 1953 3103 1747 3012 
Q 1541 2922 1394 2759 
Q 1156 2491 1023 2127 
Q 891 1763 891 1375 
Q 891 944 1092 712 
Q 1294 481 1672 481 
Q 2219 481 2584 976 
Q 2950 1472 2950 2216 
z
" transform="scale(0.015625)"/>
       <path id="DejaVuSans-Oblique-68" d="M 3566 2113 
L 3156 0 
L 2578 0 
L 2988 2091 
Q 3016 2238 3031 2350 
Q 3047 2463 3047 2528 
Q 3047 2791 2881 2937 
Q 2716 3084 2419 3084 
Q 1956 3084 1617 2771 
Q 1278 2459 1178 1941 
L 800 0 
L 225 0 
L 1172 4863 
L 1747 4863 
L 1375 2950 
Q 1594 3244 1934 3414 
Q 2275 3584 2650 3584 
Q 3113 3584 3367 3334 
Q 3622 3084 3622 2631 
Q 3622 2519 3608 2391 
Q 3594 2263 3566 2113 
z
" transform="scale(0.015625)"/>
       <path id="DejaVuSans-2212" d="M 678 2272 
L 4684 2272 
L 4684 1741 
L 678 1741 
L 678 2272 
z
" transform="scale(0.015625)"/>
      </defs>
      <use xlink:href="#DejaVuSans-42" transform="translate(0 0.684375)"/>
      <use xlink:href="#DejaVuSans-6f" transform="translate(68.603516 0.684375)"/>
      <use xlink:href="#DejaVuSans-69" transform="translate(129.785156 0.684375)"/>
      <use xlink:href="#DejaVuSans-6c" transform="translate(157.568359 0.684375)"/>
      <use xlink:href="#DejaVuSans-2d" transform="translate(185.351562 0.684375)"/>
      <use xlink:href="#DejaVuSans-6f" transform="translate(221.435547 0.684375)"/>
      <use xlink:href="#DejaVuSans-66" transform="translate(282.617188 0.684375)"/>
      <use xlink:href="#DejaVuSans-66" transform="translate(317.822266 0.684375)"/>
      <use xlink:href="#DejaVuSans-20" transform="translate(353.027344 0.684375)"/>
      <use xlink:href="#DejaVuSans-67" transform="translate(384.814453 0.684375)"/>
      <use xlink:href="#DejaVuSans-61" transform="translate(448.291016 0.684375)"/>
      <use xlink:href="#DejaVuSans-73" transform="translate(509.570312 0.684375)"/>
      <use xlink:href="#DejaVuSans-20" transform="translate(561.669922 0.684375)"/>
      <use xlink:href="#DejaVuSans-72" transform="translate(593.457031 0.684375)"/>
      <use xlink:href="#DejaVuSans-61" transform="translate(634.570312 0.684375)"/>
      <use xlink:href="#DejaVuSans-74" transform="translate(695.849609 0.684375)"/>
      <use xlink:href="#DejaVuSans-65" transform="translate(735.058594 0.684375)"/>
      <use xlink:href="#DejaVuSans-20" transform="translate(796.582031 0.684375)"/>
      <use xlink:href="#DejaVuSans-2f" transform="translate(828.369141 0.684375)"/>
      <use xlink:href="#DejaVuSans-20" transform="translate(862.060547 0.684375)"/>
      <use xlink:href="#DejaVuSans-Oblique-6b" transform="translate(893.847656 0.684375)"/>
      <use xlink:href="#DejaVuSans-Oblique-67" transform="translate(951.757812 0.684375)"/>
      <use xlink:href="#DejaVuSans-Oblique-68" transform="translate(1047.704753 0.684375)"/>
      <use xlink:href="#DejaVuSans-2212" transform="translate(1118.531368 38.965625) scale(0.7)"/>
      <use xlink:href="#DejaVuSans-31" transform="translate(1177.183712 38.965625) scale(0.7)"/>
     </g>
    </g>
   </g>
   <g id="line2d_43">
    <path d="M 585.784375 277.976858 
L 588.527404 267.527618 
L 591.270434 253.191994 
L 594.013463 235.248632 
L 596.756493 215.428074 
L 602.242551 174.782364 
L 604.985581 156.985658 
L 607.72861 142.452048 
L 610.47164 132.127466 
L 613.214669 126.855183 
L 615.957699 126.862516 
L 618.700728 132.134799 
L 621.443757 142.569373 
L 624.186787 156.992991 
L 626.929816 175.053677 
L 629.672846 194.903567 
L 632.415875 215.699388 
L 635.158904 235.534612 
L 637.901934 253.404645 
L 640.644963 267.996917 
L 643.387993 278.424159 
L 646.131022 283.703775 
L 648.874051 283.857764 
L 651.617081 278.468156 
L 654.36011 268.165572 
L 657.10314 253.595298 
L 659.846169 235.60794 
L 662.589199 215.787381 
L 665.332228 195.101552 
L 668.075257 175.29566 
L 670.818287 157.315634 
L 673.561316 142.701364 
L 676.304346 132.325452 
L 679.047375 127.0825 
L 681.790404 126.950509 
L 684.533434 132.47944 
L 687.276463 142.672032 
L 690.019493 157.344965 
L 692.762522 175.156336 
L 698.248581 215.699388 
L 700.99161 235.673935 
L 703.73464 253.536636 
L 706.477669 268.194903 
L 709.220699 278.534151 
L 711.963728 283.8211 
L 714.706757 283.931092 
L 717.449787 278.446157 
L 720.192816 268.297562 
L 722.935846 253.609964 
L 725.678875 235.864588 
L 733.907963 175.171002 
L 736.650993 157.374296 
L 739.394022 142.686698 
L 742.137051 132.486773 
L 744.880081 127.0825 
L 747.62311 127.0825 
L 750.36614 132.442776 
L 753.109169 142.650034 
L 755.852199 157.344965 
L 758.595228 175.171002 
L 766.824316 235.761928 
L 769.567346 253.529303 
L 772.310375 268.158239 
L 775.053404 278.40216 
L 777.796434 283.90176 
L 780.539463 283.791768 
L 783.282493 278.63681 
L 786.025522 268.216901 
L 788.768551 253.719956 
L 791.511581 235.783927 
L 799.740669 175.039012 
L 802.483699 157.366964 
L 805.226728 142.767359 
L 807.969757 132.545436 
L 810.712787 127.075167 
L 813.455816 127.075167 
L 816.198846 132.310786 
L 818.941875 142.708696 
L 821.684904 157.168978 
L 824.427934 175.251663 
L 827.170963 195.04289 
L 829.913993 215.875375 
L 832.657022 235.717932 
L 835.400051 253.646628 
L 838.143081 268.2389 
L 840.88611 278.475488 
L 843.62914 283.916426 
L 846.372169 283.923759 
L 849.115199 278.600146 
L 851.858228 268.297562 
L 854.601257 253.712623 
L 857.344287 235.732597 
L 860.087316 215.897373 
L 862.830346 195.064888 
L 865.573375 175.317658 
L 868.316404 157.322967 
L 871.059434 142.84802 
L 873.802463 132.435444 
L 876.545493 127.053168 
L 879.288522 127.053168 
L 882.031551 132.457442 
L 884.774581 142.716029 
L 887.51761 157.41096 
L 890.26064 175.236997 
L 898.489728 235.644604 
L 901.232757 253.683292 
L 903.975787 268.224234 
L 906.718816 278.710138 
L 909.461846 283.938424 
L 912.204875 283.938424 
L 914.947904 278.541484 
L 917.690934 268.312228 
L 920.433963 253.595298 
L 923.176993 235.864588 
L 931.406081 175.24433 
L 934.14911 157.271637 
L 936.89214 142.752693 
L 939.635169 132.428111 
L 942.378199 127.111831 
L 945.121228 127.119164 
L 947.864257 132.486773 
L 950.607287 142.708696 
L 953.350316 157.425626 
L 956.093346 175.134338 
L 964.322434 235.864588 
L 967.065463 253.65396 
L 969.808493 268.2389 
L 972.551522 278.563482 
L 975.294551 283.975088 
L 978.037581 283.923759 
L 980.78061 278.666141 
L 983.52364 268.304895 
L 986.266669 253.661293 
L 989.009699 235.827924 
L 997.238787 175.06101 
L 999.981816 157.46229 
L 1002.724846 142.74536 
L 1005.467875 132.464775 
L 1008.210904 127.03117 
L 1010.953934 127.038503 
L 1013.696963 132.332784 
L 1016.439993 142.767359 
L 1019.183022 157.27897 
L 1021.926051 175.310325 
L 1024.669081 195.167548 
L 1030.15514 235.813258 
L 1032.898169 253.595298 
L 1035.641199 268.31956 
L 1038.384228 278.431492 
L 1041.127257 284.011752 
L 1043.870287 283.850431 
L 1046.613316 278.732136 
L 1049.356346 268.282896 
L 1052.099375 253.661293 
L 1054.842404 235.798592 
L 1063.071493 175.266328 
L 1065.814522 157.271637 
L 1068.557551 142.818688 
L 1071.300581 132.435444 
L 1073.660625 127.842503 
L 1073.660625 127.842503 
" clip-path="url(#p55e7a15324)" style="fill: none; stroke: #ed6925; stroke-width: 1.5; stroke-linecap: square"/>
   </g>
   <g id="line2d_44">
    <path d="M 585.784375 205.213484 
L 599.499522 205.301477 
L 722.935846 205.521461 
L 761.338257 205.528794 
L 1073.660625 205.566482 
L 1073.660625 205.566482 
" clip-path="url(#p55e7a15324)" style="fill: none; stroke: #781c6d; stroke-width: 1.5; stroke-linecap: square"/>
   </g>
   <g id="patch_9">
    <path d="M 585.784375 379.158906 
L 585.784375 12.518906 
" style="fill: none; stroke: #000000; stroke-width: 0.8; stroke-linejoin: miter; stroke-linecap: square"/>
   </g>
   <g id="patch_10">
    <path d="M 1052.099375 379.158906 
L 1052.099375 12.518906 
" style="fill: none; stroke: #000000; stroke-width: 0.8; stroke-linejoin: miter; stroke-linecap: square"/>
   </g>
   <g id="patch_11">
    <path d="M 585.784375 379.158906 
L 1052.099375 379.158906 
" style="fill: none; stroke: #000000; stroke-width: 0.8; stroke-linejoin: miter; stroke-linecap: square"/>
   </g>
   <g id="patch_12">
    <path d="M 585.784375 12.518906 
L 1052.099375 12.518906 
" style="fill: none; stroke: #000000; stroke-width: 0.8; stroke-linejoin: miter; stroke-linecap: square"/>
   </g>
   <g id="legend_2">
    <g id="patch_13">
     <path d="M 797.546563 44.268281 
L 1042.299375 44.268281 
Q 1045.099375 44.268281 1045.099375 41.468281 
L 1045.099375 22.318906 
Q 1045.099375 19.518906 1042.299375 19.518906 
L 797.546563 19.518906 
Q 794.746563 19.518906 794.746563 22.318906 
L 794.746563 41.468281 
Q 794.746563 44.268281 797.546563 44.268281 
z
" style="fill: #ffffff; opacity: 0.8; stroke: #cccccc; stroke-linejoin: miter"/>
    </g>
    <g id="line2d_45">
     <path d="M 800.346563 30.856719 
L 814.346563 30.856719 
L 828.346563 30.856719 
" style="fill: none; stroke: #ed6925; stroke-width: 1.5; stroke-linecap: square"/>
    </g>
    <g id="text_43">
     <!-- Wall model -->
     <g transform="translate(839.546563 35.756719) scale(0.14 -0.14)">
      <defs>
       <path id="DejaVuSans-64" d="M 2906 2969 
L 2906 4863 
L 3481 4863 
L 3481 0 
L 2906 0 
L 2906 525 
Q 2725 213 2448 61 
Q 2172 -91 1784 -91 
Q 1150 -91 751 415 
Q 353 922 353 1747 
Q 353 2572 751 3078 
Q 1150 3584 1784 3584 
Q 2172 3584 2448 3432 
Q 2725 3281 2906 2969 
z
M 947 1747 
Q 947 1113 1208 752 
Q 1469 391 1925 391 
Q 2381 391 2643 752 
Q 2906 1113 2906 1747 
Q 2906 2381 2643 2742 
Q 2381 3103 1925 3103 
Q 1469 3103 1208 2742 
Q 947 2381 947 1747 
z
" transform="scale(0.015625)"/>
      </defs>
      <use xlink:href="#DejaVuSans-57"/>
      <use xlink:href="#DejaVuSans-61" transform="translate(92.501953 0)"/>
      <use xlink:href="#DejaVuSans-6c" transform="translate(153.78125 0)"/>
      <use xlink:href="#DejaVuSans-6c" transform="translate(181.564453 0)"/>
      <use xlink:href="#DejaVuSans-20" transform="translate(209.347656 0)"/>
      <use xlink:href="#DejaVuSans-6d" transform="translate(241.134766 0)"/>
      <use xlink:href="#DejaVuSans-6f" transform="translate(338.546875 0)"/>
      <use xlink:href="#DejaVuSans-64" transform="translate(399.728516 0)"/>
      <use xlink:href="#DejaVuSans-65" transform="translate(463.205078 0)"/>
      <use xlink:href="#DejaVuSans-6c" transform="translate(524.728516 0)"/>
     </g>
    </g>
    <g id="line2d_46">
     <path d="M 930.89875 30.856719 
L 944.89875 30.856719 
L 958.89875 30.856719 
" style="fill: none; stroke: #781c6d; stroke-width: 1.5; stroke-linecap: square"/>
    </g>
    <g id="text_44">
     <!-- Simplified -->
     <g transform="translate(970.09875 35.756719) scale(0.14 -0.14)">
      <defs>
       <path id="DejaVuSans-53" d="M 3425 4513 
L 3425 3897 
Q 3066 4069 2747 4153 
Q 2428 4238 2131 4238 
Q 1616 4238 1336 4038 
Q 1056 3838 1056 3469 
Q 1056 3159 1242 3001 
Q 1428 2844 1947 2747 
L 2328 2669 
Q 3034 2534 3370 2195 
Q 3706 1856 3706 1288 
Q 3706 609 3251 259 
Q 2797 -91 1919 -91 
Q 1588 -91 1214 -16 
Q 841 59 441 206 
L 441 856 
Q 825 641 1194 531 
Q 1563 422 1919 422 
Q 2459 422 2753 634 
Q 3047 847 3047 1241 
Q 3047 1584 2836 1778 
Q 2625 1972 2144 2069 
L 1759 2144 
Q 1053 2284 737 2584 
Q 422 2884 422 3419 
Q 422 4038 858 4394 
Q 1294 4750 2059 4750 
Q 2388 4750 2728 4690 
Q 3069 4631 3425 4513 
z
" transform="scale(0.015625)"/>
       <path id="DejaVuSans-70" d="M 1159 525 
L 1159 -1331 
L 581 -1331 
L 581 3500 
L 1159 3500 
L 1159 2969 
Q 1341 3281 1617 3432 
Q 1894 3584 2278 3584 
Q 2916 3584 3314 3078 
Q 3713 2572 3713 1747 
Q 3713 922 3314 415 
Q 2916 -91 2278 -91 
Q 1894 -91 1617 61 
Q 1341 213 1159 525 
z
M 3116 1747 
Q 3116 2381 2855 2742 
Q 2594 3103 2138 3103 
Q 1681 3103 1420 2742 
Q 1159 2381 1159 1747 
Q 1159 1113 1420 752 
Q 1681 391 2138 391 
Q 2594 391 2855 752 
Q 3116 1113 3116 1747 
z
" transform="scale(0.015625)"/>
      </defs>
      <use xlink:href="#DejaVuSans-53"/>
      <use xlink:href="#DejaVuSans-69" transform="translate(63.476562 0)"/>
      <use xlink:href="#DejaVuSans-6d" transform="translate(91.259766 0)"/>
      <use xlink:href="#DejaVuSans-70" transform="translate(188.671875 0)"/>
      <use xlink:href="#DejaVuSans-6c" transform="translate(252.148438 0)"/>
      <use xlink:href="#DejaVuSans-69" transform="translate(279.931641 0)"/>
      <use xlink:href="#DejaVuSans-66" transform="translate(307.714844 0)"/>
      <use xlink:href="#DejaVuSans-69" transform="translate(342.919922 0)"/>
      <use xlink:href="#DejaVuSans-65" transform="translate(370.703125 0)"/>
      <use xlink:href="#DejaVuSans-64" transform="translate(432.226562 0)"/>
     </g>
    </g>
   </g>
  </g>
 </g>
 <defs>
  <clipPath id="p5fc3b257eb">
   <rect x="49.564375" y="12.518906" width="466.315" height="366.64"/>
  </clipPath>
  <clipPath id="p55e7a15324">
   <rect x="585.784375" y="12.518906" width="466.315" height="366.64"/>
  </clipPath>
 </defs>
</svg>
